<svg xmlns="http://www.w3.org/2000/svg" width="120.717" height="92.712" viewBox="0 0 120.717 92.712">
  <g id="Group_1430" data-name="Group 1430" transform="translate(120.217 92.173) rotate(180)">
    <g id="Group_1416" data-name="Group 1416" transform="translate(47.447 27.149)">
      <path id="Path_2944" data-name="Path 2944" d="M34.4,13.951C37.774,3.422,46.642-1.093,53.415,6.2c9.112,9.832-.564,17.679-7.5,21.246,10.3,1.6,20.907,9.879,11.306,21.138-4.743,5.555-13.893.869-20.288-4.686.808,6.588.4,17.454-7.093,19.914C16.269,68.268,15.8,50.428,20.251,42.828,13.618,46.186.093,43.475,0,34.125-.11,23.71,12.936,22.622,19.446,23.152,14.458,18.767,8.067,8.1,18.066,1.446,25.314-3.389,32.489,4.693,34.4,13.951Z" fill="#ffd800" stroke="#fff" stroke-width="1"/>
      <path id="Path_2945" data-name="Path 2945" d="M8,.118A6.747,6.747,0,1,0,13.38,8,6.752,6.752,0,0,0,8,.118Z" transform="translate(24.363 24.603)" fill="#fff"/>
    </g>
    <g id="Group_1418" data-name="Group 1418" transform="translate(37.22 64.027)">
      <path id="Path_2948" data-name="Path 2948" d="M11.506,4.667c1.129-3.519,4.093-5.032,6.36-2.59,3.047,3.288-.19,5.91-2.5,7.1,3.44.536,6.988,3.307,3.779,7.073-1.585,1.855-4.645.285-6.788-1.569.273,2.2.136,5.84-2.368,6.658-4.54,1.493-4.7-4.477-3.209-7.016C4.556,15.45.032,14.54,0,11.414-.035,7.933,4.331,7.565,6.5,7.742,4.838,6.278,2.7,2.711,6.043.485,8.469-1.135,10.869,1.569,11.506,4.667Z" fill="#f99b1c" stroke="#fff" stroke-width="1"/>
      <path id="Path_2949" data-name="Path 2949" d="M2.669.04a2.257,2.257,0,1,0,1.8,2.638A2.249,2.249,0,0,0,2.669.04Z" transform="translate(8.152 8.229)" fill="#fff"/>
    </g>
    <g id="Group_1419" data-name="Group 1419" transform="translate(50.291 29.258)">
      <path id="Path_2950" data-name="Path 2950" d="M8.136,3.3c.8-2.492,2.895-3.557,4.5-1.833,2.156,2.324-.136,4.182-1.772,5.025,2.435.38,4.946,2.337,2.673,5-1.122,1.313-3.285.206-4.8-1.11.19,1.56.092,4.128-1.68,4.711-3.209,1.053-3.32-3.167-2.267-4.965C3.221,10.921.022,10.284,0,8.071c-.022-2.46,3.06-2.72,4.6-2.6C3.421,4.438,1.909,1.917,4.274.341,5.986-.8,7.685,1.109,8.136,3.3Z" transform="translate(0 0)" fill="#f99b1c" stroke="#fff" stroke-width="1"/>
      <path id="Path_2951" data-name="Path 2951" d="M1.889.028A1.6,1.6,0,1,0,3.164,1.895,1.593,1.593,0,0,0,1.889.028Z" transform="translate(5.764 5.818)" fill="#fff"/>
    </g>
    <g id="Group_1420" data-name="Group 1420" transform="translate(0 42.347)">
      <path id="Path_2952" data-name="Path 2952" d="M23.2,9.411c2.276-7.1,8.259-10.149,12.825-5.225,6.148,6.63-.377,11.918-5.051,14.328,6.947,1.081,14.1,6.661,7.622,14.255-3.2,3.747-9.369.587-13.681-3.158.545,4.439.269,11.766-4.784,13.424-9.16,3.006-9.474-9.023-6.468-14.15C9.189,31.152.064,29.322,0,23.013c-.067-7.02,8.728-7.755,13.113-7.4C9.756,12.655,5.441,5.467,12.185.975,17.074-2.285,21.912,3.166,23.2,9.411Z" transform="translate(0 0)" fill="#ffd800" stroke="#fff" stroke-width="1"/>
      <path id="Path_2953" data-name="Path 2953" d="M5.4.079A4.552,4.552,0,1,0,9.027,5.4,4.559,4.559,0,0,0,5.4.079Z" transform="translate(16.591 16.625)" fill="#fff"/>
    </g>
    <g id="Group_1423" data-name="Group 1423" transform="translate(106.498 8.071)">
      <path id="Path_2958" data-name="Path 2958" d="M7.441,3.017C8.171.741,10.089-.236,11.55,1.343c1.972,2.124-.121,3.821-1.62,4.591,2.229.352,4.524,2.14,2.448,4.575-1.027,1.2-3.006.19-4.388-1.014.174,1.427.086,3.776-1.535,4.306-2.939.964-3.037-2.895-2.074-4.537C2.949,9.989.019,9.406,0,7.38-.019,5.129,2.8,4.891,4.207,5.008c-1.078-.948-2.463-3.253-.3-4.7C5.472-.733,7.026,1.017,7.441,3.017Z" fill="#f99b1c" stroke="#fff" stroke-width="1"/>
      <path id="Path_2959" data-name="Path 2959" d="M1.725.025A1.46,1.46,0,1,0,2.892,1.731,1.455,1.455,0,0,0,1.725.025Z" transform="translate(5.273 5.322)" fill="#fff"/>
    </g>
    <g id="Group_1424" data-name="Group 1424" transform="translate(67.905 0)">
      <path id="Path_2960" data-name="Path 2960" d="M15.663,6.354C17.2,1.557,21.24-.5,24.325,2.825c4.147,4.477-.257,8.047-3.415,9.67,4.692.736,9.521,4.505,5.146,9.629-2.156,2.53-6.322.393-9.239-2.137.371,3,.187,7.948-3.228,9.068C7.407,31.084,7.2,22.961,9.223,19.5,6.2,21.03.042,19.8,0,15.535c-.048-4.737,5.891-5.238,8.855-5C6.585,8.545,3.675,3.69,8.228.659,11.525-1.544,14.8,2.137,15.663,6.354Z" fill="#ffd800" stroke="#fff" stroke-width="1"/>
      <path id="Path_2961" data-name="Path 2961" d="M3.64.055A3.072,3.072,0,1,0,6.091,3.64,3.066,3.066,0,0,0,3.64.055Z" transform="translate(11.097 11.204)" fill="#fff"/>
    </g>
    <g id="Group_1425" data-name="Group 1425" transform="translate(95.907 50.223)">
      <path id="Path_2962" data-name="Path 2962" d="M9.325,3.78c.916-2.85,3.313-4.077,5.152-2.1,2.467,2.663-.152,4.791-2.032,5.758,2.79.431,5.666,2.676,3.063,5.726-1.284,1.509-3.76.238-5.5-1.265.222,1.782.111,4.727-1.921,5.393-3.675,1.208-3.8-3.63-2.6-5.691-1.8.913-5.463.177-5.491-2.356C-.022,6.424,3.51,6.129,5.273,6.275,3.922,5.086,2.188,2.195,4.9.391,6.864-.916,8.8,1.269,9.325,3.78Z" transform="translate(0 0)" fill="#f99b1c" stroke="#fff" stroke-width="1"/>
      <path id="Path_2963" data-name="Path 2963" d="M2.169.032A1.828,1.828,0,1,0,3.63,2.169,1.83,1.83,0,0,0,2.169.032Z" transform="translate(6.604 6.668)" fill="#fff"/>
    </g>
  </g>
</svg>
