<svg xmlns="http://www.w3.org/2000/svg" xmlns:xlink="http://www.w3.org/1999/xlink" width="282.044" height="288.465" viewBox="0 0 282.044 288.465">
  <defs>
    <radialGradient id="radial-gradient" cx="0.5" cy="0.5" r="0.6" gradientTransform="translate(0.135) scale(0.729 1)" gradientUnits="objectBoundingBox">
      <stop offset="0.607" stop-color="#f99b1c"/>
      <stop offset="0.694" stop-color="#f7a119"/>
      <stop offset="0.819" stop-color="#f4b410"/>
      <stop offset="0.967" stop-color="#efd303"/>
      <stop offset="1" stop-color="#eedc00"/>
    </radialGradient>
    <radialGradient id="radial-gradient-2" cx="0.5" cy="0.5" r="0.363" gradientTransform="translate(-1.66) scale(4.321 1)" xlink:href="#radial-gradient"/>
    <radialGradient id="radial-gradient-3" cx="0.5" cy="0.5" r="0.357" gradientTransform="translate(-3.331) scale(7.662 1)" xlink:href="#radial-gradient"/>
    <radialGradient id="radial-gradient-4" cx="0.5" cy="0.5" r="0.404" gradientTransform="translate(-0.409) scale(1.817 1)" xlink:href="#radial-gradient"/>
    <radialGradient id="radial-gradient-5" cx="0.5" cy="0.5" r="0.403" gradientTransform="translate(-0.413) scale(1.826 1)" xlink:href="#radial-gradient"/>
    <radialGradient id="radial-gradient-6" cx="0.5" cy="0.5" r="0.402" gradientTransform="translate(-0.421) scale(1.842 1)" xlink:href="#radial-gradient"/>
    <radialGradient id="radial-gradient-7" cx="0.5" cy="0.5" r="0.391" gradientTransform="translate(-0.554) scale(2.108 1)" xlink:href="#radial-gradient"/>
    <radialGradient id="radial-gradient-8" cx="0.5" cy="0.5" r="0.408" gradientTransform="translate(-0.372) scale(1.745 1)" xlink:href="#radial-gradient"/>
    <radialGradient id="radial-gradient-9" cx="0.5" cy="0.5" r="0.363" gradientTransform="translate(-1.685) scale(4.37 1)" xlink:href="#radial-gradient"/>
    <radialGradient id="radial-gradient-10" cx="0.5" cy="0.5" r="0.366" gradientTransform="translate(-1.386) scale(3.771 1)" xlink:href="#radial-gradient"/>
    <radialGradient id="radial-gradient-11" cx="0.5" cy="0.5" r="0.389" gradientTransform="translate(-0.587) scale(2.174 1)" xlink:href="#radial-gradient"/>
    <radialGradient id="radial-gradient-12" cx="0.5" cy="0.5" r="0.849" gradientTransform="translate(0.271) scale(0.458 1)" xlink:href="#radial-gradient"/>
    <radialGradient id="radial-gradient-13" cx="0.5" cy="0.5" r="0.354" gradientTransform="translate(-8.718) scale(18.436 1)" xlink:href="#radial-gradient"/>
    <radialGradient id="radial-gradient-14" cx="0.5" cy="0.5" r="0.36" gradientTransform="translate(-2.038) scale(5.076 1)" xlink:href="#radial-gradient"/>
    <radialGradient id="radial-gradient-15" cx="0.5" cy="0.5" r="0.36" gradientTransform="translate(-2.055) scale(5.111 1)" xlink:href="#radial-gradient"/>
    <radialGradient id="radial-gradient-18" cx="0.5" cy="0.5" r="0.457" gradientTransform="translate(-0.11) scale(1.219 1)" xlink:href="#radial-gradient"/>
    <radialGradient id="radial-gradient-19" cx="0.5" cy="0.5" r="0.387" gradientTransform="translate(-0.62) scale(2.24 1)" xlink:href="#radial-gradient"/>
    <radialGradient id="radial-gradient-20" cx="0.5" cy="0.5" r="0.419" gradientTransform="translate(-0.287) scale(1.573 1)" xlink:href="#radial-gradient"/>
    <linearGradient id="linear-gradient" y1="0.5" x2="1" y2="0.5" gradientUnits="objectBoundingBox">
      <stop offset="0" stop-color="#eedc00"/>
      <stop offset="0.006" stop-color="#eed801"/>
      <stop offset="0.056" stop-color="#f2c20b"/>
      <stop offset="0.115" stop-color="#f5b012"/>
      <stop offset="0.185" stop-color="#f7a418"/>
      <stop offset="0.281" stop-color="#f89d1b"/>
      <stop offset="0.506" stop-color="#f99b1c"/>
      <stop offset="0.636" stop-color="#f99c1e"/>
      <stop offset="0.706" stop-color="#f99f26"/>
      <stop offset="0.762" stop-color="#f9a533"/>
      <stop offset="0.81" stop-color="#faae47"/>
      <stop offset="0.854" stop-color="#fab960"/>
      <stop offset="0.894" stop-color="#fbc67f"/>
      <stop offset="0.931" stop-color="#fcd6a4"/>
      <stop offset="0.966" stop-color="#fde9cd"/>
      <stop offset="0.998" stop-color="#fefdfc"/>
      <stop offset="1" stop-color="#fff"/>
    </linearGradient>
    <linearGradient id="linear-gradient-2" x1="0" y1="0.5" x2="1" y2="0.5" gradientTransform="matrix(1, 0, 0, 1, 0, 0)" xlink:href="#radial-gradient"/>
    <linearGradient id="linear-gradient-14" x1="0" y1="0.5" x2="1" y2="0.5" gradientTransform="matrix(1, 0, 0, 1, 0, 0)" xlink:href="#radial-gradient"/>
    <linearGradient id="linear-gradient-15" x1="0" y1="0.5" x2="1" y2="0.5" gradientTransform="matrix(1, 0, 0, 1, 0, 0)" xlink:href="#radial-gradient"/>
  </defs>
  <g id="Group_1429" data-name="Group 1429" transform="translate(282.044 288.465) rotate(180)">
    <g id="Group_1398" data-name="Group 1398" transform="translate(0 0)">
      <path id="Path_2869" data-name="Path 2869" d="M24.773,17.839A35.021,35.021,0,0,0,16.279,4.968C10.326-.786,5.072.071,3.8.375A5.27,5.27,0,0,0,1.01,2.19,3.569,3.569,0,0,0,1.44,7.442C4.678,10.53,8.2,5.968,5.316,3.534c-2.179-1.845-4.14.423-1.993,2.212l-.081-.023c-2.266-1.883,0-4.2,2.291-2.252,3.03,2.564-.739,7.234-4.15,3.982a3.753,3.753,0,0,1-.161-5.675A5.5,5.5,0,0,1,3.678.257c1.344-.318,6.683-1.3,12.954,4.763a31.136,31.136,0,0,1,8.36,13.2Z" transform="translate(42.909 82.035)" fill="url(#radial-gradient)"/>
      <path id="Path_2870" data-name="Path 2870" d="M28.308,124.641s-.113-8.716-4.633-22.433C19.69,90.1,11.459,70.614,9.355,65.528a132.735,132.735,0,0,1-7.94-30.616A177.058,177.058,0,0,1,.034,9.975,59,59,0,0,1,1,0,65.856,65.856,0,0,0,.189,7.162a143.717,143.717,0,0,0,.25,16.727c.273,4.573.949,9.862.949,9.862a131.327,131.327,0,0,0,8.851,33.292c2.153,5.015,9.316,22.1,13.213,32.98a104.846,104.846,0,0,1,5.4,23.342Z" transform="translate(44.555)" opacity="0.8" fill="url(#radial-gradient-2)"/>
      <path id="Path_2871" data-name="Path 2871" d="M3.819,152.492a79.273,79.273,0,0,1,2.7-25.549c2.914-10.942,7.744-28.917,9.414-34.5A131.024,131.024,0,0,0,20.01,57.867C19.632,42.66,16.234,27.86,14.489,22.56,9.482,7.358,0,0,0,0,2.947,2.892,8.287,8.544,12.72,20.147c5.218,13.663,5.938,34.383,5.938,34.383.767,13.957-2.823,29.92-4.494,35.5S6.686,114.314,3.877,126.143a102.771,102.771,0,0,0-2.142,27.428Z" transform="translate(54.998 80.809)" fill="url(#radial-gradient-3)"/>
      <path id="Path_2872" data-name="Path 2872" d="M3.156,34.96A41.527,41.527,0,0,1,.624,15.088C1.889,4.528,8.528,1.338,10.226.659a8.393,8.393,0,0,1,4.788-.29c2.528.648,4.866,2.144,4.408,5.749-.722,5.7-8.881,3.722-7.947-1.022.708-3.595,5-2.779,4.275.736l.071-.09c.764-3.7-3.9-4.329-4.646-.544-.983,5,7.555,6.89,8.318.887C19.979,2.257,17.114.551,14.4.107a8.716,8.716,0,0,0-4.147.339C8.462,1.16,1.61,4.293.277,15.416A37.15,37.15,0,0,0,3.271,35.524Z" transform="translate(60.435 56.406)" fill="url(#radial-gradient-4)"/>
      <path id="Path_2873" data-name="Path 2873" d="M63.192,127.258S74.432,94,67.26,52.972C60.475,14.145,36.952,3.931,30.967,1.84a26.77,26.77,0,0,0-16.5.088C5.945,4.949-1.731,11.066.675,24.321c3.805,20.95,31.339,11.627,27.032-5.734-3.261-13.145-17.8-9.076-14.5,3.776l-.262-.315c-3.483-13.534,12.375-17,15.811-3.154C33.294,37.186,4.437,46.28.424,24.213c-2.553-14.07,6.886-21.1,16.1-23.407a27.818,27.818,0,0,1,14.3.248c6.3,2.2,30.545,12.145,37.692,53.043,7.558,43.222-5.6,75.276-5.6,75.276Z" transform="translate(0 68.986)" fill="url(#radial-gradient-5)"/>
      <path id="Path_2874" data-name="Path 2874" d="M1.457,21.441a27.437,27.437,0,0,1-.93-12.43C1.551,2.485,5.509.7,6.518.333A4.59,4.59,0,0,1,9.319.3c1.457.479,2.779,1.48,2.412,3.708-.577,3.522-5.278,2.045-4.605-.877C7.637.916,10.119,1.552,9.6,3.717l.043-.053c.547-2.279-2.155-2.812-2.694-.48-.71,3.077,4.216,4.511,4.825.8C12.164,1.621,10.539.473,8.966.113A4.775,4.775,0,0,0,6.54.2C5.478.589,1.395,2.33.315,9.2a24.519,24.519,0,0,0,1.2,12.593Z" transform="translate(56.896 154.157)" fill="url(#radial-gradient-6)"/>
      <path id="Path_2875" data-name="Path 2875" d="M15.575,40.31a45.154,45.154,0,0,0,3.359-21.285C18.06,7.226,11.407,2.464,9.7,1.4A8.671,8.671,0,0,0,4.823.171C2.218.4-.227,1.593.1,5.627c.516,6.38,8.921,5.765,8.15.394-.581-4.069-5-3.995-4.391-.009L3.79,5.9c-.634-4.2,4.15-4,4.762.287C9.361,11.851.571,12.3.027,5.576-.318,1.295,2.673-.03,5.465,0A9.024,9.024,0,0,1,9.682,1.163c1.8,1.119,8.671,5.855,9.6,18.287C20.252,32.59,15.434,40.9,15.434,40.9Z" transform="translate(39.698 160.36)" fill="url(#radial-gradient-7)"/>
      <path id="Path_2876" data-name="Path 2876" d="M20.362,35.892s-1.345-6.239-6.628-15.169C9.071,12.837-.58-.7.027.028c2.508,3,8.806,12.148,13.227,19.167a71.4,71.4,0,0,1,7.315,15.67Z" transform="translate(34.311 129.834)" fill="url(#radial-gradient-8)"/>
      <path id="Path_2877" data-name="Path 2877" d="M22.1,96.871a51.056,51.056,0,0,1-1.527-16.837c.49-7.53,1.321-19.911,1.688-23.785a85.238,85.238,0,0,0-1.792-22.864A87,87,0,0,0,12.334,11.8C7.12,2.984,0,0,0,0,2.291,1.316,6.495,3.959,10.871,10.578,16.027,18.37,19.158,31.5,19.158,31.5c2.294,8.789,2.01,19.657,1.642,23.531S19.054,71.923,18.745,80A65.9,65.9,0,0,0,20.88,97.94Z" transform="translate(37.405 140.931)" fill="url(#radial-gradient-9)"/>
      <path id="Path_2878" data-name="Path 2878" d="M0,163.741a93.993,93.993,0,0,0,4.79-30.1c-.126-12.726-.8-33.535-1.048-40.089C3.6,89.857,3.12,72.533,7.782,55.3c4.379-16.185,11.751-30.911,14.937-36.006A53.668,53.668,0,0,1,32.194,8.033,48.328,48.328,0,0,1,43.532,0,53.655,53.655,0,0,0,24.538,17.174C15.591,30.06,9.415,52.048,9.415,52.048,4.965,66.76,5.1,85.237,5.354,91.79s1.319,28.587,1.105,42.231a117.7,117.7,0,0,1-4.994,30.15Z" transform="translate(56.401 52.956)" fill="url(#radial-gradient-10)"/>
      <path id="Path_2879" data-name="Path 2879" d="M7.445,40.9A42.623,42.623,0,0,1,.4,20.345C-.5,8.63,6.058,3.179,7.767,1.933A10.019,10.019,0,0,1,12.932.161c2.9-.076,5.776.817,6.052,4.825.442,6.338-8.891,6.7-8.895,1.325,0-4.069,4.86-4.506,4.826-.513l.057-.116c.036-4.205-5.193-3.458-5.188.832,0,5.666,9.735,5.089,9.271-1.586C18.759.671,15.264-.285,12.2.067A10.417,10.417,0,0,0,7.749,1.7c-1.8,1.31-8.6,6.76-7.659,19.1,1,13.041,7.6,20.669,7.6,20.669Z" transform="translate(29.778 92.854)" fill="url(#radial-gradient-11)"/>
      <path id="Path_2880" data-name="Path 2880" d="M10.117,4.569A10.694,10.694,0,0,0,6.156.831,5,5,0,0,0,1.193.6a2.515,2.515,0,0,0-.939,1A1.262,1.262,0,0,0,.726,3.48c1.4.758,2.451-1.335,1.225-1.891-.929-.425-1.532.64-.617,1.045l-.033,0c-.964-.429-.251-1.544.727-1.1,1.293.589.152,2.75-1.322,1.952a1.351,1.351,0,0,1-.4-2.068A2.587,2.587,0,0,1,1.14.575,5.1,5.1,0,0,1,6.293.807a9.517,9.517,0,0,1,3.928,3.877Z" transform="translate(25.104 126.581)" fill="url(#radial-gradient-12)"/>
      <path id="Path_2881" data-name="Path 2881" d="M1.381,29.291a32.391,32.391,0,0,1-.287-5.267c.045-2.868.36-7.513.436-8.727a49.591,49.591,0,0,0-.175-7.214C1.18,6.276.843,3.928.532,2.293.259.853,0,0,0,0,.153.564.279,1.077.4,1.642c.279,1.339.481,2.711.642,3.875.149,1.062.271,2.3.271,2.3a48.68,48.68,0,0,1,.16,7.848c-.084,1.2-.353,5.269-.434,7.853A40.366,40.366,0,0,0,1.257,29Z" transform="translate(48.708 116.796)" opacity="0.8" fill="url(#radial-gradient-13)"/>
      <path id="Path_2882" data-name="Path 2882" d="M5.951,31.464a28.707,28.707,0,0,0-1.242-5.221c-.741-2.21-1.964-5.841-2.364-6.968A47.233,47.233,0,0,1,.614,12.216,49.874,49.874,0,0,1,0,4.863,11.708,11.708,0,0,1,.918,0,12.952,12.952,0,0,0,.125,4.339a45.974,45.974,0,0,0,.53,7.171,43.454,43.454,0,0,0,1.814,7.245c.4,1.125,1.764,4.891,2.527,7.284a37.325,37.325,0,0,1,1.24,5.618Z" transform="translate(49.723 136.791)" fill="url(#radial-gradient-14)"/>
      <path id="Path_2883" data-name="Path 2883" d="M1.084,72.818a38.492,38.492,0,0,1,2.7-12.2c2.021-5.222,5.363-13.805,6.484-16.47a64.58,64.58,0,0,0,3.861-16.512,63.745,63.745,0,0,0-.825-16.859A20.45,20.45,0,0,0,7.382,0a21.7,21.7,0,0,1,5.182,9.623c1.837,6.526,1.08,16.419,1.08,16.419a59.33,59.33,0,0,1-4.117,16.95c-1.121,2.666-4.984,11.595-7,17.243A49.45,49.45,0,0,0,0,73.331Z" transform="translate(58.074 131.19)" fill="url(#radial-gradient-15)"/>
      <path id="Path_2884" data-name="Path 2884" d="M1.381,29.291a32.391,32.391,0,0,1-.287-5.267c.045-2.868.36-7.513.436-8.727a49.591,49.591,0,0,0-.175-7.214C1.18,6.276.843,3.928.532,2.293.259.853,0,0,0,0,.153.564.279,1.077.4,1.642c.279,1.339.481,2.711.642,3.875.149,1.062.271,2.3.271,2.3a48.68,48.68,0,0,1,.16,7.848c-.084,1.2-.353,5.269-.434,7.853A40.366,40.366,0,0,0,1.257,29Z" transform="translate(48.708 116.796)" opacity="0.8" fill="url(#radial-gradient-13)"/>
      <path id="Path_2885" data-name="Path 2885" d="M5.951,31.464a28.707,28.707,0,0,0-1.242-5.221c-.741-2.21-1.964-5.841-2.364-6.968A47.233,47.233,0,0,1,.614,12.216,49.874,49.874,0,0,1,0,4.863,11.708,11.708,0,0,1,.918,0,12.952,12.952,0,0,0,.125,4.339a45.974,45.974,0,0,0,.53,7.171,43.454,43.454,0,0,0,1.814,7.245c.4,1.125,1.764,4.891,2.527,7.284a37.325,37.325,0,0,1,1.24,5.618Z" transform="translate(49.723 136.791)" fill="url(#radial-gradient-14)"/>
      <path id="Path_2886" data-name="Path 2886" d="M45.4,54.852a74.356,74.356,0,0,0-7.617-34.6C29.412,3.067,16.5.744,13.282.389A14.232,14.232,0,0,0,5.164,2.1c-3.809,2.254-6.8,5.846-3.9,11.7,4.588,9.259,16.946,2.179,12.576-5.376C10.535,2.708,3.9,6.054,7.19,11.634l-.17-.118C3.55,5.638,10.915,2.437,14.4,8.464c4.605,7.958-8.436,15.069-13.27,5.317-3.08-6.219.659-10.409,4.9-12.406A14.813,14.813,0,0,1,13.113.042c3.392.377,16.622,2.494,25.44,20.6,9.324,19.128,6.993,35.215,6.993,35.215Z" transform="translate(12.137 158.845)" fill="url(#radial-gradient-18)"/>
      <path id="Path_2887" data-name="Path 2887" d="M2.327,15.016A16.985,16.985,0,0,1,.123,7.23C-.049,2.871,2.3,1.009,2.908.589A3.256,3.256,0,0,1,4.725.057,1.856,1.856,0,0,1,6.773,1.99C6.85,4.348,3.6,4.26,3.663,2.268,3.711.761,5.407.715,5.348,2.195l.022-.043C5.432.6,3.6.747,3.555,2.336,3.488,4.435,6.88,4.453,6.8,1.972A1.971,1.971,0,0,0,4.474,0,3.382,3.382,0,0,0,2.905.5C2.263.942-.17,2.8.009,7.392a15.1,15.1,0,0,0,2.4,7.839Z" transform="translate(44.994 175.953)" fill="url(#radial-gradient-19)"/>
      <path id="Path_2888" data-name="Path 2888" d="M14.772,24.141a29.871,29.871,0,0,0-.55-14.228C12.135,2.521,7.194.684,5.944.314a5.7,5.7,0,0,0-3.331.1C.947,1.035-.492,2.242.238,4.766,1.395,8.754,6.786,6.834,5.6,3.533c-.9-2.5-3.765-1.648-2.86.8l-.057-.062C1.723,1.7,4.864.956,5.812,3.588,7.068,7.061,1.4,8.948.187,4.746-.589,2.07,1.187.677,3.008.19A5.977,5.977,0,0,1,5.9.165c1.313.391,6.4,2.17,8.6,9.956a26.586,26.586,0,0,1,.257,14.427Z" transform="translate(33.768 183.428)" fill="url(#radial-gradient-20)"/>
      <path id="Path_2889" data-name="Path 2889" d="M22.1,96.871a51.056,51.056,0,0,1-1.527-16.837c.49-7.53,1.321-19.911,1.688-23.785a85.238,85.238,0,0,0-1.792-22.864A87,87,0,0,0,12.334,11.8C7.12,2.984,0,0,0,0,2.291,1.316,6.495,3.959,10.871,10.578,16.027,18.37,19.158,31.5,19.158,31.5c2.294,8.789,2.01,19.657,1.642,23.531S19.054,71.923,18.745,80A65.9,65.9,0,0,0,20.88,97.94Z" transform="translate(37.405 140.931)" fill="url(#radial-gradient-9)"/>
    </g>
    <g id="Group_1399" data-name="Group 1399" transform="translate(30.415 193.351)">
      <path id="Path_2890" data-name="Path 2890" d="M25.8,54.5a14.8,14.8,0,0,0-2.435-.109c-1.82.071-2.891-.725-3.886-.994a16.475,16.475,0,0,0-3.756-.525c-1.079.042-4.621.9-5.77.642-.377-.082-1.978-.247-.372-.456.242-.033.116-.488-.082-.481-.538.022-1.8-1.234-.882-1.854.285-.194.1-.884-.437-.862s-.839-2.4-.321-2.956-.7-.515-1.325-1.1c0,0-.439-.859-.05-1.282s-1.053-.969-1.053-.969l.422-.456-.431-1.5.42-.456s-.849-1.023-1.166-1.314.5-.076.084-.465a4.534,4.534,0,0,1-1.026-2.9s.836-.2-.039-1.012-.8-1.418-.8-1.418.47-.019-.316-1.135a3.474,3.474,0,0,1-.662-2.2s.671-.127.374-.4S1.063,27.865.818,27.638c0,0,.612.11-.031-.808A5.524,5.524,0,0,1,0,23.989s1.025.265.755-.533-.929-3.878-.569-4.974c0,0,.859.338,1.214-.048s-.233-.767-.285-2.114c0,0,.408.053.2-1.018a13.152,13.152,0,0,1-.256-2.186s1.5.716,1.438-.057a5.541,5.541,0,0,1,.14-2.176c.3-1.057.05-.992.05-.992s1.342.375,1.494.211-.277-.752-.29-1,.2-1.2.4-1.208.915.347.9-.036a3.451,3.451,0,0,1,.016-2.431s.276-.718.124-.86.95.143.936-.183-.538-1.654-.739-1.648a1.351,1.351,0,0,0,.263-1.291C5.537.71,5.852.7,5.852.7A1.8,1.8,0,0,1,5.894,0,10.477,10.477,0,0,1,7.242.552c.14.132.172.095.366-.116s-.11.308.825.374A1.73,1.73,0,0,1,9.766,1.8c.141.13.584-.045.563-.561s-.1.318.708.285A5.47,5.47,0,0,1,13.6,2.552c.281.259.394.279.507-.29s.206-.459.2-.66.171.33.642.312a3.674,3.674,0,0,1,2.64,1.27c.735.983.774-.522.766-.729a5.793,5.793,0,0,1,1.665,1.352c.22.44.626-.091.612-.474s.183-.481.355-.665a25.559,25.559,0,0,1,2.973,1.792c.56.519,1.1,1.342,1.58,1.784s.491-.064.479-.355.524-.426.519-.584A6.418,6.418,0,0,0,27.9,6.444a2.684,2.684,0,0,1,1.18,1.369c.008.2.592.18.584,0a4.674,4.674,0,0,1,1,1.288c.132.468-.071,1.037.153,1.029s.454-.468.915-.755.259-.281.259-.281,1.756,1.73,1.9,2.6a1.363,1.363,0,0,1,.358-.059c.157-.006-.076.668.194.918s-.181-.017,0,.6,0,.822.355.436a8.567,8.567,0,0,1,.808-.662c.15-.163.031.246.578.99a5.555,5.555,0,0,1,1.091,2.544c.028.718-.243,1.271-.04,1.262s.363-.183.6-.44.392-.155.494-.267a5.12,5.12,0,0,1,.811,2.86c-.113,1.105.574-.034.778-.256a23.245,23.245,0,0,1,.44,2.615c.029.763.453.071.453.071s.273.056-.053,1.51.412.186.412.186a.743.743,0,0,1,.732-.3,3.262,3.262,0,0,0,.153,1.074,3.529,3.529,0,0,1,.126,2.02c-.091.392.262.394.35.3s-.025.539-.015.766-.518,1.146-.1.949a1.418,1.418,0,0,0,.634-.431s.622,3.091-.225,4.554c-.353.609.262.113.262.113a.706.706,0,0,0,.409-.184,16.51,16.51,0,0,1-.217,2.462l.239-.189s-.353,1.318-.493,1.73.415.276.611.065-.07,2.276-.546,3.283.212.262.288.18a5.272,5.272,0,0,1-1.38,2.406,3.128,3.128,0,0,1,.093.6c.011.313-.763,1.221-.553,1.417s.439.274.524.181-1.274,1.592-1.7,2.046-.2.662-.629,1.128-.339.51.019.493-2.046,2.331-2.617,2.668.019.451.019.451a23.364,23.364,0,0,1-3.175,1.656c-.428.017-.1.3-.1.3s-2.66.983-3.012.66.234.215.1.22-2.821-.2-3.02-.713-1.035-.612-1.035-.612A3.975,3.975,0,0,1,25.8,54.5Z" stroke="#f9a01b" stroke-width="1" fill="url(#linear-gradient)"/>
      <path id="Path_2891" data-name="Path 2891" d="M20.666,53.251a9.2,9.2,0,0,0,.254-1.634,10.453,10.453,0,0,0-.167-2.961,1.384,1.384,0,0,1-.088-.558,13.623,13.623,0,0,0-.392-2.528,18.838,18.838,0,0,0-.414-1.919,11.456,11.456,0,0,1-.408-1.243c-.046-.121-.124-.752-.291-1.5-.293-1.316-.854-3-.854-3s-1.06-2.917-1.31-3.666-.826-1.688-.836-1.958a28.383,28.383,0,0,0-1.135-2.655c-.186-.431-.789-2.011-1.121-2.756s-1.6-3.768-2.217-5.23c-.406-.964-1.287-3.007-2.059-4.613-.4-.828-.812-1.536-1.017-1.931-.6-1.156-2.007-3.818-2.263-4.28S4.512,7.467,4.258,6.986.77.711,0,0C0,0,.769.694,3.322,5.064c1.39,2.381,3.119,5.5,3.39,5.959S9.5,16.161,9.758,16.758c0,0,2.336,5.273,2.737,6.12s2.1,4.878,2.5,5.605,1.5,3.7,1.753,4.215,1.761,4.4,1.941,5.122.744,2.164.975,3.32S20.654,44,20.686,44.8a4.618,4.618,0,0,0,.541,2.155c.254.236.153,1.766.177,2.341s.163,2,.194,2.776.284,1.1.236,1.369c-.07.386-1.108.583-1.2.349A.821.821,0,0,1,20.666,53.251Z" transform="translate(5.917 0.043)" fill="#fff"/>
      <path id="Path_2892" data-name="Path 2892" d="M0,17.1s0,.023.346-.113A4.308,4.308,0,0,0,1.431,16.4s.22-.147.194-.132a5.621,5.621,0,0,0,.882-.592c.116-.1.574-.388.649-.493a4.571,4.571,0,0,1,.4-.375c.039-.039.26-.18.513-.374.443-.343.978-.851.978-.851s.911-.913,1.15-1.141.488-.608.588-.659a11.757,11.757,0,0,0,.8-.9c.129-.146.617-.651.839-.908S9.555,8.713,9.994,8.225c.291-.322.905-1.015,1.375-1.59.24-.3.434-.578.546-.724C12.243,5.478,13,4.48,13.125,4.3S14.063,3.02,14.2,2.837A28.775,28.775,0,0,0,16.075,0a11.921,11.921,0,0,1-1.319,2.145c-.651.946-1.516,2.147-1.643,2.33s-1.442,1.956-1.62,2.161c0,0-1.572,1.809-1.82,2.111S8.208,10.4,8.006,10.677s-1.13,1.218-1.277,1.4-1.347,1.44-1.586,1.634-.682.663-1.076.955-.9.879-1.2,1.028a1.93,1.93,0,0,0-.716.583c-.043.14-.637.369-.848.479s-.727.414-1.012.564-.226.206-.259.239c0,0-.023-.25-.028-.355C0,17.127,0,17.1,0,17.1Z" transform="translate(27.38 33.109)" fill="#fff"/>
      <path id="Path_2893" data-name="Path 2893" d="M0,27.141s.056,0,.4-.273A4.132,4.132,0,0,0,1.418,25.8l.166-.228a5.3,5.3,0,0,0,.755-1.026,7.525,7.525,0,0,0,.525-.832,4.409,4.409,0,0,1,.279-.6c.023-.06.22-.308.423-.637a15.257,15.257,0,0,0,.727-1.4s.609-1.462.777-1.824.26-.946.355-1.04A12.339,12.339,0,0,0,5.9,16.8c.079-.231.4-1.035.525-1.437s.687-1.995.953-2.765c.178-.508.546-1.6.8-2.491.13-.456.209-.884.265-1.108.163-.667.527-2.2.586-2.471s.433-1.963.5-2.241A33.588,33.588,0,0,0,10.243,0a14.092,14.092,0,0,1-.414,3.218c-.27,1.434-.662,3.269-.711,3.547s-.674,3-.781,3.316c0,0-.919,2.835-1.053,3.3s-.877,2.6-.97,3.023-.708,1.927-.784,2.215S4.68,20.9,4.5,21.224s-.473,1.065-.8,1.559-.619,1.412-.9,1.691a1.909,1.909,0,0,0-.557.97c.026.194-.58.662-.78.865S.8,27.056.535,27.328s-.254.8-.292.809c0,0-.121-.564-.157-.687S0,27.141,0,27.141Z" transform="translate(25.358 13.145)" fill="#fff"/>
      <path id="Path_2894" data-name="Path 2894" d="M0,19.924a5.655,5.655,0,0,0,.543-.377,2.945,2.945,0,0,0,.713-.78s.13-.186.115-.166a3.77,3.77,0,0,0,.527-.747,5.2,5.2,0,0,0,.361-.606,3.584,3.584,0,0,1,.189-.44c.016-.043.153-.225.295-.462a11.138,11.138,0,0,0,.5-1.015s.409-1.065.522-1.33.167-.687.234-.756a9.056,9.056,0,0,0,.318-1.025c.051-.166.263-.752.349-1.045s.453-1.451.631-2.012c.118-.37.36-1.159.524-1.811.084-.332.132-.645.166-.808.1-.481.336-1.6.372-1.8s.27-1.426.31-1.628A24.154,24.154,0,0,0,7.086,0a10.2,10.2,0,0,1-.228,2.339c-.163,1.043-.406,2.378-.437,2.581S6,7.1,5.928,7.329c0,0-.6,2.063-.69,2.4s-.578,1.89-.635,2.2-.471,1.4-.521,1.611-.566,1.66-.693,1.894-.318.775-.541,1.135S2.428,17.6,2.234,17.8a1.338,1.338,0,0,0-.383.707c.023.141-.406.482-.547.629s-.465.543-.657.742-.305.507-.406.6c0,0-.138-.318-.174-.4Z" transform="translate(19.46 5.374)" fill="#fff"/>
      <path id="Path_2895" data-name="Path 2895" d="M0,14.137a3.857,3.857,0,0,0,.391-.369,2.1,2.1,0,0,0,.4-.606s.068-.14.059-.124a2.844,2.844,0,0,0,.277-.563,4.065,4.065,0,0,0,.181-.448,2.927,2.927,0,0,1,.082-.315c.008-.031.082-.169.152-.344.121-.308.233-.738.233-.738s.172-.755.222-.946.048-.476.085-.53a6.229,6.229,0,0,0,.115-.718c.019-.118.1-.532.132-.738s.167-1.017.234-1.409c.042-.262.129-.815.178-1.266.026-.231.028-.442.036-.555.025-.333.074-1.1.081-1.235s.047-.978.056-1.118A16.1,16.1,0,0,0,2.9,0a6.894,6.894,0,0,1,.062,1.575c-.012.711-.051,1.623-.053,1.761s-.081,1.5-.105,1.659c0,0-.209,1.442-.234,1.677s-.209,1.322-.219,1.536-.181.986-.2,1.133-.219,1.169-.281,1.341-.138.555-.253.82-.18.736-.288.894a.935.935,0,0,0-.184.516c.026.092-.223.372-.3.488s-.254.42-.361.577-.2.495-.29.581c0,0-.073-.164-.11-.243C.068,14.272,0,14.137,0,14.137Z" transform="translate(15.534 2.376)" fill="#fff"/>
      <path id="Path_2896" data-name="Path 2896" d="M21.2,6.957s-.05.008-.2.042a3.148,3.148,0,0,1-1.177.048L19.6,7.031a4.938,4.938,0,0,1-1.011-.067,6.7,6.7,0,0,1-.772-.1,3.622,3.622,0,0,0-.5-.126c-.05-.017-.3-.026-.6-.067-.529-.074-1.211-.25-1.211-.25S14.32,6.078,14.016,6s-.69-.291-.8-.284a10.4,10.4,0,0,1-1.082-.386c-.175-.062-.817-.26-1.121-.375s-1.536-.543-2.131-.75C8.491,4.069,7.657,3.768,7,3.5c-.339-.14-.631-.291-.791-.364-.477-.214-1.567-.718-1.758-.809S3.077,1.66,2.88,1.57A26.346,26.346,0,0,1,0,0,10.624,10.624,0,0,0,2.1,1.24c.98.508,2.259,1.133,2.449,1.234s2.108,1,2.353,1.091c0,0,2.15.8,2.5.941s1.987.716,2.286.859,1.507.5,1.718.594,1.789.586,2.079.634.877.236,1.342.288,1.161.313,1.474.295a1.676,1.676,0,0,1,.87.147c.1.1.7,0,.93-.019s.9-.022,1.206-.034l-.025-.1a.385.385,0,0,0-.042-.119C21.213,7,21.2,6.957,21.2,6.957Z" transform="translate(5.421 41.597)" fill="#fff"/>
      <path id="Path_2897" data-name="Path 2897" d="M22.292,7.09a2.8,2.8,0,0,1-.569.149,3.953,3.953,0,0,1-1.217.053l-.231-.017a5.179,5.179,0,0,1-1.046-.07,7.486,7.486,0,0,1-.8-.1,4.141,4.141,0,0,0-.521-.132c-.05-.016-.312-.023-.623-.068-.546-.076-1.253-.257-1.253-.257S14.81,6.289,14.5,6.208s-.715-.3-.826-.293a10.831,10.831,0,0,1-1.118-.4c-.184-.067-.846-.271-1.161-.389s-1.587-.561-2.2-.777c-.408-.143-1.268-.453-1.949-.73-.349-.146-.651-.3-.818-.38C5.932,3.02,4.8,2.5,4.607,2.406s-1.423-.688-1.628-.783A26.721,26.721,0,0,1,0,0,11.225,11.225,0,0,0,2.167,1.283C3.181,1.809,4.5,2.457,4.7,2.559S6.882,3.6,7.134,3.688c0,0,2.226.829,2.582.977s2.057.738,2.364.89,1.559.516,1.778.611,1.851.6,2.15.656.908.243,1.387.3,1.2.326,1.525.307a1.707,1.707,0,0,1,.9.152c.1.105.729,0,.964-.02s.825-.012,1.142-.031a1.257,1.257,0,0,1,.572.18c0-.014-.057-.177-.107-.336C22.357,7.264,22.292,7.09,22.292,7.09Z" transform="translate(1.871 30.703)" fill="#fff"/>
      <path id="Path_2898" data-name="Path 2898" d="M20.055,9.409a1.34,1.34,0,0,1-.4.047A3.619,3.619,0,0,1,18.5,9.364l-.217-.04a4.837,4.837,0,0,1-.981-.186,6.432,6.432,0,0,1-.741-.192,4.207,4.207,0,0,0-.476-.186c-.046-.02-.29-.059-.581-.136-.508-.136-1.153-.392-1.153-.392s-1.115-.479-1.4-.592-.64-.372-.744-.378A9.858,9.858,0,0,1,11.2,6.749c-.164-.084-.767-.357-1.051-.507s-1.432-.724-1.987-1c-.367-.183-1.144-.581-1.752-.929-.315-.178-.581-.364-.729-.456-.437-.27-1.442-.9-1.615-1.017S2.8,2.02,2.618,1.9A24.986,24.986,0,0,1,0,0,10.351,10.351,0,0,0,1.893,1.483c.894.623,2.066,1.4,2.24,1.519S6.07,4.252,6.3,4.368c0,0,2,1.051,2.324,1.235s1.854.947,2.128,1.125,1.409.679,1.6.792,1.677.8,1.953.879.828.339,1.276.445,1.1.451,1.406.47a1.6,1.6,0,0,1,.831.25c.084.112.69.078.913.09s.781.082,1.085.1a.724.724,0,0,1,.467.222c-.043-.107-.06-.15-.124-.305C20.125,9.578,20.055,9.409,20.055,9.409Z" transform="translate(0.181 18.505)" fill="#fff"/>
      <path id="Path_2899" data-name="Path 2899" d="M12.3,5.892s0-.014-.136.031a1.6,1.6,0,0,1-.708.122s-.15,0-.133,0c-.442.015-.422.042-.6-.006-.084-.023-.391,0-.456-.057a1.282,1.282,0,0,0-.293-.1c-.029-.012-.18,0-.357-.031A4.32,4.32,0,0,1,8.9,5.666s-.69-.277-.867-.341-.4-.256-.459-.245a3.693,3.693,0,0,1-.626-.33c-.1-.053-.473-.217-.65-.316s-.887-.465-1.231-.645c-.226-.116-.708-.375-1.087-.612-.194-.123-.358-.264-.449-.327-.273-.194-.894-.643-1-.727s-.784-.6-.9-.68A12.364,12.364,0,0,1,0,0,5.589,5.589,0,0,0,1.178,1.15c.556.462,1.285,1.029,1.394,1.119s1.2.905,1.342.981c0,0,1.242.693,1.438.817s1.149.617,1.319.746.873.423.994.505a9.293,9.293,0,0,0,1.207.527,6.207,6.207,0,0,0,.784.214c.276.026.676.253.867.214s.459,0,.512.1.422-.05.56-.079.479-.059.665-.1.225.13.25.13c0,0-.073-.157-.122-.253C12.359,6.021,12.3,5.892,12.3,5.892Z" transform="translate(3.037 10.747)" fill="#fff"/>
    </g>
    <g id="Group_1411" data-name="Group 1411" transform="translate(31.284 90.117)">
      <g id="Group_1400" data-name="Group 1400" transform="translate(0 51.845)">
        <path id="Path_2900" data-name="Path 2900" d="M5.773,10.593C1.521,9.131-.241,5.489,2.784,2.8c4.072-3.623,7.18.377,8.572,3.226C12.1,1.847,15.551-2.4,20.048,1.6c2.218,1.976.234,5.658-2.077,8.211,2.686-.276,7.1-.019,8.037,3.051,1.7,5.556-5.562,5.6-8.614,3.723,1.31,2.724.093,8.2-3.708,8.161-4.236-.043-4.568-5.359-4.3-8-1.824,1.992-6.214,4.5-8.837.378C-1.353,14.141,1.992,11.291,5.773,10.593Z" fill="#ffd800" stroke="#fff" stroke-width="1"/>
        <path id="Path_2901" data-name="Path 2901" d="M.059,2.181A2.744,2.744,0,1,0,3.31.059,2.743,2.743,0,0,0,.059,2.181Z" transform="translate(10.076 9.329)" fill="#fff"/>
      </g>
      <g id="Group_1401" data-name="Group 1401" transform="translate(20.483 90.897)">
        <path id="Path_2902" data-name="Path 2902" d="M7.093,13.012c-5.225-1.8-7.386-6.27-3.674-9.577,5-4.45,8.822.462,10.533,3.962C14.859,2.268,19.1-2.942,24.628,1.969c2.725,2.426.29,6.948-2.552,10.085,3.3-.335,8.724-.02,9.874,3.748,2.083,6.827-6.834,6.876-10.583,4.574,1.611,3.348.116,10.076-4.556,10.026-5.2-.054-5.611-6.582-5.28-9.828C9.291,23.022,3.9,26.1.677,21.041-1.662,17.371,2.449,13.869,7.093,13.012Z" transform="translate(0 0)" fill="#ffd800" stroke="#fff" stroke-width="1"/>
        <path id="Path_2903" data-name="Path 2903" d="M.073,2.679A3.371,3.371,0,1,0,4.065.073,3.369,3.369,0,0,0,.073,2.679Z" transform="translate(12.378 11.461)" fill="#fff"/>
      </g>
      <g id="Group_1402" data-name="Group 1402" transform="translate(1.158 86.966)">
        <path id="Path_2904" data-name="Path 2904" d="M2.614,4.8C.689,4.135-.11,2.484,1.261,1.266,3.1-.374,4.513,1.438,5.144,2.728c.333-1.891,1.9-3.813,3.934-2,1,.893.107,2.559-.939,3.717,1.215-.124,3.213-.008,3.638,1.381.767,2.516-2.519,2.534-3.9,1.687.592,1.232.04,3.714-1.68,3.694C4.279,11.187,4.13,8.779,4.251,7.583c-.826.9-2.813,2.04-4,.172C-.613,6.4.9,5.112,2.614,4.8Z" transform="translate(0 0)" fill="#ffd800" stroke="#fff" stroke-width="1"/>
        <path id="Path_2905" data-name="Path 2905" d="M.027.988A1.243,1.243,0,1,0,1.5.027,1.242,1.242,0,0,0,.027.988Z" transform="translate(4.562 4.225)" fill="#fff"/>
      </g>
      <g id="Group_1403" data-name="Group 1403" transform="translate(9.288 85.773)">
        <path id="Path_2906" data-name="Path 2906" d="M1.6,2.941C.423,2.534-.066,1.525.773.776,1.9-.23,2.767.881,3.154,1.67,3.36.512,4.318-.664,5.566.444c.617.549.067,1.57-.577,2.282.747-.078,1.973-.006,2.234.845.47,1.545-1.547,1.555-2.393,1.035.364.755.026,2.277-1.029,2.266-1.177-.014-1.27-1.49-1.194-2.223C2.1,5.2.88,5.9.153,4.757-.376,3.926.553,3.134,1.6,2.941Z" transform="translate(0)" fill="#f99b1c" stroke="#fff" stroke-width="1"/>
        <path id="Path_2907" data-name="Path 2907" d="M.017.605a.762.762,0,1,0,.9-.589A.759.759,0,0,0,.017.605Z" transform="translate(2.798 2.591)" fill="#fff"/>
      </g>
      <g id="Group_1404" data-name="Group 1404" transform="translate(5.626 73.511)">
        <path id="Path_2908" data-name="Path 2908" d="M1.6,2.942C.423,2.536-.067,1.524.773.777c1.13-1,1.993.105,2.381.9C3.358.513,4.316-.665,5.567.445c.617.55.065,1.572-.577,2.28.746-.076,1.972,0,2.232.846.47,1.544-1.545,1.555-2.392,1.035.363.756.025,2.279-1.032,2.266C2.624,6.859,2.532,5.385,2.607,4.65,2.1,5.2.881,5.9.153,4.757-.376,3.928.554,3.136,1.6,2.942Z" fill="#f99b1c" stroke="#fff" stroke-width="1"/>
        <path id="Path_2909" data-name="Path 2909" d="M.016.605A.763.763,0,1,0,.92.016.763.763,0,0,0,.016.605Z" transform="translate(2.797 2.591)" fill="#fff"/>
      </g>
      <g id="Group_1405" data-name="Group 1405" transform="translate(26.505 50.776)">
        <path id="Path_2910" data-name="Path 2910" d="M.012.45A.566.566,0,1,0,.683.012.569.569,0,0,0,.012.45Z" fill="#fff"/>
      </g>
      <g id="Group_1406" data-name="Group 1406" transform="translate(32.295 41.255)">
        <path id="Path_2911" data-name="Path 2911" d="M1.676,3.078C.442,2.654-.069,1.595.808.812,1.994-.24,2.9.922,3.3,1.75,3.515.536,4.518-.7,5.824.466c.645.574.068,1.643-.6,2.386.78-.079,2.062,0,2.334.887.491,1.615-1.617,1.626-2.5,1.082.381.791.026,2.383-1.079,2.372C2.746,7.177,2.648,5.634,2.727,4.867c-.53.578-1.8,1.308-2.567.11C-.393,4.109.579,3.281,1.676,3.078Z" fill="#f99b1c" stroke="#fff" stroke-width="1"/>
        <path id="Path_2912" data-name="Path 2912" d="M.017.633A.8.8,0,1,0,.961.018.8.8,0,0,0,.017.633Z" transform="translate(2.927 2.712)" fill="#fff"/>
      </g>
      <g id="Group_1407" data-name="Group 1407" transform="translate(31.798 39.522)">
        <path id="Path_2913" data-name="Path 2913" d="M1.014,1.862C.267,1.606-.043.964.49.493,1.2-.145,1.752.558,2,1.057c.13-.733.736-1.479,1.528-.775.389.347.04.994-.366,1.443.471-.05,1.246,0,1.412.536.3.977-.978.984-1.514.654.229.479.017,1.44-.653,1.435-.744-.009-.8-.942-.753-1.407C1.328,3.293.556,3.736.1,3.012-.239,2.485.35,1.986,1.014,1.862Z" fill="#f99b1c" stroke="#fff" stroke-width="1"/>
        <path id="Path_2914" data-name="Path 2914" d="M.01.382A.482.482,0,1,0,.582.01.484.484,0,0,0,.01.382Z" transform="translate(1.771 1.641)" fill="#fff"/>
      </g>
      <g id="Group_1408" data-name="Group 1408" transform="translate(30.679 4.011)">
        <path id="Path_2915" data-name="Path 2915" d="M4.783,8.776C1.26,7.567-.2,4.547,2.306,2.316c3.375-3,5.949.313,7.1,2.672.612-3.46,3.474-6.974,7.2-3.66,1.838,1.635.2,4.686-1.721,6.8,2.224-.229,5.883-.016,6.658,2.528,1.406,4.6-4.607,4.638-7.137,3.085,1.087,2.254.079,6.8-3.074,6.763-3.506-.04-3.782-4.441-3.559-6.628-1.511,1.648-5.146,3.726-7.32.312C-1.121,11.716,1.649,9.356,4.783,8.776Z" transform="translate(0)" fill="#ffd800" stroke="#fff" stroke-width="1"/>
        <path id="Path_2916" data-name="Path 2916" d="M.049,1.806A2.273,2.273,0,1,0,2.74.05,2.273,2.273,0,0,0,.049,1.806Z" transform="translate(8.366 7.652)" fill="#fff"/>
      </g>
      <g id="Group_1409" data-name="Group 1409" transform="translate(31.553)">
        <path id="Path_2917" data-name="Path 2917" d="M2.051,3.762C.541,3.243-.085,1.95.989.992c1.446-1.287,2.551.135,3.046,1.147C4.3.656,5.525-.851,7.123.569c.787.7.084,2.009-.738,2.917.953-.1,2.522-.008,2.855,1.084.6,1.975-1.976,1.989-3.06,1.324.465.966.033,2.913-1.319,2.9-1.5-.019-1.621-1.905-1.527-2.843-.648.705-2.206,1.6-3.139.133C-.48,5.024.707,4.01,2.051,3.762Z" transform="translate(0)" fill="#f99b1c" stroke="#fff" stroke-width="1"/>
        <path id="Path_2918" data-name="Path 2918" d="M.021.775A.975.975,0,1,0,1.175.021.975.975,0,0,0,.021.775Z" transform="translate(3.594 3.251)" fill="#fff"/>
      </g>
      <g id="Group_1410" data-name="Group 1410" transform="translate(13.741 78.815)">
        <path id="Path_2919" data-name="Path 2919" d="M.992,1.818C.262,1.569-.04.943.478.481c.7-.623,1.235.065,1.474.553C2.079.318,2.672-.412,3.444.276c.381.338.042.97-.355,1.409.46-.047,1.218,0,1.38.525.29.953-.956.961-1.48.64.225.468.016,1.408-.637,1.4-.727-.008-.786-.921-.739-1.375C1.3,3.22.546,3.649.095,2.942-.232,2.429.343,1.939.992,1.818Z" fill="#f99b1c" stroke="#fff" stroke-width="1"/>
        <path id="Path_2920" data-name="Path 2920" d="M.01.373A.471.471,0,0,0,.376.931.466.466,0,0,0,.932.568.471.471,0,0,0,.01.373Z" transform="translate(1.731 1.603)" fill="#fff"/>
      </g>
    </g>
    <g id="Group_1414" data-name="Group 1414" transform="translate(33.649 202.114)">
      <path id="Path_2921" data-name="Path 2921" d="M1.438,5.156a127.569,127.569,0,0,1,50.224-3.3C77.484,5.489,83.224,19.5,84.341,23.07a14.509,14.509,0,0,1-.856,9.911c-2.446,5.154-6.937,9.834-15.748,8.541-13.926-2.043-6.315-18.687,5.168-16.3,8.693,1.807,5.25,10.589-3.244,8.75l.2.153c8.946,1.936,12.046-7.628,2.888-9.532-12.1-2.516-19.618,14.921-4.953,17.079C77.15,43.046,82.34,37.3,84.34,31.731a14.955,14.955,0,0,0,.525-8.588c-1.18-3.762-6.7-18.208-33.9-22.03C22.225-2.93,0,5.342,0,5.342Z" transform="translate(143.804 44.472)" opacity="0.8" fill="url(#linear-gradient-2)"/>
      <path id="Path_2922" data-name="Path 2922" d="M.37,24.508a34.258,34.258,0,0,0,12.423-8.572c5.509-5.942,4.565-11.063,4.241-12.3A5.162,5.162,0,0,0,15.2.942a3.492,3.492,0,0,0-5.129.525c-2.958,3.23,1.58,6.58,3.9,3.714,1.759-2.17-.5-4.044-2.206-1.907L11.79,3.2c1.8-2.254,4.1-.09,2.251,2.2-2.448,3.017-7.095-.577-3.981-3.979a3.67,3.67,0,0,1,5.548-.273,5.383,5.383,0,0,1,1.538,2.372c.339,1.307,1.408,6.512-4.4,12.771A30.475,30.475,0,0,1,0,24.73Z" transform="translate(135.819 28.455)" fill="url(#linear-gradient-2)"/>
      <path id="Path_2923" data-name="Path 2923" d="M0,33.68s9.575-.327,24.544-5.6c13.212-4.658,34.44-14.145,39.979-16.572A145.754,145.754,0,0,1,97.984,2.086,194.232,194.232,0,0,1,125.351,0a64.925,64.925,0,0,1,10.983.836,72.636,72.636,0,0,0-7.885-.73,158.233,158.233,0,0,0-18.375.656c-5.021.4-10.815,1.266-10.815,1.266A144.354,144.354,0,0,0,62.88,12.514c-5.463,2.479-24.075,10.739-35.939,15.27A115.323,115.323,0,0,1,1.417,34.243Z" transform="translate(112.062 24.856)" opacity="0.8" fill="url(#linear-gradient-2)"/>
      <path id="Path_2924" data-name="Path 2924" d="M1.1,6.828A77.555,77.555,0,0,1,26.15,8.957C36.916,11.584,54.6,15.946,60.1,17.467a128.342,128.342,0,0,0,33.913,3.288c14.872-.68,29.285-4.3,34.436-6.12C143.216,9.426,150.227,0,150.227,0c-2.772,2.941-8.194,8.284-19.455,12.855-13.264,5.382-33.521,6.509-33.521,6.509C83.61,20.4,67.918,17.208,62.423,15.686S38.511,8.859,26.88,6.352A100.535,100.535,0,0,0,0,4.813Z" transform="translate(4.362 40.166)" fill="url(#linear-gradient-2)"/>
      <path id="Path_2925" data-name="Path 2925" d="M.55,3.4A40.629,40.629,0,0,1,19.942.519C30.3,1.542,33.557,7.973,34.253,9.621a8.2,8.2,0,0,1,.381,4.68c-.583,2.485-2,4.8-5.535,4.43-5.591-.592-3.823-8.614.839-7.8,3.53.62,2.82,4.838-.634,4.2l.088.065c3.64.674,4.159-3.9.44-4.554-4.912-.862-6.588,7.53-.7,8.155,3.754.4,5.366-2.441,5.746-5.109a8.558,8.558,0,0,0-.415-4.049C33.727,7.9,30.525,1.264,19.614.185A36.346,36.346,0,0,0,0,3.523Z" transform="translate(143.883 45.389)" fill="url(#linear-gradient-2)"/>
      <path id="Path_2926" data-name="Path 2926" d="M.344,1.6A26.842,26.842,0,0,1,12.488.436c6.407.87,8.233,4.708,8.612,5.687a4.5,4.5,0,0,1,.093,2.737A3.018,3.018,0,0,1,17.614,11.3c-3.458-.493-2.108-5.125.764-4.525,2.175.457,1.6,2.9-.526,2.434l.053.04c2.24.49,2.706-2.167.414-2.646-3.024-.632-4.328,4.218-.688,4.739a3.2,3.2,0,0,0,3.733-2.826A4.684,4.684,0,0,0,21.23,6.14c-.4-1.032-2.187-4.99-8.935-5.909A23.993,23.993,0,0,0,0,1.656Z" transform="translate(61.566 43.773)" fill="url(#linear-gradient-2)"/>
      <path id="Path_2927" data-name="Path 2927" d="M.584,15.958a44.183,44.183,0,0,0,20.892,2.857c11.528-1.1,16.053-7.7,17.057-9.394a8.469,8.469,0,0,0,1.105-4.8C39.364,2.08,38.145-.289,34.2.113c-6.233.632-5.459,8.843-.22,7.983,3.97-.651,3.807-4.968-.081-4.3l.107-.07c4.094-.707,4,3.981-.186,4.666C28.3,9.3,27.688.711,34.251.041c4.185-.423,5.542,2.475,5.568,5.208A8.831,8.831,0,0,1,38.767,9.4c-1.059,1.783-5.553,8.6-17.7,9.758C8.233,20.377,0,15.832,0,15.832Z" transform="translate(36.733 26.907)" fill="url(#linear-gradient-2)"/>
      <g id="Group_1412" data-name="Group 1412" transform="translate(0 20.919)">
        <path id="Path_2928" data-name="Path 2928" d="M0,20.65s6.078-1.442,14.711-6.791C22.331,9.136,35.38-.583,34.679.027,31.8,2.542,22.973,8.891,16.194,13.36A69.922,69.922,0,0,1,1.009,20.833Z" transform="translate(71.494 0)" fill="url(#linear-gradient-2)"/>
        <path id="Path_2929" data-name="Path 2929" d="M1.071,23.583A50,50,0,0,1,17.515,21.75c7.377.327,19.508.888,23.306,1.17A83.592,83.592,0,0,0,63.156,20.7a85.213,85.213,0,0,0,20.954-8.4C92.628,7.025,95.4,0,95.4,0c-1.24,2.266-3.74,6.435-10.128,10.851-7.52,5.2-20.3,8.532-20.3,8.532-8.555,2.423-19.192,2.367-22.991,2.083s-16.568-1.364-24.479-1.5A64.521,64.521,0,0,0,0,22.415Z" transform="translate(0 3.253)" fill="url(#linear-gradient-2)"/>
      </g>
      <path id="Path_2930" data-name="Path 2930" d="M.392,0A91.946,91.946,0,0,0,29.945,4.077c12.449-.38,32.8-1.459,39.2-1.838,3.609-.214,20.55-1.034,37.5,3.178,15.923,3.956,30.483,10.871,35.533,13.886a52.489,52.489,0,0,1,11.21,9.042,47.368,47.368,0,0,1,8.09,10.928,52.569,52.569,0,0,0-17.191-18.235c-12.79-8.491-34.426-14.087-34.426-14.087C95.381,2.892,77.305,3.4,70.9,3.779S42.955,5.65,29.6,5.717A115.29,115.29,0,0,1,0,1.443Z" transform="translate(21.266 44.294)" fill="url(#linear-gradient-2)"/>
      <path id="Path_2931" data-name="Path 2931" d="M.553,7.745A41.694,41.694,0,0,1,20.522.433C31.965-.685,37.434,5.624,38.685,7.271a9.82,9.82,0,0,1,1.838,5.018c.133,2.835-.682,5.667-4.6,6.019-6.191.56-6.74-8.564-1.477-8.676,3.982-.085,4.506,4.664.6,4.711l.116.054c4.116-.05,3.275-5.149-.921-5.06-5.542.118-4.782,9.628,1.741,9.039,4.157-.377,5.024-3.816,4.616-6.8a10.168,10.168,0,0,0-1.685-4.323C37.595,5.513,32.124-1.035,20.069.14,7.327,1.382,0,8,0,8Z" transform="translate(101.872 16.103)" fill="url(#linear-gradient-2)"/>
      <path id="Path_2932" data-name="Path 2932" d="M.112,9.941a10.444,10.444,0,0,0,3.578-3.95A4.89,4.89,0,0,0,3.81,1.131a2.445,2.445,0,0,0-.992-.9,1.234,1.234,0,0,0-1.831.5C.274,2.116,2.344,3.1,2.863,1.893,3.258.976,2.2.407,1.826,1.31l0-.033c.4-.952,1.5-.276,1.088.69C2.364,3.243.225,2.172.977.714A1.324,1.324,0,0,1,2.992.279a2.549,2.549,0,0,1,.846.8,5,5,0,0,1-.124,5.046A9.3,9.3,0,0,1,0,10.047Z" transform="translate(104.82 11.893)" fill="url(#linear-gradient-2)"/>
      <g id="Group_1413" data-name="Group 1413" transform="translate(68.86 34.741)">
        <path id="Path_2933" data-name="Path 2933" d="M0,1.945a31.635,31.635,0,0,1,5.148-.388c2.806-.014,7.36.2,8.546.251a48.786,48.786,0,0,0,7.058-.318C22.514,1.283,24.8.905,26.4.567A22.891,22.891,0,0,0,28.631,0c-.549.163-1.049.3-1.6.423-1.3.3-2.64.525-3.776.707-1.037.167-2.241.313-2.241.313a48.03,48.03,0,0,1-7.678.316c-1.172-.06-5.162-.24-7.692-.268A39.432,39.432,0,0,0,.279,1.82Z" transform="translate(21.757)" opacity="0.8" fill="url(#linear-gradient-14)"/>
        <path id="Path_2934" data-name="Path 2934" d="M.18,6.359A27.983,27.983,0,0,0,5.264,5.038C7.411,4.269,10.938,3,12.03,2.584A46.192,46.192,0,0,1,18.9.749,48.708,48.708,0,0,1,26.085,0a11.471,11.471,0,0,1,4.779.8A12.7,12.7,0,0,0,26.6.11,44.9,44.9,0,0,0,19.6.774,42.588,42.588,0,0,0,12.545,2.7c-1.093.414-4.75,1.826-7.076,2.62A36.685,36.685,0,0,1,0,6.644Z" transform="translate(0 1.5)" fill="url(#linear-gradient-15)"/>
      </g>
      <path id="Path_2935" data-name="Path 2935" d="M.524,1.051A37.645,37.645,0,0,1,12.516,3.444c5.151,1.873,13.619,4.968,16.248,6.013A63.328,63.328,0,0,0,45,12.9a62.33,62.33,0,0,0,16.479-1.15A20.009,20.009,0,0,0,71.9,5.737,21.233,21.233,0,0,1,62.587,11c-6.346,1.93-16.042,1.39-16.042,1.39A58.17,58.17,0,0,1,29.877,8.707c-2.631-1.042-11.444-4.643-17.012-6.5A48.415,48.415,0,0,0,0,0Z" transform="translate(33.605 45.684)" fill="url(#linear-gradient-2)"/>
      <path id="Path_2936" data-name="Path 2936" d="M0,1.945a31.635,31.635,0,0,1,5.148-.388c2.806-.014,7.36.2,8.546.251a48.786,48.786,0,0,0,7.058-.318C22.514,1.283,24.8.905,26.4.567A22.891,22.891,0,0,0,28.631,0c-.549.163-1.049.3-1.6.423-1.3.3-2.64.525-3.776.707-1.037.167-2.241.313-2.241.313a48.03,48.03,0,0,1-7.678.316c-1.172-.06-5.162-.24-7.692-.268A39.432,39.432,0,0,0,.279,1.82Z" transform="translate(90.618 34.741)" opacity="0.8" fill="url(#linear-gradient-14)"/>
      <path id="Path_2937" data-name="Path 2937" d="M.18,6.359A27.983,27.983,0,0,0,5.264,5.038C7.411,4.269,10.938,3,12.03,2.584A46.192,46.192,0,0,1,18.9.749,48.708,48.708,0,0,1,26.085,0a11.471,11.471,0,0,1,4.779.8A12.7,12.7,0,0,0,26.6.11,44.9,44.9,0,0,0,19.6.774,42.588,42.588,0,0,0,12.545,2.7c-1.093.414-4.75,1.826-7.076,2.62A36.685,36.685,0,0,1,0,6.644Z" transform="translate(68.86 36.241)" fill="url(#linear-gradient-15)"/>
      <path id="Path_2938" data-name="Path 2938" d="M.978,45.348a72.762,72.762,0,0,0,33.7-8.155c16.642-8.54,18.651-21.222,18.935-24.379a13.921,13.921,0,0,0-1.84-7.907c-2.283-3.68-5.859-6.534-11.531-3.573-8.966,4.677-1.787,16.623,5.517,12.195,5.528-3.356,2.121-9.781-3.274-6.447l.112-.167c5.681-3.514,8.963,3.627,3.139,7.158C38.044,18.74,30.824,6.126,40.266,1.2c6.022-3.139,10.2.434,12.238,4.548a14.5,14.5,0,0,1,1.448,6.9c-.3,3.327-2.1,16.315-19.635,25.31C15.788,47.462,0,45.508,0,45.508Z" transform="translate(23.638 0)" fill="url(#linear-gradient-2)"/>
      <path id="Path_2939" data-name="Path 2939" d="M.209,2.444A16.623,16.623,0,0,1,7.782.129c4.263-.256,6.132,2,6.555,2.59a3.171,3.171,0,0,1,.556,1.769A1.817,1.817,0,0,1,13.043,6.53c-2.3.122-2.283-3.06-.333-3.038,1.477.017,1.555,1.676.107,1.646l.042.02c1.524.031,1.339-1.755-.215-1.772-2.055-.022-2.007,3.3.42,3.168a1.933,1.933,0,0,0,1.879-2.317,3.321,3.321,0,0,0-.519-1.524c-.443-.619-2.31-2.962-6.8-2.693A14.764,14.764,0,0,0,0,2.527Z" transform="translate(36.744 37.009)" fill="url(#linear-gradient-2)"/>
      <path id="Path_2940" data-name="Path 2940" d="M.4,14.874a29.226,29.226,0,0,0,13.908-.826c7.191-2.193,8.887-7.065,9.223-8.295A5.588,5.588,0,0,0,23.366,2.5c-.64-1.617-1.851-3-4.306-2.234-3.878,1.212-1.89,6.447,1.314,5.216,2.424-.935,1.535-3.719-.837-2.784l.06-.057c2.493-.984,3.283,2.072.727,3.055-3.373,1.3-5.332-4.205-1.246-5.483,2.6-.814,4,.9,4.517,2.669a5.836,5.836,0,0,1,.081,2.83c-.353,1.294-1.993,6.3-9.567,8.614A26.017,26.017,0,0,1,0,14.866Z" transform="translate(20.337 26.109)" fill="url(#linear-gradient-2)"/>
      <path id="Path_2941" data-name="Path 2941" d="M1.071,23.583A50,50,0,0,1,17.515,21.75c7.377.327,19.508.888,23.306,1.17A83.592,83.592,0,0,0,63.156,20.7a85.213,85.213,0,0,0,20.954-8.4C92.628,7.025,95.4,0,95.4,0c-1.24,2.266-3.74,6.435-10.128,10.851-7.52,5.2-20.3,8.532-20.3,8.532-8.555,2.423-19.192,2.367-22.991,2.083s-16.568-1.364-24.479-1.5A64.521,64.521,0,0,0,0,22.415Z" transform="translate(0 24.172)" fill="url(#linear-gradient-2)"/>
    </g>
    <g id="Group_1427" data-name="Group 1427" transform="translate(60.721 211.533)">
      <g id="Group_1415" data-name="Group 1415" transform="translate(43.261 9.096)">
        <path id="Path_2942" data-name="Path 2942" d="M13.692,5.553c1.344-4.192,4.874-5.99,7.568-3.085,3.627,3.913-.225,7.033-2.982,8.454,4.1.639,8.321,3.934,4.5,8.412-1.89,2.212-5.531.347-8.076-1.865.324,2.623.163,6.949-2.821,7.926-5.4,1.773-5.591-5.329-3.819-8.352C5.423,18.381.037,17.3,0,13.581-.042,9.435,5.153,9,7.742,9.213,5.756,7.468,3.212,3.224,7.191.576,10.076-1.349,12.933,1.867,13.692,5.553Z" transform="translate(0 0)" fill="#ffd800" stroke="#fff" stroke-width="1"/>
        <path id="Path_2943" data-name="Path 2943" d="M3.183.046A2.686,2.686,0,1,0,5.325,3.184,2.687,2.687,0,0,0,3.183.046Z" transform="translate(9.698 9.791)" fill="#fff"/>
      </g>
      <g id="Group_1416" data-name="Group 1416" transform="translate(0 30)">
        <path id="Path_2944" data-name="Path 2944" d="M16.817,6.821c1.651-5.148,5.987-7.355,9.3-3.788,4.455,4.807-.276,8.643-3.664,10.387,5.038.784,10.221,4.83,5.528,10.335-2.319,2.716-6.793.425-9.919-2.291.4,3.221.2,8.533-3.468,9.736C7.954,33.377,7.726,24.655,9.9,20.939,6.658,22.581.045,21.255,0,16.684c-.054-5.092,6.324-5.624,9.507-5.365C7.069,9.175,3.944,3.961,8.833.707,12.376-1.657,15.884,2.294,16.817,6.821Z" transform="translate(0 0)" fill="#ffd800" stroke="#fff" stroke-width="1"/>
        <path id="Path_2945" data-name="Path 2945" d="M3.913.058A3.3,3.3,0,1,0,6.542,3.911,3.3,3.3,0,0,0,3.913.058Z" transform="translate(11.911 12.029)" fill="#fff"/>
      </g>
      <g id="Group_1417" data-name="Group 1417" transform="translate(32.79 0)">
        <path id="Path_2946" data-name="Path 2946" d="M6.2,2.514C6.81.616,8.406-.2,9.626,1.118c1.643,1.772-.1,3.185-1.35,3.827,1.855.29,3.77,1.781,2.038,3.81-.854,1-2.5.157-3.657-.846.146,1.19.071,3.148-1.279,3.59-2.446.8-2.53-2.412-1.728-3.782C2.455,8.323.019,7.835,0,6.15-.019,4.273,2.333,4.076,3.506,4.172c-.9-.789-2.052-2.711-.25-3.911C4.564-.611,5.856.846,6.2,2.514Z" fill="#f99b1c" stroke="#fff" stroke-width="1"/>
        <path id="Path_2947" data-name="Path 2947" d="M1.441.021a1.216,1.216,0,1,0,.97,1.421A1.217,1.217,0,0,0,1.441.021Z" transform="translate(4.392 4.433)" fill="#fff"/>
      </g>
      <g id="Group_1418" data-name="Group 1418" transform="translate(54.983 26.278)">
        <path id="Path_2948" data-name="Path 2948" d="M5.625,2.282c.552-1.721,2-2.46,3.11-1.266C10.225,2.623,8.642,3.9,7.51,4.488c1.682.262,3.416,1.617,1.848,3.458-.775.907-2.271.14-3.319-.767.133,1.077.067,2.855-1.158,3.255-2.22.73-2.3-2.189-1.569-3.43C2.228,7.554.016,7.109,0,5.58c-.017-1.7,2.117-1.882,3.179-1.8-.814-.716-1.859-2.46-.225-3.548C4.14-.555,5.314.767,5.625,2.282Z" transform="translate(0 0)" fill="#f99b1c" stroke="#fff" stroke-width="1"/>
        <path id="Path_2949" data-name="Path 2949" d="M1.3.019a1.1,1.1,0,1,0,.88,1.29A1.1,1.1,0,0,0,1.3.019Z" transform="translate(3.986 4.023)" fill="#fff"/>
      </g>
      <g id="Group_1419" data-name="Group 1419" transform="translate(71.26 40.259)">
        <path id="Path_2950" data-name="Path 2950" d="M3.978,1.613c.391-1.218,1.415-1.739,2.2-.9,1.054,1.136-.067,2.045-.867,2.457C6.5,3.36,7.729,4.316,6.617,5.619c-.549.642-1.606.1-2.345-.543.093.763.045,2.018-.822,2.3-1.569.515-1.623-1.549-1.108-2.427C1.575,5.34.011,5.028,0,3.946c-.011-1.2,1.5-1.33,2.249-1.27C1.673,2.17.933.937,2.09.167,2.927-.391,3.757.542,3.978,1.613Z" transform="translate(0 0)" fill="#f99b1c" stroke="#fff" stroke-width="1"/>
        <path id="Path_2951" data-name="Path 2951" d="M.924.013a.781.781,0,1,0,.623.913A.779.779,0,0,0,.924.013Z" transform="translate(2.818 2.844)" fill="#fff"/>
      </g>
      <g id="Group_1420" data-name="Group 1420" transform="translate(94.791 38.089)">
        <path id="Path_2952" data-name="Path 2952" d="M11.342,4.6c1.113-3.472,4.038-4.962,6.27-2.555,3.006,3.241-.184,5.827-2.469,7,3.4.529,6.893,3.257,3.726,6.969-1.563,1.832-4.581.287-6.689-1.544.267,2.17.132,5.752-2.339,6.563C5.364,22.51,5.21,16.629,6.68,14.122,4.492,15.23.031,14.336,0,11.251-.032,7.819,4.268,7.46,6.411,7.633,4.77,6.187,2.66,2.673,5.957.477,8.347-1.117,10.713,1.548,11.342,4.6Z" transform="translate(0 0)" fill="#ffd800" stroke="#fff" stroke-width="1"/>
        <path id="Path_2953" data-name="Path 2953" d="M2.638.039a2.226,2.226,0,1,0,1.775,2.6A2.229,2.229,0,0,0,2.638.039Z" transform="translate(8.112 8.128)" fill="#fff"/>
      </g>
      <g id="Group_1421" data-name="Group 1421" transform="translate(110.061 38.717)">
        <path id="Path_2954" data-name="Path 2954" d="M4.866,1.973C5.342.483,6.6-.155,7.554.877c1.29,1.39-.079,2.5-1.059,3,1.457.228,2.956,1.4,1.6,2.989-.67.784-1.964.124-2.869-.663.115.932.057,2.469-1,2.817C2.3,9.654,2.235,7.13,2.865,6.056,1.927,6.53.014,6.147,0,4.825-.012,3.353,1.831,3.2,2.751,3.274,2.046,2.654,1.142,1.147,2.558.2,3.581-.479,4.6.665,4.866,1.973Z" transform="translate(0 0)" fill="#f99b1c" stroke="#fff" stroke-width="1"/>
        <path id="Path_2955" data-name="Path 2955" d="M1.13.017A.954.954,0,1,0,1.891,1.13.953.953,0,0,0,1.13.017Z" transform="translate(3.51 3.492)" fill="#fff"/>
      </g>
      <g id="Group_1422" data-name="Group 1422" transform="translate(123.204 23.315)">
        <path id="Path_2956" data-name="Path 2956" d="M3.626,1.472C3.981.36,4.914-.116,5.629.655c.96,1.037-.059,1.862-.789,2.238,1.084.169,2.2,1.042,1.192,2.227-.5.584-1.466.091-2.139-.494.085.694.042,1.84-.749,2.1C1.715,7.2,1.665,5.314,2.135,4.515,1.435,4.866.008,4.583,0,3.6-.012,2.5,1.364,2.385,2.048,2.44,1.524,1.979.85.855,1.905.153,2.666-.357,3.423.5,3.626,1.472Z" fill="#f99b1c" stroke="#fff" stroke-width="1"/>
        <path id="Path_2957" data-name="Path 2957" d="M.843.012a.712.712,0,1,0,.567.832A.715.715,0,0,0,.843.012Z" transform="translate(2.567 2.593)" fill="#fff"/>
      </g>
      <g id="Group_1423" data-name="Group 1423" transform="translate(156.087 19.354)">
        <path id="Path_2958" data-name="Path 2958" d="M3.638,1.475C3.995.362,4.933-.115,5.647.657,6.611,1.7,5.588,2.525,4.855,2.9c1.09.172,2.212,1.046,1.2,2.237-.5.588-1.47.093-2.145-.5.085.7.042,1.846-.75,2.105-1.437.471-1.485-1.415-1.014-2.218C1.442,4.884.009,4.6,0,3.608c-.009-1.1,1.369-1.217,2.057-1.159C1.53,1.985.853.858,1.91.153,2.676-.359,3.435.5,3.638,1.475Z" transform="translate(0 0)" fill="#f99b1c" stroke="#fff" stroke-width="1"/>
        <path id="Path_2959" data-name="Path 2959" d="M.843.012a.714.714,0,1,0,.57.834A.712.712,0,0,0,.843.012Z" transform="translate(2.578 2.602)" fill="#fff"/>
      </g>
      <g id="Group_1424" data-name="Group 1424" transform="translate(143.81 25.296)">
        <path id="Path_2960" data-name="Path 2960" d="M7.658,3.106c.752-2.345,2.727-3.35,4.235-1.725,2.028,2.189-.126,3.934-1.669,4.728,2.294.36,4.655,2.2,2.516,4.708-1.054,1.237-3.091.192-4.517-1.045.181,1.468.091,3.886-1.578,4.433-3.023.992-3.125-2.979-2.134-4.67C3.032,10.282.02,9.679,0,7.6-.023,5.28,2.88,5.035,4.33,5.152,3.22,4.178,1.8,1.8,4.023.322,5.635-.755,7.234,1.045,7.658,3.106Z" transform="translate(0 0)" fill="#ffd800" stroke="#fff" stroke-width="1"/>
        <path id="Path_2961" data-name="Path 2961" d="M1.78.027a1.5,1.5,0,1,0,1.2,1.753A1.5,1.5,0,0,0,1.78.027Z" transform="translate(5.425 5.478)" fill="#fff"/>
      </g>
      <g id="Group_1425" data-name="Group 1425" transform="translate(131.794 27.439)">
        <path id="Path_2962" data-name="Path 2962" d="M4.559,1.848C5.007.454,6.179-.145,7.078.822,8.284,2.124,7,3.164,6.084,3.637c1.364.211,2.77,1.308,1.5,2.8-.628.738-1.838.116-2.688-.618.109.871.054,2.311-.939,2.637-1.8.591-1.86-1.775-1.27-2.782C1.806,6.119.014,5.759,0,4.52-.011,3.141,1.716,3,2.578,3.068,1.918,2.487,1.07,1.073,2.395.191,3.356-.448,4.3.62,4.559,1.848Z" transform="translate(0 0)" fill="#f99b1c" stroke="#fff" stroke-width="1"/>
        <path id="Path_2963" data-name="Path 2963" d="M1.06.016A.894.894,0,1,0,1.775,1.06.895.895,0,0,0,1.06.016Z" transform="translate(3.229 3.26)" fill="#fff"/>
      </g>
      <g id="Group_1426" data-name="Group 1426" transform="translate(38.644 24.512)">
        <path id="Path_2964" data-name="Path 2964" d="M.545.008A.457.457,0,0,0,.009.376.461.461,0,1,0,.545.008Z" transform="translate(0 0)" fill="#fff"/>
      </g>
    </g>
  </g>
</svg>
