<svg xmlns="http://www.w3.org/2000/svg" width="829.105" height="562.096" viewBox="0 0 829.105 562.096">
  <path id="Path_587" data-name="Path 587" d="M552.974,404.872c-.946-38.941-18.818-196.364-5.609-302.269s0-105.9-64.943-92.667c-58.529,5.984-103.363,16.589-203.8,14.341S149.3-5.383,80.656.946c-38.291,3.53-53.344,4.536-69.58,68.561s2.436,115.833,6.838,187.54S-3.028,361.055.3,463.34C3.237,553.418,25.152,584.689,11.076,691.7s24.614,140.991,63.83,137.115c61.326-6.063,98.047-27.417,203.712-20.889s209.225,24.152,249.606,5.875,39.08-74.416,24.751-163.844S556.875,565.258,552.974,404.872Z" transform="translate(829.105) rotate(90)" fill="#fff6db"/>
</svg>
