<svg xmlns="http://www.w3.org/2000/svg" xmlns:xlink="http://www.w3.org/1999/xlink" width="137.869" height="45.923" viewBox="0 0 137.869 45.923">
  <defs>
    <filter id="Path_366" x="0" y="0" width="137.869" height="45.923" filterUnits="userSpaceOnUse">
      <feOffset input="SourceAlpha"/>
      <feGaussianBlur stdDeviation="2" result="blur"/>
      <feFlood flood-color="#161614" flood-opacity="0.749"/>
      <feComposite operator="in" in2="blur"/>
      <feComposite in="SourceGraphic"/>
    </filter>
  </defs>
  <g transform="matrix(1, 0, 0, 1, 0, 0)" filter="url(#Path_366)">
    <path id="Path_366-2" data-name="Path 366" d="M353.98,505.2c-.81,0-4.187-5.244-1.756-9.378s5.717-4.4,7.057-8.229.135-6.89-1.283-7.119c1.644,10.067-17.372,21.1-18.714,21.1s-.025-2.3-1.165-3.588c0,4.081-5.28,7.154-6.99,7.923-6.635,2.986-18.161,1.54-21.021-1.01s-3.062-3.637-3.062-3.637-4.128-1.373-4.255,4.321-6.306-6.191-6.787-7.828c-1.57,2.01.3,4.574-.506,7.828s-6.146.884-6.146.884l-8.137,1.37s-6.28,1.307-9.421-2.937c-5.369,3.076-9.589.684-9.589.684s-9.724,2.708-11.615.153a6.618,6.618,0,0,0-5-2.526s-3.92,4.6-6.027,4.265-2.958-7.481-2.161-11.7-4.232,7.943-3.292,12.871,3.308,1.982,5,3.9,20.579-4.167,26-3.133,3.7,2.685,11.852,4.328,43.811-.187,49.534-1.2,22.927-6.481,24.581-6.96" transform="translate(-227.99 -474.47)" fill="#fff" opacity="0.24"/>
  </g>
</svg>
