<svg xmlns="http://www.w3.org/2000/svg" xmlns:xlink="http://www.w3.org/1999/xlink" width="186.267" height="40.155" viewBox="0 0 186.267 40.155">
  <defs>
    <filter id="Path_300" x="0" y="0" width="186.267" height="40.155" filterUnits="userSpaceOnUse">
      <feOffset input="SourceAlpha"/>
      <feGaussianBlur stdDeviation="2" result="blur"/>
      <feFlood flood-color="#161614" flood-opacity="0.749"/>
      <feComposite operator="in" in2="blur"/>
      <feComposite in="SourceGraphic"/>
    </filter>
  </defs>
  <g id="Layer_72" data-name="Layer 72" transform="translate(-31.041 6)">
    <g transform="matrix(1, 0, 0, 1, 31.04, -6)" filter="url(#Path_300)">
      <path id="Path_300-2" data-name="Path 300" d="M280.053,798.376s9.4-4.591,14.536-4.117,5.889,2.3,7.136,3.483c6,5.106,13.025,5.007,15.2,3.272s6.617-11.492,6.617-12.666c2.048,5.033-1.343,8.879,1.347,11.294s8.793-.772,12.122-.633,2.147,1.709,3.568,3.061,13.785-4.446,14.007-7.177c.446,2.533-.719,2.415,0,4.116s9.28,1.992,10.7-.633c.914-1.685-.61-7.911,6.409-10.5-6.343,7.019.958,14.882,4.493,15.727a25.292,25.292,0,0,0,11.3.185c4.955-1.055,8.35-8.734,12.686-8.892s15.36,8.906,17.256,6.649-.261-3.087,0-6.333,4.812-5.172,4.812-5.172-5.963,6.162-1.156,7.9c3.121,1.131-.966,2.157.5,2.652a7.623,7.623,0,0,0,6.871-1.583,38.465,38.465,0,0,1,5.55-5.066c4.988-3.985,17.286-3.154,20.317.026-4.493-1.346-12.124-3.826-16.419,3.51-1.454,3.692-14.206,9.869-19.491,11.188s-9.7,1.781-10.836,3.087a20.41,20.41,0,0,0-2.345,4.275s-1.759-3.4,0-5.726c2.8-5.1-11.265-2.216-11.265-2.216s-13.113,4.6-21.836,4.855-15.776-2.632-19.261-3.483-12.29-.791-12.29-.791H326.568s-12.537.713-20.086-1.425-10.118-5.343-12.29-8.866S280.053,798.376,280.053,798.376Z" transform="translate(-274.05 -781.87)" fill="#fff" opacity="0.17"/>
    </g>
  </g>
</svg>
