<svg xmlns="http://www.w3.org/2000/svg" width="34.546" height="25.909" viewBox="0 0 34.546 25.909">
  <path id="Icon_ionic-ios-reverse-camera" data-name="Icon ionic-ios-reverse-camera" d="M36.3,12.193H31.4a1.46,1.46,0,0,1-1.08-.486C27.764,8.847,26.8,7.875,25.758,7.875H18.066c-1.053,0-2.087.972-4.651,3.841a1.432,1.432,0,0,1-1.071.477h-.369v-.72a.722.722,0,0,0-.72-.72H8.917a.722.722,0,0,0-.72.72v.72H7.523A2.917,2.917,0,0,0,4.5,14.955V30.788a3.114,3.114,0,0,0,3.014,3H36.3a2.884,2.884,0,0,0,2.744-3V14.955A2.681,2.681,0,0,0,36.3,12.193ZM26.478,28.431a1.08,1.08,0,0,1-.432.549,7.5,7.5,0,0,1-4.273,1.331,7.588,7.588,0,0,1-5.137-2.042,7.764,7.764,0,0,1-2.429-4.516H12.372a.519.519,0,0,1-.5-.594A.323.323,0,0,1,11.931,23l2.834-3.805a.495.495,0,0,1,.792,0l2.9,3.76a.516.516,0,0,1-.162.765.288.288,0,0,1-.171.045H16.249a5.752,5.752,0,0,0,1.79,3.059,5.392,5.392,0,0,0,6.882.441,1.052,1.052,0,0,1,.585-.189.983.983,0,0,1,.747.333A1,1,0,0,1,26.478,28.431Zm5.092-6.072-2.807,3.859a.5.5,0,0,1-.747.072.239.239,0,0,1-.045-.054l-2.915-3.877a.518.518,0,0,1,.171-.765.372.372,0,0,1,.171-.045h1.889a5.98,5.98,0,0,0-1.79-3.2,5.4,5.4,0,0,0-6.882-.477,1.014,1.014,0,0,1-.576.18,1,1,0,0,1-.738-.324,1.031,1.031,0,0,1,.2-1.574,7.531,7.531,0,0,1,4.282-1.331,7.627,7.627,0,0,1,5.2,2.006,8.255,8.255,0,0,1,2.357,4.714h1.9a.337.337,0,0,1,.162.045A.542.542,0,0,1,31.57,22.359Z" transform="translate(-4.5 -7.875)" fill="#fff"/>
</svg>
