<svg xmlns="http://www.w3.org/2000/svg" xmlns:xlink="http://www.w3.org/1999/xlink" width="1301.279" height="97" viewBox="0 0 1301.279 97">
  <defs>
    <linearGradient id="linear-gradient" y1="0.5" x2="1" y2="0.5" gradientUnits="objectBoundingBox">
      <stop offset="0" stop-color="#6b1e75"/>
      <stop offset="1" stop-color="#b6287d"/>
    </linearGradient>
    <linearGradient id="linear-gradient-2" x1="-5.343" y1="-28.134" x2="-5.341" y2="-28.134" gradientUnits="objectBoundingBox">
      <stop offset="0" stop-color="#fa9722"/>
      <stop offset="0.069" stop-color="#fa9826"/>
      <stop offset="0.14" stop-color="#fa9e32"/>
      <stop offset="0.211" stop-color="#fba746"/>
      <stop offset="0.282" stop-color="#fcb463"/>
      <stop offset="0.354" stop-color="#fdc587"/>
      <stop offset="0.409" stop-color="#ffd5aa"/>
      <stop offset="1" stop-color="#f09800"/>
    </linearGradient>
  </defs>
  <g id="Group_1708" data-name="Group 1708" transform="translate(-311.722 -260.532)">
    <path id="Path_498" data-name="Path 498" d="M2992.711,1864.16h1188.15s12.458,1.31,17.509,4.484,11.613,8.361,11.613,17.972c19.041,31.1,54.411,67.986-1.569,73.605-78.513,7.88-181.82-36.932-255.8-18.344-70.524,17.719-93.466,14.021-129.029,12.463-51.941-2.276-107.457-9.075-225.226-12.03s-229.708,22.342-301.981,15.958c-69.473-10.066-87.957-19.706-172.081-26.648-79.983-6.6-155.113,30.576-180.174,4.321-22.375-22.233,17.77-46.55,19.062-51.46s1.975-9.2,9.355-14.284S2992.711,1864.16,2992.711,1864.16Z" transform="translate(-2625.633 -1603.628)" fill="url(#linear-gradient)"/>
    <g id="Group_497" data-name="Group 497" transform="translate(352 326.158)">
      <path id="Path_499" data-name="Path 499" d="M2965.043,1995.08a167.422,167.422,0,0,0,21.772-.666c7.048-.678,13.671-1.791,20.171-2.984s12.853-2.53,19.4-3.769,13.206-2.44,20.147-3.446,14.084-1.859,21.393-2.5,14.771-1.077,22.268-1.328c3.753-.119,7.473-.221,11.357-.236,3.892.024,7.6.145,11.372.289,3.752.16,7.486.361,11.18.63s7.342.592,10.965.947c14.445,1.488,28.143,3.643,41.264,6.091,13.1,2.47,25.811,5.144,38.483,7.828s25.37,5.353,38.549,7.664c6.582,1.154,13.293,2.214,20.178,3.059s13.946,1.465,21.048,1.682c3.556.115,7.046.063,10.76,0q5.491-.095,10.962-.281,10.931-.385,21.75-1.078c14.413-.935,28.573-2.322,42.594-3.907,27.974-3.214,55.9-6.937,85.114-9.213,29.138-2.339,59.184-3.266,88.957-2.885,14.895.189,29.726.673,44.451,1.374q11.04.532,21.986,1.255c7.306.457,14.563,1,21.8,1.568l-.119.209c-14.628-.823-29.28-1.565-44-2.042q-22.056-.773-44.2-.816c-29.482-.076-58.877,1.065-87.45,3.462-14.3,1.186-28.374,2.7-42.412,4.29q-10.524,1.2-21.04,2.465c-7.036.817-14.09,1.631-21.2,2.4-14.218,1.541-28.7,2.9-43.468,3.789-7.38.444-14.821.787-22.293.984q-5.606.144-11.222.205c-1.893.007-3.7.046-5.667.025-1.936-.009-3.864-.062-5.775-.136a218.075,218.075,0,0,1-21.953-2.072c-6.979-.987-13.65-2.172-20.174-3.425-13.013-2.534-25.464-5.345-38.135-8.022s-25.462-5.286-38.836-7.469c-13.331-2.2-27.089-4.08-41.271-5.3-7.07-.631-14.238-1.091-21.447-1.387-3.591-.137-7.272-.229-10.787-.277-3.523,0-7.2.086-10.827.19a399.5,399.5,0,0,0-42.4,3.477c-6.8.931-13.457,2.011-20.027,3.179s-13.109,2.391-19.841,3.519c-6.715,1.131-13.75,2.115-21.111,2.681-3.675.281-7.42.452-11.172.487s-7.5-.079-11.167-.294Z" transform="translate(-2964.962 -1980.149)" fill="url(#linear-gradient-2)"/>
    </g>
  </g>
</svg>
