<svg xmlns="http://www.w3.org/2000/svg" width="35.706" height="33.615" viewBox="0 0 35.706 33.615">
  <g id="Polygon_8" data-name="Polygon 8" fill="none">
    <path d="M16.046,3.807a2,2,0,0,1,3.614,0l3.078,6.486A2,2,0,0,0,24.3,11.42l7.148.89a2,2,0,0,1,1.114,3.45l-5.228,4.854a2,2,0,0,0-.6,1.845l1.351,6.989a2,2,0,0,1-2.921,2.136l-6.35-3.461a2,2,0,0,0-1.914,0l-6.35,3.461a2,2,0,0,1-2.921-2.136l1.351-6.989a2,2,0,0,0-.6-1.845L3.146,15.76a2,2,0,0,1,1.114-3.45l7.148-.89a2,2,0,0,0,1.56-1.127Z" stroke="none"/>
    <path d="M 17.85284996032715 4.664468765258789 L 14.77445030212402 11.15056800842285 C 14.18503952026367 12.39239883422852 13.01877975463867 13.2351188659668 11.65473937988281 13.40482711791992 L 4.506315231323242 14.29434776306152 C 4.506313323974609 14.29435157775879 4.506313323974609 14.29435539245605 4.50629997253418 14.29434776306152 L 9.734100341796875 19.14796829223633 C 10.75297927856445 20.09393692016602 11.20369911193848 21.47364807128906 10.93976974487305 22.83868789672852 L 9.588430404663086 29.82777786254883 L 15.93873023986816 26.36695861816406 C 16.52420043945313 26.04789733886719 17.18609046936035 25.87924766540527 17.85284996032715 25.87924766540527 C 18.51960945129395 25.87924766540527 19.18149948120117 26.04789733886719 19.76699066162109 26.36696815490723 L 26.11723327636719 29.82775115966797 C 26.11724281311035 29.82774543762207 26.11725044250488 29.82773971557617 26.11726951599121 29.82778739929199 L 24.76593017578125 22.83867835998535 C 24.50199890136719 21.47364807128906 24.95272064208984 20.09393692016602 25.97161102294922 19.14795684814453 L 31.19938850402832 14.29435920715332 C 31.19938659667969 14.29435539245605 31.19938659667969 14.29435157775879 31.19939041137695 14.29434776306152 L 24.05096054077148 13.40482711791992 C 22.6869010925293 13.23508834838867 21.52064895629883 12.39237785339355 20.93124961853027 11.15054893493652 L 17.85284996032715 4.664468765258789 M 17.85284614562988 2.664466857910156 C 18.57551574707031 2.664466857910156 19.29818534851074 3.045282363891602 19.65966987609863 3.806917190551758 L 22.73806953430176 10.29299736022949 C 23.03120994567871 10.91061782836914 23.61951065063477 11.33571815490723 24.29792976379395 11.42013740539551 L 31.44635963439941 12.30965805053711 C 33.13274002075195 12.51950836181641 33.80556869506836 14.60379791259766 32.5601806640625 15.76004791259766 L 27.33240127563477 20.6136474609375 C 26.82637023925781 21.08346939086914 26.59848022460938 21.78106689453125 26.72956085205078 22.45901870727539 L 28.08090019226074 29.44811820983887 C 28.3340015411377 30.75711631774902 27.29560470581055 31.83267974853516 26.11723136901855 31.83267974853516 C 25.80083465576172 31.83267974853516 25.47454071044922 31.75522422790527 25.16020965576172 31.58391761779785 L 18.8099193572998 28.12310791015625 C 18.51161003112793 27.96053695678711 18.18222999572754 27.87925338745117 17.85284996032715 27.87925338745117 C 17.52346992492676 27.87925338745117 17.19408988952637 27.96053695678711 16.89578056335449 28.12310791015625 L 10.54549980163574 31.58391761779785 C 10.23125839233398 31.75517463684082 9.904790878295898 31.83267784118652 9.588476181030273 31.83267784118652 C 8.409984588623047 31.83267784118652 7.371679306030273 30.75720977783203 7.624799728393555 29.44811820983887 L 8.976139068603516 22.45901870727539 C 9.107219696044922 21.78106689453125 8.879329681396484 21.08346939086914 8.373300552368164 20.6136474609375 L 3.145511627197266 15.76004791259766 C 1.900131225585938 14.60379791259766 2.572959899902344 12.51950836181641 4.259340286254883 12.30965805053711 L 11.40777015686035 11.42013740539551 C 12.08618927001953 11.33572769165039 12.67448997497559 10.91061782836914 12.96763038635254 10.29299736022949 L 16.04603004455566 3.806917190551758 C 16.40751075744629 3.045282363891602 17.13017654418945 2.664466857910156 17.85284614562988 2.664466857910156 Z" stroke="none" fill="#fbb05b"/>
  </g>
</svg>
