<svg xmlns="http://www.w3.org/2000/svg" width="538.159" height="685.407" viewBox="0 0 538.159 685.407">
  <path id="Path_4367" data-name="Path 4367" d="M3829.514,1291.293c-.906-32.192-18.017-162.331-5.37-249.88s0-87.55-62.178-76.606c-56.036,4.947-98.961,13.714-195.125,11.856s-123.808-24.52-189.532-19.288c-36.661,2.918-51.072,3.75-66.617,56.678s2.332,95.757,6.547,155.036-20.05,85.982-16.861,170.539c2.81,74.466,23.792,100.317,10.314,188.779s23.565,116.554,61.111,113.35c58.714-5.012,93.872-22.665,195.037-17.268s200.314,19.966,238.977,4.857,37.415-61.518,23.7-135.447S3833.249,1423.882,3829.514,1291.293Z" transform="translate(-3300.088 -956.592)" fill="#ffe4f0"/>
</svg>
