<svg xmlns="http://www.w3.org/2000/svg" width="480" height="551" viewBox="0 0 480 551">
  <path id="Path_486" data-name="Path 486" d="M3772.3,1225.659c-.807-25.879-16.07-130.5-4.789-200.88s0-70.381-55.458-61.584c-49.98,3.977-88.267,11.024-174.038,9.531s-110.428-19.712-169.049-15.505c-32.7,2.346-45.552,3.015-59.418,45.564s2.08,76.979,5.84,124.634-17.884,69.121-15.039,137.1c2.506,59.864,21.22,80.645,9.2,151.76s21.019,93.7,54.507,91.123c52.369-4.029,83.728-18.22,173.959-13.882s178.666,16.051,213.15,3.9,33.372-49.454,21.135-108.886S3775.63,1332.248,3772.3,1225.659Z" transform="translate(-3300.088 -956.593)" fill="#ffcce3"/>
</svg>
