<svg id="Group_1381" data-name="Group 1381" xmlns="http://www.w3.org/2000/svg" width="351.984" height="335.826" viewBox="0 0 351.984 335.826">
  <g id="Group_1341" data-name="Group 1341" transform="translate(237.862 45.528)">
    <path id="Path_2745" data-name="Path 2745" d="M542.594,453.535a40,40,0,0,0,9.7,14.7c6.8,6.57,12.8,5.591,14.252,5.245a6.056,6.056,0,0,0,3.186-2.073c1.222-1.64,1.847-3.767-.491-6-3.7-3.529-7.715,1.682-4.431,4.461,2.489,2.106,4.732-.486,2.277-2.525l.095.025c2.586,2.151.006,4.793-2.617,2.572-3.462-2.927.845-8.261,4.74-4.548,2.478,2.372,1.643,4.891.184,6.478a6.3,6.3,0,0,1-2.8,1.735c-1.537.365-7.631,1.484-14.793-5.435a35.585,35.585,0,0,1-9.547-15.077Z" transform="translate(-505.766 -294.801)" fill="#f173ac"/>
    <path id="Path_2746" data-name="Path 2746" d="M540.753,443.116s.154,11.18,5.943,28.771c5.117,15.524,15.672,40.52,18.37,47.04a169.969,169.969,0,0,1,10.181,39.267,226.271,226.271,0,0,1,1.771,31.977,76.346,76.346,0,0,1-1.241,12.795,83.586,83.586,0,0,0,1.041-9.185,183.583,183.583,0,0,0-.318-21.453c-.349-5.867-1.219-12.647-1.219-12.647a168.275,168.275,0,0,0-11.35-42.693c-2.757-6.434-11.944-28.347-16.944-42.3a134.623,134.623,0,0,1-6.919-29.934Z" transform="translate(-509.845 -312.668)" fill="#f173ac" opacity="0.8"/>
    <path id="Path_2747" data-name="Path 2747" d="M557.952,399.43a90.558,90.558,0,0,1-3.083,29.175c-3.331,12.494-8.847,33.026-10.755,39.4a149.73,149.73,0,0,0-4.654,39.485c.435,17.368,4.311,34.27,6.305,40.322,5.72,17.362,16.548,25.766,16.548,25.766-3.362-3.306-9.464-9.759-14.525-23.009C541.826,534.965,541,511.3,541,511.3c-.873-15.94,3.225-34.17,5.136-40.542s8.54-27.73,11.746-41.24c3.633-15.295,2.447-31.321,2.447-31.321Z" transform="translate(-510.999 -393.069)" fill="#f173ac"/>
    <path id="Path_2748" data-name="Path 2748" d="M556.123,457.148a47.456,47.456,0,0,1,2.885,22.694c-1.44,12.056-9.023,15.705-10.959,16.475a9.576,9.576,0,0,1-5.471.332c-2.885-.739-5.558-2.447-5.036-6.565.829-6.509,10.145-4.252,9.076,1.169-.8,4.1-5.711,3.172-4.88-.843l-.081.1c-.876,4.23,4.453,4.947,5.3.622,1.124-5.711-8.63-7.868-9.495-1.01-.555,4.369,2.715,6.319,5.823,6.825a9.978,9.978,0,0,0,4.732-.385c2.042-.818,9.866-4.392,11.389-17.095a42.383,42.383,0,0,0-3.421-22.962Z" transform="translate(-514.618 -288.699)" fill="#f173ac"/>
    <path id="Path_2749" data-name="Path 2749" d="M549.892,415.364s-12.832,37.975-4.645,84.831c7.756,44.337,34.616,56,41.451,58.39a30.552,30.552,0,0,0,18.836-.1c9.734-3.449,18.506-10.435,15.755-25.573-4.347-23.922-35.785-13.275-30.872,6.551,3.728,15.011,20.337,10.365,16.556-4.313l.3.36c3.978,15.454-14.132,19.41-18.052,3.6-5.184-20.886,27.772-31.276,32.356-6.077,2.916,16.07-7.862,24.095-18.392,26.734a31.745,31.745,0,0,1-16.333-.285c-7.2-2.519-34.884-13.869-43.045-60.575-8.632-49.358,6.395-85.967,6.395-85.967Z" transform="translate(-507.938 -366.68)" fill="#f173ac"/>
    <path id="Path_2750" data-name="Path 2750" d="M553.853,422.52a31.3,31.3,0,0,1,1.066,14.2c-1.172,7.449-5.689,9.486-6.844,9.907a5.228,5.228,0,0,1-3.195.042c-1.668-.547-3.175-1.694-2.756-4.235.658-4.021,6.026-2.335,5.256,1-.58,2.522-3.415,1.8-2.826-.675l-.047.064c-.622,2.6,2.464,3.206,3.08.544.806-3.513-4.816-5.15-5.513-.918-.444,2.7,1.412,4.015,3.206,4.422a5.4,5.4,0,0,0,2.773-.1c1.211-.444,5.873-2.43,7.109-10.281a28.01,28.01,0,0,0-1.364-14.377Z" transform="translate(-506.372 -350.26)" fill="#f173ac"/>
    <path id="Path_2751" data-name="Path 2751" d="M550.322,412.435a51.539,51.539,0,0,0-3.836,24.3c1,13.476,8.6,18.914,10.544,20.13a9.917,9.917,0,0,0,5.569,1.4c2.974-.262,5.77-1.624,5.4-6.233-.592-7.285-10.189-6.584-9.31-.449.667,4.648,5.706,4.562,5.014.008l.081.126c.723,4.8-4.74,4.567-5.438-.326-.923-6.467,9.112-6.975,9.735.7.39,4.891-3.025,6.406-6.211,6.367a10.313,10.313,0,0,1-4.818-1.328c-2.053-1.278-9.9-6.685-10.954-20.883-1.113-15,4.386-24.5,4.386-24.5Z" transform="translate(-499.32 -368.807)" fill="#f173ac"/>
    <path id="Path_2752" data-name="Path 2752" d="M547.918,426.3s1.532,7.12,7.564,17.323c5.326,9,16.344,24.46,15.649,23.629-2.86-3.423-10.055-13.869-15.105-21.888a81.528,81.528,0,0,1-8.351-17.892Z" transform="translate(-496.227 -342.767)" fill="#f173ac"/>
    <path id="Path_2753" data-name="Path 2753" d="M546.015,397.583a58.269,58.269,0,0,1,1.738,19.226c-.558,8.6-1.507,22.739-1.928,27.164a97.437,97.437,0,0,0,2.051,26.109,99.075,99.075,0,0,0,9.291,24.65c5.951,10.064,14.084,13.476,14.084,13.476-2.62-1.5-7.419-4.523-12.416-12.081-5.887-8.9-9.467-23.885-9.467-23.885-2.62-10.039-2.294-22.449-1.872-26.874s1.992-19.3,2.344-28.522a75.194,75.194,0,0,0-2.436-20.484Z" transform="translate(-499.842 -396.361)" fill="#f173ac"/>
    <path id="Path_2754" data-name="Path 2754" d="M578.948,405.752a107.192,107.192,0,0,0-5.468,34.382c.142,14.53.907,38.29,1.191,45.779.164,4.216.714,24-4.609,43.675-5,18.481-13.42,35.3-17.058,41.12a61.341,61.341,0,0,1-10.823,12.859,55.3,55.3,0,0,1-12.946,9.176,61.326,61.326,0,0,0,21.69-19.611c10.217-14.717,17.268-39.828,17.268-39.828,5.084-16.8,4.927-37.9,4.643-45.385s-1.507-32.649-1.261-48.226c.276-17.639,5.7-34.432,5.7-34.432Z" transform="translate(-529.235 -380.43)" fill="#f173ac"/>
    <path id="Path_2755" data-name="Path 2755" d="M563.419,439.808a48.674,48.674,0,0,1,8.055,23.473c1.018,13.378-6.468,19.6-8.42,21.026a11.425,11.425,0,0,1-5.9,2.02c-3.309.092-6.6-.932-6.914-5.508-.505-7.237,10.156-7.656,10.161-1.515,0,4.648-5.555,5.148-5.513.586l-.064.137c-.045,4.8,5.926,3.945,5.923-.951-.006-6.47-11.116-5.814-10.591,1.808.338,4.86,4.333,5.954,7.829,5.555a11.99,11.99,0,0,0,5.089-1.864c2.054-1.5,9.827-7.723,8.744-21.815-1.141-14.893-8.682-23.607-8.682-23.607Z" transform="translate(-491.81 -319.763)" fill="#f173ac"/>
    <path id="Path_2756" data-name="Path 2756" d="M555.8,440.539a12.166,12.166,0,0,0,4.52,4.266,5.7,5.7,0,0,0,5.669.259,2.868,2.868,0,0,0,1.074-1.133,1.447,1.447,0,0,0-.541-2.151c-1.6-.862-2.8,1.523-1.4,2.162,1.057.483,1.746-.731.7-1.2l.036,0c1.1.494.287,1.763-.832,1.255-1.473-.67-.17-3.139,1.512-2.229a1.545,1.545,0,0,1,.458,2.363,2.988,2.988,0,0,1-.954.968,5.835,5.835,0,0,1-5.881-.265,10.866,10.866,0,0,1-4.489-4.431Z" transform="translate(-481.899 -317.521)" fill="#f173ac"/>
    <path id="Path_2757" data-name="Path 2757" d="M549.79,434.339a36.763,36.763,0,0,1,.326,6.013c-.05,3.273-.413,8.582-.5,9.966a57.468,57.468,0,0,0,.2,8.236c.2,2.067.589,4.749.943,6.615a26.125,26.125,0,0,0,.611,2.617c-.176-.642-.321-1.23-.458-1.875-.318-1.526-.547-3.094-.734-4.425-.167-1.211-.307-2.623-.307-2.623a55.553,55.553,0,0,1-.184-8.962c.095-1.364.4-6.015.5-8.97a46.406,46.406,0,0,0-.254-6.266Z" transform="translate(-492.868 -328.379)" fill="#f173ac" opacity="0.8"/>
    <path id="Path_2758" data-name="Path 2758" d="M547.564,425.4a32.734,32.734,0,0,0,1.417,5.962c.845,2.525,2.243,6.671,2.7,7.957a53.948,53.948,0,0,1,1.975,8.058,56.627,56.627,0,0,1,.7,8.4,13.35,13.35,0,0,1-1.046,5.555,14.739,14.739,0,0,0,.9-4.955,52.248,52.248,0,0,0-.6-8.186,50.06,50.06,0,0,0-2.076-8.275c-.455-1.286-2.012-5.586-2.885-8.32a42.837,42.837,0,0,1-1.42-6.411Z" transform="translate(-497.02 -344.761)" fill="#f173ac"/>
    <path id="Path_2759" data-name="Path 2759" d="M555.644,411.009a43.94,43.94,0,0,1-3.089,13.933c-2.3,5.962-6.121,15.764-7.4,18.8a74.14,74.14,0,0,0-4.408,18.858,72.687,72.687,0,0,0,.946,19.254c1.881,8.292,6.763,12.3,6.763,12.3-1.484-1.576-4.138-4.659-5.921-10.99-2.1-7.449-1.233-18.749-1.233-18.749.424-7.608,3.423-16.313,4.7-19.357s5.694-13.239,8-19.689a56.5,56.5,0,0,0,2.882-14.957Z" transform="translate(-509.078 -371.195)" fill="#f173ac"/>
    <path id="Path_2760" data-name="Path 2760" d="M546.885,407.4a84.859,84.859,0,0,0,8.694,39.515c9.561,19.622,24.31,22.27,27.981,22.677a16.218,16.218,0,0,0,9.274-1.956c4.347-2.572,7.762-6.677,4.447-13.364-5.243-10.574-19.349-2.489-14.363,6.138,3.78,6.534,11.361,2.715,7.6-3.66l.192.134c3.968,6.713-4.445,10.365-8.429,3.488-5.254-9.087,9.634-17.209,15.155-6.074,3.519,7.1-.747,11.888-5.6,14.168a16.886,16.886,0,0,1-8.086,1.523c-3.87-.43-18.981-2.849-29.05-23.52-10.647-21.846-7.988-40.216-7.988-40.216Z" transform="translate(-498.469 -378.65)" fill="#f173ac"/>
    <path id="Path_2761" data-name="Path 2761" d="M554.771,415.463a19.392,19.392,0,0,1,2.516,8.892c.2,4.977-2.483,7.1-3.183,7.583a3.724,3.724,0,0,1-2.073.608,2.123,2.123,0,0,1-2.341-2.21c-.086-2.7,3.627-2.592,3.552-.318-.053,1.727-1.992,1.772-1.922.087l-.025.047c-.073,1.78,2.015,1.607,2.073-.209.078-2.4-3.8-2.419-3.705.416a2.251,2.251,0,0,0,2.656,2.243,3.815,3.815,0,0,0,1.789-.566c.736-.5,3.513-2.62,3.306-7.868a17.227,17.227,0,0,0-2.734-8.953Z" transform="translate(-492.672 -362.612)" fill="#f173ac"/>
    <path id="Path_2762" data-name="Path 2762" d="M551.6,408.809a34.07,34.07,0,0,0,.628,16.246c2.386,8.44,8.03,10.538,9.45,10.959a6.526,6.526,0,0,0,3.811-.114c1.9-.709,3.543-2.087,2.706-4.969-1.32-4.553-7.477-2.36-6.116,1.409,1.03,2.851,4.3,1.88,3.27-.91l.062.07c1.091,2.932-2.494,3.781-3.58.776-1.431-3.967,5.036-6.119,6.425-1.322.885,3.058-1.138,4.648-3.22,5.206a6.823,6.823,0,0,1-3.309.025c-1.5-.444-7.3-2.478-9.815-11.369a30.33,30.33,0,0,1-.3-16.472Z" transform="translate(-490.898 -374.913)" fill="#f173ac"/>
    <path id="Path_2763" data-name="Path 2763" d="M546.015,397.583a58.269,58.269,0,0,1,1.738,19.226c-.558,8.6-1.507,22.739-1.928,27.164a97.437,97.437,0,0,0,2.051,26.109,99.075,99.075,0,0,0,9.291,24.65c5.951,10.064,14.084,13.476,14.084,13.476-2.62-1.5-7.419-4.523-12.416-12.081-5.887-8.9-9.467-23.885-9.467-23.885-2.62-10.039-2.294-22.449-1.872-26.874s1.992-19.3,2.344-28.522a75.194,75.194,0,0,0-2.436-20.484Z" transform="translate(-499.842 -396.361)" fill="#f173ac"/>
  </g>
  <g id="Group_1342" data-name="Group 1342" transform="translate(267.335 35.126)">
    <path id="Path_2764" data-name="Path 2764" d="M560.256,392.787a16.718,16.718,0,0,0,2.776.12c2.076-.081,3.3.829,4.442,1.136a18.8,18.8,0,0,0,4.286.6c1.233-.05,5.276-1.03,6.587-.737.432.1,2.263.285.427.522-.273.039-.128.561.092.552.614-.028,2.056,1.406,1.007,2.118-.324.218-.112,1,.505.979s.954,2.737.36,3.379.8.586,1.515,1.25c0,0,.5.982.061,1.465s1.2,1.108,1.2,1.108l-.48.519.488,1.716-.477.519s.965,1.169,1.328,1.5-.575.089-.092.533a5.146,5.146,0,0,1,1.169,3.306s-.957.229.047,1.152.91,1.626.91,1.626-.539.017.36,1.292a3.951,3.951,0,0,1,.753,2.517s-.762.142-.424.458,1.4,2.776,1.682,3.038c0,0-.7-.128.036.921a6.334,6.334,0,0,1,.9,3.242s-1.169-.3-.862.611,1.063,4.428.647,5.681c0,0-.976-.385-1.387.053s.265.876.329,2.416c0,0-.466-.059-.226,1.166a15.344,15.344,0,0,1,.3,2.494s-1.71-.818-1.643.061a6.371,6.371,0,0,1-.162,2.489c-.335,1.208-.056,1.133-.056,1.133s-1.532-.43-1.7-.243.318.862.329,1.144-.232,1.373-.46,1.381-1.046-.4-1.032.039a3.928,3.928,0,0,1-.014,2.776s-.315.82-.139.982-1.085-.162-1.074.209.617,1.889.848,1.88a1.552,1.552,0,0,0-.3,1.476c.29.84-.072.851-.072.851a2.074,2.074,0,0,1-.045.8,12.017,12.017,0,0,1-1.537-.633c-.162-.151-.2-.109-.424.131s.128-.352-.94-.424a1.973,1.973,0,0,1-1.521-1.138c-.162-.148-.664.053-.642.645s.109-.366-.812-.326a6.3,6.3,0,0,1-2.924-1.172c-.318-.293-.447-.318-.575.329s-.237.524-.229.756-.193-.374-.734-.354a4.194,4.194,0,0,1-3.013-1.451c-.845-1.122-.887.6-.873.831a6.448,6.448,0,0,1-1.9-1.543c-.248-.5-.717.106-.7.541s-.206.547-.4.762a29.05,29.05,0,0,1-3.4-2.051c-.642-.592-1.253-1.532-1.8-2.034s-.561.072-.549.4-.6.488-.592.667a7.3,7.3,0,0,0-1.565-1.3A3.068,3.068,0,0,1,556.5,446.1c-.011-.232-.675-.2-.667,0a5.24,5.24,0,0,1-1.136-1.473c-.154-.533.078-1.183-.179-1.175s-.516.536-1.044.862-.293.321-.293.321-2.012-1.975-2.176-2.971a1.409,1.409,0,0,1-.41.067c-.181.008.084-.762-.22-1.046s.206.02,0-.695,0-.935-.408-.494a9.049,9.049,0,0,1-.923.753c-.167.19-.031-.279-.658-1.127a6.284,6.284,0,0,1-1.244-2.907c-.034-.82.276-1.451.047-1.44s-.419.209-.689.5-.449.176-.566.3a5.881,5.881,0,0,1-.923-3.267c.128-1.261-.653.042-.89.293a26.716,26.716,0,0,1-.5-2.985c-.033-.871-.516-.081-.516-.081s-.313-.064.061-1.727-.474-.212-.474-.212a.838.838,0,0,1-.832.343,3.8,3.8,0,0,0-.176-1.228,4.011,4.011,0,0,1-.145-2.307c.106-.446-.3-.449-.4-.343s.028-.616.014-.873.6-1.309.114-1.085a1.638,1.638,0,0,0-.728.494s-.709-3.532.262-5.2c.4-.7-.3-.131-.3-.131a.815.815,0,0,0-.472.212,18.935,18.935,0,0,1,.251-2.81l-.274.215s.4-1.507.566-1.975-.48-.315-.7-.075.075-2.6.625-3.75-.243-.3-.329-.2a5.988,5.988,0,0,1,1.573-2.748,3.628,3.628,0,0,1-.106-.689c-.017-.36.871-1.4.634-1.618s-.5-.315-.6-.206,1.456-1.819,1.939-2.338.229-.756.72-1.289.388-.58-.025-.564,2.341-2.662,2.991-3.047-.02-.513-.02-.513a26.747,26.747,0,0,1,3.624-1.892c.488-.019.115-.338.115-.338s3.038-1.122,3.443-.753-.271-.246-.112-.254,3.217.234,3.446.815,1.183.7,1.183.7A4.53,4.53,0,0,1,560.256,392.787Z" transform="translate(-539.799 -392.633)" fill="#f173ac"/>
    <path id="Path_2765" data-name="Path 2765" d="M547.667,393.644a10.488,10.488,0,0,0-.29,1.867,12.028,12.028,0,0,0,.193,3.379,1.616,1.616,0,0,1,.1.639,16.04,16.04,0,0,0,.444,2.888c.123.4.3,1.875.474,2.19a13.649,13.649,0,0,1,.469,1.42c.05.139.137.859.332,1.713.332,1.5.971,3.426.971,3.426s1.214,3.329,1.5,4.185.94,1.931.954,2.238,1.085,2.539,1.294,3.036.9,2.291,1.281,3.144,1.828,4.3,2.528,5.973c.466,1.1,1.476,3.432,2.355,5.268.449.943.929,1.755,1.161,2.2.689,1.32,2.291,4.358,2.586,4.888s2.1,3.828,2.385,4.378,3.981,7.165,4.866,7.977c0,0-.884-.792-3.8-5.784-1.585-2.72-3.56-6.278-3.87-6.8s-3.181-5.868-3.476-6.548c0,0-2.667-6.021-3.13-6.989s-2.394-5.569-2.851-6.4-1.71-4.227-2-4.813-2.009-5.028-2.218-5.848-.848-2.472-1.11-3.792-1.133-3.27-1.166-4.171a5.362,5.362,0,0,0-.619-2.464c-.287-.268-.176-2.017-.2-2.673s-.19-2.285-.226-3.167-.324-1.258-.265-1.565c.081-.444,1.267-.667,1.37-.4A.961.961,0,0,1,547.667,393.644Z" transform="translate(-528.111 -392.121)" fill="#fff"/>
    <path id="Path_2766" data-name="Path 2766" d="M558.26,394.782s0-.025-.393.128a4.976,4.976,0,0,0-1.242.664l-.22.153a6.22,6.22,0,0,0-1,.678,8.627,8.627,0,0,0-.745.564,5.151,5.151,0,0,1-.455.427c-.036.045-.29.2-.583.424-.5.393-1.116.974-1.116.974s-1.041,1.043-1.309,1.3-.558.695-.675.753-.762.854-.912,1.021-.7.745-.957,1.038-1.3,1.448-1.8,2.009c-.335.368-1.035,1.161-1.568,1.816-.279.335-.5.658-.625.826-.374.494-1.236,1.632-1.387,1.836s-1.066,1.468-1.222,1.674a33.458,33.458,0,0,0-2.146,3.239,13.891,13.891,0,0,1,1.509-2.45c.742-1.08,1.73-2.452,1.875-2.662s1.646-2.235,1.85-2.464c0,0,1.8-2.07,2.076-2.416s1.677-1.883,1.906-2.2,1.292-1.392,1.459-1.6,1.535-1.646,1.811-1.866.778-.756,1.228-1.088,1.032-1,1.367-1.175a2.193,2.193,0,0,0,.817-.667c.047-.156.725-.421.966-.547s.828-.471,1.158-.642.257-.237.3-.276c0,0,.028.285.034.4A.971.971,0,0,0,558.26,394.782Z" transform="translate(-539.614 -389.735)" fill="#fff"/>
    <path id="Path_2767" data-name="Path 2767" d="M554.821,399.233s-.064,0-.463.312a4.793,4.793,0,0,0-1.16,1.219s-.212.3-.187.262a6.035,6.035,0,0,0-.862,1.172,8.316,8.316,0,0,0-.6.949,4.275,4.275,0,0,1-.321.689c-.025.072-.245.354-.48.728a17.359,17.359,0,0,0-.831,1.6s-.695,1.668-.884,2.084-.3,1.08-.4,1.189a13.673,13.673,0,0,0-.55,1.6c-.086.268-.455,1.186-.6,1.646s-.787,2.277-1.091,3.156c-.2.58-.622,1.822-.912,2.843-.148.524-.237,1.013-.3,1.269-.184.759-.6,2.508-.672,2.818s-.491,2.243-.566,2.558a40.154,40.154,0,0,0-.815,4.9,16.584,16.584,0,0,1,.474-3.674c.31-1.638.756-3.73.815-4.048s.768-3.423.887-3.789c0,0,1.055-3.236,1.208-3.769s1-2.966,1.108-3.451.809-2.2.893-2.531.971-2.6,1.183-2.971.539-1.219.907-1.78.709-1.615,1.024-1.933a2.256,2.256,0,0,0,.639-1.108c-.031-.223.656-.759.887-.988s.756-.851,1.069-1.163.287-.912.329-.926c0,0,.139.644.178.787S554.821,399.233,554.821,399.233Z" transform="translate(-533.864 -382.856)" fill="#fff"/>
    <path id="Path_2768" data-name="Path 2768" d="M554.918,405.044a6.377,6.377,0,0,0-.62.43,3.323,3.323,0,0,0-.812.887l-.131.19a4.539,4.539,0,0,0-.6.854,6.076,6.076,0,0,0-.41.692,4.164,4.164,0,0,1-.218.505c-.019.047-.176.254-.335.524a12.242,12.242,0,0,0-.569,1.164s-.472,1.214-.594,1.518-.2.784-.271.862a8.714,8.714,0,0,0-.36,1.172c-.061.19-.3.857-.4,1.191s-.519,1.657-.723,2.3c-.137.424-.41,1.325-.6,2.07-.095.38-.148.734-.19.924-.117.55-.38,1.825-.421,2.051s-.307,1.629-.357,1.861a28.023,28.023,0,0,0-.477,3.557,11.716,11.716,0,0,1,.26-2.67c.184-1.191.463-2.715.5-2.944s.482-2.491.563-2.754c0,0,.687-2.358.787-2.745s.659-2.154.728-2.508.536-1.6.594-1.841a22.179,22.179,0,0,1,.792-2.162c.145-.268.36-.884.619-1.295s.474-1.172.7-1.409a1.544,1.544,0,0,0,.438-.8c-.028-.162.466-.55.622-.72s.533-.622.748-.848.354-.578.466-.678c0,0,.162.36.2.458C554.862,404.915,554.918,405.044,554.918,405.044Z" transform="translate(-527.228 -371.546)" fill="#fff"/>
    <path id="Path_2769" data-name="Path 2769" d="M553.5,408.544a4.52,4.52,0,0,0-.443.419,2.357,2.357,0,0,0-.449.695s-.078.159-.07.14a2.813,2.813,0,0,0-.312.647,3.694,3.694,0,0,0-.209.508,3.251,3.251,0,0,1-.1.36c-.008.036-.092.193-.173.393-.137.354-.265.84-.265.84s-.2.868-.251,1.085-.053.538-.1.6a7.819,7.819,0,0,0-.125.82c-.025.137-.12.611-.154.843s-.2,1.163-.265,1.613c-.047.3-.151.929-.206,1.445-.028.262-.031.5-.039.633-.031.379-.084,1.255-.092,1.412s-.056,1.119-.064,1.275a18.9,18.9,0,0,0,.005,2.416,7.581,7.581,0,0,1-.07-1.8c.017-.812.062-1.855.062-2.012s.092-1.708.12-1.892c0,0,.237-1.649.262-1.917s.243-1.509.254-1.752.2-1.127.22-1.295.251-1.336.321-1.534.159-.63.287-.935.209-.837.335-1.021a1.1,1.1,0,0,0,.207-.589c-.025-.1.26-.424.346-.558s.29-.48.416-.658.226-.564.323-.664l.131.279C553.428,408.39,553.5,408.544,553.5,408.544Z" transform="translate(-521.33 -365.016)" fill="#fff"/>
    <path id="Path_2770" data-name="Path 2770" d="M546.862,395.421s.056-.008.226-.05a3.617,3.617,0,0,1,1.345-.053s.29.017.254.017a5.2,5.2,0,0,1,1.155.078,7.481,7.481,0,0,1,.882.114,4.1,4.1,0,0,0,.58.145c.05.017.34.028.684.075.605.084,1.384.282,1.384.282s1.351.391,1.7.48.79.332.912.324a11.684,11.684,0,0,1,1.233.444c.2.073.938.3,1.283.427s1.752.622,2.436.857c.449.156,1.4.5,2.148.809.385.159.714.335.9.418.541.243,1.788.817,2.009.924s1.571.756,1.8.859a29.732,29.732,0,0,1,3.287,1.794,12.208,12.208,0,0,0-2.391-1.417c-1.116-.58-2.581-1.292-2.8-1.406s-2.4-1.147-2.687-1.247c0,0-2.455-.915-2.849-1.077s-2.271-.815-2.614-.979-1.719-.572-1.962-.678-2.042-.67-2.377-.723-1-.271-1.532-.332-1.322-.357-1.685-.338a1.858,1.858,0,0,1-.988-.165c-.114-.117-.8,0-1.063.02s-1.024.022-1.376.039l.025.112c.031.128.042.117.05.137C546.845,395.371,546.862,395.421,546.862,395.421Z" transform="translate(-527.35 -388.482)" fill="#fff"/>
    <path id="Path_2771" data-name="Path 2771" d="M547.95,399.978a3.115,3.115,0,0,1,.647-.17,4.446,4.446,0,0,1,1.392-.059l.262.017a5.784,5.784,0,0,1,1.2.081,6.922,6.922,0,0,1,.907.12,4.516,4.516,0,0,0,.594.148c.059.02.36.028.717.078.619.086,1.429.293,1.429.293s1.4.41,1.752.5.815.34.946.335a11.785,11.785,0,0,1,1.278.455c.206.075.966.31,1.323.444s1.811.642,2.519.887c.46.162,1.448.516,2.221.834.4.165.745.346.938.433.558.254,1.847.845,2.073.954s1.624.787,1.855.893a30.808,30.808,0,0,1,3.407,1.855,12.784,12.784,0,0,0-2.478-1.467c-1.158-.6-2.667-1.337-2.893-1.456s-2.492-1.183-2.782-1.289c0,0-2.539-.946-2.946-1.113s-2.349-.845-2.7-1.016-1.777-.589-2.029-.7-2.112-.692-2.458-.751-1.032-.279-1.582-.34-1.373-.371-1.741-.349a1.975,1.975,0,0,1-1.029-.173c-.114-.12-.826.006-1.1.022s-.934.014-1.3.036a1.44,1.44,0,0,1-.65-.206c0,.017.064.2.123.385C547.877,399.782,547.95,399.978,547.95,399.978Z" transform="translate(-525.628 -380.751)" fill="#fff"/>
    <path id="Path_2772" data-name="Path 2772" d="M549.574,403.983a1.609,1.609,0,0,1,.449-.053,4.206,4.206,0,0,1,1.323.1l.251.047a5.474,5.474,0,0,1,1.119.212,7.768,7.768,0,0,1,.846.22,4.548,4.548,0,0,0,.547.212c.053.022.329.067.664.153.58.156,1.311.449,1.311.449s1.275.55,1.6.678.728.424.848.43a11.291,11.291,0,0,1,1.153.586c.192.095.879.407,1.2.578s1.638.829,2.271,1.141c.419.212,1.306.667,2,1.063.357.2.658.418.829.519.5.31,1.649,1.032,1.85,1.161s1.442.94,1.646,1.074a28.568,28.568,0,0,1,2.991,2.171,11.892,11.892,0,0,0-2.162-1.694c-1.021-.711-2.36-1.6-2.556-1.735s-2.215-1.423-2.472-1.56c0,0-2.291-1.2-2.651-1.409s-2.12-1.082-2.433-1.286-1.61-.773-1.83-.9-1.919-.909-2.232-1-.949-.388-1.459-.511-1.25-.513-1.6-.533a1.817,1.817,0,0,1-.952-.285c-.092-.128-.784-.089-1.041-.1s-.893-.095-1.239-.115a.855.855,0,0,1-.536-.254l.142.349C549.5,403.79,549.574,403.983,549.574,403.983Z" transform="translate(-522.77 -373.477)" fill="#fff"/>
    <path id="Path_2773" data-name="Path 2773" d="M551.572,408.557s0,.017.159-.034a1.835,1.835,0,0,1,.806-.142s.173,0,.151.006c.5-.019.48-.05.686.006.095.025.449.009.522.067a1.751,1.751,0,0,0,.335.114c.033.014.206.006.413.033a5.144,5.144,0,0,1,.806.209s.787.321.988.391.455.29.527.279a4.28,4.28,0,0,1,.714.377c.117.061.541.248.739.363s1.013.53,1.409.734c.259.134.806.43,1.239.7.218.139.407.3.516.374.31.22,1.021.734,1.144.832s.9.684,1.021.776a13.482,13.482,0,0,1,1.864,1.646,6.319,6.319,0,0,0-1.345-1.311c-.636-.53-1.468-1.177-1.59-1.281s-1.375-1.032-1.535-1.119c0,0-1.415-.792-1.643-.935s-1.311-.7-1.5-.851-1-.483-1.133-.578a10.407,10.407,0,0,0-1.384-.6,7.043,7.043,0,0,0-.9-.245c-.312-.031-.77-.287-.988-.246s-.524,0-.583-.112-.483.056-.639.089-.547.067-.759.112-.259-.148-.287-.148c0,0,.081.179.142.287C551.5,408.412,551.572,408.557,551.572,408.557Z" transform="translate(-519.164 -365.175)" fill="#fff"/>
  </g>
  <g id="Group_1362" data-name="Group 1362" transform="translate(256.026 76.882)">
    <g id="Group_1343" data-name="Group 1343" transform="translate(30.241 51.049)">
      <path id="Path_2774" data-name="Path 2774" d="M569.983,442.065c4.857,1.668,6.866,5.831,3.412,8.906-4.654,4.135-8.2-.435-9.79-3.686-.845,4.765-4.788,9.614-9.924,5.044-2.534-2.254-.268-6.456,2.372-9.374-3.069.315-8.111.019-9.179-3.485-1.936-6.347,6.356-6.389,9.835-4.252-1.5-3.111-.1-9.369,4.238-9.322,4.835.053,5.215,6.121,4.908,9.137,2.081-2.277,7.1-5.136,10.089-.432C578.119,438.011,574.3,441.267,569.983,442.065Z" transform="translate(-546.584 -425.896)" fill="#efa6c9" stroke="#fff" stroke-width="0.5"/>
      <path id="Path_2775" data-name="Path 2775" d="M557.162,433.739a3.132,3.132,0,1,0-3.714,2.422A3.136,3.136,0,0,0,557.162,433.739Z" transform="translate(-538.747 -418.62)" fill="#fff"/>
    </g>
    <g id="Group_1344" data-name="Group 1344">
      <path id="Path_2776" data-name="Path 2776" d="M564.484,427.459c5.968,2.051,8.437,7.162,4.2,10.937-5.714,5.081-10.078-.53-12.031-4.525-1.035,5.856-5.881,11.81-12.187,6.2-3.114-2.771-.332-7.935,2.913-11.52-3.769.388-9.966.025-11.275-4.277-2.38-7.8,7.8-7.854,12.084-5.226-1.841-3.82-.134-11.5,5.2-11.448,5.946.061,6.411,7.516,6.032,11.224,2.561-2.8,8.722-6.314,12.4-.533C574.484,422.478,569.788,426.479,564.484,427.459Z" transform="translate(-535.745 -407.599)" fill="#f173ac" stroke="#fff" stroke-width="0.5"/>
      <path id="Path_2777" data-name="Path 2777" d="M548.74,417.233a3.849,3.849,0,1,0-4.559,2.977A3.847,3.847,0,0,0,548.74,417.233Z" transform="translate(-526.119 -398.663)" fill="#fff"/>
    </g>
    <g id="Group_1345" data-name="Group 1345" transform="translate(45.329 26.408)">
      <path id="Path_2778" data-name="Path 2778" d="M562.588,424.385c2.2.759,3.105,2.639,1.543,4.034-2.107,1.872-3.714-.2-4.433-1.671-.382,2.159-2.168,4.355-4.492,2.285-1.147-1.021-.12-2.924,1.071-4.244-1.389.139-3.672.008-4.154-1.579-.873-2.871,2.877-2.893,4.453-1.925-.672-1.409-.048-4.238,1.917-4.221,2.193.025,2.363,2.773,2.227,4.138.94-1.03,3.211-2.327,4.567-.2C566.268,422.552,564.541,424.028,562.588,424.385Z" transform="translate(-551.992 -417.064)" fill="#f173ac" stroke="#fff" stroke-width="0.5"/>
      <path id="Path_2779" data-name="Path 2779" d="M556.779,420.615a1.417,1.417,0,1,0-1.68,1.1A1.417,1.417,0,0,0,556.779,420.615Z" transform="translate(-548.443 -413.769)" fill="#fff"/>
    </g>
    <g id="Group_1346" data-name="Group 1346" transform="translate(41.297 32.725)">
      <path id="Path_2780" data-name="Path 2780" d="M557.045,423.817c1.345.463,1.906,1.615.949,2.469-1.295,1.15-2.28-.12-2.72-1.021-.234,1.323-1.325,2.667-2.757,1.4-.7-.628-.073-1.8.658-2.606-.848.089-2.249.008-2.547-.963-.538-1.766,1.763-1.777,2.734-1.183-.421-.865-.034-2.6,1.174-2.586,1.339.011,1.448,1.7,1.359,2.533.58-.631,1.973-1.426,2.807-.12C559.3,422.69,558.245,423.594,557.045,423.817Z" transform="translate(-550.547 -419.328)" fill="#f173ac" stroke="#fff" stroke-width="0.5"/>
      <path id="Path_2781" data-name="Path 2781" d="M553.488,421.507a.873.873,0,1,0-1.032.672A.88.88,0,0,0,553.488,421.507Z" transform="translate(-548.372 -417.31)" fill="#fff"/>
    </g>
    <g id="Group_1347" data-name="Group 1347" transform="translate(45.477 46.725)">
      <path id="Path_2782" data-name="Path 2782" d="M558.545,428.835c1.348.46,1.9,1.618.946,2.472-1.289,1.147-2.279-.12-2.717-1.021-.234,1.32-1.328,2.667-2.759,1.4-.7-.625-.073-1.791.661-2.6-.854.084-2.251,0-2.55-.968-.538-1.766,1.769-1.777,2.731-1.183-.413-.865-.031-2.6,1.18-2.586,1.339.011,1.445,1.7,1.361,2.533.578-.628,1.967-1.426,2.8-.12C560.805,427.708,559.742,428.612,558.545,428.835Z" transform="translate(-552.045 -424.346)" fill="#f7b5ca" stroke="#fff" stroke-width="0.5"/>
      <path id="Path_2783" data-name="Path 2783" d="M554.985,426.523a.871.871,0,1,0-1.03.675A.871.871,0,0,0,554.985,426.523Z" transform="translate(-549.868 -422.327)" fill="#fff"/>
    </g>
    <g id="Group_1348" data-name="Group 1348" transform="translate(27.708 64.506)">
      <path id="Path_2784" data-name="Path 2784" d="M555.287,437.362c2,.684,2.821,2.391,1.4,3.655-1.914,1.7-3.368-.176-4.018-1.509-.349,1.953-1.973,3.945-4.085,2.07-1.041-.929-.106-2.653.977-3.856-1.258.131-3.328.011-3.769-1.428-.8-2.606,2.611-2.628,4.04-1.744-.614-1.281-.047-3.853,1.744-3.831,1.984.02,2.143,2.511,2.014,3.753.854-.937,2.916-2.112,4.146-.179C558.629,435.7,557.058,437.033,555.287,437.362Z" transform="translate(-545.677 -430.719)" fill="#f7b5ca" stroke="#fff" stroke-width="0.5"/>
      <path id="Path_2785" data-name="Path 2785" d="M550.023,433.939a1.288,1.288,0,1,0-1.524,1A1.286,1.286,0,0,0,550.023,433.939Z" transform="translate(-542.458 -427.731)" fill="#fff"/>
    </g>
    <g id="Group_1349" data-name="Group 1349" transform="translate(30.688 73.657)">
      <path id="Path_2786" data-name="Path 2786" d="M551.564,437.33c1,.343,1.412,1.2.7,1.833-.957.851-1.691-.089-2.02-.759-.173.985-.985,1.978-2.039,1.041-.522-.466-.056-1.331.485-1.928-.631.059-1.666,0-1.889-.72-.4-1.309,1.309-1.32,2.026-.879-.31-.636-.022-1.928.873-1.92,1,.011,1.072,1.261,1.013,1.883.424-.469,1.459-1.06,2.076-.089C553.238,436.5,552.451,437.166,551.564,437.33Z" transform="translate(-546.745 -433.999)" fill="#f173ac" stroke="#fff" stroke-width="0.5"/>
      <path id="Path_2787" data-name="Path 2787" d="M548.922,435.613a.645.645,0,1,0-.767.5A.641.641,0,0,0,548.922,435.613Z" transform="translate(-545.13 -432.499)" fill="#fff"/>
    </g>
    <g id="Group_1350" data-name="Group 1350" transform="translate(26.157 76.908)">
      <path id="Path_2788" data-name="Path 2788" d="M549.937,438.5c1,.343,1.412,1.2.7,1.833-.957.854-1.688-.089-2.014-.759-.178.985-.991,1.981-2.045,1.041-.522-.469-.056-1.331.485-1.931-.63.061-1.666.006-1.886-.717-.4-1.309,1.308-1.32,2.023-.879-.307-.639-.019-1.928.873-1.92,1,.011,1.071,1.261,1.013,1.886.424-.472,1.456-1.063,2.076-.092C551.611,437.658,550.83,438.331,549.937,438.5Z" transform="translate(-545.121 -435.164)" fill="#f173ac" stroke="#fff" stroke-width="0.5"/>
      <path id="Path_2789" data-name="Path 2789" d="M547.3,436.778a.644.644,0,1,0-.762.5A.638.638,0,0,0,547.3,436.778Z" transform="translate(-543.507 -433.664)" fill="#fff"/>
    </g>
    <g id="Group_1351" data-name="Group 1351" transform="translate(36.049 83.288)">
      <path id="Path_2790" data-name="Path 2790" d="M551.525,439.429c.594.2.84.714.419,1.091-.564.5-1-.056-1.2-.452-.1.583-.586,1.175-1.214.617-.31-.273-.031-.79.29-1.147-.374.039-.993,0-1.122-.427-.237-.778.775-.781,1.2-.522-.179-.377-.011-1.147.519-1.138.592.006.639.751.606,1.116.251-.276.865-.628,1.23-.05C552.524,438.933,552.053,439.332,551.525,439.429Z" transform="translate(-548.666 -437.451)" fill="#f173ac" stroke="#fff" stroke-width="0.5"/>
      <path id="Path_2791" data-name="Path 2791" d="M549.962,438.411a.383.383,0,1,0-.75-.156.382.382,0,0,0,.293.455A.391.391,0,0,0,549.962,438.411Z" transform="translate(-547.708 -436.561)" fill="#fff"/>
    </g>
    <g id="Group_1352" data-name="Group 1352" transform="translate(14.635 83.196)">
      <path id="Path_2792" data-name="Path 2792" d="M547.793,442.114c1.412.485,1.995,1.694.99,2.586-1.353,1.205-2.385-.126-2.843-1.069-.245,1.387-1.395,2.793-2.888,1.468-.734-.658-.075-1.878.689-2.726-.89.092-2.355,0-2.667-1.013-.561-1.844,1.85-1.855,2.86-1.233-.433-.9-.033-2.723,1.233-2.709,1.4.017,1.515,1.777,1.423,2.653.608-.658,2.062-1.493,2.935-.126C550.153,440.939,549.046,441.882,547.793,442.114Z" transform="translate(-540.991 -437.418)" fill="#f7b5ca" stroke="#fff" stroke-width="0.5"/>
      <path id="Path_2793" data-name="Path 2793" d="M544.068,439.7a.912.912,0,1,0-1.083.7A.911.911,0,0,0,544.068,439.7Z" transform="translate(-538.714 -435.304)" fill="#fff"/>
    </g>
    <g id="Group_1353" data-name="Group 1353" transform="translate(18.645 88.419)">
      <path id="Path_2794" data-name="Path 2794" d="M546.54,442.13c.857.3,1.211,1.029.606,1.568-.82.725-1.445-.075-1.724-.647-.145.837-.84,1.688-1.744.887-.444-.4-.05-1.136.416-1.652-.539.056-1.423.006-1.616-.611-.338-1.113,1.119-1.121,1.733-.745-.26-.547-.02-1.646.745-1.641.848.011.915,1.074.865,1.6.363-.4,1.245-.9,1.769-.073C547.972,441.422,547.3,441.994,546.54,442.13Z" transform="translate(-542.428 -439.29)" fill="#f173ac" stroke="#fff" stroke-width="0.5"/>
      <path id="Path_2795" data-name="Path 2795" d="M544.288,440.67a.551.551,0,1,0-.653.424A.549.549,0,0,0,544.288,440.67Z" transform="translate(-541.049 -438.011)" fill="#fff"/>
    </g>
    <g id="Group_1354" data-name="Group 1354" transform="translate(0.348 110.522)">
      <path id="Path_2796" data-name="Path 2796" d="M555.255,460.61c4.023,1.381,5.689,4.827,2.829,7.374-3.853,3.426-6.791-.357-8.108-3.052-.7,3.951-3.973,7.966-8.225,4.18-2.1-1.867-.226-5.351,1.964-7.767-2.542.259-6.719.019-7.606-2.885-1.6-5.259,5.265-5.3,8.15-3.524-1.236-2.575-.087-7.762,3.513-7.723,4.007.045,4.322,5.072,4.068,7.569,1.724-1.88,5.873-4.258,8.359-.357C562,457.251,558.837,459.946,555.255,460.61Z" transform="translate(-535.87 -447.212)" fill="#efa6c9" stroke="#fff" stroke-width="0.5"/>
      <path id="Path_2797" data-name="Path 2797" d="M544.628,453.739a2.6,2.6,0,1,0-3.077,2.012A2.593,2.593,0,0,0,544.628,453.739Z" transform="translate(-529.39 -441.125)" fill="#fff"/>
    </g>
    <g id="Group_1355" data-name="Group 1355" transform="translate(13.542 128.479)">
      <path id="Path_2798" data-name="Path 2798" d="M548.91,459.4c1.73.591,2.441,2.067,1.216,3.164-1.652,1.468-2.913-.156-3.479-1.311-.3,1.691-1.7,3.415-3.527,1.794-.9-.8-.095-2.3.84-3.334-1.088.111-2.879.008-3.259-1.236-.686-2.257,2.257-2.274,3.5-1.512-.53-1.1-.039-3.329,1.5-3.312,1.719.019,1.855,2.176,1.749,3.245.734-.806,2.514-1.822,3.582-.151C551.8,457.956,550.447,459.111,548.91,459.4Z" transform="translate(-540.599 -453.648)" fill="#f7b5ca" stroke="#fff" stroke-width="0.5"/>
      <path id="Path_2799" data-name="Path 2799" d="M544.353,456.462a1.114,1.114,0,1,0-1.317.859A1.118,1.118,0,0,0,544.353,456.462Z" transform="translate(-537.825 -451.016)" fill="#fff"/>
    </g>
    <g id="Group_1356" data-name="Group 1356" transform="translate(33.926 144.212)">
      <path id="Path_2800" data-name="Path 2800" d="M554.1,463.57c1.286.441,1.819,1.546.907,2.358-1.231,1.094-2.174-.114-2.595-.974-.223,1.258-1.267,2.542-2.628,1.334-.667-.6-.067-1.71.633-2.48-.812.081-2.154,0-2.433-.924-.516-1.68,1.682-1.693,2.6-1.124-.4-.823-.028-2.483,1.122-2.472,1.28.017,1.384,1.621,1.3,2.419.552-.6,1.878-1.359,2.673-.111C556.255,462.5,555.242,463.358,554.1,463.57Z" transform="translate(-547.905 -459.287)" fill="#f173ac" stroke="#fff" stroke-width="0.5"/>
      <path id="Path_2801" data-name="Path 2801" d="M550.711,461.366a.833.833,0,0,0-1.629-.343.833.833,0,0,0,1.629.343Z" transform="translate(-545.832 -457.36)" fill="#fff"/>
    </g>
    <g id="Group_1357" data-name="Group 1357" transform="translate(80.778 151.505)">
      <path id="Path_2802" data-name="Path 2802" d="M574.14,468.424c1.961.675,2.773,2.352,1.378,3.591-1.878,1.674-3.312-.17-3.956-1.484-.338,1.922-1.928,3.881-4,2.037-1.021-.909-.109-2.606.96-3.783-1.242.126-3.275.008-3.705-1.406-.784-2.564,2.564-2.581,3.97-1.716-.608-1.256-.045-3.781,1.708-3.761,1.95.02,2.106,2.469,1.981,3.686.84-.918,2.863-2.073,4.07-.173C577.426,466.786,575.878,468.1,574.14,468.424Z" transform="translate(-564.698 -461.901)" fill="#f7b5ca" stroke="#fff" stroke-width="0.5"/>
      <path id="Path_2803" data-name="Path 2803" d="M568.965,465.067a1.264,1.264,0,1,0-1.5.974A1.263,1.263,0,0,0,568.965,465.067Z" transform="translate(-561.535 -458.965)" fill="#fff"/>
    </g>
    <g id="Group_1358" data-name="Group 1358" transform="translate(37.724 182.672)">
      <path id="Path_2804" data-name="Path 2804" d="M555.484,477.366c1.289.444,1.822,1.551.907,2.366-1.236,1.1-2.176-.114-2.6-.979-.226,1.27-1.275,2.556-2.639,1.342-.675-.6-.075-1.716.628-2.491-.812.084-2.154.008-2.439-.926-.516-1.685,1.685-1.7,2.614-1.127-.4-.829-.025-2.492,1.127-2.478,1.283.017,1.387,1.624,1.3,2.427.555-.605,1.883-1.364,2.681-.117C557.644,476.289,556.628,477.154,555.484,477.366Z" transform="translate(-549.266 -473.072)" fill="#f7b5ca" stroke="#fff" stroke-width="0.5"/>
      <path id="Path_2805" data-name="Path 2805" d="M552.076,475.156a.833.833,0,1,0-.985.642A.825.825,0,0,0,552.076,475.156Z" transform="translate(-547.183 -471.138)" fill="#fff"/>
    </g>
    <g id="Group_1359" data-name="Group 1359" transform="translate(26.715 171.119)">
      <path id="Path_2806" data-name="Path 2806" d="M556.557,476.69c2.33.8,3.295,2.8,1.638,4.274-2.235,1.987-3.939-.206-4.7-1.769-.407,2.293-2.3,4.618-4.762,2.422-1.219-1.08-.134-3.1,1.133-4.5-1.47.151-3.889.008-4.405-1.674-.926-3.047,3.052-3.066,4.721-2.043-.711-1.49-.045-4.495,2.04-4.469,2.319.019,2.5,2.932,2.355,4.383,1-1.091,3.4-2.466,4.844-.206C560.466,474.745,558.63,476.308,556.557,476.69Z" transform="translate(-545.32 -468.931)" fill="#efa6c9" stroke="#fff" stroke-width="0.5"/>
      <path id="Path_2807" data-name="Path 2807" d="M550.4,472.694a1.5,1.5,0,1,0-1.78,1.163A1.5,1.5,0,0,0,550.4,472.694Z" transform="translate(-541.557 -465.44)" fill="#fff"/>
    </g>
    <g id="Group_1360" data-name="Group 1360" transform="translate(26.849 154.114)">
      <path id="Path_2808" data-name="Path 2808" d="M553.156,468.218c1.621.555,2.285,1.939,1.138,2.966-1.546,1.376-2.729-.148-3.259-1.228-.282,1.585-1.593,3.2-3.3,1.677-.845-.748-.087-2.146.787-3.119-1.016.106-2.7.006-3.055-1.158-.642-2.112,2.118-2.129,3.276-1.417-.5-1.035-.036-3.119,1.412-3.1,1.61.022,1.735,2.037,1.632,3.044.695-.759,2.363-1.716,3.359-.145C555.871,466.868,554.6,467.953,553.156,468.218Z" transform="translate(-545.369 -462.836)" fill="#f7b5ca" stroke="#fff" stroke-width="0.5"/>
      <path id="Path_2809" data-name="Path 2809" d="M548.892,465.447a1.043,1.043,0,1,0-1.239.809A1.047,1.047,0,0,0,548.892,465.447Z" transform="translate(-542.759 -460.414)" fill="#fff"/>
    </g>
    <g id="Group_1361" data-name="Group 1361" transform="translate(39.386 43.656)">
      <path id="Path_2810" data-name="Path 2810" d="M553.882,426.028c.834.287,1.183,1,.589,1.529-.8.709-1.412-.072-1.685-.633-.145.817-.82,1.652-1.7.868-.435-.388-.048-1.11.4-1.61-.525.05-1.389,0-1.573-.6-.332-1.094,1.088-1.1,1.688-.734-.254-.533-.017-1.61.731-1.6.829.011.893,1.055.845,1.571.357-.388,1.216-.879,1.733-.072C555.283,425.333,554.624,425.891,553.882,426.028Z" transform="translate(-549.862 -423.246)" fill="#f173ac" stroke="#fff" stroke-width="0.5"/>
      <path id="Path_2811" data-name="Path 2811" d="M551.678,424.6a.538.538,0,1,0-.636.416A.537.537,0,0,0,551.678,424.6Z" transform="translate(-548.514 -421.993)" fill="#fff"/>
    </g>
  </g>
  <g id="Group_1363" data-name="Group 1363">
    <path id="Path_2812" data-name="Path 2812" d="M658.924,429.753a107.4,107.4,0,0,0-34.384-5.468c-14.531.142-38.293.91-45.776,1.2-4.216.162-24,.709-43.681-4.615-18.481-5-35.3-13.42-41.117-17.055a61.176,61.176,0,0,1-12.859-10.823,55.233,55.233,0,0,1-9.174-12.946,61.32,61.32,0,0,0,19.611,21.69C506.262,411.95,531.372,419,531.372,419c16.8,5.081,37.9,4.924,45.383,4.634s32.646-1.5,48.226-1.258c17.638.279,34.432,5.7,34.432,5.7Z" transform="translate(-393.946 -380.043)" fill="#f173ac"/>
    <path id="Path_2813" data-name="Path 2813" d="M504.208,393.4a39.983,39.983,0,0,0-14.7,9.7c-6.573,6.8-5.594,12.8-5.248,14.249a6.02,6.02,0,0,0,2.073,3.186c1.641,1.222,3.767,1.847,6-.491,3.526-3.694-1.685-7.714-4.461-4.425-2.107,2.489.483,4.729,2.522,2.271l-.022.1c-2.154,2.586-4.79.006-2.572-2.617,2.93-3.46,8.264.845,4.545,4.737-2.372,2.483-4.885,1.646-6.479.184a6.268,6.268,0,0,1-1.735-2.8c-.366-1.535-1.484-7.628,5.438-14.793a35.565,35.565,0,0,1,15.077-9.547Z" transform="translate(-372.64 -356.576)" fill="#f173ac"/>
    <path id="Path_2814" data-name="Path 2814" d="M603.831,391.566s-11.174.145-28.768,5.94c-15.527,5.111-40.523,15.669-47.043,18.367a169.927,169.927,0,0,1-39.267,10.181,226.236,226.236,0,0,1-31.977,1.772,75.8,75.8,0,0,1-12.8-1.239,84.207,84.207,0,0,0,9.188,1.041,184.86,184.86,0,0,0,21.453-.318c5.862-.349,12.644-1.216,12.644-1.216a168.375,168.375,0,0,0,42.7-11.353c6.431-2.762,28.347-11.947,42.294-16.947a134.88,134.88,0,0,1,29.937-6.919Z" transform="translate(-443.981 -360.655)" fill="#f173ac" opacity="0.8"/>
    <path id="Path_2815" data-name="Path 2815" d="M657.476,408.76a90.612,90.612,0,0,1-29.176-3.086c-12.494-3.331-33.026-8.844-39.4-10.75a149.417,149.417,0,0,0-39.485-4.657c-17.365.432-34.27,4.313-40.322,6.305-17.36,5.717-25.763,16.548-25.763,16.548,3.3-3.365,9.757-9.467,23.007-14.525,15.6-5.962,39.264-6.783,39.264-6.783,15.94-.879,34.167,3.222,40.542,5.131s27.733,8.54,41.242,11.749c15.3,3.633,31.321,2.447,31.321,2.447Z" transform="translate(-373.539 -361.806)" fill="#f173ac"/>
    <path id="Path_2816" data-name="Path 2816" d="M513.269,406.929a47.4,47.4,0,0,1-22.694,2.891c-12.056-1.443-15.7-9.026-16.475-10.965a9.566,9.566,0,0,1-.329-5.468c.739-2.885,2.447-5.558,6.568-5.033,6.506.826,4.246,10.142-1.175,9.073-4.1-.806-3.167-5.711.843-4.88l-.1-.084c-4.227-.871-4.941,4.453-.622,5.307,5.708,1.122,7.868-8.627,1.013-9.5-4.372-.552-6.322,2.717-6.827,5.823a9.968,9.968,0,0,0,.385,4.732c.815,2.045,4.394,9.868,17.095,11.392a42.421,42.421,0,0,0,22.965-3.421Z" transform="translate(-391.419 -365.427)" fill="#f173ac"/>
    <path id="Path_2817" data-name="Path 2817" d="M623.819,400.7s-37.975-12.837-84.828-4.645c-44.342,7.745-56.01,34.611-58.4,41.446a30.585,30.585,0,0,0,.1,18.838c3.451,9.734,10.435,18.5,25.573,15.753,23.922-4.344,13.278-35.785-6.548-30.869-15.01,3.725-10.365,20.334,4.308,16.556l-.354.3c-15.457,3.979-19.413-14.129-3.6-18.054,20.886-5.181,31.273,27.775,6.071,32.356-16.065,2.918-24.092-7.86-26.731-18.392a31.744,31.744,0,0,1,.287-16.333c2.52-7.2,13.866-34.881,60.577-43.045,49.35-8.63,85.961,6.395,85.961,6.395Z" transform="translate(-382.202 -358.747)" fill="#f173ac"/>
    <path id="Path_2818" data-name="Path 2818" d="M544.388,398.72s-7.126,1.537-17.323,7.569c-9,5.326-24.463,16.347-23.634,15.652,3.429-2.865,13.878-10.058,21.891-15.105a81.509,81.509,0,0,1,17.9-8.353Z" transform="translate(-337.621 -347.035)" fill="#f173ac"/>
    <path id="Path_2819" data-name="Path 2819" d="M618.572,396.82a58.283,58.283,0,0,1-19.235,1.741c-8.6-.555-22.73-1.507-27.161-1.928a97.533,97.533,0,0,0-26.109,2.048,99.438,99.438,0,0,0-24.65,9.288c-10.064,5.957-13.476,14.084-13.476,14.084,1.5-2.612,4.52-7.413,12.081-12.413,8.9-5.884,23.888-9.464,23.888-9.464,10.041-2.62,22.449-2.3,26.871-1.872s19.3,1.992,28.523,2.344a75.283,75.283,0,0,0,20.484-2.436Z" transform="translate(-329.49 -350.65)" fill="#f173ac"/>
    <path id="Path_2820" data-name="Path 2820" d="M534.966,414.225a48.617,48.617,0,0,1-23.467,8.052c-13.378,1.027-19.606-6.467-21.026-8.418a11.343,11.343,0,0,1-2.026-5.9c-.089-3.315.932-6.6,5.51-6.914,7.235-.505,7.653,10.153,1.515,10.158-4.651,0-5.145-5.549-.589-5.513l-.131-.064c-4.8-.042-3.948,5.929.951,5.923,6.464,0,5.812-11.113-1.814-10.585-4.863.34-5.957,4.33-5.549,7.826a11.926,11.926,0,0,0,1.861,5.086c1.5,2.053,7.72,9.827,21.813,8.747,14.893-1.138,23.606-8.685,23.606-8.685Z" transform="translate(-364.713 -342.616)" fill="#f173ac"/>
    <path id="Path_2821" data-name="Path 2821" d="M507.285,406.607a12.208,12.208,0,0,0-4.271,4.52,5.735,5.735,0,0,0-.26,5.672,2.9,2.9,0,0,0,1.141,1.071,1.439,1.439,0,0,0,2.146-.539c.865-1.6-1.523-2.8-2.16-1.4-.483,1.06.731,1.752,1.191.706l0,.036c-.483,1.1-1.758.287-1.253-.829.67-1.479,3.142-.176,2.229,1.507a1.545,1.545,0,0,1-2.363.457,3.057,3.057,0,0,1-.965-.951,5.828,5.828,0,0,1,.268-5.884,10.874,10.874,0,0,1,4.428-4.486Z" transform="translate(-340.003 -332.707)" fill="#f173ac"/>
    <path id="Path_2822" data-name="Path 2822" d="M531.516,400.6a36.806,36.806,0,0,1-6.018.326c-3.273-.05-8.582-.41-9.963-.5a56.99,56.99,0,0,0-8.239.2c-2.065.2-4.746.586-6.615.94a26.785,26.785,0,0,0-2.617.608c.645-.178,1.23-.318,1.872-.458,1.529-.318,3.1-.547,4.425-.731,1.216-.173,2.625-.31,2.625-.31a55.621,55.621,0,0,1,8.967-.184c1.364.095,6.015.4,8.962.5a46.2,46.2,0,0,0,6.272-.251Z" transform="translate(-347.172 -343.677)" fill="#f173ac" opacity="0.8"/>
    <path id="Path_2823" data-name="Path 2823" d="M542.182,398.37a32.7,32.7,0,0,0-5.959,1.417c-2.528.845-6.674,2.24-7.957,2.7a54.218,54.218,0,0,1-8.063,1.975,57.02,57.02,0,0,1-8.4.7,13.376,13.376,0,0,1-5.558-1.046,14.894,14.894,0,0,0,4.958.9,52.17,52.17,0,0,0,8.192-.6,50.06,50.06,0,0,0,8.275-2.073c1.28-.458,5.583-2.017,8.317-2.885a42.416,42.416,0,0,1,6.409-1.418Z" transform="translate(-332.524 -347.826)" fill="#f173ac"/>
    <path id="Path_2824" data-name="Path 2824" d="M587.11,406.45a43.958,43.958,0,0,1-13.933-3.086c-5.962-2.3-15.769-6.121-18.808-7.4a73.855,73.855,0,0,0-18.858-4.408,72.864,72.864,0,0,0-19.254.94c-8.289,1.883-12.3,6.766-12.3,6.766a24.768,24.768,0,0,1,10.987-5.918c7.449-2.1,18.746-1.233,18.746-1.233,7.617.424,16.322,3.423,19.36,4.7s13.244,5.694,19.692,8a56.5,56.5,0,0,0,14.954,2.882Z" transform="translate(-336.623 -359.887)" fill="#f173ac"/>
    <path id="Path_2825" data-name="Path 2825" d="M577.918,397.692a84.914,84.914,0,0,0-39.521,8.694c-19.622,9.564-22.27,24.31-22.68,27.987a16.257,16.257,0,0,0,1.956,9.269c2.573,4.35,6.674,7.765,13.367,4.447,10.574-5.237,2.486-19.349-6.141-14.36-6.529,3.78-2.712,11.361,3.661,7.6l-.137.192c-6.707,3.962-10.365-4.445-3.485-8.429,9.09-5.256,17.209,9.637,6.074,15.155-7.1,3.518-11.888-.751-14.165-5.6a16.855,16.855,0,0,1-1.523-8.086c.427-3.873,2.846-18.978,23.52-29.053,21.846-10.644,40.216-7.985,40.216-7.985Z" transform="translate(-316.363 -349.279)" fill="#f173ac"/>
    <path id="Path_2826" data-name="Path 2826" d="M541.344,410.2a19.435,19.435,0,0,1-8.895,2.519c-4.98.193-7.1-2.486-7.583-3.181a3.7,3.7,0,0,1-.605-2.076,2.117,2.117,0,0,1,2.2-2.341c2.7-.086,2.592,3.624.318,3.554-1.719-.059-1.775-1.995-.084-1.925l-.05-.025c-1.777-.073-1.6,2.014.209,2.073,2.4.075,2.422-3.8-.413-3.705a2.251,2.251,0,0,0-2.246,2.656,3.863,3.863,0,0,0,.564,1.791c.5.734,2.628,3.51,7.871,3.306a17.219,17.219,0,0,0,8.953-2.74Z" transform="translate(-300.396 -335.2)" fill="#f173ac"/>
    <path id="Path_2827" data-name="Path 2827" d="M554.823,407.035a34.127,34.127,0,0,0-16.249.628c-8.44,2.385-10.538,8.03-10.962,9.453a6.513,6.513,0,0,0,.117,3.806c.706,1.9,2.084,3.546,4.966,2.709,4.553-1.32,2.363-7.477-1.406-6.113-2.854,1.027-1.883,4.3.907,3.264l-.067.067c-2.935,1.088-3.783-2.5-.776-3.582,3.965-1.434,6.119,5.036,1.32,6.426-3.055.887-4.648-1.144-5.2-3.222a6.844,6.844,0,0,1-.028-3.3c.441-1.5,2.478-7.307,11.369-9.818a30.347,30.347,0,0,1,16.478-.3Z" transform="translate(-294.92 -333.426)" fill="#f173ac"/>
    <path id="Path_2828" data-name="Path 2828" d="M618.572,396.82a58.283,58.283,0,0,1-19.235,1.741c-8.6-.555-22.73-1.507-27.161-1.928a97.533,97.533,0,0,0-26.109,2.048,99.438,99.438,0,0,0-24.65,9.288c-10.064,5.957-13.476,14.084-13.476,14.084,1.5-2.612,4.52-7.413,12.081-12.413,8.9-5.884,23.888-9.464,23.888-9.464,10.041-2.62,22.449-2.3,26.871-1.872s19.3,1.992,28.523,2.344a75.283,75.283,0,0,0,20.484-2.436Z" transform="translate(-329.49 -350.65)" fill="#f173ac"/>
  </g>
  <g id="Group_1364" data-name="Group 1364" transform="translate(238.311 29.473)">
    <path id="Path_2829" data-name="Path 2829" d="M591.633,411.061a17.3,17.3,0,0,0-.123,2.779c.084,2.076-.829,3.3-1.138,4.439a18.918,18.918,0,0,0-.6,4.288c.048,1.23,1.027,5.279.737,6.587-.1.432-.285,2.26-.525.424-.033-.274-.555-.131-.547.092.022.617-1.409,2.065-2.118,1.01-.226-.324-1.007-.114-.982.5s-2.74.957-3.376.363-.589.8-1.256,1.515c0,0-.979.5-1.462.059s-1.1,1.2-1.1,1.2l-.524-.48-1.71.491-.524-.48s-1.169.971-1.5,1.331-.086-.575-.533-.095a5.175,5.175,0,0,1-3.309,1.172s-.229-.957-1.152.045-1.621.912-1.621.912-.025-.539-1.3.36a3.939,3.939,0,0,1-2.511.753s-.148-.762-.46-.424-2.779,1.4-3.036,1.682c0,0,.125-.7-.923.036a6.323,6.323,0,0,1-3.245.9s.307-1.169-.611-.862-4.428,1.06-5.678.647c0,0,.388-.979-.056-1.387s-.876.268-2.416.329c0,0,.061-.466-1.166-.226a14.939,14.939,0,0,1-2.489.293s.818-1.707-.07-1.643a6.264,6.264,0,0,1-2.483-.159c-1.205-.338-1.135-.059-1.135-.059s.43-1.532.243-1.7-.859.318-1.141.326-1.373-.229-1.381-.457.393-1.043-.042-1.027a3.931,3.931,0,0,1-2.776-.017s-.82-.318-.979-.142.159-1.085-.212-1.071-1.886.614-1.878.845a1.559,1.559,0,0,0-1.482-.3c-.837.287-.845-.07-.845-.07a2.087,2.087,0,0,1-.8-.045,12.452,12.452,0,0,1,.633-1.54c.154-.159.109-.2-.128-.421s.349.128.421-.94a1.979,1.979,0,0,1,1.138-1.523c.148-.159-.053-.664-.644-.642s.366.117.329-.809a6.275,6.275,0,0,1,1.169-2.924c.3-.321.321-.452-.329-.578s-.524-.234-.756-.226.374-.2.357-.737a4.18,4.18,0,0,1,1.448-3.01c1.122-.843-.594-.887-.832-.876a6.6,6.6,0,0,1,1.543-1.9c.505-.251-.1-.717-.536-.7s-.553-.209-.767-.4a29.158,29.158,0,0,1,2.053-3.4c.589-.639,1.529-1.255,2.034-1.8s-.075-.561-.4-.547-.491-.6-.67-.591a7.233,7.233,0,0,0,1.3-1.565,3.092,3.092,0,0,1,1.568-1.35c.229-.008.206-.675,0-.664a5.445,5.445,0,0,1,1.473-1.141c.53-.148,1.186.084,1.175-.173s-.536-.519-.865-1.046-.321-.3-.321-.3,1.975-2,2.974-2.171a1.462,1.462,0,0,1-.07-.41c-.008-.179.765.084,1.046-.22s-.017.2.695,0,.935,0,.5-.4a10.232,10.232,0,0,1-.762-.921c-.184-.17.282-.036,1.136-.661a6.318,6.318,0,0,1,2.9-1.247c.82-.031,1.451.279,1.443.047s-.215-.416-.505-.686-.179-.449-.3-.566a5.838,5.838,0,0,1,3.264-.926c1.264.131-.042-.656-.293-.887a26.659,26.659,0,0,1,2.985-.5c.871-.034.084-.513.084-.513s.064-.312,1.724.059.215-.471.215-.471a.838.838,0,0,1-.343-.834,3.69,3.69,0,0,0,1.225-.176,3.992,3.992,0,0,1,2.307-.142c.449.1.449-.3.346-.4s.614.028.873.017,1.308.591,1.082.114a1.685,1.685,0,0,0-.488-.728s3.527-.709,5.2.257c.7.4.134-.3.134-.3a.81.81,0,0,0-.212-.469,19.2,19.2,0,0,1,2.81.248l-.218-.273s1.51.4,1.978.564.313-.474.075-.695,2.6.078,3.747.622.3-.243.207-.329a6.036,6.036,0,0,1,2.748,1.576,3.38,3.38,0,0,1,.692-.106c.357-.017,1.392.87,1.613.63s.318-.5.209-.6,1.819,1.456,2.341,1.936.756.229,1.284.723.58.388.566-.025,2.656,2.338,3.047,2.991.516-.022.516-.022a26.466,26.466,0,0,1,1.886,3.624c.017.491.338.117.338.117s1.127,3.038.759,3.437.245-.262.248-.114-.232,3.225-.812,3.451-.7,1.186-.7,1.186A4.543,4.543,0,0,1,591.633,411.061Z" transform="translate(-529.396 -390.607)" fill="#f173ac"/>
    <path id="Path_2830" data-name="Path 2830" d="M590.231,398.474a10.544,10.544,0,0,0-1.869-.29,12.186,12.186,0,0,0-3.382.19,1.614,1.614,0,0,1-.639.1,15.261,15.261,0,0,0-2.885.449,21.469,21.469,0,0,0-2.2.471,13.632,13.632,0,0,1-1.417.466c-.139.053-.854.142-1.71.332-1.5.335-3.423.977-3.423.977s-3.334,1.211-4.188,1.5-1.931.943-2.238.954-2.542,1.085-3.033,1.292-2.3.9-3.15,1.283-4.3,1.827-5.973,2.528c-1.1.466-3.429,1.473-5.265,2.355-.946.449-1.758.926-2.2,1.161-1.323.686-4.364,2.291-4.888,2.584s-3.828,2.1-4.38,2.388-7.162,3.982-7.974,4.863c0,0,.789-.882,5.781-3.795,2.723-1.588,6.277-3.56,6.8-3.873s5.87-3.178,6.548-3.474c0,0,6.027-2.67,6.989-3.13s5.569-2.4,6.4-2.854,4.227-1.708,4.815-2,5.028-2.009,5.848-2.215,2.469-.848,3.792-1.113,3.267-1.13,4.171-1.166a5.3,5.3,0,0,0,2.464-.617c.268-.29,2.014-.179,2.673-.2s2.282-.184,3.169-.223,1.255-.321,1.56-.265c.441.078.67,1.264.4,1.37A.924.924,0,0,1,590.231,398.474Z" transform="translate(-529.36 -378.918)" fill="#fff"/>
    <path id="Path_2831" data-name="Path 2831" d="M562.476,409.068s.028,0-.125-.4a5.043,5.043,0,0,0-.667-1.239l-.153-.22a6.24,6.24,0,0,0-.678-1.007,8.566,8.566,0,0,0-.564-.742,5.876,5.876,0,0,1-.424-.449c-.045-.045-.207-.3-.427-.589-.391-.505-.968-1.116-.968-1.116s-1.044-1.038-1.306-1.311-.695-.561-.756-.672a12.19,12.19,0,0,0-1.021-.912c-.168-.148-.742-.706-1.038-.96s-1.448-1.3-2.006-1.8c-.366-.335-1.161-1.035-1.814-1.571-.338-.273-.664-.5-.829-.622-.5-.377-1.635-1.236-1.836-1.387s-1.468-1.069-1.674-1.222a33.55,33.55,0,0,0-3.242-2.146,13.7,13.7,0,0,1,2.452,1.507c1.077.745,2.45,1.735,2.659,1.878s2.235,1.646,2.469,1.85c0,0,2.065,1.794,2.411,2.078s1.883,1.674,2.2,1.9,1.392,1.292,1.6,1.459,1.646,1.535,1.867,1.808.756.781,1.091,1.23,1,1.032,1.175,1.367a2.181,2.181,0,0,0,.664.815c.159.05.424.728.55.971s.469.829.642,1.152.237.259.279.3c0,0-.29.028-.413.036A.984.984,0,0,0,562.476,409.068Z" transform="translate(-505.136 -390.422)" fill="#fff"/>
    <path id="Path_2832" data-name="Path 2832" d="M565.775,405.625s0-.062-.312-.46a4.821,4.821,0,0,0-1.219-1.158l-.262-.19a6.073,6.073,0,0,0-1.175-.865,8.875,8.875,0,0,0-.949-.6,4.917,4.917,0,0,1-.689-.318c-.067-.028-.351-.251-.725-.483a18,18,0,0,0-1.6-.834s-1.666-.695-2.084-.884-1.08-.3-1.189-.407a13.53,13.53,0,0,0-1.6-.544c-.268-.092-1.183-.452-1.646-.6s-2.274-.784-3.156-1.091c-.58-.2-1.822-.622-2.843-.912-.519-.148-1.013-.24-1.264-.3-.762-.187-2.514-.6-2.824-.672s-2.243-.491-2.558-.566a38.151,38.151,0,0,0-4.9-.812,16.108,16.108,0,0,1,3.677.472c1.638.31,3.733.756,4.048.815s3.421.77,3.784.89c0,0,3.239,1.049,3.775,1.205s2.96,1,3.451,1.1,2.2.809,2.528.9,2.609.974,2.974,1.18,1.216.541,1.777.909,1.618.706,1.937,1.024a2.172,2.172,0,0,0,1.1.633c.226-.028.762.664,1,.893s.848.756,1.161,1.066.912.287.924.332c0,0-.644.139-.787.178S565.775,405.625,565.775,405.625Z" transform="translate(-519.762 -384.671)" fill="#fff"/>
    <path id="Path_2833" data-name="Path 2833" d="M554.351,405.73a6.545,6.545,0,0,0-.432-.622,3.268,3.268,0,0,0-.89-.812l-.187-.131a4.187,4.187,0,0,0-.859-.6,5.76,5.76,0,0,0-.689-.413,4.133,4.133,0,0,1-.5-.215c-.047-.022-.256-.179-.527-.335a12.375,12.375,0,0,0-1.161-.569s-1.217-.469-1.521-.6-.779-.192-.862-.268a9.983,9.983,0,0,0-1.169-.363c-.19-.059-.857-.3-1.194-.4s-1.657-.516-2.294-.72c-.43-.137-1.328-.41-2.068-.6-.379-.1-.739-.148-.923-.19-.552-.117-1.825-.382-2.053-.424s-1.63-.307-1.858-.354a28.063,28.063,0,0,0-3.563-.48,11.934,11.934,0,0,1,2.673.262c1.188.187,2.709.463,2.943.5s2.489.483,2.754.558c0,0,2.355.692,2.745.792s2.151.661,2.506.725,1.6.539,1.844.594,1.894.647,2.159.792.887.363,1.3.617,1.172.48,1.406.7a1.528,1.528,0,0,0,.8.435c.162-.025.55.463.72.625s.619.53.845.75.577.346.678.463c0,0-.354.156-.458.2Z" transform="translate(-525.454 -378.038)" fill="#fff"/>
    <path id="Path_2834" data-name="Path 2834" d="M546.511,404.311a4.71,4.71,0,0,0-.416-.444,2.46,2.46,0,0,0-.695-.452s-.162-.075-.143-.07a3.041,3.041,0,0,0-.641-.313c-.1-.031-.418-.2-.516-.212a2.328,2.328,0,0,1-.357-.092c-.036-.006-.187-.092-.391-.17-.354-.14-.843-.268-.843-.268s-.868-.2-1.082-.254-.541-.053-.605-.095a6.655,6.655,0,0,0-.82-.134c-.134-.02-.608-.117-.84-.151s-1.163-.19-1.613-.265c-.3-.05-.929-.148-1.445-.2-.262-.028-.5-.031-.636-.042-.374-.025-1.253-.084-1.406-.092s-1.122-.053-1.278-.061a18.8,18.8,0,0,0-2.414,0,8,8,0,0,1,1.8-.067c.812.014,1.853.056,2.009.059s1.71.092,1.891.12c0,0,1.649.237,1.92.268s1.509.24,1.749.248,1.133.209,1.295.223,1.339.251,1.532.324.636.156.937.287.84.206,1.024.329a1.067,1.067,0,0,0,.586.209c.1-.031.427.257.558.346s.48.29.661.413.561.226.661.329c0,0-.187.084-.276.128C546.665,404.235,546.511,404.311,546.511,404.311Z" transform="translate(-527.651 -372.138)" fill="#fff"/>
    <path id="Path_2835" data-name="Path 2835" d="M554.363,397.672s.008.056.05.226a3.777,3.777,0,0,1,.059,1.345s-.022.29-.022.254a5.014,5.014,0,0,1-.078,1.155,5.722,5.722,0,0,1-.115.882,4.592,4.592,0,0,0-.145.575c-.014.056-.022.346-.072.689-.084.605-.285,1.384-.285,1.384s-.391,1.35-.477,1.7-.335.79-.326.912a10.842,10.842,0,0,1-.441,1.236c-.075.2-.3.935-.427,1.281s-.625,1.749-.857,2.433c-.156.446-.5,1.4-.812,2.151-.156.385-.335.717-.418.9-.246.544-.815,1.788-.923,2.006s-.756,1.574-.856,1.8a31.252,31.252,0,0,1-1.791,3.29,12.317,12.317,0,0,0,1.415-2.391c.583-1.122,1.292-2.581,1.409-2.8s1.144-2.411,1.244-2.687c0,0,.915-2.455,1.077-2.851s.812-2.271.979-2.612.569-1.721.672-1.961.672-2.042.731-2.377.268-1,.326-1.529.36-1.328.335-1.685a1.86,1.86,0,0,1,.17-.991c.117-.114-.005-.806-.022-1.063s-.022-1.027-.039-1.378l-.109.025a.528.528,0,0,0-.139.05C554.413,397.658,554.363,397.672,554.363,397.672Z" transform="translate(-498.914 -378.16)" fill="#fff"/>
    <path id="Path_2836" data-name="Path 2836" d="M550.057,398.756a3.212,3.212,0,0,1,.173.65,4.485,4.485,0,0,1,.056,1.389s-.02.3-.016.265a5.719,5.719,0,0,1-.078,1.194,8.656,8.656,0,0,1-.12.913,5.421,5.421,0,0,0-.151.594c-.02.059-.025.357-.076.712-.089.625-.293,1.431-.293,1.431s-.407,1.4-.5,1.758-.343.815-.337.94a11.828,11.828,0,0,1-.452,1.278c-.078.209-.307.965-.444,1.328s-.642,1.811-.887,2.514c-.162.463-.516,1.448-.837,2.224-.165.4-.346.742-.43.937-.254.558-.848,1.847-.957,2.07s-.784,1.627-.89,1.858a30.863,30.863,0,0,1-1.853,3.4,12.742,12.742,0,0,0,1.462-2.475c.6-1.158,1.342-2.667,1.454-2.893s1.183-2.491,1.295-2.779c0,0,.943-2.542,1.113-2.949s.845-2.349,1.015-2.7.586-1.783.695-2.031.692-2.115.753-2.458.276-1.035.34-1.582.371-1.373.346-1.744a1.992,1.992,0,0,1,.176-1.027c.117-.117-.008-.829-.022-1.1s-.011-.943-.036-1.308a1.433,1.433,0,0,1,.2-.653c-.017,0-.2.064-.382.123Z" transform="translate(-506.895 -376.438)" fill="#fff"/>
    <path id="Path_2837" data-name="Path 2837" d="M547.716,400.382a1.381,1.381,0,0,1,.053.449,4.307,4.307,0,0,1-.1,1.322s-.053.279-.048.248a5.268,5.268,0,0,1-.215,1.122,6.545,6.545,0,0,1-.22.845,4.358,4.358,0,0,0-.212.547c-.02.05-.07.329-.153.661-.156.58-.449,1.314-.449,1.314s-.55,1.275-.675,1.6-.427.731-.432.851a11.342,11.342,0,0,1-.586,1.152c-.095.19-.4.876-.578,1.2s-.826,1.635-1.141,2.271c-.209.416-.664,1.306-1.063,2-.2.36-.416.664-.519.831-.307.5-1.027,1.646-1.158,1.844s-.94,1.445-1.074,1.652a28.065,28.065,0,0,1-2.173,2.988,11.94,11.94,0,0,0,1.7-2.162c.711-1.018,1.593-2.358,1.735-2.556s1.423-2.212,1.56-2.469c0,0,1.2-2.291,1.406-2.653s1.083-2.12,1.289-2.43.773-1.613.9-1.833.912-1.917,1-2.232.391-.946.511-1.456.513-1.25.533-1.6a1.876,1.876,0,0,1,.287-.951c.128-.1.087-.787.1-1.043s.092-.89.114-1.239a.858.858,0,0,1,.251-.533l-.349.142C547.912,400.3,547.716,400.382,547.716,400.382Z" transform="translate(-515.835 -373.578)" fill="#fff"/>
    <path id="Path_2838" data-name="Path 2838" d="M540.526,402.377s-.017,0,.039.153a1.877,1.877,0,0,1,.137.812s0,.173-.006.154c.02.5.05.477,0,.689-.025.095-.005.444-.067.516a2.08,2.08,0,0,0-.117.338c-.011.033,0,.2-.031.41a5.6,5.6,0,0,1-.209.809s-.318.787-.394.988-.29.455-.276.527a4.242,4.242,0,0,1-.374.714c-.064.114-.254.541-.368.739s-.524,1.016-.728,1.406c-.137.26-.433.809-.7,1.242-.142.22-.3.407-.371.516-.226.31-.739,1.021-.831,1.144s-.686.9-.778,1.024a14.029,14.029,0,0,1-1.649,1.861,6.281,6.281,0,0,0,1.314-1.345c.53-.636,1.174-1.468,1.283-1.59s1.032-1.375,1.119-1.537c0,0,.787-1.415.932-1.641s.7-1.311.851-1.507.483-.993.577-1.133a10.7,10.7,0,0,0,.6-1.381,7.682,7.682,0,0,0,.245-.9c.028-.315.287-.773.246-.99s0-.525.109-.583-.056-.483-.086-.639-.07-.547-.115-.759.151-.257.151-.285c0,0-.179.084-.287.142C540.671,402.3,540.526,402.377,540.526,402.377Z" transform="translate(-521.52 -369.973)" fill="#fff"/>
  </g>
  <g id="Group_1380" data-name="Group 1380" transform="translate(108.166 17.183)">
    <g id="Group_1365" data-name="Group 1365" transform="translate(120.06 28.323)">
      <path id="Path_2839" data-name="Path 2839" d="M533.235,410.775c-1.024,3-3.591,4.235-5.485,2.1-2.55-2.865.265-5.053,2.271-6.032-2.941-.522-5.926-2.952-3.111-6.119,1.392-1.562,3.979-.165,5.781,1.462-.2-1.889-.014-5,2.143-5.658,3.917-1.194,3.942,3.917,2.628,6.066,1.914-.924,5.767-.067,5.739,2.609-.025,2.985-3.767,3.217-5.628,3.027,1.4,1.284,3.167,4.375.262,6.219C535.738,415.794,533.732,413.439,533.235,410.775Z" transform="translate(-525.781 -396.353)" fill="#f495c0" stroke="#fff" stroke-width="0.5"/>
      <path id="Path_2840" data-name="Path 2840" d="M529.668,402.875a1.932,1.932,0,1,0-1.49-2.288A1.938,1.938,0,0,0,529.668,402.875Z" transform="translate(-521.566 -391.522)" fill="#fff"/>
    </g>
    <g id="Group_1366" data-name="Group 1366" transform="translate(152.848)">
      <path id="Path_2841" data-name="Path 2841" d="M552.39,414.945c-2.045,5.965-7.159,8.434-10.934,4.193-5.083-5.717.53-10.075,4.525-12.028-5.859-1.038-11.808-5.884-6.2-12.193,2.768-3.114,7.938-.329,11.517,2.916-.388-3.769-.025-9.963,4.28-11.277,7.8-2.377,7.854,7.8,5.229,12.084,3.817-1.836,11.5-.131,11.448,5.2-.064,5.943-7.519,6.409-11.224,6.029,2.793,2.561,6.314,8.722.53,12.4C557.37,424.942,553.372,420.246,552.39,414.945Z" transform="translate(-537.533 -386.202)" fill="#f173ac" stroke="#fff" stroke-width="0.5"/>
      <path id="Path_2842" data-name="Path 2842" d="M545.28,399.2a3.851,3.851,0,1,0-2.971-4.556A3.846,3.846,0,0,0,545.28,399.2Z" transform="translate(-529.135 -376.576)" fill="#fff"/>
    </g>
    <g id="Group_1367" data-name="Group 1367" transform="translate(132.895 33.763)">
      <path id="Path_2843" data-name="Path 2843" d="M533.742,404.8c-.466,1.348-1.618,1.9-2.472.946-1.152-1.292.117-2.277,1.021-2.718-1.325-.237-2.667-1.331-1.4-2.759.628-.7,1.794-.073,2.606.661-.089-.854-.006-2.251.965-2.547,1.763-.538,1.777,1.763,1.18,2.732.868-.419,2.6-.031,2.592,1.175-.016,1.342-1.7,1.448-2.539,1.364.636.575,1.431,1.97.12,2.8C534.866,407.058,533.962,406,533.742,404.8Z" transform="translate(-530.382 -398.303)" fill="#f173ac" stroke="#fff" stroke-width="0.5"/>
      <path id="Path_2844" data-name="Path 2844" d="M532.133,401.242a.871.871,0,1,0-.672-1.032A.875.875,0,0,0,532.133,401.242Z" transform="translate(-528.482 -396.128)" fill="#fff"/>
    </g>
    <g id="Group_1368" data-name="Group 1368" transform="translate(110.933 29.495)">
      <path id="Path_2845" data-name="Path 2845" d="M525.866,403.271c-.457,1.348-1.612,1.906-2.472.946-1.144-1.292.123-2.277,1.024-2.717-1.32-.234-2.667-1.331-1.4-2.757.628-.7,1.8-.075,2.6.658-.081-.851,0-2.252.971-2.547,1.76-.538,1.769,1.763,1.18,2.732.865-.418,2.6-.031,2.586,1.177-.014,1.345-1.7,1.448-2.533,1.359.631.58,1.426,1.973.12,2.8C527,405.531,526.089,404.468,525.866,403.271Z" transform="translate(-522.51 -396.773)" fill="#efa6c9" stroke="#fff" stroke-width="0.5"/>
      <path id="Path_2846" data-name="Path 2846" d="M524.26,399.711a.871.871,0,1,0-.67-1.032A.87.87,0,0,0,524.26,399.711Z" transform="translate(-520.611 -394.598)" fill="#fff"/>
    </g>
    <g id="Group_1369" data-name="Group 1369" transform="translate(92.324 26.878)">
      <path id="Path_2847" data-name="Path 2847" d="M520.812,405.449c-.683,2-2.394,2.821-3.658,1.4-1.7-1.911.179-3.37,1.515-4.021-1.961-.349-3.951-1.97-2.079-4.079.929-1.041,2.656-.112,3.859.974-.131-1.258-.011-3.331,1.429-3.772,2.606-.8,2.625,2.614,1.747,4.046,1.278-.617,3.85-.045,3.831,1.738-.019,1.989-2.514,2.143-3.753,2.014.932.859,2.112,2.918.176,4.146C522.48,408.791,521.135,407.223,520.812,405.449Z" transform="translate(-515.84 -395.835)" fill="#f173ac" stroke="#fff" stroke-width="0.5"/>
      <path id="Path_2848" data-name="Path 2848" d="M518.434,400.182a1.287,1.287,0,1,0-1-1.526A1.284,1.284,0,0,0,518.434,400.182Z" transform="translate(-513.03 -392.614)" fill="#fff"/>
    </g>
    <g id="Group_1370" data-name="Group 1370" transform="translate(88.411 29.315)">
      <path id="Path_2849" data-name="Path 2849" d="M516.927,401.528c-.343,1-1.2,1.412-1.83.7-.857-.957.086-1.688.753-2.014-.979-.176-1.975-.988-1.035-2.045.466-.522,1.331-.056,1.931.488-.067-.631-.006-1.669.717-1.889,1.306-.4,1.314,1.309.876,2.028.639-.31,1.928-.022,1.919.871-.011.993-1.261,1.071-1.883,1.01.472.43,1.06,1.462.092,2.079C517.762,403.2,517.094,402.415,516.927,401.528Z" transform="translate(-514.438 -396.709)" fill="#f173ac" stroke="#fff" stroke-width="0.5"/>
      <path id="Path_2850" data-name="Path 2850" d="M515.735,398.888a.646.646,0,1,0-.5-.764A.647.647,0,0,0,515.735,398.888Z" transform="translate(-513.031 -395.095)" fill="#fff"/>
    </g>
    <g id="Group_1371" data-name="Group 1371" transform="translate(96.159 14.639)">
      <path id="Path_2851" data-name="Path 2851" d="M520.73,398.246c-.485,1.412-1.7,1.995-2.589.993-1.2-1.353.126-2.383,1.072-2.846-1.387-.246-2.793-1.389-1.465-2.885.655-.734,1.872-.075,2.72.689-.087-.89,0-2.355,1.016-2.664,1.842-.566,1.853,1.844,1.233,2.857.9-.435,2.723-.031,2.706,1.23-.017,1.4-1.777,1.515-2.653,1.426.659.605,1.5,2.062.125,2.932C521.905,400.61,520.959,399.5,520.73,398.246Z" transform="translate(-517.215 -391.448)" fill="#efa6c9" stroke="#fff" stroke-width="0.5"/>
      <path id="Path_2852" data-name="Path 2852" d="M519.05,394.525a.912.912,0,1,0-.706-1.08A.918.918,0,0,0,519.05,394.525Z" transform="translate(-515.23 -389.173)" fill="#fff"/>
    </g>
    <g id="Group_1372" data-name="Group 1372" transform="translate(94.177 18.649)">
      <path id="Path_2853" data-name="Path 2853" d="M518.632,397c-.3.854-1.027,1.205-1.565.6-.728-.817.075-1.443.645-1.721-.837-.151-1.685-.843-.887-1.747.4-.444,1.138-.047,1.654.418-.059-.539-.005-1.423.611-1.613,1.116-.34,1.124,1.119.745,1.727.547-.262,1.649-.017,1.641.748-.014.848-1.083.915-1.607.862.4.366.9,1.244.075,1.775C519.343,398.43,518.768,397.758,518.632,397Z" transform="translate(-516.504 -392.886)" fill="#f173ac" stroke="#fff" stroke-width="0.5"/>
      <path id="Path_2854" data-name="Path 2854" d="M517.614,394.746a.551.551,0,1,0-.427-.653A.554.554,0,0,0,517.614,394.746Z" transform="translate(-515.303 -391.509)" fill="#fff"/>
    </g>
    <g id="Group_1373" data-name="Group 1373" transform="translate(53.626 0.352)">
      <path id="Path_2855" data-name="Path 2855" d="M511.991,405.711c-1.384,4.023-4.827,5.692-7.374,2.829-3.429-3.853.357-6.794,3.049-8.111-3.948-.7-7.966-3.97-4.177-8.222,1.864-2.1,5.349-.226,7.762,1.964-.257-2.542-.011-6.719,2.891-7.6,5.259-1.607,5.3,5.259,3.524,8.15,2.575-1.241,7.756-.089,7.723,3.507-.042,4.006-5.069,4.322-7.572,4.068,1.881,1.727,4.258,5.879.357,8.359C515.348,412.457,512.655,409.29,511.991,405.711Z" transform="translate(-501.97 -386.328)" fill="#efa6c9" stroke="#fff" stroke-width="0.5"/>
      <path id="Path_2856" data-name="Path 2856" d="M507.166,395.089a2.6,2.6,0,1,0-2.006-3.075A2.6,2.6,0,0,0,507.166,395.089Z" transform="translate(-496.364 -379.849)" fill="#fff"/>
    </g>
    <g id="Group_1374" data-name="Group 1374" transform="translate(49.044 13.544)">
      <path id="Path_2857" data-name="Path 2857" d="M504.628,399.367c-.594,1.727-2.073,2.444-3.164,1.216-1.47-1.655.151-2.916,1.306-3.482-1.688-.3-3.415-1.7-1.791-3.524.8-.9,2.3-.1,3.331.843-.112-1.088-.008-2.882,1.239-3.262,2.254-.686,2.271,2.257,1.509,3.493,1.108-.53,3.329-.033,3.315,1.509-.022,1.716-2.182,1.85-3.248,1.744.806.737,1.822,2.519.151,3.582C506.067,402.26,504.909,400.9,504.628,399.367Z" transform="translate(-500.328 -391.056)" fill="#f173ac" stroke="#fff" stroke-width="0.5"/>
      <path id="Path_2858" data-name="Path 2858" d="M502.545,394.81a1.113,1.113,0,1,0-.862-1.317A1.119,1.119,0,0,0,502.545,394.81Z" transform="translate(-497.947 -388.282)" fill="#fff"/>
    </g>
    <g id="Group_1375" data-name="Group 1375" transform="translate(64.046 35.809)">
      <path id="Path_2859" data-name="Path 2859" d="M508.905,405.232c-.438,1.286-1.537,1.819-2.352.9-1.094-1.23.112-2.171.971-2.592-1.258-.226-2.544-1.269-1.334-2.628.6-.672,1.71-.073,2.483.628-.086-.812-.006-2.146.921-2.43,1.682-.513,1.7,1.682,1.124,2.606.829-.4,2.486-.031,2.472,1.122-.017,1.278-1.624,1.384-2.422,1.3.606.552,1.362,1.881.114,2.673C509.982,407.386,509.12,406.376,508.905,405.232Z" transform="translate(-505.705 -399.036)" fill="#f173ac" stroke="#fff" stroke-width="0.5"/>
      <path id="Path_2860" data-name="Path 2860" d="M507.376,401.836a.828.828,0,1,0-.642-.982A.831.831,0,0,0,507.376,401.836Z" transform="translate(-503.895 -396.961)" fill="#fff"/>
    </g>
    <g id="Group_1376" data-name="Group 1376" transform="translate(24.656 80.778)">
      <path id="Path_2861" data-name="Path 2861" d="M496.467,424.6c-.672,1.959-2.349,2.771-3.591,1.376-1.669-1.878.17-3.306,1.487-3.951-1.925-.338-3.881-1.933-2.037-4,.907-1.024,2.606-.109,3.783.957-.128-1.239-.008-3.27,1.4-3.705,2.564-.781,2.581,2.564,1.716,3.973,1.256-.605,3.783-.045,3.767,1.707-.025,1.953-2.472,2.1-3.691,1.981.918.84,2.076,2.863.179,4.071C498.1,427.882,496.788,426.339,496.467,424.6Z" transform="translate(-491.587 -415.154)" fill="#f7b5ca" stroke="#fff" stroke-width="0.5"/>
      <path id="Path_2862" data-name="Path 2862" d="M494.135,419.424a1.264,1.264,0,1,0-.979-1.5A1.26,1.26,0,0,0,494.135,419.424Z" transform="translate(-488.828 -411.991)" fill="#fff"/>
    </g>
    <g id="Group_1377" data-name="Group 1377" transform="translate(0 37.085)">
      <path id="Path_2863" data-name="Path 2863" d="M485.959,405.708c-.441,1.292-1.54,1.825-2.357.907-1.1-1.236.109-2.176.976-2.6-1.267-.223-2.556-1.272-1.342-2.639.6-.673,1.716-.067,2.491.633-.084-.815-.006-2.154.924-2.438,1.688-.513,1.7,1.685,1.13,2.614.829-.4,2.492-.031,2.475,1.124-.014,1.286-1.624,1.384-2.422,1.3.6.552,1.361,1.883.112,2.681C487.042,407.871,486.174,406.855,485.959,405.708Z" transform="translate(-482.75 -399.493)" fill="#f7b5ca" stroke="#fff" stroke-width="0.5"/>
      <path id="Path_2864" data-name="Path 2864" d="M484.426,402.3a.833.833,0,1,0-.645-.985A.831.831,0,0,0,484.426,402.3Z" transform="translate(-480.935 -397.412)" fill="#fff"/>
    </g>
    <g id="Group_1378" data-name="Group 1378" transform="translate(3.648 22.223)">
      <path id="Path_2865" data-name="Path 2865" d="M490.82,407.253c-.932,2.717-3.259,3.842-4.977,1.911-2.316-2.6.24-4.587,2.059-5.474-2.667-.474-5.374-2.681-2.821-5.555,1.261-1.417,3.616-.148,5.248,1.328-.179-1.719-.014-4.537,1.945-5.134,3.552-1.085,3.574,3.552,2.377,5.5,1.741-.84,5.24-.061,5.217,2.369-.031,2.706-3.423,2.918-5.111,2.745,1.269,1.166,2.874,3.967.24,5.644C493.088,411.806,491.269,409.669,490.82,407.253Z" transform="translate(-484.057 -394.167)" fill="#efa6c9" stroke="#fff" stroke-width="0.5"/>
      <path id="Path_2866" data-name="Path 2866" d="M487.585,400.082a1.752,1.752,0,1,0-1.353-2.073A1.755,1.755,0,0,0,487.585,400.082Z" transform="translate(-480.233 -389.783)" fill="#fff"/>
    </g>
    <g id="Group_1379" data-name="Group 1379" transform="translate(23.185 22.877)">
      <path id="Path_2867" data-name="Path 2867" d="M495.084,402.188c-.552,1.615-1.934,2.288-2.963,1.136-1.375-1.548.142-2.729,1.228-3.259-1.588-.279-3.2-1.593-1.68-3.3.753-.843,2.151-.092,3.122.79-.106-1.021-.008-2.7,1.158-3.052,2.112-.647,2.126,2.112,1.414,3.273,1.035-.5,3.117-.036,3.108,1.409-.022,1.61-2.04,1.738-3.044,1.635.756.692,1.707,2.36.142,3.359C496.432,404.9,495.352,403.624,495.084,402.188Z" transform="translate(-491.059 -394.401)" fill="#f7b5ca" stroke="#fff" stroke-width="0.5"/>
      <path id="Path_2868" data-name="Path 2868" d="M493.161,397.923a1.044,1.044,0,1,0-.809-1.236A1.041,1.041,0,0,0,493.161,397.923Z" transform="translate(-488.784 -391.794)" fill="#fff"/>
    </g>
  </g>
</svg>
