<svg xmlns="http://www.w3.org/2000/svg" width="99.971" height="110.679" viewBox="0 0 99.971 110.679">
  <g id="Group_1707" data-name="Group 1707" transform="translate(-666.603 -281.274)">
    <g id="Group_1338" data-name="Group 1338" transform="translate(666.603 285.679)">
      <path id="Path_2725" data-name="Path 2725" d="M373.883,404.661a26.828,26.828,0,0,1-4.329.992c-3.291.47-4.95,2.255-6.65,3.064a29.8,29.8,0,0,1-6.568,2.177c-1.946.281-8.586-.094-10.562.747-.647.275-3.468,1.1-.516.944.442-.024.369.837.012.887-.974.141-2.829,2.807-.974,3.62.574.251.47,1.548-.5,1.687s-.715,4.578.4,5.413-1.082,1.149-2.018,2.4c0,0-.508,1.685.327,2.313s-1.566,2.088-1.566,2.088l.906.677-.279,2.839.9.675s-1.189,2.118-1.657,2.745.926-.03.3.807a8.269,8.269,0,0,0-.888,5.534s1.566.088.263,1.827-.966,2.809-.966,2.809.855-.119-.191,2.14a6.324,6.324,0,0,0-.462,4.169s1.247.01.8.6-1.4,4.765-1.767,5.253c0,0,1.062-.4.209,1.462a10.06,10.06,0,0,0-.478,5.353s1.749-.813,1.532.709-.39,7.263.618,9.112c0,0,1.426-.886,2.191-.313s-.163,1.452.183,3.891c0,0,.711-.229.689,1.761a23.644,23.644,0,0,0,.261,4.006s2.446-1.779,2.6-.373a10.158,10.158,0,0,0,.966,3.863c.877,1.8.418,1.759.418,1.759s2.283-1.114,2.608-.867-.249,1.442-.187,1.888.755,2.09,1.122,2.04,1.526-.926,1.624-.235-.558,2.193.831,4.357c0,0,.731,1.2.506,1.5s1.655-.57,1.741.02-.422,3.147-.785,3.2a2.477,2.477,0,0,1,.9,2.233c-.211,1.4.357,1.317.357,1.317a3.313,3.313,0,0,0,.3,1.239,18.8,18.8,0,0,0,2.241-1.436c.207-.279.277-.227.7.09s-.3-.518,1.355-.942,1.857-1.942,2.066-2.221,1.062-.11,1.193.823-.281-.54,1.179-.745,3.841-2.128,4.259-2.683.612-.626,1,.355.522.755.574,1.12.2-.647,1.05-.769a6.707,6.707,0,0,0,4.317-3.145c1-2.008,1.562.681,1.618,1.056a10.635,10.635,0,0,0,2.542-2.976c.247-.863,1.153-.04,1.253.649s.486.8.855,1.078a46.416,46.416,0,0,0,4.747-4.2c.835-1.114,1.532-2.765,2.247-3.717s.9-.046.976.482,1.08.592,1.121.877a11.733,11.733,0,0,1,2.088-2.5,4.934,4.934,0,0,0,1.667-2.845c-.056-.363,1-.516,1.046-.189a8.506,8.506,0,0,0,1.365-2.641c.082-.881-.472-1.839-.064-1.9s.97.693,1.888,1.054.56.418.56.418,2.58-3.681,2.556-5.293a2.412,2.412,0,0,0,.663-.012c.285-.04-.355-1.173.046-1.707s-.319.09-.2-1.09-.273-1.472.494-.9a15.018,15.018,0,0,0,1.665.922c.323.245-.024-.45.713-1.968a10.072,10.072,0,0,0,1.12-4.923c-.185-1.3-.853-2.2-.486-2.249s.713.207,1.223.59.759.151.976.317,1.084-3.446.514-5.4,1.04-.125,1.478.2a41.891,41.891,0,0,0-.068-4.837c-.2-1.381.789-.277.789-.277s.468-.191-.592-2.691.679-.472.679-.472a1.348,1.348,0,0,0,1.408.3,5.964,5.964,0,0,1-.078-1.98,6.4,6.4,0,0,0-.438-3.663c-.293-.675.341-.795.526-.657s-.217-.962-.277-1.369-1.307-1.884-.486-1.671a2.592,2.592,0,0,1,1.281.564s.1-5.749-1.9-8.1c-.835-.976.434-.287.434-.287a1.267,1.267,0,0,1,.793.2,29.981,29.981,0,0,0-1.2-4.347l.492.261s-1.066-2.251-1.458-2.94.655-.631,1.076-.319-.871-4.062-2.06-5.711.3-.544.458-.42a9.571,9.571,0,0,0-3.267-3.861,5.537,5.537,0,0,0-.034-1.118c-.082-.568-1.767-1.94-1.454-2.359s.7-.638.881-.5-2.813-2.436-3.719-3.116-.574-1.122-1.5-1.815-.777-.8-.128-.894-4.438-3.508-5.574-3.924-.118-.813-.118-.813-5.47-2.036-6.239-1.926-.279-.5-.279-.5-5.1-.89-5.62-.191.345-.464.1-.43-4.994,1.293-5.183,2.273-1.659,1.44-1.659,1.44A7.225,7.225,0,0,0,373.883,404.661Z" transform="translate(-337.48 -402.718)" fill="#f173ac"/>
      <path id="Path_2726" data-name="Path 2726" d="M366.4,405.271a16.659,16.659,0,0,1,.994,2.849,19.2,19.2,0,0,1,.675,5.365,2.518,2.518,0,0,0,.024,1.034c.169,3.395.277,3.219.127,4.664a34.65,34.65,0,0,1-.11,3.578,21.763,21.763,0,0,0-.327,2.367c-.038.233.028,1.388-.024,2.789-.1,2.452-.55,5.661-.55,5.661s-.938,5.582-1.141,7.01-.926,3.3-.857,3.787a51.664,51.664,0,0,1-1.161,5.138c-.191.837-.753,3.869-1.106,5.315s-1.632,7.291-2.251,10.114c-.412,1.863-1.321,5.819-2.177,8.956-.438,1.614-.95,3.024-1.191,3.8-.7,2.275-2.345,7.512-2.652,8.425s-2.191,6.62-2.492,7.566-4.191,12.4-5.341,13.935c0,0,1.155-1.5,4.293-10.18,1.713-4.731,3.789-10.889,4.126-11.809s3.3-10.134,3.574-11.291c0,0,2.456-10.231,2.9-11.883s2.163-9.444,2.64-10.877,1.468-7.138,1.759-8.14,1.711-8.48,1.8-9.829.622-4.132.655-6.279.835-5.464.628-6.895-.114-3.54.263-4.046-.3-3.219-.452-4.257-.365-3.644-.566-5.044.147-2.066-.026-2.532c-.253-.673-2.181-.683-2.271-.235A1.5,1.5,0,0,0,366.4,405.271Z" transform="translate(-328.192 -401.431)" fill="#fff"/>
      <path id="Path_2727" data-name="Path 2727" d="M357.932,407.713s-.008-.042.655.088a8.171,8.171,0,0,1,2.139.689s.444.2.393.175a10.21,10.21,0,0,1,1.777.775,13.905,13.905,0,0,1,1.325.671,9.143,9.143,0,0,0,.835.542c.082.054.526.233,1.042.5.908.468,2.038,1.205,2.038,1.205s1.932,1.339,2.434,1.665,1.08.934,1.275.992a21.641,21.641,0,0,1,1.729,1.345c.279.221,1.321.968,1.8,1.355s2.454,1.9,3.4,2.636c.632.482,1.962,1.524,2.988,2.4.532.45.974.894,1.219,1.118.733.669,2.412,2.213,2.7,2.488s2.1,1.994,2.406,2.275a52.409,52.409,0,0,1,4.3,4.478,21.427,21.427,0,0,0-3.076-3.418c-1.476-1.484-3.424-3.353-3.711-3.642s-3.231-3.036-3.618-3.343c0,0-3.418-2.729-3.962-3.187s-3.167-2.482-3.626-2.916-2.428-1.815-2.753-2.1-2.889-2.139-3.381-2.408-1.442-.964-2.247-1.359-1.906-1.279-2.482-1.45a3.571,3.571,0,0,1-1.478-.811c-.122-.235-1.265-.452-1.677-.58s-1.438-.5-2-.679-.476-.293-.542-.347c0,0,.036.458.062.645C357.93,407.665,357.932,407.713,357.932,407.713Z" transform="translate(-317.275 -398.6)" fill="#fff"/>
      <path id="Path_2728" data-name="Path 2728" d="M357.707,417.5s.1-.02.815.355a7.5,7.5,0,0,1,2.169,1.586l.373.353a9.749,9.749,0,0,1,1.693,1.592,13.915,13.915,0,0,1,1.215,1.321,8.18,8.18,0,0,0,.7.994c.062.1.5.478.968,1a28.343,28.343,0,0,1,1.769,2.265s1.572,2.424,1.99,3.022.779,1.61.98,1.749A22.433,22.433,0,0,1,371.7,434.1c.217.389,1.052,1.727,1.413,2.406s1.89,3.353,2.628,4.648c.484.853,1.5,2.685,2.249,4.207.389.773.669,1.516.841,1.9.514,1.139,1.671,3.769,1.869,4.239s1.42,3.383,1.628,3.855,2.628,6.379,2.689,7.464c0,0-.05-1.078-1.8-5.639-.956-2.484-2.261-5.646-2.446-6.13s-2.193-5.156-2.488-5.689c0,0-2.586-4.785-2.978-5.578s-2.428-4.371-2.733-5.106-1.906-3.221-2.138-3.715-2.277-3.813-2.715-4.335-1.2-1.755-1.936-2.532-1.576-2.331-2.165-2.741-1.3-1.2-1.315-1.56-1.259-1-1.687-1.295-1.432-1.118-2.012-1.52-.713-1.353-.783-1.357c0,0-.034,1.052-.058,1.285S357.707,417.5,357.707,417.5Z" transform="translate(-317.413 -389.911)" fill="#fff"/>
      <path id="Path_2729" data-name="Path 2729" d="M354.87,431.572a10.249,10.249,0,0,1,1.1.5,5.231,5.231,0,0,1,1.534,1.161s.3.293.261.259c.892.825.886.743,1.193,1.169a9.538,9.538,0,0,1,.849.966,6.065,6.065,0,0,0,.484.727c.042.076.351.353.679.733a19.509,19.509,0,0,1,1.227,1.659s1.086,1.775,1.376,2.217.524,1.175.667,1.277a16.219,16.219,0,0,1,.908,1.737c.147.279.719,1.259.97,1.757s1.291,2.456,1.793,3.4c.335.628,1.028,1.966,1.534,3.076.263.568.45,1.114.568,1.394.343.831,1.126,2.759,1.257,3.1s.952,2.47,1.092,2.817a44.111,44.111,0,0,1,1.779,5.46,18.612,18.612,0,0,0-1.177-4.122c-.634-1.817-1.512-4.132-1.632-4.484s-1.474-3.771-1.679-4.163c0,0-1.759-3.506-2.03-4.086s-1.658-3.2-1.865-3.735-1.3-2.357-1.462-2.717-1.562-2.793-1.869-3.171-.825-1.287-1.345-1.859-1.09-1.705-1.506-2.006a2.467,2.467,0,0,1-.918-1.142c0-.263-.889-.733-1.189-.95s-1.012-.823-1.42-1.118-.715-.809-.926-.932c0,0-.143.614-.181.777C354.92,431.355,354.87,431.572,354.87,431.572Z" transform="translate(-320.228 -375.153)" fill="#fff"/>
      <path id="Path_2730" data-name="Path 2730" d="M352.785,440.009a7.445,7.445,0,0,1,.821.532,3.829,3.829,0,0,1,.906.96s.169.229.149.2a5.072,5.072,0,0,1,.681.924,7.56,7.56,0,0,1,.474.741,3.882,3.882,0,0,0,.253.54c.022.054.2.273.383.568a13.818,13.818,0,0,1,.661,1.245s.556,1.3.707,1.624.243.841.327.922a10.92,10.92,0,0,1,.442,1.251c.072.207.363.922.482,1.281s.636,1.769.883,2.454c.161.452.5,1.42.737,2.211.12.4.2.785.247.984.149.588.494,1.95.55,2.189s.406,1.743.468,1.986a29.278,29.278,0,0,1,.685,3.8,12.5,12.5,0,0,0-.408-2.843c-.255-1.273-.626-2.9-.673-3.146s-.637-2.655-.735-2.938c0,0-.849-2.518-.97-2.932s-.811-2.307-.9-2.683-.647-1.713-.721-1.97-.779-2.026-.944-2.317-.43-.946-.723-1.384-.568-1.261-.815-1.512a1.754,1.754,0,0,1-.5-.863c.018-.173-.52-.6-.7-.779s-.6-.669-.841-.916-.514-.819-.707-.948l-.118.476C352.859,439.748,352.785,440.009,352.785,440.009Z" transform="translate(-322.296 -366.538)" fill="#fff"/>
      <path id="Path_2731" data-name="Path 2731" d="M375.285,409.2s-.09,0-.367-.006a5.719,5.719,0,0,0-2.13.3s-.45.114-.4.1a8.656,8.656,0,0,0-1.789.454,12.008,12.008,0,0,0-1.355.436,7.394,7.394,0,0,1-.859.392c-.086.044-.534.141-1.062.317-.924.307-2.09.845-2.09.845s-2.012,1-2.532,1.241-1.141.751-1.339.775a18.289,18.289,0,0,0-1.813,1.046c-.295.173-1.381.737-1.89,1.042s-2.574,1.48-3.576,2.048c-.659.375-2.054,1.193-3.146,1.892-.562.361-1.032.729-1.3.914-.781.542-2.576,1.8-2.884,2.03s-2.253,1.644-2.578,1.871a47.657,47.657,0,0,0-4.651,3.765,19.447,19.447,0,0,1,3.353-2.914c1.592-1.239,3.677-2.779,3.988-3.02s3.454-2.492,3.863-2.731c0,0,3.6-2.146,4.169-2.514s3.333-1.936,3.823-2.293,2.538-1.395,2.885-1.628,3.022-1.643,3.524-1.825,1.5-.709,2.313-.958,1.978-.944,2.548-1.012a3.075,3.075,0,0,0,1.512-.55c.145-.217,1.263-.223,1.675-.275s1.617-.259,2.175-.337l-.012.183a.585.585,0,0,1-.04.229C375.291,409.125,375.285,409.2,375.285,409.2Z" transform="translate(-335.446 -396.873)" fill="#fff"/>
      <path id="Path_2732" data-name="Path 2732" d="M375.8,419.594a5.012,5.012,0,0,0-1.07-.08,7.157,7.157,0,0,0-2.2.309s-.462.118-.412.1a9.056,9.056,0,0,0-1.851.47,12.842,12.842,0,0,0-1.4.448,7.3,7.3,0,0,1-.89.408c-.086.044-.55.147-1.094.327-.956.317-2.165.872-2.165.872s-2.078,1.04-2.614,1.287-1.185.779-1.387.8a19.093,19.093,0,0,0-1.875,1.084c-.309.179-1.43.763-1.956,1.08s-2.663,1.532-3.7,2.118c-.681.39-2.124,1.229-3.253,1.954-.582.375-1.07.755-1.345.948-.807.56-2.659,1.863-2.98,2.1s-2.333,1.7-2.663,1.938a48.551,48.551,0,0,0-4.813,3.893,20.209,20.209,0,0,1,3.466-3.014c1.643-1.277,3.8-2.875,4.126-3.124s3.572-2.58,3.994-2.829c0,0,3.719-2.217,4.311-2.6s3.45-2,3.952-2.373,2.628-1.442,2.988-1.681,3.122-1.7,3.644-1.885,1.548-.735,2.388-.992,2.048-.978,2.638-1.052a3.138,3.138,0,0,0,1.562-.568c.151-.223,1.311-.231,1.735-.281s1.486-.249,2.064-.321a2.287,2.287,0,0,0,.964-.512c0,.028-.044.337-.082.641C375.856,419.261,375.8,419.594,375.8,419.594Z" transform="translate(-336.831 -387.144)" fill="#fff"/>
      <path id="Path_2733" data-name="Path 2733" d="M371.515,429.1a2.4,2.4,0,0,0-.723.046,6.676,6.676,0,0,0-2.048.546s-.426.163-.375.145a8.487,8.487,0,0,0-1.7.655,12.228,12.228,0,0,0-1.265.588,7.678,7.678,0,0,1-.795.494c-.076.05-.5.2-1,.432-.867.412-1.938,1.082-1.938,1.082s-1.845,1.229-2.321,1.526-1.022.88-1.211.924a18.1,18.1,0,0,0-1.642,1.249c-.267.207-1.261.892-1.721,1.259s-2.333,1.767-3.239,2.444c-.6.45-1.859,1.42-2.837,2.243-.5.424-.92.845-1.157,1.058-.693.629-2.289,2.092-2.562,2.355s-2,1.892-2.283,2.159a44.884,44.884,0,0,0-4.074,4.279,19.045,19.045,0,0,1,2.906-3.285c1.4-1.414,3.251-3.187,3.52-3.464s3.066-2.877,3.434-3.163c0,0,3.247-2.546,3.761-2.98s3.016-2.309,3.448-2.721,2.309-1.677,2.622-1.95,2.747-1.98,3.215-2.219,1.375-.879,2.143-1.215,1.817-1.171,2.367-1.3a2.96,2.96,0,0,0,1.41-.721c.114-.227,1.209-.367,1.606-.464s1.379-.4,1.916-.538a1.33,1.33,0,0,0,.763-.55c-.042.205-.058.287-.12.59C371.585,428.773,371.515,429.1,371.515,429.1Z" transform="translate(-336.343 -377.631)" fill="#fff"/>
      <path id="Path_2734" data-name="Path 2734" d="M362.605,439.941s0,.026-.257-.01a2.966,2.966,0,0,0-1.311.012l-.239.052c-.795.116-.769.06-1.078.207-.145.066-.7.143-.8.255s-.363.189-.5.275c-.044.034-.317.07-.628.171a8.251,8.251,0,0,0-1.213.562s-1.147.727-1.442.9-.629.592-.747.592a6.818,6.818,0,0,0-1.012.795c-.165.132-.779.552-1.062.787s-1.438,1.126-1.994,1.556c-.37.287-1.147.906-1.747,1.46-.309.283-.56.59-.705.733-.42.436-1.395,1.452-1.558,1.635s-1.213,1.335-1.385,1.516a22.7,22.7,0,0,0-2.452,3.12,10.26,10.26,0,0,1,1.739-2.446c.845-1.014,1.966-2.273,2.132-2.47s1.857-2.016,2.086-2.2c0,0,2-1.651,2.313-1.942s1.857-1.48,2.12-1.769,1.426-1.046,1.616-1.231a16.586,16.586,0,0,1,1.994-1.343,11.284,11.284,0,0,1,1.341-.645c.484-.139,1.13-.673,1.482-.667s.823-.153.885-.343.775-.054,1.03-.05.881-.048,1.225-.04.362-.307.406-.315c0,0-.082.3-.135.492C362.677,439.692,362.605,439.941,362.605,439.941Z" transform="translate(-332.521 -366.629)" fill="#fff"/>
    </g>
    <g id="Group_1339" data-name="Group 1339" transform="translate(690.182 281.274)">
      <path id="Path_2735" data-name="Path 2735" d="M350.949,423.177a21.506,21.506,0,0,1-.315,3.53c-.452,2.61.494,4.309.689,5.795a24.017,24.017,0,0,1,.038,5.516c-.267,1.548-2.187,6.492-2.036,8.2.05.56-.022,2.9.59.626.094-.341.725-.076.677.207-.135.775,1.432,2.837,2.5,1.63.333-.373,1.291.026,1.158.8s3.295,1.667,4.2,1.026.608,1.1,1.327,2.122c0,0,1.155.8,1.837.319s1.2,1.7,1.2,1.7l.737-.52,2.084.91.735-.522s1.311,1.424,1.673,1.934.207-.711.687-.032a6.562,6.562,0,0,0,3.976,2.036s.45-1.165,1.45.253,1.9,1.422,1.9,1.422.116-.675,1.574.671a5.052,5.052,0,0,0,3.048,1.379s.313-.944.651-.462,3.271,2.233,3.552,2.635c0,0-.044-.906,1.159.2a8.019,8.019,0,0,0,3.942,1.681s-.185-1.528.914-.986,5.415,2.084,7.064,1.771c0,0-.323-1.3.3-1.739s1.062.484,2.994.819c0,0,0-.6,1.508-.088a19.17,19.17,0,0,0,3.1.787s-.749-2.295.359-2.062a8.087,8.087,0,0,0,3.165.215c1.582-.223,1.438.115,1.438.115s-.283-2.006-.02-2.191,1.036.546,1.39.608,1.769-.058,1.819-.351-.323-1.383.223-1.287a5.05,5.05,0,0,0,3.51.442s1.088-.259,1.263-.014-.024-1.4.444-1.315,2.283,1.092,2.233,1.38a1.974,1.974,0,0,1,1.912-.133c1.008.506,1.088.056,1.088.056a2.605,2.605,0,0,0,1.014.078,14.776,14.776,0,0,0-.54-2.05c-.161-.229-.1-.269.239-.506s-.466.1-.381-1.263a2.519,2.519,0,0,0-1.177-2.112c-.159-.227.179-.833.918-.7s-.478.084-.277-1.078a7.938,7.938,0,0,0-.984-3.889c-.323-.454-.325-.622.512-.675s.7-.211.992-.159-.442-.313-.327-.984a5.341,5.341,0,0,0-1.321-4.05c-1.279-1.251.9-1.016,1.2-.966a8.44,8.44,0,0,0-1.632-2.659c-.592-.4.253-.884.8-.791s.729-.173,1.028-.384a37.224,37.224,0,0,0-2.016-4.632c-.641-.908-1.723-1.843-2.269-2.618s.187-.7.608-.624.713-.673.938-.637a9.263,9.263,0,0,1-1.379-2.2,3.931,3.931,0,0,0-1.747-1.964c-.289-.05-.147-.886.112-.841a6.827,6.827,0,0,0-1.665-1.685c-.649-.279-1.512-.1-1.454-.418s.761-.566,1.265-1.173.454-.321.454-.321-2.159-2.863-3.391-3.243a1.857,1.857,0,0,0,.157-.5c.038-.225-.98-.02-1.283-.454s-.012.263-.877-.12-1.183-.155-.56-.594a12.271,12.271,0,0,0,1.11-1.036c.263-.187-.349-.094-1.315-1.026a8.044,8.044,0,0,0-3.46-2.06c-1.032-.181-1.881.1-1.827-.185s.335-.49.749-.781.3-.54.482-.663-2.351-1.671-3.968-1.719.159-.821.516-1.07a33.374,33.374,0,0,0-3.683-1.139c-1.1-.189-.018-.665-.018-.665s-.03-.4-2.187-.215-.189-.629-.189-.629a1.076,1.076,0,0,0,.572-1,4.778,4.778,0,0,1-1.518-.428,5.121,5.121,0,0,0-2.888-.57c-.586.058-.52-.456-.373-.562s-.781-.068-1.1-.124-1.749.526-1.389-.042a2.065,2.065,0,0,1,.743-.835s-4.335-1.49-6.608-.548c-.948.39-.113-.4-.113-.4a1.016,1.016,0,0,1,.345-.554,23.9,23.9,0,0,0-3.592-.159l.319-.309s-1.968.255-2.588.381-.319-.651.022-.893-3.293-.337-4.837.155-.341-.355-.207-.448a7.628,7.628,0,0,0-3.733,1.526,4.3,4.3,0,0,0-.853-.249c-.45-.078-1.91.865-2.149.524s-.311-.685-.159-.791-2.54,1.536-3.279,2.054-.99.159-1.745.693-.8.392-.709-.125-3.751,2.5-4.349,3.265-.645-.116-.645-.116-2.891,3.649-3,4.265-.448.088-.448.088-1.928,3.648-1.528,4.213-.267-.377-.3-.183-.249,4.106.45,4.49.681,1.614.681,1.614A5.749,5.749,0,0,0,350.949,423.177Z" transform="translate(-349.317 -400.507)" fill="#f173ac"/>
      <path id="Path_2736" data-name="Path 2736" d="M351.517,412.291a13.252,13.252,0,0,1,2.406-.054,15.27,15.27,0,0,1,4.235.807,2,2,0,0,0,.789.235,20.123,20.123,0,0,1,3.57,1.05,28.241,28.241,0,0,1,2.685.964,16.455,16.455,0,0,0,1.715.829c.167.09,1.062.325,2.11.707,1.837.677,4.16,1.809,4.16,1.809s4,2.088,5.036,2.592,2.277,1.514,2.661,1.58a41.717,41.717,0,0,1,3.614,2.145c.586.353,2.747,1.524,3.757,2.147s5.13,3.03,7.118,4.2c1.313.771,4.086,2.434,6.257,3.857,1.116.729,2.06,1.462,2.588,1.835,1.552,1.094,5.122,3.628,5.739,4.084s4.478,3.291,5.124,3.753,8.377,6.229,9.255,7.478c0,0-.853-1.245-6.664-5.761-3.167-2.462-7.329-5.552-7.944-6.034s-6.873-5-7.683-5.488c0,0-7.156-4.381-8.3-5.124s-6.632-3.964-7.6-4.681-5.052-2.867-5.743-3.335-6.01-3.383-7.01-3.781-2.982-1.488-4.6-2.042-3.94-1.978-5.074-2.175a6.748,6.748,0,0,1-3.006-1.193c-.287-.41-2.514-.56-3.337-.7s-2.857-.62-3.966-.813-1.53-.62-1.928-.6c-.574.024-1.056,1.486-.737,1.663A1.186,1.186,0,0,0,351.517,412.291Z" transform="translate(-348.005 -390.521)" fill="#fff"/>
      <path id="Path_2737" data-name="Path 2737" d="M353.719,421.063s-.036-.006.225-.476a6.484,6.484,0,0,1,1.05-1.452l.231-.257a8.171,8.171,0,0,1,1.024-1.155c.169-.147.667-.751.835-.841a6.749,6.749,0,0,0,.616-.5c.066-.046.309-.341.638-.667.58-.574,1.414-1.249,1.414-1.249s1.494-1.137,1.865-1.436.974-.59,1.066-.721a16.163,16.163,0,0,1,1.442-.98c.237-.159,1.06-.767,1.472-1.036s2.048-1.395,2.837-1.936c.522-.357,1.642-1.112,2.556-1.675.474-.291.916-.516,1.149-.647.685-.392,2.271-1.285,2.552-1.438l2.319-1.265a41.932,41.932,0,0,1,4.452-2.163,17.376,17.376,0,0,0-3.349,1.492c-1.488.757-3.388,1.773-3.675,1.92s-3.1,1.7-3.426,1.924c0,0-2.91,1.918-3.393,2.215s-2.661,1.8-3.1,2.036-1.972,1.392-2.271,1.572-2.333,1.663-2.66,1.97-1.086.859-1.582,1.371-1.438,1.132-1.711,1.526a2.818,2.818,0,0,1-.978.92c-.209.034-.653.849-.855,1.132s-.733.966-1,1.349-.341.289-.394.329c0,0,.353.084.5.11C353.682,421.053,353.719,421.063,353.719,421.063Z" transform="translate(-345.603 -399.852)" fill="#fff"/>
      <path id="Path_2738" data-name="Path 2738" d="M361.072,418.389s.01-.078.468-.53a6.009,6.009,0,0,1,1.735-1.255l.361-.2a7.981,7.981,0,0,1,1.626-.894,11.285,11.285,0,0,1,1.3-.594,6.962,6.962,0,0,0,.926-.287c.09-.022.484-.259,1-.49a22.772,22.772,0,0,1,2.153-.781s2.223-.6,2.779-.767,1.414-.2,1.57-.313a17.566,17.566,0,0,1,2.122-.422c.347-.07,1.568-.373,2.171-.48s3.008-.606,4.171-.849c.769-.157,2.406-.476,3.743-.671.683-.1,1.317-.133,1.653-.169.988-.108,3.271-.339,3.673-.375s2.915-.245,3.325-.285a48.857,48.857,0,0,1,6.321-.205,20.721,20.721,0,0,0-4.715-.018c-2.122.112-4.843.325-5.253.347s-4.45.4-4.93.488c0,0-4.265.783-4.964.884s-3.912.767-4.542.821-2.912.651-3.345.705-3.452.789-3.954.992-1.628.474-2.4.847-2.157.619-2.614.966a2.78,2.78,0,0,1-1.5.616c-.277-.074-1.066.711-1.4.96s-1.2.813-1.648,1.151-1.2.211-1.223.261c0,0,.789.285.962.359Z" transform="translate(-339.035 -392.359)" fill="#fff"/>
      <path id="Path_2739" data-name="Path 2739" d="M371.034,422.537a7.761,7.761,0,0,1,.645-.709,4.269,4.269,0,0,1,1.259-.878s.3-.153.263-.133a5.556,5.556,0,0,1,1.179-.618,7.826,7.826,0,0,1,.94-.4,5.3,5.3,0,0,0,.673-.189c.066-.014.351-.179.723-.335a15.94,15.94,0,0,1,1.56-.522s1.612-.388,2.018-.5,1.02-.112,1.136-.193a12.484,12.484,0,0,1,1.536-.261c.251-.042,1.137-.237,1.574-.3s2.181-.376,3.024-.524c.556-.1,1.741-.295,2.707-.408.5-.058.958-.068,1.2-.086.713-.056,2.367-.177,2.659-.189s2.11-.118,2.409-.135a34.628,34.628,0,0,1,4.58-.006,14.828,14.828,0,0,0-3.418-.121c-1.534.034-3.506.129-3.8.135s-3.223.191-3.57.247c0,0-3.09.472-3.6.536s-2.835.47-3.293.494-2.108.412-2.422.44-2.5.5-2.865.638-1.177.309-1.739.564-1.562.4-1.892.647a1.967,1.967,0,0,1-1.092.416c-.2-.06-.775.494-1.014.667s-.872.566-1.2.8-.791.345-.936.474l.546.327C370.881,422.443,371.034,422.537,371.034,422.537Z" transform="translate(-328.516 -385.126)" fill="#fff"/>
      <path id="Path_2740" data-name="Path 2740" d="M376.925,424.113a5.808,5.808,0,0,1,.6-.492,3.068,3.068,0,0,1,.952-.45s.213-.072.191-.066a4.036,4.036,0,0,1,.865-.289,6.344,6.344,0,0,1,.679-.177,3.322,3.322,0,0,0,.472-.06c.044,0,.257-.082.522-.151.468-.114,1.108-.193,1.108-.193s1.126-.1,1.41-.137.691.024.779-.022a10.241,10.241,0,0,1,1.058-.03c.169,0,.785-.044,1.084-.046s1.5-.046,2.082-.066c.382-.012,1.2-.028,1.859-.016.337.01.643.046.807.054.484.032,1.6.106,1.8.121s1.42.12,1.622.135a23.367,23.367,0,0,1,3.048.412,10.111,10.111,0,0,0-2.255-.391c-1.028-.12-2.353-.235-2.554-.261s-2.169-.171-2.408-.165c0,0-2.118.022-2.464.016s-1.948.046-2.257.02-1.456.074-1.669.064-1.729.092-1.988.149-.827.09-1.231.205-1.1.117-1.347.245a1.42,1.42,0,0,1-.777.169c-.13-.06-.578.249-.763.339s-.653.287-.9.41-.749.187-.894.3c0,0,.227.139.331.205Z" transform="translate(-322.494 -379.358)" fill="#fff"/>
      <path id="Path_2741" data-name="Path 2741" d="M354.991,411.962s-.022.068-.1.277a4.708,4.708,0,0,0-.3,1.689s-.022.368-.018.325a6.734,6.734,0,0,0-.1,1.472,9.364,9.364,0,0,0,0,1.131,6,6,0,0,1,.088.749c.012.076-.026.44-.022.883.006.777.126,1.795.126,1.795s.267,1.771.323,2.223.285,1.054.255,1.205a14.525,14.525,0,0,0,.349,1.635c.058.265.219,1.229.325,1.687s.488,2.319.673,3.217c.125.594.4,1.853.661,2.853.137.512.3.962.374,1.207.219.729.735,2.4.831,2.691s.689,2.11.783,2.41a38.161,38.161,0,0,0,1.713,4.456,15.372,15.372,0,0,1-1.387-3.261c-.548-1.512-1.2-3.474-1.311-3.769s-1.038-3.231-1.12-3.6c0,0-.743-3.257-.88-3.779s-.649-3.006-.8-3.464-.434-2.269-.526-2.59-.5-2.7-.516-3.12-.169-1.313-.159-1.992-.229-1.733-.141-2.183a2.437,2.437,0,0,0-.044-1.281c-.131-.163.139-1.012.2-1.339s.2-1.291.281-1.731l.135.054a.474.474,0,0,1,.163.086C354.931,411.936,354.991,411.962,354.991,411.962Z" transform="translate(-344.634 -389.341)" fill="#fff"/>
      <path id="Path_2742" data-name="Path 2742" d="M362.67,414.883a4.208,4.208,0,0,0-.325.793,5.8,5.8,0,0,0-.307,1.743s-.024.382-.02.339a7.382,7.382,0,0,0-.1,1.522,9.992,9.992,0,0,0,0,1.169,5.443,5.443,0,0,1,.09.779c.012.074-.022.452-.02.908,0,.8.129,1.857.129,1.857s.279,1.833.333,2.3.295,1.088.263,1.245a15.776,15.776,0,0,0,.363,1.691c.06.277.227,1.269.337,1.749s.506,2.4.7,3.323c.129.614.41,1.918.683,2.952.141.532.311.994.387,1.249.227.753.761,2.478.859,2.781s.717,2.185.815,2.494a38.656,38.656,0,0,0,1.771,4.61,15.987,15.987,0,0,1-1.434-3.371c-.566-1.562-1.245-3.6-1.355-3.9s-1.08-3.349-1.163-3.729c0,0-.767-3.367-.908-3.906s-.671-3.11-.829-3.584-.446-2.347-.54-2.677-.518-2.785-.534-3.229-.179-1.355-.165-2.056-.237-1.795-.147-2.259a2.487,2.487,0,0,0-.048-1.325c-.133-.167.149-1.048.215-1.384s.175-1.187.263-1.644a1.834,1.834,0,0,0-.147-.857c.016,0,.241.114.464.219C362.433,414.758,362.67,414.883,362.67,414.883Z" transform="translate(-337.27 -386.652)" fill="#fff"/>
      <path id="Path_2743" data-name="Path 2743" d="M369.226,418.689a1.828,1.828,0,0,0-.143.56,5.257,5.257,0,0,0-.09,1.689s.016.361.014.319a7.07,7.07,0,0,0,.082,1.452,8.9,8.9,0,0,0,.137,1.106,6.535,6.535,0,0,1,.175.723c.018.068.028.428.084.863.1.757.345,1.737.345,1.737s.478,1.7.586,2.135.412.992.4,1.143a14.819,14.819,0,0,0,.546,1.558c.088.251.367,1.173.53,1.61s.763,2.205,1.058,3.058c.2.564.617,1.763,1,2.705.2.486.416.906.518,1.135.307.685,1.024,2.253,1.155,2.526s.944,1.98,1.076,2.263a35.825,35.825,0,0,0,2.245,4.14,14.829,14.829,0,0,1-1.781-3.01c-.725-1.408-1.616-3.249-1.759-3.524s-1.426-3.032-1.554-3.383c0,0-1.134-3.09-1.335-3.584s-1.01-2.859-1.215-3.287-.707-2.161-.833-2.466-.827-2.572-.892-2.986-.329-1.259-.4-1.924-.436-1.665-.4-2.116a2.36,2.36,0,0,0-.2-1.247c-.147-.143.02-1.008.044-1.333s.03-1.143.062-1.586a1.062,1.062,0,0,0-.229-.713c.147.082.205.114.418.235C369,418.558,369.226,418.689,369.226,418.689Z" transform="translate(-330.335 -382.901)" fill="#fff"/>
      <path id="Path_2744" data-name="Path 2744" d="M377.011,423.3s.02.008-.07.193a2.267,2.267,0,0,0-.315,1s-.024.217-.02.193c-.11.632-.141.6-.108.869.016.13-.068.564-.006.667a1.757,1.757,0,0,1,.088.446c.016.042-.024.257-.024.52a6.508,6.508,0,0,0,.127,1.06s.271,1.046.327,1.313.295.62.263.711a5.42,5.42,0,0,0,.359.964c.056.157.223.727.333,1s.5,1.367.691,1.9c.125.351.406,1.094.675,1.685.139.3.309.568.384.713.227.426.757,1.414.857,1.586s.713,1.245.811,1.42a17.766,17.766,0,0,0,1.763,2.63,8.082,8.082,0,0,1-1.428-1.92c-.564-.892-1.241-2.052-1.349-2.225s-1.074-1.906-1.157-2.124c0,0-.763-1.924-.9-2.233s-.667-1.773-.821-2.042-.444-1.339-.538-1.528a13.4,13.4,0,0,1-.53-1.845,9.663,9.663,0,0,1-.159-1.175c.016-.4-.233-1.024-.141-1.289s.088-.661-.044-.753.153-.6.219-.795.181-.679.269-.938-.143-.349-.138-.385c0,0,.209.131.339.221C376.838,423.185,377.011,423.3,377.011,423.3Z" transform="translate(-322.802 -378.278)" fill="#fff"/>
    </g>
  </g>
</svg>
