<svg xmlns="http://www.w3.org/2000/svg" width="248.231" height="248.82" viewBox="0 0 248.231 248.82">
  <path id="Path_473" data-name="Path 473" d="M7783.816,453.6c-11.389-3.8-29.679,4.118-53.57,5.168s-39.859-5.286-49.552-8.354-18.119.325-22.43,14.172-3.113,40.543-2.306,57.1,6.749,91.975,0,111.378,1.493,57.43,20.475,58.274,38.627-1.1,53.813,3.535,53.889,3.375,75.823,0,63,2.43,72.287,3.264,26.653-8.454,23.01-20.165-10.009-57.749-6.615-72.287,7.019-60.98,6.615-72.287-11.949-26.568-6.615-53.224-10.545-30.792-27.839-26.574S7795.2,457.394,7783.816,453.6Z" transform="translate(-7653.629 -449.367)" fill="#ffb300"/>
</svg>
