<svg xmlns="http://www.w3.org/2000/svg" width="248.547" height="247.088" viewBox="0 0 248.547 247.088">
  <path id="Path_474" data-name="Path 474" d="M7994.289,493.143c9.479,40.949-1.645,55.577,0,78.224s5.867,51.549,6.58,75.074-13.131,41.738-6.58,47.249,30.763,1.915,56.425-2.362,66.9-3.29,91.081,0,77.92,12.831,87.187,0,14.97-30.814,7.129-54.338,3.3-58.18,4.5-70.3-9.53-49.877-6.68-62a130.2,130.2,0,0,0,3.158-36.07c-.713-9.98-7.967-22.955-45.035-15.827-15.458,2.973-43.424,4.123-86.422,4.123s-79.335-5.369-85.569-4.123C8009.369,454.935,7984.81,452.194,7994.289,493.143Z" transform="translate(-7992.156 -450.746)" fill="#ffb300"/>
</svg>
