<svg xmlns="http://www.w3.org/2000/svg" width="22.615" height="22.615" viewBox="0 0 22.615 22.615">
  <path id="Icon_awesome-facebook-square" data-name="Icon awesome-facebook-square" d="M20.192,2.25H2.423A2.423,2.423,0,0,0,0,4.673V22.442a2.423,2.423,0,0,0,2.423,2.423H9.351V17.176H6.171V13.557h3.18V10.8c0-3.137,1.868-4.87,4.728-4.87a19.266,19.266,0,0,1,2.8.244V9.253H15.3a1.81,1.81,0,0,0-2.04,1.955v2.35h3.472l-.555,3.619H13.264v7.689h6.928a2.423,2.423,0,0,0,2.423-2.423V4.673A2.423,2.423,0,0,0,20.192,2.25Z" transform="translate(0 -2.25)" fill="#f7b757"/>
</svg>
