<svg id="Group_1646" data-name="Group 1646" xmlns="http://www.w3.org/2000/svg" width="178" height="33.615" viewBox="0 0 178 33.615">
  <g id="Polygon_8" data-name="Polygon 8" transform="translate(0)" fill="none">
    <path d="M16.046,3.807a2,2,0,0,1,3.614,0l3.078,6.486A2,2,0,0,0,24.3,11.42l7.148.89a2,2,0,0,1,1.114,3.45l-5.228,4.854a2,2,0,0,0-.6,1.845l1.351,6.989a2,2,0,0,1-2.921,2.136l-6.35-3.461a2,2,0,0,0-1.914,0l-6.35,3.461a2,2,0,0,1-2.921-2.136l1.351-6.989a2,2,0,0,0-.6-1.845L3.146,15.76a2,2,0,0,1,1.114-3.45l7.148-.89a2,2,0,0,0,1.56-1.127Z" stroke="none"/>
    <path d="M 17.85284996032715 4.664468765258789 L 14.77445030212402 11.15056800842285 C 14.18503952026367 12.39239883422852 13.01877975463867 13.2351188659668 11.65473937988281 13.40482711791992 L 4.506315231323242 14.29434776306152 C 4.506313323974609 14.29435157775879 4.506313323974609 14.29435539245605 4.50629997253418 14.29434776306152 L 9.734100341796875 19.14796829223633 C 10.75297927856445 20.09393692016602 11.20369911193848 21.47364807128906 10.93976974487305 22.83868789672852 L 9.588430404663086 29.82777786254883 L 15.93873023986816 26.36695861816406 C 16.52420043945313 26.04789733886719 17.18609046936035 25.87924766540527 17.85284996032715 25.87924766540527 C 18.51960945129395 25.87924766540527 19.18149948120117 26.04789733886719 19.76699066162109 26.36696815490723 L 26.11723327636719 29.82775115966797 C 26.11724281311035 29.82774543762207 26.11725044250488 29.82773971557617 26.11726951599121 29.82778739929199 L 24.76593017578125 22.83867835998535 C 24.50199890136719 21.47364807128906 24.95272064208984 20.09393692016602 25.97161102294922 19.14795684814453 L 31.19938850402832 14.29435920715332 C 31.19938659667969 14.29435539245605 31.19938659667969 14.29435157775879 31.19939041137695 14.29434776306152 L 24.05096054077148 13.40482711791992 C 22.6869010925293 13.23508834838867 21.52064895629883 12.39237785339355 20.93124961853027 11.15054893493652 L 17.85284996032715 4.664468765258789 M 17.85284614562988 2.664466857910156 C 18.57551574707031 2.664466857910156 19.29818534851074 3.045282363891602 19.65966987609863 3.806917190551758 L 22.73806953430176 10.29299736022949 C 23.03120994567871 10.91061782836914 23.61951065063477 11.33571815490723 24.29792976379395 11.42013740539551 L 31.44635963439941 12.30965805053711 C 33.13274002075195 12.51950836181641 33.80556869506836 14.60379791259766 32.5601806640625 15.76004791259766 L 27.33240127563477 20.6136474609375 C 26.82637023925781 21.08346939086914 26.59848022460938 21.78106689453125 26.72956085205078 22.45901870727539 L 28.08090019226074 29.44811820983887 C 28.3340015411377 30.75711631774902 27.29560470581055 31.83267974853516 26.11723136901855 31.83267974853516 C 25.80083465576172 31.83267974853516 25.47454071044922 31.75522422790527 25.16020965576172 31.58391761779785 L 18.8099193572998 28.12310791015625 C 18.51161003112793 27.96053695678711 18.18222999572754 27.87925338745117 17.85284996032715 27.87925338745117 C 17.52346992492676 27.87925338745117 17.19408988952637 27.96053695678711 16.89578056335449 28.12310791015625 L 10.54549980163574 31.58391761779785 C 10.23125839233398 31.75517463684082 9.904790878295898 31.83267784118652 9.588476181030273 31.83267784118652 C 8.409984588623047 31.83267784118652 7.371679306030273 30.75720977783203 7.624799728393555 29.44811820983887 L 8.976139068603516 22.45901870727539 C 9.107219696044922 21.78106689453125 8.879329681396484 21.08346939086914 8.373300552368164 20.6136474609375 L 3.145511627197266 15.76004791259766 C 1.900131225585938 14.60379791259766 2.572959899902344 12.51950836181641 4.259340286254883 12.30965805053711 L 11.40777015686035 11.42013740539551 C 12.08618927001953 11.33572769165039 12.67448997497559 10.91061782836914 12.96763038635254 10.29299736022949 L 16.04603004455566 3.806917190551758 C 16.40751075744629 3.045282363891602 17.13017654418945 2.664466857910156 17.85284614562988 2.664466857910156 Z" stroke="none" fill="#fbb05b"/>
  </g>
  <g id="Polygon_9" data-name="Polygon 9" transform="translate(35.566)" fill="none">
    <path d="M16.046,3.807a2,2,0,0,1,3.614,0l3.078,6.486A2,2,0,0,0,24.3,11.42l7.148.89a2,2,0,0,1,1.114,3.45l-5.228,4.854a2,2,0,0,0-.6,1.845l1.351,6.989a2,2,0,0,1-2.921,2.136l-6.35-3.461a2,2,0,0,0-1.914,0l-6.35,3.461a2,2,0,0,1-2.921-2.136l1.351-6.989a2,2,0,0,0-.6-1.845L3.146,15.76a2,2,0,0,1,1.114-3.45l7.148-.89a2,2,0,0,0,1.56-1.127Z" stroke="none"/>
    <path d="M 17.85284996032715 4.664468765258789 L 14.77445030212402 11.15056800842285 C 14.18503952026367 12.39239883422852 13.01877975463867 13.2351188659668 11.65473937988281 13.40482711791992 L 4.506315231323242 14.29434776306152 C 4.506313323974609 14.29435157775879 4.506313323974609 14.29435539245605 4.50629997253418 14.29434776306152 L 9.734100341796875 19.14796829223633 C 10.75297927856445 20.09393692016602 11.20369911193848 21.47364807128906 10.93976974487305 22.83868789672852 L 9.588430404663086 29.82777786254883 L 15.93873023986816 26.36695861816406 C 16.52420043945313 26.04789733886719 17.18609046936035 25.87924766540527 17.85284996032715 25.87924766540527 C 18.51960945129395 25.87924766540527 19.18149948120117 26.04789733886719 19.76699066162109 26.36696815490723 L 26.11723327636719 29.82775115966797 C 26.11724281311035 29.82774543762207 26.11725044250488 29.82773971557617 26.11726951599121 29.82778739929199 L 24.76593017578125 22.83867835998535 C 24.50199890136719 21.47364807128906 24.95272064208984 20.09393692016602 25.97161102294922 19.14795684814453 L 31.19938850402832 14.29435920715332 C 31.19938659667969 14.29435539245605 31.19938659667969 14.29435157775879 31.19939041137695 14.29434776306152 L 24.05096054077148 13.40482711791992 C 22.6869010925293 13.23508834838867 21.52064895629883 12.39237785339355 20.93124961853027 11.15054893493652 L 17.85284996032715 4.664468765258789 M 17.85284614562988 2.664466857910156 C 18.57551574707031 2.664466857910156 19.29818534851074 3.045282363891602 19.65966987609863 3.806917190551758 L 22.73806953430176 10.29299736022949 C 23.03120994567871 10.91061782836914 23.61951065063477 11.33571815490723 24.29792976379395 11.42013740539551 L 31.44635963439941 12.30965805053711 C 33.13274002075195 12.51950836181641 33.80556869506836 14.60379791259766 32.5601806640625 15.76004791259766 L 27.33240127563477 20.6136474609375 C 26.82637023925781 21.08346939086914 26.59848022460938 21.78106689453125 26.72956085205078 22.45901870727539 L 28.08090019226074 29.44811820983887 C 28.3340015411377 30.75711631774902 27.29560470581055 31.83267974853516 26.11723136901855 31.83267974853516 C 25.80083465576172 31.83267974853516 25.47454071044922 31.75522422790527 25.16020965576172 31.58391761779785 L 18.8099193572998 28.12310791015625 C 18.51161003112793 27.96053695678711 18.18222999572754 27.87925338745117 17.85284996032715 27.87925338745117 C 17.52346992492676 27.87925338745117 17.19408988952637 27.96053695678711 16.89578056335449 28.12310791015625 L 10.54549980163574 31.58391761779785 C 10.23125839233398 31.75517463684082 9.904790878295898 31.83267784118652 9.588476181030273 31.83267784118652 C 8.409984588623047 31.83267784118652 7.371679306030273 30.75720977783203 7.624799728393555 29.44811820983887 L 8.976139068603516 22.45901870727539 C 9.107219696044922 21.78106689453125 8.879329681396484 21.08346939086914 8.373300552368164 20.6136474609375 L 3.145511627197266 15.76004791259766 C 1.900131225585938 14.60379791259766 2.572959899902344 12.51950836181641 4.259340286254883 12.30965805053711 L 11.40777015686035 11.42013740539551 C 12.08618927001953 11.33572769165039 12.67448997497559 10.91061782836914 12.96763038635254 10.29299736022949 L 16.04603004455566 3.806917190551758 C 16.40751075744629 3.045282363891602 17.13017654418945 2.664466857910156 17.85284614562988 2.664466857910156 Z" stroke="none" fill="#fbb05b"/>
  </g>
  <g id="Polygon_10" data-name="Polygon 10" transform="translate(71.132)" fill="none">
    <path d="M16.046,3.807a2,2,0,0,1,3.614,0l3.078,6.486A2,2,0,0,0,24.3,11.42l7.148.89a2,2,0,0,1,1.114,3.45l-5.228,4.854a2,2,0,0,0-.6,1.845l1.351,6.989a2,2,0,0,1-2.921,2.136l-6.35-3.461a2,2,0,0,0-1.914,0l-6.35,3.461a2,2,0,0,1-2.921-2.136l1.351-6.989a2,2,0,0,0-.6-1.845L3.146,15.76a2,2,0,0,1,1.114-3.45l7.148-.89a2,2,0,0,0,1.56-1.127Z" stroke="none"/>
    <path d="M 17.85284996032715 4.664468765258789 L 14.77445030212402 11.15056800842285 C 14.18503952026367 12.39239883422852 13.01877975463867 13.2351188659668 11.65473937988281 13.40482711791992 L 4.506315231323242 14.29434776306152 C 4.506313323974609 14.29435157775879 4.506313323974609 14.29435539245605 4.50629997253418 14.29434776306152 L 9.734100341796875 19.14796829223633 C 10.75297927856445 20.09393692016602 11.20369911193848 21.47364807128906 10.93976974487305 22.83868789672852 L 9.588430404663086 29.82777786254883 L 15.93873023986816 26.36695861816406 C 16.52420043945313 26.04789733886719 17.18609046936035 25.87924766540527 17.85284996032715 25.87924766540527 C 18.51960945129395 25.87924766540527 19.18149948120117 26.04789733886719 19.76699066162109 26.36696815490723 L 26.11723327636719 29.82775115966797 C 26.11724281311035 29.82774543762207 26.11725044250488 29.82773971557617 26.11726951599121 29.82778739929199 L 24.76593017578125 22.83867835998535 C 24.50199890136719 21.47364807128906 24.95272064208984 20.09393692016602 25.97161102294922 19.14795684814453 L 31.19938850402832 14.29435920715332 C 31.19938659667969 14.29435539245605 31.19938659667969 14.29435157775879 31.19939041137695 14.29434776306152 L 24.05096054077148 13.40482711791992 C 22.6869010925293 13.23508834838867 21.52064895629883 12.39237785339355 20.93124961853027 11.15054893493652 L 17.85284996032715 4.664468765258789 M 17.85284614562988 2.664466857910156 C 18.57551574707031 2.664466857910156 19.29818534851074 3.045282363891602 19.65966987609863 3.806917190551758 L 22.73806953430176 10.29299736022949 C 23.03120994567871 10.91061782836914 23.61951065063477 11.33571815490723 24.29792976379395 11.42013740539551 L 31.44635963439941 12.30965805053711 C 33.13274002075195 12.51950836181641 33.80556869506836 14.60379791259766 32.5601806640625 15.76004791259766 L 27.33240127563477 20.6136474609375 C 26.82637023925781 21.08346939086914 26.59848022460938 21.78106689453125 26.72956085205078 22.45901870727539 L 28.08090019226074 29.44811820983887 C 28.3340015411377 30.75711631774902 27.29560470581055 31.83267974853516 26.11723136901855 31.83267974853516 C 25.80083465576172 31.83267974853516 25.47454071044922 31.75522422790527 25.16020965576172 31.58391761779785 L 18.8099193572998 28.12310791015625 C 18.51161003112793 27.96053695678711 18.18222999572754 27.87925338745117 17.85284996032715 27.87925338745117 C 17.52346992492676 27.87925338745117 17.19408988952637 27.96053695678711 16.89578056335449 28.12310791015625 L 10.54549980163574 31.58391761779785 C 10.23125839233398 31.75517463684082 9.904790878295898 31.83267784118652 9.588476181030273 31.83267784118652 C 8.409984588623047 31.83267784118652 7.371679306030273 30.75720977783203 7.624799728393555 29.44811820983887 L 8.976139068603516 22.45901870727539 C 9.107219696044922 21.78106689453125 8.879329681396484 21.08346939086914 8.373300552368164 20.6136474609375 L 3.145511627197266 15.76004791259766 C 1.900131225585938 14.60379791259766 2.572959899902344 12.51950836181641 4.259340286254883 12.30965805053711 L 11.40777015686035 11.42013740539551 C 12.08618927001953 11.33572769165039 12.67448997497559 10.91061782836914 12.96763038635254 10.29299736022949 L 16.04603004455566 3.806917190551758 C 16.40751075744629 3.045282363891602 17.13017654418945 2.664466857910156 17.85284614562988 2.664466857910156 Z" stroke="none" fill="#fbb05b"/>
  </g>
  <g id="Polygon_11" data-name="Polygon 11" transform="translate(106.699)" fill="none">
    <path d="M16.046,3.807a2,2,0,0,1,3.614,0l3.078,6.486A2,2,0,0,0,24.3,11.42l7.148.89a2,2,0,0,1,1.114,3.45l-5.228,4.854a2,2,0,0,0-.6,1.845l1.351,6.989a2,2,0,0,1-2.921,2.136l-6.35-3.461a2,2,0,0,0-1.914,0l-6.35,3.461a2,2,0,0,1-2.921-2.136l1.351-6.989a2,2,0,0,0-.6-1.845L3.146,15.76a2,2,0,0,1,1.114-3.45l7.148-.89a2,2,0,0,0,1.56-1.127Z" stroke="none"/>
    <path d="M 17.85284996032715 4.664468765258789 L 14.77445030212402 11.15056800842285 C 14.18503952026367 12.39239883422852 13.01877975463867 13.2351188659668 11.65473937988281 13.40482711791992 L 4.506315231323242 14.29434776306152 C 4.506313323974609 14.29435157775879 4.506313323974609 14.29435539245605 4.50629997253418 14.29434776306152 L 9.734100341796875 19.14796829223633 C 10.75297927856445 20.09393692016602 11.20369911193848 21.47364807128906 10.93976974487305 22.83868789672852 L 9.588430404663086 29.82777786254883 L 15.93873023986816 26.36695861816406 C 16.52420043945313 26.04789733886719 17.18609046936035 25.87924766540527 17.85284996032715 25.87924766540527 C 18.51960945129395 25.87924766540527 19.18149948120117 26.04789733886719 19.76699066162109 26.36696815490723 L 26.11723327636719 29.82775115966797 C 26.11724281311035 29.82774543762207 26.11725044250488 29.82773971557617 26.11726951599121 29.82778739929199 L 24.76593017578125 22.83867835998535 C 24.50199890136719 21.47364807128906 24.95272064208984 20.09393692016602 25.97161102294922 19.14795684814453 L 31.19938850402832 14.29435920715332 C 31.19938659667969 14.29435539245605 31.19938659667969 14.29435157775879 31.19939041137695 14.29434776306152 L 24.05096054077148 13.40482711791992 C 22.6869010925293 13.23508834838867 21.52064895629883 12.39237785339355 20.93124961853027 11.15054893493652 L 17.85284996032715 4.664468765258789 M 17.85284614562988 2.664466857910156 C 18.57551574707031 2.664466857910156 19.29818534851074 3.045282363891602 19.65966987609863 3.806917190551758 L 22.73806953430176 10.29299736022949 C 23.03120994567871 10.91061782836914 23.61951065063477 11.33571815490723 24.29792976379395 11.42013740539551 L 31.44635963439941 12.30965805053711 C 33.13274002075195 12.51950836181641 33.80556869506836 14.60379791259766 32.5601806640625 15.76004791259766 L 27.33240127563477 20.6136474609375 C 26.82637023925781 21.08346939086914 26.59848022460938 21.78106689453125 26.72956085205078 22.45901870727539 L 28.08090019226074 29.44811820983887 C 28.3340015411377 30.75711631774902 27.29560470581055 31.83267974853516 26.11723136901855 31.83267974853516 C 25.80083465576172 31.83267974853516 25.47454071044922 31.75522422790527 25.16020965576172 31.58391761779785 L 18.8099193572998 28.12310791015625 C 18.51161003112793 27.96053695678711 18.18222999572754 27.87925338745117 17.85284996032715 27.87925338745117 C 17.52346992492676 27.87925338745117 17.19408988952637 27.96053695678711 16.89578056335449 28.12310791015625 L 10.54549980163574 31.58391761779785 C 10.23125839233398 31.75517463684082 9.904790878295898 31.83267784118652 9.588476181030273 31.83267784118652 C 8.409984588623047 31.83267784118652 7.371679306030273 30.75720977783203 7.624799728393555 29.44811820983887 L 8.976139068603516 22.45901870727539 C 9.107219696044922 21.78106689453125 8.879329681396484 21.08346939086914 8.373300552368164 20.6136474609375 L 3.145511627197266 15.76004791259766 C 1.900131225585938 14.60379791259766 2.572959899902344 12.51950836181641 4.259340286254883 12.30965805053711 L 11.40777015686035 11.42013740539551 C 12.08618927001953 11.33572769165039 12.67448997497559 10.91061782836914 12.96763038635254 10.29299736022949 L 16.04603004455566 3.806917190551758 C 16.40751075744629 3.045282363891602 17.13017654418945 2.664466857910156 17.85284614562988 2.664466857910156 Z" stroke="none" fill="#fbb05b"/>
  </g>
  <g id="Polygon_12" data-name="Polygon 12" transform="translate(143.528 0.228)" fill="none">
    <path d="M15.424,3.87a2,2,0,0,1,3.623,0l2.892,6.178A2,2,0,0,0,23.5,11.184l6.76.853a2,2,0,0,1,1.121,3.441L26.4,20.165A2,2,0,0,0,25.808,22l1.282,6.722a2,2,0,0,1-2.932,2.125L18.2,27.553a2,2,0,0,0-1.935,0l-5.955,3.29a2,2,0,0,1-2.932-2.125L8.664,22a2,2,0,0,0-.594-1.831L3.091,15.478a2,2,0,0,1,1.121-3.441l6.76-.853a2,2,0,0,0,1.561-1.136Z" stroke="none"/>
    <path d="M 17.23582649230957 4.717529296875 L 14.34378623962402 10.89579963684082 C 13.75851631164551 12.14609909057617 12.59139633178711 12.99571990966797 11.22174644470215 13.16852951049805 L 4.461372375488281 14.0214786529541 C 4.461370468139648 14.02148246765137 4.461370468139648 14.02148628234863 4.461357116699219 14.0214786529541 L 9.44085693359375 18.70892906188965 C 10.44195556640625 19.65130996704102 10.88586616516113 21.02021026611328 10.62833595275879 22.37075042724609 L 9.346426010131836 29.09300994873047 L 15.30121612548828 25.80257034301758 C 15.89192581176758 25.47615051269531 16.5608959197998 25.30360984802246 17.23582649230957 25.30360984802246 C 17.91075706481934 25.30360984802246 18.57972717285156 25.47615051269531 19.17040634155273 25.80254936218262 L 25.12522125244141 29.09300994873047 C 25.12522125244141 29.09300994873047 25.12522315979004 29.09300804138184 25.12522506713867 29.09301948547363 L 23.84331512451172 22.3707389831543 C 23.58578681945801 21.02018928527832 24.02970695495605 19.65127944946289 25.03079605102539 18.70892906188965 L 30.01028060913086 14.02148628234863 C 30.01027870178223 14.0214786529541 30.01027679443359 14.02147483825684 30.01028633117676 14.02146911621094 L 23.24989700317383 13.16852951049805 C 21.88024520874023 12.99571990966797 20.71313667297363 12.14609909057617 20.12786674499512 10.89579010009766 L 17.23582649230957 4.717529296875 M 17.23582649230957 2.717531204223633 C 17.96174621582031 2.717531204223633 18.68766784667969 3.101564407348633 19.04719543457031 3.86962890625 L 21.93923568725586 10.04788970947266 C 22.23016738891602 10.66939926147461 22.81941604614258 11.09836006164551 23.50024604797363 11.18425941467285 L 30.26063537597656 12.03719902038574 C 31.93866729736328 12.24892044067383 32.61266708374023 14.31846046447754 31.38114547729492 15.47774887084961 L 26.40165710449219 20.16519927978516 C 25.90376663208008 20.63388061523438 25.67983627319336 21.32444000244141 25.80791664123535 21.99610900878906 L 27.0898265838623 28.71837997436523 C 27.33934020996094 30.02683448791504 26.30091857910156 31.09795379638672 25.12484169006348 31.09795379638672 C 24.80500793457031 31.09795379638672 24.47499847412109 31.01874160766602 24.15793609619141 30.84354019165039 L 18.20311737060547 27.55307960510254 C 17.90213584899902 27.38676452636719 17.56898307800293 27.30360794067383 17.23583030700684 27.30360794067383 C 16.90267562866211 27.30360794067383 16.56952095031738 27.38676452636719 16.26853561401367 27.55307960510254 L 10.31371688842773 30.84354019165039 C 9.996746063232422 31.01869010925293 9.666561126708984 31.09795379638672 9.346811294555664 31.09795379638672 C 8.170623779296875 31.09795379638672 7.132293701171875 30.02693557739258 7.381826400756836 28.71837997436523 L 8.663736343383789 21.99610900878906 C 8.791816711425781 21.32444000244141 8.567876815795898 20.63388061523438 8.069995880126953 20.16519927978516 L 3.090496063232422 15.47774887084961 C 1.858978271484375 14.31846046447754 2.532985687255859 12.24892044067383 4.211015701293945 12.03721046447754 L 10.97139739990234 11.18425941467285 C 11.65223693847656 11.09836006164551 12.24148559570313 10.66939926147461 12.53241729736328 10.04788970947266 L 15.4244556427002 3.86962890625 C 15.78398704528809 3.101564407348633 16.50990676879883 2.717531204223633 17.23582649230957 2.717531204223633 Z" stroke="none" fill="#fbb05b"/>
  </g>
</svg>
