<svg xmlns="http://www.w3.org/2000/svg" xmlns:xlink="http://www.w3.org/1999/xlink" width="557.285" height="138.515" viewBox="0 0 557.285 138.515">
  <defs>
    <radialGradient id="radial-gradient" cx="0.498" cy="0.5" r="0.366" gradientTransform="matrix(3.81, 0.004, -0.014, 1, 855.523, 1.096)" gradientUnits="objectBoundingBox">
      <stop offset="0" stop-color="#fbe6f0"/>
      <stop offset="1" stop-color="#f6c7dd"/>
    </radialGradient>
    <radialGradient id="radial-gradient-2" cx="0.502" cy="0.5" r="0.366" gradientTransform="matrix(3.811, 0.004, 0.014, -1, 856.286, 296.203)" xlink:href="#radial-gradient"/>
    <radialGradient id="radial-gradient-3" cx="0.5" cy="0.498" r="1.392" gradientTransform="matrix(-0.001, 1, -0.263, -0.004, 165.303, 790.541)" xlink:href="#radial-gradient"/>
    <radialGradient id="radial-gradient-4" cx="0.5" cy="0.502" r="1.392" gradientTransform="matrix(-0.001, 1, 0.263, 0.004, 24.789, -184.079)" xlink:href="#radial-gradient"/>
    <radialGradient id="radial-gradient-5" cx="0.522" cy="0.5" r="0.462" gradientTransform="matrix(1, 0.004, -0.004, 1, -0.015, 0.223)" gradientUnits="objectBoundingBox">
      <stop offset="0" stop-color="#8e223f"/>
      <stop offset="1" stop-color="#fff"/>
    </radialGradient>
    <radialGradient id="radial-gradient-6" cx="0.242" cy="0.499" r="0.251" gradientTransform="matrix(2.799, 0.173, -0.983, 1.966, 1362.362, 67.439)" gradientUnits="objectBoundingBox">
      <stop offset="0.005" stop-color="#d95177"/>
      <stop offset="1" stop-color="#fff"/>
    </radialGradient>
    <radialGradient id="radial-gradient-7" cx="0.493" cy="0.605" r="0.488" gradientTransform="matrix(0.222, -0.914, 1.003, 0.81, 244.01, 86.84)" xlink:href="#radial-gradient-6"/>
    <radialGradient id="radial-gradient-8" cx="0.494" cy="0.392" r="0.494" gradientTransform="matrix(0.215, 0.918, -0.991, 0.794, 293.341, 262.387)" xlink:href="#radial-gradient-6"/>
    <radialGradient id="radial-gradient-9" cx="0.473" cy="0.502" r="0.412" gradientTransform="matrix(1.352, 0.503, -0.788, 0.864, 123.786, 101.252)" xlink:href="#radial-gradient"/>
    <radialGradient id="radial-gradient-10" cx="0.527" cy="0.498" r="0.412" gradientTransform="matrix(1.352, 0.503, 0.787, -0.864, -2.312, 246.179)" xlink:href="#radial-gradient"/>
    <radialGradient id="radial-gradient-11" cx="0.498" cy="0.473" r="0.644" gradientTransform="matrix(-0.322, 0.864, -0.552, -0.503, 275.213, 544.93)" xlink:href="#radial-gradient"/>
    <radialGradient id="radial-gradient-12" cx="0.502" cy="0.527" r="0.644" gradientTransform="matrix(-0.321, 0.864, 0.552, 0.503, 138.237, -109.32)" xlink:href="#radial-gradient"/>
    <radialGradient id="radial-gradient-13" cx="0.426" cy="0.511" r="0.28" gradientTransform="matrix(1.336, -0.495, 1.521, 1.735, 134.08, -55.363)" xlink:href="#radial-gradient-6"/>
    <radialGradient id="radial-gradient-14" cx="0.54" cy="0.478" r="0.31" gradientTransform="matrix(-0.883, 0.641, -1.476, -1.534, 1175.01, 634.301)" xlink:href="#radial-gradient-6"/>
    <radialGradient id="radial-gradient-15" cx="0.522" cy="0.5" r="0.462" gradientTransform="matrix(1, 0.004, -0.004, 1, -0.013, 0.391)" xlink:href="#radial-gradient-5"/>
    <radialGradient id="radial-gradient-16" cx="0.522" cy="0.5" r="0.462" gradientTransform="matrix(1, 0.004, -0.004, 1, -0.008, 0.216)" xlink:href="#radial-gradient-5"/>
    <radialGradient id="radial-gradient-17" cx="0.478" cy="0.461" r="0.354" gradientTransform="matrix(0.572, 0.761, -1.341, 1.295, 222.316, 149.452)" xlink:href="#radial-gradient-6"/>
    <radialGradient id="radial-gradient-18" cx="0.528" cy="0.502" r="0.41" gradientTransform="matrix(1.373, -0.498, 0.788, 0.867, 66.777, -29.324)" xlink:href="#radial-gradient"/>
    <radialGradient id="radial-gradient-19" cx="0.472" cy="0.498" r="0.41" gradientTransform="matrix(1.373, -0.498, -0.788, -0.867, 192.32, 397.606)" xlink:href="#radial-gradient"/>
    <radialGradient id="radial-gradient-20" cx="0.498" cy="0.528" r="0.65" gradientTransform="matrix(0.314, 0.867, -0.548, 0.498, 72.706, 210.516)" xlink:href="#radial-gradient"/>
    <radialGradient id="radial-gradient-21" cx="0.502" cy="0.472" r="0.65" gradientTransform="matrix(0.314, 0.867, 0.548, -0.498, -64.082, 79.604)" xlink:href="#radial-gradient"/>
    <radialGradient id="radial-gradient-22" cx="0.522" cy="0.5" r="0.462" gradientTransform="matrix(1, 0.004, -0.004, 1, -0.006, 0.503)" xlink:href="#radial-gradient-5"/>
    <radialGradient id="radial-gradient-23" cx="0.5" cy="0.5" r="0.5" gradientTransform="matrix(1, 0.003, -0.003, 1, 0.002, -0.002)" gradientUnits="objectBoundingBox">
      <stop offset="0" stop-color="#fc8e07"/>
      <stop offset="1" stop-color="#ffc844"/>
    </radialGradient>
    <radialGradient id="radial-gradient-24" cx="0.5" cy="0.5" r="0.5" gradientTransform="matrix(1, 0.004, -0.004, 1, -0.108, 1.213)" gradientUnits="objectBoundingBox">
      <stop offset="0" stop-color="#ffc942"/>
      <stop offset="1" stop-color="#ffc400"/>
    </radialGradient>
    <radialGradient id="radial-gradient-25" cx="0.498" cy="0.5" r="0.366" gradientTransform="matrix(3.81, 0.004, -0.014, 1, 537.465, 0.689)" gradientUnits="objectBoundingBox">
      <stop offset="0" stop-color="#e63871"/>
      <stop offset="1" stop-color="#de2f64"/>
    </radialGradient>
    <radialGradient id="radial-gradient-26" cx="0.502" cy="0.5" r="0.366" gradientTransform="matrix(3.81, 0.004, 0.014, -1, 537.717, 346.313)" xlink:href="#radial-gradient-25"/>
    <radialGradient id="radial-gradient-27" cx="0.5" cy="0.498" r="1.392" gradientTransform="matrix(-0.001, 1, -0.263, -0.004, 44.322, 606.748)" xlink:href="#radial-gradient-25"/>
    <radialGradient id="radial-gradient-28" cx="0.5" cy="0.502" r="1.392" gradientTransform="matrix(-0.001, 1, 0.262, 0.004, -61.373, -18.37)" xlink:href="#radial-gradient-25"/>
    <radialGradient id="radial-gradient-29" cx="0.522" cy="0.5" r="0.462" gradientTransform="matrix(1, 0.004, -0.004, 1, -0.179, 0.14)" xlink:href="#radial-gradient-5"/>
    <radialGradient id="radial-gradient-30" cx="0.241" cy="0.499" r="0.251" gradientTransform="matrix(2.799, 0.173, -0.983, 1.966, 947.677, 118.375)" xlink:href="#radial-gradient-6"/>
    <radialGradient id="radial-gradient-31" cx="0.493" cy="0.605" r="0.488" gradientTransform="matrix(0.222, -0.914, 1.002, 0.81, 314.341, 196.754)" xlink:href="#radial-gradient-6"/>
    <radialGradient id="radial-gradient-32" cx="0.494" cy="0.391" r="0.494" gradientTransform="matrix(0.215, 0.918, -0.991, 0.794, 28.482, 304.523)" xlink:href="#radial-gradient-6"/>
    <radialGradient id="radial-gradient-33" cx="0.473" cy="0.502" r="0.412" gradientTransform="matrix(1.353, 0.503, -0.788, 0.864, 53.984, 87.258)" xlink:href="#radial-gradient-25"/>
    <radialGradient id="radial-gradient-34" cx="0.527" cy="0.498" r="0.412" gradientTransform="matrix(1.352, 0.503, 0.787, -0.864, -41.371, 332.578)" xlink:href="#radial-gradient-25"/>
    <radialGradient id="radial-gradient-35" cx="0.498" cy="0.473" r="0.644" gradientTransform="matrix(-0.322, 0.864, -0.552, -0.503, 128.866, 521.98)" xlink:href="#radial-gradient-25"/>
    <radialGradient id="radial-gradient-36" cx="0.502" cy="0.527" r="0.644" gradientTransform="matrix(-0.321, 0.864, 0.552, 0.503, 25.865, -35.5)" xlink:href="#radial-gradient-25"/>
    <radialGradient id="radial-gradient-37" cx="0.425" cy="0.511" r="0.28" gradientTransform="matrix(1.336, -0.495, 1.522, 1.735, 130.65, 79.146)" xlink:href="#radial-gradient-6"/>
    <radialGradient id="radial-gradient-38" cx="0.54" cy="0.478" r="0.31" gradientTransform="matrix(-0.883, 0.641, -1.476, -1.534, 623.102, 746.259)" xlink:href="#radial-gradient-6"/>
    <radialGradient id="radial-gradient-39" cx="0.522" cy="0.5" r="0.462" gradientTransform="matrix(1, 0.004, -0.004, 1, -0.307, 0.245)" xlink:href="#radial-gradient-5"/>
    <radialGradient id="radial-gradient-40" cx="0.522" cy="0.5" r="0.462" gradientTransform="matrix(1, 0.004, -0.004, 1, -0.166, 0.135)" xlink:href="#radial-gradient-5"/>
    <radialGradient id="radial-gradient-41" cx="0.477" cy="0.461" r="0.354" gradientTransform="matrix(0.572, 0.761, -1.342, 1.295, 8.327, 226.533)" xlink:href="#radial-gradient-6"/>
    <radialGradient id="radial-gradient-42" cx="0.528" cy="0.502" r="0.41" gradientTransform="matrix(1.373, -0.498, 0.788, 0.867, 65.181, 5.455)" xlink:href="#radial-gradient-25"/>
    <radialGradient id="radial-gradient-43" cx="0.472" cy="0.498" r="0.41" gradientTransform="matrix(1.373, -0.498, -0.788, -0.867, 160.113, 430.813)" xlink:href="#radial-gradient-25"/>
    <radialGradient id="radial-gradient-44" cx="0.498" cy="0.528" r="0.65" gradientTransform="matrix(0.314, 0.867, -0.548, 0.498, -25.957, 169.193)" xlink:href="#radial-gradient-25"/>
    <radialGradient id="radial-gradient-45" cx="0.502" cy="0.472" r="0.65" gradientTransform="matrix(0.314, 0.867, 0.548, -0.498, -129.053, 224.067)" xlink:href="#radial-gradient-25"/>
    <radialGradient id="radial-gradient-46" cx="0.522" cy="0.5" r="0.462" gradientTransform="matrix(1, 0.004, -0.004, 1, -0.377, 0.316)" xlink:href="#radial-gradient-5"/>
    <radialGradient id="radial-gradient-47" cx="0.5" cy="0.5" r="0.5" gradientTransform="matrix(1, 0.003, -0.003, 1, 0.002, -0.001)" xlink:href="#radial-gradient-23"/>
    <radialGradient id="radial-gradient-48" cx="0.5" cy="0.5" r="0.5" gradientTransform="matrix(1, 0.004, -0.004, 1, -0.989, 0.762)" xlink:href="#radial-gradient-24"/>
    <radialGradient id="radial-gradient-49" cx="0.498" cy="0.5" r="0.366" gradientTransform="matrix(3.811, 0.004, -0.014, 1, 1053.853, 1.351)" xlink:href="#radial-gradient"/>
    <radialGradient id="radial-gradient-50" cx="0.502" cy="0.5" r="0.366" gradientTransform="matrix(3.811, 0.004, 0.014, -1, 1054.226, 577.413)" xlink:href="#radial-gradient"/>
    <radialGradient id="radial-gradient-51" cx="0.5" cy="0.498" r="1.392" gradientTransform="matrix(-0.001, 1, -0.263, -0.004, 111.679, 1100.454)" xlink:href="#radial-gradient"/>
    <radialGradient id="radial-gradient-52" cx="0.5" cy="0.502" r="1.393" gradientTransform="matrix(-0.001, 1, 0.262, 0.004, -79.296, -87.63)" xlink:href="#radial-gradient"/>
    <radialGradient id="radial-gradient-53" cx="0.522" cy="0.5" r="0.462" gradientTransform="matrix(1, 0.004, -0.004, 1, -0.267, 0.275)" xlink:href="#radial-gradient-5"/>
    <radialGradient id="radial-gradient-54" cx="0.241" cy="0.499" r="0.251" gradientTransform="matrix(2.799, 0.173, -0.983, 1.966, 1767.044, 198.15)" xlink:href="#radial-gradient-6"/>
    <radialGradient id="radial-gradient-55" cx="0.493" cy="0.605" r="0.488" gradientTransform="matrix(0.222, -0.914, 1.002, 0.81, 532.408, 296.879)" xlink:href="#radial-gradient-6"/>
    <radialGradient id="radial-gradient-56" cx="0.494" cy="0.391" r="0.494" gradientTransform="matrix(0.215, 0.918, -0.991, 0.794, 119.242, 514.259)" xlink:href="#radial-gradient-6"/>
    <radialGradient id="radial-gradient-57" cx="0.473" cy="0.502" r="0.412" gradientTransform="matrix(1.353, 0.503, -0.788, 0.864, 115.086, 156.424)" xlink:href="#radial-gradient"/>
    <radialGradient id="radial-gradient-58" cx="0.527" cy="0.498" r="0.412" gradientTransform="matrix(1.352, 0.503, 0.787, -0.864, -55.853, 544.165)" xlink:href="#radial-gradient"/>
    <radialGradient id="radial-gradient-59" cx="0.498" cy="0.473" r="0.644" gradientTransform="matrix(-0.321, 0.864, -0.552, -0.503, 264.459, 904.283)" xlink:href="#radial-gradient"/>
    <radialGradient id="radial-gradient-60" cx="0.502" cy="0.527" r="0.644" gradientTransform="matrix(-0.321, 0.864, 0.552, 0.503, 78.338, -83.72)" xlink:href="#radial-gradient"/>
    <radialGradient id="radial-gradient-61" cx="0.426" cy="0.511" r="0.28" gradientTransform="matrix(1.336, -0.495, 1.521, 1.735, 243.755, 98.275)" xlink:href="#radial-gradient-6"/>
    <radialGradient id="radial-gradient-62" cx="0.54" cy="0.478" r="0.31" gradientTransform="matrix(-0.883, 0.641, -1.476, -1.534, 1211.381, 1228.067)" xlink:href="#radial-gradient-6"/>
    <radialGradient id="radial-gradient-63" cx="0.522" cy="0.5" r="0.462" gradientTransform="matrix(1, 0.004, -0.004, 1, -0.463, 0.482)" xlink:href="#radial-gradient-5"/>
    <radialGradient id="radial-gradient-64" cx="0.522" cy="0.5" r="0.462" gradientTransform="matrix(1, 0.004, -0.004, 1, -0.246, 0.266)" xlink:href="#radial-gradient-5"/>
    <radialGradient id="radial-gradient-65" cx="0.478" cy="0.461" r="0.354" gradientTransform="matrix(0.572, 0.761, -1.341, 1.295, 61.241, 374.046)" xlink:href="#radial-gradient-6"/>
    <radialGradient id="radial-gradient-66" cx="0.528" cy="0.502" r="0.41" gradientTransform="matrix(1.373, -0.498, 0.788, 0.867, 116.357, -4.515)" xlink:href="#radial-gradient"/>
    <radialGradient id="radial-gradient-67" cx="0.472" cy="0.498" r="0.41" gradientTransform="matrix(1.373, -0.498, -0.788, -0.867, 286.47, 726.307)" xlink:href="#radial-gradient"/>
    <radialGradient id="radial-gradient-68" cx="0.498" cy="0.528" r="0.65" gradientTransform="matrix(0.314, 0.867, -0.548, 0.498, -16.267, 305.098)" xlink:href="#radial-gradient"/>
    <radialGradient id="radial-gradient-69" cx="0.502" cy="0.472" r="0.65" gradientTransform="matrix(0.314, 0.867, 0.548, -0.498, -202.091, 338.354)" xlink:href="#radial-gradient"/>
    <radialGradient id="radial-gradient-70" cx="0.523" cy="0.5" r="0.462" gradientTransform="matrix(1, 0.004, -0.004, 1, -0.59, 0.62)" xlink:href="#radial-gradient-5"/>
    <radialGradient id="radial-gradient-71" cx="0.5" cy="0.5" r="0.5" gradientTransform="matrix(0.999, 0.003, -0.003, 1, 0.002, -0.001)" xlink:href="#radial-gradient-23"/>
    <radialGradient id="radial-gradient-72" cx="0.5" cy="0.5" r="0.5" gradientTransform="matrix(0.999, 0.004, -0.004, 1, -1.621, 1.493)" xlink:href="#radial-gradient-24"/>
  </defs>
  <g id="Group_1708" data-name="Group 1708" transform="translate(-407.406 -385.845)">
    <g id="Group_1533" data-name="Group 1533" transform="translate(491.656 393.633) rotate(90)">
      <path id="Path_3415" data-name="Path 3415" d="M157.835,953.428l-.038-.162c-1.383-5.054-4.6-17.849-4.573-27.419.043-13.389,2.921-15.177,5.74-15.166s5.678,1.812,5.636,15.2c-.031,9.572-3.334,22.345-4.75,27.39l-.038.162Z" transform="translate(-116.62 -910.68)" fill="#ed8dba"/>
      <path id="Path_3416" data-name="Path 3416" d="M159.676,952.765c1.56-5.453,4.72-17.71,4.749-27.01.041-12.332-2.413-14.805-5.437-14.817s-5.5,2.45-5.54,14.783c-.03,9.3,3.061,21.576,4.574,27.038Z" transform="translate(-116.598 -910.655)" fill="url(#radial-gradient)"/>
      <path id="Path_3417" data-name="Path 3417" d="M158.732,991.209c-2.836-.009-5.724-1.806-5.683-15.061.03-9.488,3.352-22.136,4.776-27.133l.047-.162,1.986.005.036.163c1.4,5.006,4.643,17.675,4.615,27.164C164.467,989.438,161.559,991.219,158.732,991.209Z" transform="translate(-116.637 -906.959)" fill="#ed8dba"/>
      <path id="Path_3418" data-name="Path 3418" d="M159.691,949.051c1.525,5.458,4.608,17.743,4.578,27.048-.038,12.331-2.507,14.787-5.53,14.776s-5.486-2.48-5.447-14.812c.03-9.3,3.2-21.569,4.745-27.019Z" transform="translate(-116.613 -906.94)" fill="url(#radial-gradient-2)"/>
      <path id="Path_3419" data-name="Path 3419" d="M185.4,955.33c-9.456-.03-22.078-3.329-27.065-4.751l-.154-.039.007-1.978.153-.047c5-1.382,17.64-4.614,27.1-4.585,13.23.042,15,2.931,14.988,5.75S198.63,955.371,185.4,955.33Z" transform="translate(-116.136 -907.439)" fill="#ed8dba"/>
      <path id="Path_3420" data-name="Path 3420" d="M158.374,950.359c5.45,1.561,17.7,4.718,27.008,4.75,12.331.037,14.806-2.414,14.816-5.449s-2.45-5.493-14.781-5.535c-9.307-.027-21.578,3.053-27.038,4.576Z" transform="translate(-116.118 -907.42)" fill="url(#radial-gradient-3)"/>
      <path id="Path_3421" data-name="Path 3421" d="M162.371,950.453c-5.555,1.547-18.018,4.7-27.485,4.67-12.527-.04-15.026-2.559-15.015-5.653s2.523-5.6,15.051-5.56c9.466.03,21.908,3.266,27.455,4.841Z" transform="translate(-119.871 -907.441)" fill="#ed8dba"/>
      <path id="Path_3422" data-name="Path 3422" d="M162.089,950.374c-5.463,1.525-17.737,4.608-27.051,4.579-12.33-.039-14.791-2.505-14.78-5.542s2.484-5.479,14.815-5.441c9.3.031,21.568,3.192,27.021,4.748Z" transform="translate(-119.833 -907.435)" fill="url(#radial-gradient-4)"/>
      <path id="Path_3423" data-name="Path 3423" d="M186.743,951.5a26.751,26.751,0,1,1-26.667-26.825A26.753,26.753,0,0,1,186.743,951.5Z" transform="translate(-118.568 -909.316)" opacity="0.3" fill="url(#radial-gradient-5)" style="mix-blend-mode: multiply;isolation: isolate"/>
      <path id="Path_3424" data-name="Path 3424" d="M156.5,949.17,151.9,975.338c3.63.568,7.572-4.751,8.833-11.935S160.1,949.869,156.5,949.17Z" transform="translate(-116.748 -906.928)" opacity="0.5" fill="url(#radial-gradient-6)" style="mix-blend-mode: multiply;isolation: isolate"/>
      <path id="Path_3425" data-name="Path 3425" d="M161.55,950.36l24.3,10.761c1.42-3.384-2.791-8.493-9.458-11.447S163.1,947.034,161.55,950.36Z" transform="translate(-115.808 -907.077)" opacity="0.5" fill="url(#radial-gradient-7)" style="mix-blend-mode: multiply;isolation: isolate"/>
      <path id="Path_3426" data-name="Path 3426" d="M186.449,938.032l-24.39,10.561c1.53,3.341,8.138,3.7,14.831.8S187.839,941.43,186.449,938.032Z" transform="translate(-115.758 -908.014)" opacity="0.5" fill="url(#radial-gradient-8)" style="mix-blend-mode: multiply;isolation: isolate"/>
      <path id="Path_3427" data-name="Path 3427" d="M157.316,952.457l.037-.151c1.635-6.369,5.059-18.255,9.69-26.278,4.309-7.465,7.647-10.934,10.513-10.925a4.045,4.045,0,0,1,2.1.623c1.633.947,2.3,2.429,2.085,4.638-.246,2.657-1.8,6.427-4.728,11.512-4.809,8.344-14.087,17.8-17.852,21.486l-.116.11Z" transform="translate(-116.221 -910.249)" fill="#ed8dba"/>
      <path id="Path_3428" data-name="Path 3428" d="M159.157,952.728c4.068-3.941,12.938-12.971,17.617-21.022,6.2-10.657,5.312-14.023,2.687-15.555s-5.983-.627-12.183,10.041c-4.677,8.04-8.139,20.22-9.557,25.708Z" transform="translate(-116.181 -910.203)" fill="url(#radial-gradient-9)"/>
      <path id="Path_3429" data-name="Path 3429" d="M141.279,986.047a4.138,4.138,0,0,1-2.086-.613c-1.624-.931-2.283-2.38-2.075-4.547.254-2.608,1.788-6.3,4.7-11.283,4.784-8.174,14-17.446,17.751-21.06l.113-.111,1.719,1-.037.146c-1.3,5.022-4.851,17.587-9.635,25.761C147.456,982.651,144.136,986.055,141.279,986.047Z" transform="translate(-118.193 -907)" fill="#ed8dba"/>
      <path id="Path_3430" data-name="Path 3430" d="M161.139,949.5c-1.418,5.489-4.88,17.668-9.557,25.718-6.21,10.657-9.569,11.551-12.193,10.026s-3.512-4.894,2.688-15.562c4.677-8.039,13.547-17.069,17.626-21.01Z" transform="translate(-118.163 -906.976)" fill="url(#radial-gradient-10)"/>
      <path id="Path_3431" data-name="Path 3431" d="M190.929,972.373c-2.631-.008-6.55-1.556-12-4.72-8.174-4.755-17.459-13.925-21.068-17.653l-.113-.115,1-1.708.151.037c5.018,1.294,17.582,4.82,25.766,9.578,4.983,2.908,8.144,5.358,9.65,7.5,1.251,1.783,1.4,3.362.458,4.976a4.038,4.038,0,0,1-3.846,2.106Z" transform="translate(-116.178 -907.025)" fill="#ed8dba"/>
      <path id="Path_3432" data-name="Path 3432" d="M157.995,949.826c3.939,4.071,12.968,12.95,21.019,17.627,10.655,6.2,14.025,5.312,15.555,2.689s.627-5.985-10.031-12.185c-8.05-4.676-20.219-8.147-25.708-9.555Z" transform="translate(-116.155 -907.003)" fill="url(#radial-gradient-11)"/>
      <path id="Path_3433" data-name="Path 3433" d="M161.277,951.765c-5.537-1.414-17.808-4.865-25.9-9.581-10.733-6.237-11.631-9.656-10.083-12.317s4.96-3.588,15.7,2.658c8.1,4.717,17.177,13.675,21.133,17.79Z" transform="translate(-119.4 -909.009)" fill="#ed8dba"/>
      <path id="Path_3434" data-name="Path 3434" d="M161.221,951.807c-5.491-1.416-17.668-4.878-25.712-9.552-10.664-6.2-11.562-9.572-10.031-12.182,1.521-2.626,4.891-3.514,15.557,2.681,8.041,4.683,17.071,13.551,21.02,17.629Z" transform="translate(-119.381 -908.985)" fill="url(#radial-gradient-12)"/>
      <path id="Path_3435" data-name="Path 3435" d="M161.482,952.473l13.147,23.087c3.157-1.881,2.8-8.494-.814-14.829S164.7,950.715,161.482,952.473Z" transform="translate(-115.815 -906.649)" opacity="0.5" fill="url(#radial-gradient-13)" style="mix-blend-mode: multiply;isolation: isolate"/>
      <path id="Path_3436" data-name="Path 3436" d="M161.646,952.211l-17.053-20.38c-2.767,2.412-1.24,8.858,3.442,14.446S158.79,954.516,161.646,952.211Z" transform="translate(-117.595 -908.618)" opacity="0.5" fill="url(#radial-gradient-14)" style="mix-blend-mode: multiply;isolation: isolate"/>
      <path id="Path_3437" data-name="Path 3437" d="M174.316,950.455a15.337,15.337,0,1,1-15.289-15.388A15.332,15.332,0,0,1,174.316,950.455Z" transform="translate(-117.554 -908.303)" opacity="0.3" fill="url(#radial-gradient-15)" style="mix-blend-mode: multiply;isolation: isolate"/>
      <path id="Path_3438" data-name="Path 3438" d="M187.711,951.587a27.643,27.643,0,1,1-27.552-27.725A27.638,27.638,0,0,1,187.711,951.587Z" transform="translate(-118.647 -909.395)" opacity="0.3" fill="url(#radial-gradient-16)" style="mix-blend-mode: multiply;isolation: isolate"/>
      <path id="Path_3439" data-name="Path 3439" d="M160.248,948.126l-20.213,17.247c2.431,2.751,8.858,1.157,14.414-3.577S162.577,950.961,160.248,948.126Z" transform="translate(-117.905 -907.03)" opacity="0.5" fill="url(#radial-gradient-17)" style="mix-blend-mode: multiply;isolation: isolate"/>
      <path id="Path_3440" data-name="Path 3440" d="M161.218,951.905c-1.326-5.584-4.605-17.972-9.278-26.119-6.186-10.8-9.684-11.661-12.468-10.065s-3.809,5.05,2.38,15.852c4.664,8.144,13.692,17.239,17.84,21.207Z" transform="translate(-118.175 -910.249)" fill="#ed8dba"/>
      <path id="Path_3441" data-name="Path 3441" d="M159.18,948.663c4.089,3.983,12.986,13.106,17.652,21.226,6.169,10.768,5.221,14.171,2.541,15.716s-6.1.623-12.269-10.139c-4.656-8.13-8.021-20.413-9.394-25.959Z" transform="translate(-116.183 -906.977)" fill="#ed8dba"/>
      <path id="Path_3442" data-name="Path 3442" d="M158.8,951.775c5.563-1.351,17.9-4.679,26.041-9.342,10.79-6.189,11.682-9.638,10.11-12.373s-4.992-3.716-15.78,2.473c-8.138,4.665-17.253,13.628-21.237,17.747Z" transform="translate(-116.16 -908.999)" fill="#ed8dba"/>
      <path id="Path_3443" data-name="Path 3443" d="M162.068,949.81c-3.976,4.122-13.072,13.1-21.21,17.768-10.781,6.177-14.22,5.183-15.792,2.438s-.7-6.207,10.083-12.4c8.148-4.653,20.489-7.97,26.062-9.318Z" transform="translate(-119.424 -907.013)" fill="#ed8dba"/>
      <path id="Path_3444" data-name="Path 3444" d="M161.122,951.918c-1.383-5.5-4.769-17.7-9.394-25.769-6.14-10.707-9.494-11.623-12.128-10.122-2.634,1.517-3.543,4.878,2.589,15.573,4.626,8.082,13.439,17.168,17.492,21.136Z" transform="translate(-118.145 -910.214)" fill="url(#radial-gradient-18)"/>
      <path id="Path_3445" data-name="Path 3445" d="M159.159,948.68c4.043,3.964,12.857,13.05,17.483,21.12,6.129,10.707,5.224,14.069,2.589,15.577s-5.987.6-12.121-10.1C162.486,967.2,159.1,955,157.717,949.5Z" transform="translate(-116.182 -906.976)" fill="url(#radial-gradient-19)"/>
      <path id="Path_3446" data-name="Path 3446" d="M158.824,951.791c5.5-1.381,17.688-4.768,25.769-9.39,10.7-6.133,11.614-9.5,10.108-12.12s-4.876-3.545-15.572,2.587c-8.079,4.629-17.165,13.439-21.13,17.494Z" transform="translate(-116.154 -908.966)" fill="url(#radial-gradient-20)"/>
      <path id="Path_3447" data-name="Path 3447" d="M162.062,949.828c-3.974,4.047-13.062,12.867-21.131,17.494-10.706,6.13-14.07,5.222-15.573,2.589s-.6-5.987,10.108-12.117c8.072-4.628,20.272-8.021,25.771-9.394Z" transform="translate(-119.392 -907.003)" fill="url(#radial-gradient-21)"/>
      <path id="Path_3448" data-name="Path 3448" d="M170.61,950.143a11.933,11.933,0,1,1-11.9-11.972A11.934,11.934,0,0,1,170.61,950.143Z" transform="translate(-117.251 -908)" opacity="0.3" fill="url(#radial-gradient-22)" style="mix-blend-mode: multiply;isolation: isolate"/>
      <path id="Path_3449" data-name="Path 3449" d="M163.9,949.529a5.13,5.13,0,1,1-5.11-5.154A5.127,5.127,0,0,1,163.9,949.529Z" transform="translate(-116.58 -907.395)" fill="url(#radial-gradient-23)"/>
      <path id="Path_3450" data-name="Path 3450" d="M163.71,949.5a4.96,4.96,0,1,1-4.94-4.971A4.961,4.961,0,0,1,163.71,949.5Z" transform="translate(-116.564 -907.38)" fill="url(#radial-gradient-24)"/>
    </g>
    <g id="Group_1535" data-name="Group 1535" transform="translate(964.69 398.086) rotate(90)">
      <path id="Path_3487" data-name="Path 3487" d="M180.8,522.744l-.059-.243c-2.07-7.567-6.9-26.737-6.85-41.073.064-20.061,4.378-22.738,8.6-22.723s8.5,2.716,8.441,22.778c-.045,14.334-4.995,33.474-7.115,41.028l-.057.243Z" transform="translate(-119.058 -458.705)" fill="#ed8dba"/>
      <path id="Path_3488" data-name="Path 3488" d="M183.564,521.753c2.337-8.164,7.07-26.525,7.114-40.464.058-18.473-3.615-22.183-8.147-22.2-4.549-.013-8.241,3.671-8.3,22.146-.045,13.938,4.586,32.328,6.852,40.509Z" transform="translate(-119.025 -458.667)" fill="url(#radial-gradient-25)"/>
      <path id="Path_3489" data-name="Path 3489" d="M182.147,579.347c-4.249-.013-8.576-2.7-8.512-22.563.045-14.211,5.021-33.161,7.154-40.652l.072-.236,2.975.009.056.238c2.089,7.5,6.957,26.483,6.912,40.695C190.743,576.7,186.386,579.361,182.147,579.347Z" transform="translate(-119.084 -453.13)" fill="#ed8dba"/>
      <path id="Path_3490" data-name="Path 3490" d="M183.587,516.188c2.284,8.181,6.9,26.583,6.857,40.521-.058,18.473-3.756,22.157-8.285,22.144-4.55-.016-8.22-3.723-8.162-22.2.045-13.939,4.792-32.311,7.109-40.476Z" transform="translate(-119.048 -453.102)" fill="url(#radial-gradient-26)"/>
      <path id="Path_3491" data-name="Path 3491" d="M222.1,525.6c-14.164-.044-33.075-4.993-40.546-7.122l-.227-.063.01-2.955.227-.072c7.485-2.072,26.425-6.914,40.591-6.869,19.819.064,22.468,4.391,22.454,8.614S241.918,525.663,222.1,525.6Z" transform="translate(-118.334 -453.849)" fill="#ed8dba"/>
      <path id="Path_3492" data-name="Path 3492" d="M181.61,518.146c8.167,2.338,26.522,7.074,40.462,7.118,18.473.058,22.182-3.616,22.2-8.163s-3.671-8.231-22.145-8.29c-13.939-.043-32.323,4.574-40.5,6.857Z" transform="translate(-118.306 -453.821)" fill="url(#radial-gradient-27)"/>
      <path id="Path_3493" data-name="Path 3493" d="M187.6,518.292c-8.324,2.315-26.994,7.044-41.176,7-18.767-.059-22.509-3.84-22.5-8.475s3.781-8.388,22.549-8.328c14.182.044,32.822,4.895,41.131,7.256Z" transform="translate(-123.929 -453.852)" fill="#ed8dba"/>
      <path id="Path_3494" data-name="Path 3494" d="M187.176,518.169c-8.183,2.286-26.571,6.905-40.524,6.86-18.472-.057-22.156-3.757-22.141-8.3s3.72-8.207,22.193-8.148c13.941.044,32.312,4.777,40.481,7.112Z" transform="translate(-123.872 -453.843)" fill="url(#radial-gradient-28)"/>
      <path id="Path_3495" data-name="Path 3495" d="M224.112,519.866a40.075,40.075,0,1,1-39.952-40.19A40.077,40.077,0,0,1,224.112,519.866Z" transform="translate(-121.976 -456.661)" opacity="0.3" fill="url(#radial-gradient-29)" style="mix-blend-mode: multiply;isolation: isolate"/>
      <path id="Path_3496" data-name="Path 3496" d="M178.8,516.366l-6.88,39.205c5.437.855,11.341-7.119,13.231-17.882S184.2,517.414,178.8,516.366Z" transform="translate(-119.251 -453.084)" opacity="0.5" fill="url(#radial-gradient-30)" style="mix-blend-mode: multiply;isolation: isolate"/>
      <path id="Path_3497" data-name="Path 3497" d="M186.37,518.147l36.4,16.121c2.125-5.066-4.181-12.718-14.171-17.143S188.7,513.166,186.37,518.147Z" transform="translate(-117.842 -453.307)" opacity="0.5" fill="url(#radial-gradient-31)" style="mix-blend-mode: multiply;isolation: isolate"/>
      <path id="Path_3498" data-name="Path 3498" d="M223.673,499.683,187.132,515.5c2.293,5.011,12.192,5.55,22.221,1.209S225.752,504.773,223.673,499.683Z" transform="translate(-117.768 -454.71)" opacity="0.5" fill="url(#radial-gradient-32)" style="mix-blend-mode: multiply;isolation: isolate"/>
      <path id="Path_3499" data-name="Path 3499" d="M180.026,521.29l.057-.229c2.452-9.536,7.579-27.343,14.515-39.359,6.455-11.19,11.458-16.383,15.75-16.37a6.076,6.076,0,0,1,3.139.931c2.45,1.422,3.446,3.639,3.123,6.953-.368,3.976-2.693,9.625-7.081,17.24-7.208,12.506-21.106,26.668-26.745,32.188l-.173.168Z" transform="translate(-118.461 -458.059)" fill="#ed8dba"/>
      <path id="Path_3500" data-name="Path 3500" d="M182.783,521.7c6.1-5.908,19.385-19.434,26.393-31.5,9.282-15.958,7.957-21.011,4.026-23.3-3.916-2.282-8.964-.936-18.252,15.042-7.006,12.046-12.192,30.289-14.318,38.511Z" transform="translate(-118.402 -457.99)" fill="url(#radial-gradient-33)"/>
      <path id="Path_3501" data-name="Path 3501" d="M156,571.612a6.227,6.227,0,0,1-3.128-.912c-2.432-1.4-3.418-3.571-3.107-6.815.38-3.909,2.677-9.438,7.049-16.906,7.167-12.242,20.979-26.136,26.591-31.548l.171-.167,2.574,1.5-.057.223c-1.951,7.519-7.268,26.346-14.434,38.587C165.254,566.529,160.282,571.627,156,571.612Z" transform="translate(-121.416 -453.192)" fill="#ed8dba"/>
      <path id="Path_3502" data-name="Path 3502" d="M185.752,516.868c-2.123,8.219-7.309,26.464-14.318,38.527-9.3,15.964-14.333,17.305-18.263,15.014s-5.262-7.326,4.026-23.306c7.007-12.045,20.3-25.575,26.4-31.48Z" transform="translate(-121.371 -453.157)" fill="url(#radial-gradient-34)"/>
      <path id="Path_3503" data-name="Path 3503" d="M230.38,551.13c-3.938-.012-9.807-2.33-17.969-7.074-12.245-7.118-26.155-20.863-31.561-26.444l-.169-.171,1.5-2.558.225.052c7.518,1.943,26.34,7.225,38.6,14.348,7.469,4.361,12.2,8.03,14.459,11.239,1.877,2.669,2.094,5.035.685,7.452a6.048,6.048,0,0,1-5.763,3.156Z" transform="translate(-118.397 -453.229)" fill="#ed8dba"/>
      <path id="Path_3504" data-name="Path 3504" d="M181.043,517.352c5.9,6.094,19.43,19.4,31.49,26.4,15.963,9.29,21.012,7.962,23.3,4.031s.937-8.964-15.029-18.251c-12.059-7.012-30.287-12.208-38.513-14.319Z" transform="translate(-118.361 -453.196)" fill="url(#radial-gradient-35)"/>
      <path id="Path_3505" data-name="Path 3505" d="M185.961,520.26c-8.3-2.123-26.678-7.3-38.81-14.361-16.077-9.343-17.421-14.463-15.1-18.449,2.337-4,7.427-5.375,23.518,3.984C167.7,498.5,181.3,511.912,187.229,518.08Z" transform="translate(-123.224 -456.202)" fill="#ed8dba"/>
      <path id="Path_3506" data-name="Path 3506" d="M185.876,520.321c-8.225-2.124-26.468-7.311-38.516-14.317-15.978-9.287-17.324-14.337-15.029-18.25,2.281-3.931,7.326-5.26,23.3,4.026,12.049,7.006,25.578,20.295,31.493,26.405Z" transform="translate(-123.195 -456.165)" fill="url(#radial-gradient-36)"/>
      <path id="Path_3507" data-name="Path 3507" d="M186.27,521.314,205.963,555.9c4.727-2.817,4.191-12.719-1.217-22.216S191.092,518.682,186.27,521.314Z" transform="translate(-117.852 -452.666)" opacity="0.5" fill="url(#radial-gradient-37)" style="mix-blend-mode: multiply;isolation: isolate"/>
      <path id="Path_3508" data-name="Path 3508" d="M186.512,520.927,160.966,490.39c-4.143,3.613-1.856,13.267,5.158,21.647S182.235,524.372,186.512,520.927Z" transform="translate(-120.52 -455.616)" opacity="0.5" fill="url(#radial-gradient-38)" style="mix-blend-mode: multiply;isolation: isolate"/>
      <path id="Path_3509" data-name="Path 3509" d="M205.495,518.3a22.977,22.977,0,1,1-22.906-23.053A22.969,22.969,0,0,1,205.495,518.3Z" transform="translate(-120.458 -455.143)" opacity="0.3" fill="url(#radial-gradient-39)" style="mix-blend-mode: multiply;isolation: isolate"/>
      <path id="Path_3510" data-name="Path 3510" d="M225.562,519.989a41.413,41.413,0,1,1-41.276-41.54A41.408,41.408,0,0,1,225.562,519.989Z" transform="translate(-122.096 -456.78)" opacity="0.3" fill="url(#radial-gradient-40)" style="mix-blend-mode: multiply;isolation: isolate"/>
      <path id="Path_3511" data-name="Path 3511" d="M184.423,514.8l-30.284,25.842c3.643,4.118,13.27,1.73,21.593-5.359S187.91,519.053,184.423,514.8Z" transform="translate(-120.984 -453.237)" opacity="0.5" fill="url(#radial-gradient-41)" style="mix-blend-mode: multiply;isolation: isolate"/>
      <path id="Path_3512" data-name="Path 3512" d="M185.873,520.465c-1.986-8.365-6.9-26.926-13.9-39.127-9.269-16.18-14.507-17.472-18.681-15.077-4.184,2.379-5.7,7.561,3.567,23.742,6.988,12.2,20.514,25.828,26.729,31.773Z" transform="translate(-121.388 -458.059)" fill="#ed8dba"/>
      <path id="Path_3513" data-name="Path 3513" d="M182.816,515.607c6.129,5.968,19.459,19.634,26.447,31.8,9.243,16.138,7.822,21.232,3.807,23.541s-9.142.935-18.381-15.185c-6.974-12.179-12.019-30.579-14.072-38.887Z" transform="translate(-118.403 -453.158)" fill="#ed8dba"/>
      <path id="Path_3514" data-name="Path 3514" d="M182.256,520.273c8.334-2.027,26.822-7.011,39.015-14,16.162-9.268,17.5-14.436,15.144-18.538s-7.478-5.561-23.641,3.707c-12.191,6.987-25.848,20.414-31.817,26.585Z" transform="translate(-118.37 -456.186)" fill="#ed8dba"/>
      <path id="Path_3515" data-name="Path 3515" d="M187.144,517.326c-5.956,6.173-19.583,19.63-31.774,26.618-16.149,9.253-21.3,7.766-23.656,3.652s-1.043-9.3,15.106-18.568c12.2-6.97,30.693-11.945,39.043-13.957Z" transform="translate(-123.259 -453.21)" fill="#ed8dba"/>
      <path id="Path_3516" data-name="Path 3516" d="M185.729,520.479c-2.071-8.236-7.142-26.512-14.074-38.6-9.2-16.039-14.223-17.415-18.168-15.158s-5.307,7.307,3.878,23.326c6.931,12.107,20.132,25.718,26.2,31.663Z" transform="translate(-121.343 -458.006)" fill="url(#radial-gradient-42)"/>
      <path id="Path_3517" data-name="Path 3517" d="M182.788,515.629c6.058,5.943,19.261,19.556,26.192,31.646,9.182,16.039,7.823,21.076,3.877,23.332-3.929,2.266-8.97.892-18.157-15.13-6.929-12.108-12-30.384-14.073-38.618Z" transform="translate(-118.402 -453.156)" fill="url(#radial-gradient-43)"/>
      <path id="Path_3518" data-name="Path 3518" d="M182.288,520.3c8.24-2.071,26.5-7.143,38.6-14.071,16.024-9.185,17.4-14.229,15.144-18.154-2.267-3.947-7.306-5.307-23.329,3.876-12.1,6.931-25.717,20.132-31.656,26.2Z" transform="translate(-118.361 -456.138)" fill="url(#radial-gradient-44)"/>
      <path id="Path_3519" data-name="Path 3519" d="M187.138,517.355c-5.954,6.058-19.567,19.276-31.659,26.2-16.039,9.19-21.075,7.828-23.33,3.882s-.892-8.968,15.143-18.152c12.094-6.937,30.369-12.02,38.608-14.077Z" transform="translate(-123.211 -453.197)" fill="url(#radial-gradient-45)"/>
      <path id="Path_3520" data-name="Path 3520" d="M199.941,517.825a17.876,17.876,0,1,1-17.821-17.937A17.876,17.876,0,0,1,199.941,517.825Z" transform="translate(-120.004 -454.69)" opacity="0.3" fill="url(#radial-gradient-46)" style="mix-blend-mode: multiply;isolation: isolate"/>
      <path id="Path_3521" data-name="Path 3521" d="M189.884,516.9a7.685,7.685,0,1,1-7.654-7.719A7.671,7.671,0,0,1,189.884,516.9Z" transform="translate(-118.998 -453.784)" fill="url(#radial-gradient-47)"/>
      <path id="Path_3522" data-name="Path 3522" d="M189.607,516.86a7.431,7.431,0,1,1-7.4-7.445A7.434,7.434,0,0,1,189.607,516.86Z" transform="translate(-118.975 -453.762)" fill="url(#radial-gradient-48)"/>
    </g>
    <g id="Group_1539" data-name="Group 1539" transform="translate(880.123 385.845) rotate(90)">
      <path id="Path_3628" data-name="Path 3628" d="M144.765,592.738l-.034-.137c-1.164-4.257-3.88-15.04-3.854-23.1.035-11.284,2.464-12.79,4.836-12.782s4.785,1.529,4.749,12.813c-.025,8.061-2.807,18.825-4,23.076l-.032.136Z" transform="translate(-110.036 -556.718)" fill="#ed8dba"/>
      <path id="Path_3629" data-name="Path 3629" d="M146.317,592.18c1.314-4.593,3.975-14.921,4-22.758.033-10.391-2.034-12.476-4.581-12.485S141.1,559,141.069,569.393c-.025,7.837,2.578,18.182,3.852,22.783Z" transform="translate(-110.017 -556.697)" fill="url(#radial-gradient-49)"/>
      <path id="Path_3630" data-name="Path 3630" d="M145.52,624.572c-2.39-.007-4.823-1.52-4.788-12.692.025-7.991,2.824-18.648,4.024-22.859l.04-.135,1.675,0,.03.136c1.175,4.218,3.914,14.9,3.888,22.885C150.354,623.082,147.9,624.581,145.52,624.572Z" transform="translate(-110.05 -553.582)" fill="#ed8dba"/>
      <path id="Path_3631" data-name="Path 3631" d="M146.33,589.049c1.285,4.6,3.881,14.953,3.855,22.79-.033,10.392-2.113,12.463-4.661,12.454s-4.62-2.092-4.587-12.484c.025-7.836,2.694-18.172,4-22.765Z" transform="translate(-110.03 -553.567)" fill="url(#radial-gradient-50)"/>
      <path id="Path_3632" data-name="Path 3632" d="M167.992,594.341c-7.969-.025-18.606-2.806-22.807-4l-.128-.033.005-1.665.127-.041c4.21-1.163,14.864-3.888,22.833-3.862,11.147.034,12.636,2.469,12.629,4.843S179.139,594.376,167.992,594.341Z" transform="translate(-109.628 -553.987)" fill="#ed8dba"/>
      <path id="Path_3633" data-name="Path 3633" d="M145.217,590.154c4.593,1.313,14.917,3.975,22.761,4,10.39.034,12.473-2.031,12.481-4.59s-2.061-4.629-12.451-4.662c-7.844-.024-18.184,2.573-22.786,3.854Z" transform="translate(-109.613 -553.971)" fill="url(#radial-gradient-51)"/>
      <path id="Path_3634" data-name="Path 3634" d="M148.587,590.232c-4.682,1.3-15.183,3.962-23.158,3.937-10.557-.033-12.662-2.159-12.654-4.765s2.128-4.718,12.684-4.686c7.974.025,18.46,2.754,23.133,4.084Z" transform="translate(-112.775 -553.989)" fill="#ed8dba"/>
      <path id="Path_3635" data-name="Path 3635" d="M148.348,590.166c-4.6,1.284-14.944,3.88-22.791,3.855-10.39-.033-12.463-2.113-12.454-4.67s2.094-4.616,12.483-4.582c7.839.024,18.175,2.688,22.767,4Z" transform="translate(-112.743 -553.984)" fill="url(#radial-gradient-52)"/>
      <path id="Path_3636" data-name="Path 3636" d="M169.123,591.118a22.541,22.541,0,1,1-22.471-22.6A22.544,22.544,0,0,1,169.123,591.118Z" transform="translate(-111.677 -555.568)" opacity="0.3" fill="url(#radial-gradient-53)" style="mix-blend-mode: multiply;isolation: isolate"/>
      <path id="Path_3637" data-name="Path 3637" d="M143.638,589.152l-3.87,22.046c3.058.481,6.38-4,7.442-10.054S146.672,589.742,143.638,589.152Z" transform="translate(-110.144 -553.556)" opacity="0.5" fill="url(#radial-gradient-54)" style="mix-blend-mode: multiply;isolation: isolate"/>
      <path id="Path_3638" data-name="Path 3638" d="M147.9,590.152l20.47,9.066c1.2-2.848-2.353-7.152-7.969-9.641S149.2,587.351,147.9,590.152Z" transform="translate(-109.351 -553.682)" opacity="0.5" fill="url(#radial-gradient-55)" style="mix-blend-mode: multiply;isolation: isolate"/>
      <path id="Path_3639" data-name="Path 3639" d="M168.876,579.766l-20.554,8.9c1.291,2.818,6.859,3.122,12.5.679S170.047,582.627,168.876,579.766Z" transform="translate(-109.31 -554.471)" opacity="0.5" fill="url(#radial-gradient-56)" style="mix-blend-mode: multiply;isolation: isolate"/>
      <path id="Path_3640" data-name="Path 3640" d="M144.326,591.919l.031-.126c1.38-5.364,4.266-15.383,8.165-22.143,3.629-6.289,6.446-9.211,8.86-9.2a3.443,3.443,0,0,1,1.766.522,3.643,3.643,0,0,1,1.757,3.914c-.209,2.236-1.518,5.412-3.985,9.7-4.053,7.033-11.87,15-15.043,18.1l-.1.093Z" transform="translate(-109.699 -556.355)" fill="#ed8dba"/>
      <path id="Path_3641" data-name="Path 3641" d="M145.879,592.151c3.425-3.322,10.9-10.931,14.844-17.716,5.221-8.98,4.473-11.819,2.262-13.106s-5.042-.528-10.267,8.461c-3.938,6.777-6.855,17.037-8.05,21.663Z" transform="translate(-109.666 -556.316)" fill="url(#radial-gradient-57)"/>
      <path id="Path_3642" data-name="Path 3642" d="M130.813,620.225a3.509,3.509,0,0,1-1.758-.517,3.56,3.56,0,0,1-1.748-3.832c.215-2.2,1.508-5.309,3.966-9.509,4.029-6.887,11.8-14.7,14.955-17.743l.1-.1,1.448.844-.031.125c-1.1,4.23-4.088,14.816-8.118,21.7C136.019,617.363,133.222,620.232,130.813,620.225Z" transform="translate(-111.361 -553.617)" fill="#ed8dba"/>
      <path id="Path_3643" data-name="Path 3643" d="M147.549,589.432c-1.2,4.624-4.114,14.883-8.054,21.666-5.233,8.982-8.063,9.735-10.274,8.448s-2.959-4.122,2.266-13.108c3.941-6.777,11.414-14.385,14.851-17.7Z" transform="translate(-111.336 -553.597)" fill="url(#radial-gradient-58)"/>
      <path id="Path_3644" data-name="Path 3644" d="M172.65,608.7c-2.218-.007-5.52-1.309-10.108-3.978-6.888-4.007-14.713-11.733-17.753-14.878l-.1-.094.842-1.438.126.031c4.229,1.089,14.816,4.062,21.711,8.07,4.2,2.452,6.86,4.516,8.131,6.323a3.567,3.567,0,0,1,.384,4.19,3.4,3.4,0,0,1-3.239,1.775Z" transform="translate(-109.664 -553.638)" fill="#ed8dba"/>
      <path id="Path_3645" data-name="Path 3645" d="M144.9,589.7c3.319,3.427,10.928,10.909,17.711,14.848,8.977,5.227,11.819,4.477,13.108,2.267s.527-5.042-8.455-10.266c-6.782-3.939-17.035-6.865-21.661-8.05Z" transform="translate(-109.644 -553.62)" fill="url(#radial-gradient-59)"/>
      <path id="Path_3646" data-name="Path 3646" d="M147.665,591.338c-4.664-1.191-15.006-4.1-21.83-8.075-9.041-5.256-9.8-8.135-8.493-10.378s4.177-3.024,13.229,2.241c6.824,3.975,14.47,11.52,17.806,14.987Z" transform="translate(-112.378 -555.31)" fill="#ed8dba"/>
      <path id="Path_3647" data-name="Path 3647" d="M147.618,591.375c-4.626-1.2-14.888-4.111-21.665-8.053-8.985-5.224-9.742-8.062-8.451-10.263s4.12-2.963,13.108,2.262c6.775,3.94,14.385,11.411,17.711,14.853Z" transform="translate(-112.362 -555.29)" fill="url(#radial-gradient-60)"/>
      <path id="Path_3648" data-name="Path 3648" d="M147.838,591.934l11.077,19.453c2.66-1.585,2.357-7.156-.686-12.5S150.551,590.451,147.838,591.934Z" transform="translate(-109.357 -553.321)" opacity="0.5" fill="url(#radial-gradient-61)" style="mix-blend-mode: multiply;isolation: isolate"/>
      <path id="Path_3649" data-name="Path 3649" d="M147.974,591.715,133.606,574.54c-2.329,2.033-1.043,7.464,2.9,12.175S145.57,593.653,147.974,591.715Z" transform="translate(-110.857 -554.981)" opacity="0.5" fill="url(#radial-gradient-62)" style="mix-blend-mode: multiply;isolation: isolate"/>
      <path id="Path_3650" data-name="Path 3650" d="M158.652,590.233a12.923,12.923,0,1,1-12.884-12.963A12.922,12.922,0,0,1,158.652,590.233Z" transform="translate(-110.822 -554.715)" opacity="0.3" fill="url(#radial-gradient-63)" style="mix-blend-mode: multiply;isolation: isolate"/>
      <path id="Path_3651" data-name="Path 3651" d="M169.938,591.187a23.292,23.292,0,1,1-23.216-23.363A23.291,23.291,0,0,1,169.938,591.187Z" transform="translate(-111.744 -555.635)" opacity="0.3" fill="url(#radial-gradient-64)" style="mix-blend-mode: multiply;isolation: isolate"/>
      <path id="Path_3652" data-name="Path 3652" d="M146.8,588.272,129.765,602.8c2.05,2.315,7.465.974,12.147-3.017S148.759,590.66,146.8,588.272Z" transform="translate(-111.119 -553.642)" opacity="0.5" fill="url(#radial-gradient-65)" style="mix-blend-mode: multiply;isolation: isolate"/>
      <path id="Path_3653" data-name="Path 3653" d="M147.615,591.456c-1.118-4.706-3.881-15.144-7.818-22.007-5.213-9.1-8.16-9.828-10.505-8.481s-3.21,4.254,2,13.354c3.93,6.863,11.539,14.527,15.033,17.87Z" transform="translate(-111.346 -556.355)" fill="#ed8dba"/>
      <path id="Path_3654" data-name="Path 3654" d="M145.9,588.723c3.447,3.357,10.944,11.042,14.873,17.884,5.2,9.074,4.4,11.941,2.143,13.244-2.265,1.287-5.143.522-10.339-8.544-3.925-6.85-6.759-17.2-7.915-21.873Z" transform="translate(-109.667 -553.598)" fill="#ed8dba"/>
      <path id="Path_3655" data-name="Path 3655" d="M145.582,591.348c4.686-1.141,15.085-3.942,21.942-7.874,9.092-5.214,9.843-8.119,8.519-10.424s-4.206-3.132-13.295,2.084c-6.859,3.929-14.538,11.482-17.9,14.952Z" transform="translate(-109.648 -555.301)" fill="#ed8dba"/>
      <path id="Path_3656" data-name="Path 3656" d="M148.331,589.689c-3.352,3.47-11.014,11.041-17.874,14.974-9.083,5.2-11.98,4.366-13.3,2.05s-.586-5.228,8.494-10.441c6.866-3.921,17.264-6.717,21.959-7.849Z" transform="translate(-112.398 -553.628)" fill="#ed8dba"/>
      <path id="Path_3657" data-name="Path 3657" d="M147.535,591.466c-1.166-4.635-4.02-14.914-7.917-21.715-5.175-9.02-8-9.794-10.22-8.524s-2.985,4.107,2.183,13.118c3.9,6.809,11.324,14.467,14.74,17.81Z" transform="translate(-111.321 -556.325)" fill="url(#radial-gradient-66)"/>
      <path id="Path_3658" data-name="Path 3658" d="M145.881,588.738c3.4,3.341,10.833,11,14.733,17.8,5.165,9.019,4.4,11.853,2.178,13.123s-5.045.5-10.213-8.513c-3.9-6.808-6.747-17.086-7.912-21.718Z" transform="translate(-109.666 -553.597)" fill="url(#radial-gradient-67)"/>
      <path id="Path_3659" data-name="Path 3659" d="M145.6,591.362c4.635-1.167,14.9-4.018,21.711-7.916,9.015-5.166,9.787-8,8.52-10.209-1.275-2.222-4.111-2.988-13.121,2.18-6.809,3.9-14.465,11.32-17.8,14.74Z" transform="translate(-109.643 -555.274)" fill="url(#radial-gradient-68)"/>
      <path id="Path_3660" data-name="Path 3660" d="M148.326,589.707c-3.347,3.406-11,10.839-17.8,14.736-9.02,5.169-11.856,4.4-13.121,2.184s-.5-5.046,8.514-10.211c6.8-3.9,17.082-6.757,21.717-7.914Z" transform="translate(-112.371 -553.62)" fill="url(#radial-gradient-69)"/>
      <path id="Path_3661" data-name="Path 3661" d="M155.528,589.97A10.055,10.055,0,1,1,145.5,579.883,10.053,10.053,0,0,1,155.528,589.97Z" transform="translate(-110.568 -554.46)" opacity="0.3" fill="url(#radial-gradient-70)" style="mix-blend-mode: multiply;isolation: isolate"/>
      <path id="Path_3662" data-name="Path 3662" d="M149.873,589.452a4.324,4.324,0,1,1-4.305-4.339A4.316,4.316,0,0,1,149.873,589.452Z" transform="translate(-110.002 -553.95)" fill="url(#radial-gradient-71)"/>
      <path id="Path_3663" data-name="Path 3663" d="M149.716,589.427a4.18,4.18,0,1,1-4.162-4.188A4.179,4.179,0,0,1,149.716,589.427Z" transform="translate(-109.989 -553.938)" fill="url(#radial-gradient-72)"/>
    </g>
  </g>
</svg>
