<svg xmlns="http://www.w3.org/2000/svg" width="163.677" height="125.621" viewBox="0 0 163.677 125.621">
  <g id="Group_1430" data-name="Group 1430" transform="translate(163.177 125.072) rotate(180)">
    <g id="Group_1416" data-name="Group 1416" transform="translate(64.476 36.892)">
      <path id="Path_2944" data-name="Path 2944" d="M46.743,18.958C51.331,4.65,63.382-1.486,72.584,8.428,84.967,21.788,71.817,32.452,62.4,37.3c14,2.18,28.41,13.425,15.364,28.724-6.445,7.548-18.879,1.18-27.569-6.368,1.1,8.953.547,23.718-9.638,27.061C22.107,92.769,21.474,68.526,27.519,58.2,18.505,62.761.126,59.077,0,46.372-.15,32.219,17.579,30.741,26.424,31.461,19.647,25.5,10.962,11.009,24.55,1.965,34.4-4.6,44.149,6.377,46.743,18.958Z" fill="#ffd800" stroke="#fff" stroke-width="1"/>
      <path id="Path_2945" data-name="Path 2945" d="M10.875.161a9.168,9.168,0,1,0,7.307,10.711A9.175,9.175,0,0,0,10.875.161Z" transform="translate(33.106 33.433)" fill="#fff"/>
    </g>
    <g id="Group_1418" data-name="Group 1418" transform="translate(50.578 87.006)">
      <path id="Path_2948" data-name="Path 2948" d="M15.635,6.342C17.169,1.56,21.2-.5,24.278,2.822c4.14,4.468-.258,8.031-3.4,9.651,4.675.728,9.5,4.494,5.136,9.612-2.154,2.52-6.312.388-9.224-2.133.371,2.994.185,7.936-3.218,9.048-6.17,2.029-6.385-6.084-4.36-9.534C6.191,20.995.043,19.758,0,15.51c-.047-4.731,5.885-5.23,8.837-4.989C6.575,8.531,3.671,3.684,8.212.659,11.508-1.542,14.769,2.133,15.635,6.342Z" fill="#f99b1c" stroke="#fff" stroke-width="1"/>
      <path id="Path_2949" data-name="Path 2949" d="M3.627.054A3.067,3.067,0,1,0,6.074,3.639,3.056,3.056,0,0,0,3.627.054Z" transform="translate(11.078 11.182)" fill="#fff"/>
    </g>
    <g id="Group_1419" data-name="Group 1419" transform="translate(68.339 39.758)">
      <path id="Path_2950" data-name="Path 2950" d="M11.055,4.483C12.141,1.1,14.989-.35,17.169,1.993c2.93,3.158-.185,5.683-2.408,6.829,3.309.517,6.721,3.175,3.632,6.794-1.525,1.784-4.464.28-6.519-1.508.258,2.12.125,5.609-2.283,6.4-4.36,1.43-4.511-4.3-3.081-6.747-2.133,1.077-6.48.211-6.51-2.8-.03-3.343,4.158-3.7,6.251-3.529C4.649,6.03,2.594,2.6,5.808.464,8.134-1.087,10.444,1.506,11.055,4.483Z" fill="#f99b1c" stroke="#fff" stroke-width="1"/>
      <path id="Path_2951" data-name="Path 2951" d="M2.568.037A2.172,2.172,0,1,0,4.3,2.575,2.165,2.165,0,0,0,2.568.037Z" transform="translate(7.833 7.906)" fill="#fff"/>
    </g>
    <g id="Group_1420" data-name="Group 1420" transform="translate(0 57.544)">
      <path id="Path_2952" data-name="Path 2952" d="M31.525,12.789C34.618,3.138,42.748-1,48.952,5.689c8.354,9.009-.513,16.2-6.863,19.47,9.44,1.469,19.159,9.052,10.357,19.37-4.343,5.092-12.731.8-18.591-4.291.741,6.032.366,15.988-6.5,18.242-12.447,4.084-12.874-12.262-8.789-19.228C12.486,42.332.087,39.846,0,31.272-.09,21.733,11.861,20.734,17.82,21.216,13.257,17.2,7.394,7.429,16.558,1.324,23.2-3.1,29.776,4.3,31.525,12.789Z" fill="#ffd800" stroke="#fff" stroke-width="1"/>
      <path id="Path_2953" data-name="Path 2953" d="M7.333.107a6.186,6.186,0,1,0,4.933,7.225A6.2,6.2,0,0,0,7.333.107Z" transform="translate(22.546 22.591)" fill="#fff"/>
    </g>
    <g id="Group_1423" data-name="Group 1423" transform="translate(144.718 10.968)">
      <path id="Path_2958" data-name="Path 2958" d="M10.112,4.1c.991-3.094,3.6-4.42,5.584-2.275,2.68,2.887-.164,5.192-2.2,6.239,3.029.478,6.148,2.908,3.326,6.217-1.4,1.633-4.084.259-5.963-1.379.237,1.939.116,5.131-2.085,5.851-3.994,1.31-4.127-3.934-2.818-6.165C4.007,13.574.026,12.782,0,10.028-.026,6.969,3.8,6.646,5.717,6.806,4.253,5.518,2.37,2.385,5.308.425,7.436-1,9.548,1.382,10.112,4.1Z" fill="#f99b1c" stroke="#fff" stroke-width="1"/>
      <path id="Path_2959" data-name="Path 2959" d="M2.344.035A1.984,1.984,0,1,0,3.929,2.352,1.978,1.978,0,0,0,2.344.035Z" transform="translate(7.165 7.232)" fill="#fff"/>
    </g>
    <g id="Group_1424" data-name="Group 1424" transform="translate(92.275)">
      <path id="Path_2960" data-name="Path 2960" d="M21.284,8.634c2.09-6.519,7.579-9.31,11.771-4.8,5.635,6.083-.349,10.935-4.64,13.141,6.376,1,12.938,6.122,6.993,13.084-2.93,3.438-8.591.534-12.555-2.9.5,4.08.254,10.8-4.386,12.322C10.065,42.239,9.78,31.2,12.533,26.5,8.428,28.577.056,26.9,0,21.111c-.065-6.437,8.005-7.117,12.033-6.79C8.949,11.611,4.994,5.015,11.181.9,15.661-2.1,20.108,2.9,21.284,8.634Z" fill="#ffd800" stroke="#fff" stroke-width="1"/>
      <path id="Path_2961" data-name="Path 2961" d="M4.947.074a4.174,4.174,0,1,0,3.33,4.873A4.166,4.166,0,0,0,4.947.074Z" transform="translate(15.079 15.225)" fill="#fff"/>
    </g>
    <g id="Group_1425" data-name="Group 1425" transform="translate(130.327 68.248)">
      <path id="Path_2962" data-name="Path 2962" d="M12.671,5.136c1.245-3.873,4.5-5.541,7-2.852,3.352,3.619-.207,6.51-2.762,7.824,3.791.586,7.7,3.636,4.162,7.781-1.745,2.051-5.11.323-7.471-1.719.3,2.421.151,6.424-2.611,7.328C6,25.14,5.821,18.566,7.462,15.765,5.019,17.006.039,16.006,0,12.564-.03,8.729,4.77,8.329,7.165,8.527c-1.835-1.616-4.192-5.545-.508-8C9.328-1.244,11.965,1.724,12.671,5.136Z" fill="#f99b1c" stroke="#fff" stroke-width="1"/>
      <path id="Path_2963" data-name="Path 2963" d="M2.947.043a2.484,2.484,0,1,0,1.986,2.9A2.487,2.487,0,0,0,2.947.043Z" transform="translate(8.974 9.061)" fill="#fff"/>
    </g>
  </g>
</svg>
