<svg xmlns="http://www.w3.org/2000/svg" width="975.731" height="597.23" viewBox="0 0 975.731 597.23">
  <path id="Path_587" data-name="Path 587" d="M587.538,476.327c-1.005-45.816-19.994-231.034-5.96-355.638s0-124.6-69-109.028C450.389,18.7,403,24.527,296.28,21.883S158.635-6.363,85.7,1.084C45.012,5.237,29.019,6.421,11.768,81.75S14.356,218.035,19.034,302.4-3.218,424.774.322,545.118C3.44,651.1,26.724,687.893,11.768,813.794S37.92,979.678,79.588,975.117c65.159-7.133,104.176-32.257,216.445-24.577s222.3,28.417,265.208,6.912,41.522-87.554,26.3-192.772S591.684,665.031,587.538,476.327Z" transform="translate(975.462 0) rotate(90)" fill="#fff6db"/>
</svg>
