<svg xmlns="http://www.w3.org/2000/svg" xmlns:xlink="http://www.w3.org/1999/xlink" width="383.266" height="391.991" viewBox="0 0 383.266 391.991">
  <defs>
    <radialGradient id="radial-gradient" cx="0.5" cy="0.5" r="0.6" gradientTransform="translate(0.135) scale(0.729 1)" gradientUnits="objectBoundingBox">
      <stop offset="0.607" stop-color="#f99b1c"/>
      <stop offset="0.694" stop-color="#f7a119"/>
      <stop offset="0.819" stop-color="#f4b410"/>
      <stop offset="0.967" stop-color="#efd303"/>
      <stop offset="1" stop-color="#eedc00"/>
    </radialGradient>
    <radialGradient id="radial-gradient-2" cx="0.5" cy="0.5" r="0.363" gradientTransform="translate(-1.66) scale(4.321 1)" xlink:href="#radial-gradient"/>
    <radialGradient id="radial-gradient-3" cx="0.5" cy="0.5" r="0.357" gradientTransform="translate(-3.331) scale(7.662 1)" xlink:href="#radial-gradient"/>
    <radialGradient id="radial-gradient-4" cx="0.5" cy="0.5" r="0.404" gradientTransform="translate(-0.409) scale(1.817 1)" xlink:href="#radial-gradient"/>
    <radialGradient id="radial-gradient-5" cx="0.5" cy="0.5" r="0.403" gradientTransform="translate(-0.413) scale(1.826 1)" xlink:href="#radial-gradient"/>
    <radialGradient id="radial-gradient-6" cx="0.5" cy="0.5" r="0.402" gradientTransform="translate(-0.421) scale(1.842 1)" xlink:href="#radial-gradient"/>
    <radialGradient id="radial-gradient-7" cx="0.5" cy="0.5" r="0.391" gradientTransform="translate(-0.554) scale(2.108 1)" xlink:href="#radial-gradient"/>
    <radialGradient id="radial-gradient-8" cx="0.5" cy="0.5" r="0.408" gradientTransform="translate(-0.372) scale(1.745 1)" xlink:href="#radial-gradient"/>
    <radialGradient id="radial-gradient-9" cx="0.5" cy="0.5" r="0.363" gradientTransform="translate(-1.685) scale(4.37 1)" xlink:href="#radial-gradient"/>
    <radialGradient id="radial-gradient-10" cx="0.5" cy="0.5" r="0.366" gradientTransform="translate(-1.386) scale(3.771 1)" xlink:href="#radial-gradient"/>
    <radialGradient id="radial-gradient-11" cx="0.5" cy="0.5" r="0.389" gradientTransform="translate(-0.587) scale(2.174 1)" xlink:href="#radial-gradient"/>
    <radialGradient id="radial-gradient-12" cx="0.5" cy="0.5" r="0.849" gradientTransform="translate(0.271) scale(0.458 1)" xlink:href="#radial-gradient"/>
    <radialGradient id="radial-gradient-13" cx="0.5" cy="0.5" r="0.354" gradientTransform="translate(-8.718) scale(18.436 1)" xlink:href="#radial-gradient"/>
    <radialGradient id="radial-gradient-14" cx="0.5" cy="0.5" r="0.36" gradientTransform="translate(-2.038) scale(5.076 1)" xlink:href="#radial-gradient"/>
    <radialGradient id="radial-gradient-15" cx="0.5" cy="0.5" r="0.36" gradientTransform="translate(-2.055) scale(5.111 1)" xlink:href="#radial-gradient"/>
    <radialGradient id="radial-gradient-18" cx="0.5" cy="0.5" r="0.457" gradientTransform="translate(-0.11) scale(1.219 1)" xlink:href="#radial-gradient"/>
    <radialGradient id="radial-gradient-19" cx="0.5" cy="0.5" r="0.387" gradientTransform="translate(-0.62) scale(2.24 1)" xlink:href="#radial-gradient"/>
    <radialGradient id="radial-gradient-20" cx="0.5" cy="0.5" r="0.419" gradientTransform="translate(-0.287) scale(1.573 1)" xlink:href="#radial-gradient"/>
    <linearGradient id="linear-gradient" y1="0.5" x2="1" y2="0.5" gradientUnits="objectBoundingBox">
      <stop offset="0" stop-color="#eedc00"/>
      <stop offset="0.006" stop-color="#eed801"/>
      <stop offset="0.056" stop-color="#f2c20b"/>
      <stop offset="0.115" stop-color="#f5b012"/>
      <stop offset="0.185" stop-color="#f7a418"/>
      <stop offset="0.281" stop-color="#f89d1b"/>
      <stop offset="0.506" stop-color="#f99b1c"/>
      <stop offset="0.636" stop-color="#f99c1e"/>
      <stop offset="0.706" stop-color="#f99f26"/>
      <stop offset="0.762" stop-color="#f9a533"/>
      <stop offset="0.81" stop-color="#faae47"/>
      <stop offset="0.854" stop-color="#fab960"/>
      <stop offset="0.894" stop-color="#fbc67f"/>
      <stop offset="0.931" stop-color="#fcd6a4"/>
      <stop offset="0.966" stop-color="#fde9cd"/>
      <stop offset="0.998" stop-color="#fefdfc"/>
      <stop offset="1" stop-color="#fff"/>
    </linearGradient>
    <linearGradient id="linear-gradient-2" x1="0" y1="0.5" x2="1" y2="0.5" gradientTransform="matrix(1, 0, 0, 1, 0, 0)" xlink:href="#radial-gradient"/>
    <linearGradient id="linear-gradient-14" x1="0" y1="0.5" x2="1" y2="0.5" gradientTransform="matrix(1, 0, 0, 1, 0, 0)" xlink:href="#radial-gradient"/>
    <linearGradient id="linear-gradient-15" x1="0" y1="0.5" x2="1" y2="0.5" gradientTransform="matrix(1, 0, 0, 1, 0, 0)" xlink:href="#radial-gradient"/>
  </defs>
  <g id="Group_1429" data-name="Group 1429" transform="translate(383.266 391.991) rotate(180)">
    <g id="Group_1398" data-name="Group 1398" transform="translate(0)">
      <path id="Path_2869" data-name="Path 2869" d="M33.664,24.241A47.59,47.59,0,0,0,22.121,6.751C14.032-1.068,6.892.1,5.162.51A7.162,7.162,0,0,0,1.373,2.976c-1.456,1.951-2.2,4.478.583,7.137,4.4,4.2,9.18-2,5.268-5.31C4.263,2.3,1.6,5.378,4.516,7.808l-.109-.032c-3.08-2.559-.006-5.7,3.113-3.061,4.118,3.484-1,9.831-5.639,5.411C-1.073,7.307-.076,4.31,1.661,2.416A7.479,7.479,0,0,1,5,.35c1.826-.432,9.081-1.765,17.6,6.473,9,8.7,11.36,17.94,11.36,17.94Z" transform="translate(58.309 111.476)" fill="url(#radial-gradient)"/>
      <path id="Path_2870" data-name="Path 2870" d="M38.468,169.373s-.154-11.844-6.3-30.484c-5.416-16.449-16.6-42.933-19.459-49.844a180.374,180.374,0,0,1-10.789-41.6A240.6,240.6,0,0,1,.047,13.555,80.17,80.17,0,0,1,1.361,0a89.49,89.49,0,0,0-1.1,9.732A195.3,195.3,0,0,0,.6,32.462c.371,6.214,1.289,13.4,1.289,13.4A178.459,178.459,0,0,0,13.913,91.1c2.926,6.814,12.66,30.033,17.955,44.816A142.474,142.474,0,0,1,39.2,167.637Z" transform="translate(60.545)" opacity="0.8" fill="url(#radial-gradient-2)"/>
      <path id="Path_2871" data-name="Path 2871" d="M5.19,207.219S3.68,191.96,8.862,172.5c3.96-14.869,10.524-39.3,12.792-46.88a178.048,178.048,0,0,0,5.538-46.986c-.514-20.664-5.131-40.776-7.5-47.978C12.885,10,0,0,0,0,4,3.931,11.261,11.611,17.285,27.377c7.09,18.566,8.07,46.722,8.07,46.722,1.043,18.966-3.836,40.658-6.107,48.241s-10.163,33-13.98,49.073c-4.322,18.2-2.911,37.271-2.911,37.271Z" transform="translate(74.736 109.81)" fill="url(#radial-gradient-3)"/>
      <path id="Path_2872" data-name="Path 2872" d="M4.288,47.507a56.431,56.431,0,0,1-3.44-27C2.567,6.154,11.589,1.819,13.9.9A11.405,11.405,0,0,1,20.4.5c3.436.88,6.612,2.913,5.991,7.813-.982,7.745-12.068,5.057-10.8-1.388.963-4.885,6.8-3.777,5.809,1l.1-.122c1.038-5.028-5.3-5.883-6.313-.739-1.335,6.793,10.267,9.363,11.3,1.2.659-5.2-3.233-7.522-6.926-8.124a11.845,11.845,0,0,0-5.635.461C11.5,1.576,2.188,5.833.377,20.949c-1.91,15.967,4.068,27.324,4.068,27.324Z" transform="translate(82.124 76.65)" fill="url(#radial-gradient-4)"/>
      <path id="Path_2873" data-name="Path 2873" d="M85.871,172.928S101.145,127.737,91.4,71.983C82.178,19.221,50.214,5.342,42.081,2.5a36.377,36.377,0,0,0-22.419.12C8.079,6.726-2.352,15.038.917,33.05,6.088,61.518,43.5,48.85,37.651,25.258,33.219,7.4,13.457,12.925,17.949,30.389l-.356-.428c-4.733-18.391,16.816-23.1,21.485-4.287C45.242,50.531,6.029,62.889.576,32.9-2.893,13.782,9.932,4.232,22.459,1.1c8.1-2.028,16.076-.834,19.438.337,8.567,3,41.507,16.5,51.22,72.079C103.388,132.245,85.509,175.8,85.509,175.8Z" transform="translate(0 93.744)" fill="url(#radial-gradient-5)"/>
      <path id="Path_2874" data-name="Path 2874" d="M1.98,29.136A37.284,37.284,0,0,1,.716,12.245C2.108,3.377,7.486.952,8.857.453A6.238,6.238,0,0,1,12.664.4c1.98.651,3.777,2.012,3.278,5.039-.784,4.786-7.172,2.778-6.258-1.192.7-3.006,4.067-2.142,3.362.8l.059-.072c.744-3.1-2.928-3.821-3.661-.653C8.478,8.508,15.172,10.456,16,5.418,16.529,2.2,14.321.642,12.183.154a6.489,6.489,0,0,0-3.3.122C7.444.8,1.9,3.166.427,12.5A33.319,33.319,0,0,0,2.051,29.616Z" transform="translate(77.315 209.481)" fill="url(#radial-gradient-6)"/>
      <path id="Path_2875" data-name="Path 2875" d="M21.165,54.776s5.824-11.971,4.565-28.923C24.541,9.819,15.5,3.348,13.181,1.9A11.784,11.784,0,0,0,6.555.232C3.014.544-.308,2.164.134,7.647c.7,8.67,12.122,7.834,11.076.535-.79-5.529-6.789-5.428-5.967-.013l-.093-.147c-.862-5.706,5.639-5.435,6.471.39C12.72,16.1.777,16.711.037,7.578-.432,1.76,3.633-.041,7.427,0a12.263,12.263,0,0,1,5.73,1.58C15.6,3.1,24.939,9.537,26.195,26.43c1.325,17.856-5.222,29.153-5.222,29.153Z" transform="translate(53.945 217.91)" fill="url(#radial-gradient-7)"/>
      <path id="Path_2876" data-name="Path 2876" d="M27.669,48.772s-1.828-8.478-9.007-20.613C12.326,17.444-.788-.952.037.038,3.445,4.114,12,16.546,18.011,26.084a97.02,97.02,0,0,1,9.94,21.294Z" transform="translate(46.625 176.429)" fill="url(#radial-gradient-8)"/>
      <path id="Path_2877" data-name="Path 2877" d="M30.029,131.636a69.38,69.38,0,0,1-2.075-22.88c.666-10.233,1.795-27.057,2.294-32.321a115.829,115.829,0,0,0-2.435-31.07A118.225,118.225,0,0,0,16.761,16.034C9.675,4.055,0,0,0,0,3.113,1.788,8.826,5.38,14.772,14.374,21.778,24.963,26.033,42.8,26.033,42.8c3.117,11.943,2.732,26.711,2.231,31.975s-2.372,22.962-2.791,33.941a89.551,89.551,0,0,0,2.9,24.376Z" transform="translate(50.829 191.509)" fill="url(#radial-gradient-9)"/>
      <path id="Path_2878" data-name="Path 2878" d="M0,222.505A127.725,127.725,0,0,0,6.509,181.6c-.171-17.294-1.081-45.57-1.424-54.476-.194-5.015-.845-28.557,5.489-51.974,5.951-21.993,15.969-42,20.3-48.928a72.928,72.928,0,0,1,12.877-15.3A65.673,65.673,0,0,1,59.155,0C55.74,1.729,43.67,8.461,33.345,23.337c-12.158,17.511-20.55,47.39-20.55,47.39-6.048,19.992-5.86,45.1-5.519,54s1.793,38.847,1.5,57.387c-.331,20.988-6.787,40.97-6.787,40.97Z" transform="translate(76.643 71.962)" fill="url(#radial-gradient-10)"/>
      <path id="Path_2879" data-name="Path 2879" d="M10.117,55.578A57.92,57.92,0,0,1,.541,27.647C-.681,11.727,8.232,4.32,10.555,2.627A13.615,13.615,0,0,1,17.574.219c3.941-.1,7.848,1.11,8.223,6.557.6,8.613-12.082,9.11-12.087,1.8,0-5.529,6.6-6.123,6.557-.7l.078-.158c.048-5.715-7.056-4.7-7.05,1.131.006,7.7,13.228,6.915,12.6-2.155C25.492.912,20.742-.387,16.579.091a14.156,14.156,0,0,0-6.05,2.218C8.084,4.089-1.163,11.495.122,28.266,1.476,45.987,10.456,56.353,10.456,56.353Z" transform="translate(40.465 126.179)" fill="url(#radial-gradient-11)"/>
      <path id="Path_2880" data-name="Path 2880" d="M13.748,6.209A14.532,14.532,0,0,0,8.366,1.129,6.793,6.793,0,0,0,1.621.819,3.418,3.418,0,0,0,.344,2.171,1.715,1.715,0,0,0,.987,4.729c1.9,1.03,3.33-1.814,1.664-2.57-1.262-.577-2.081.87-.838,1.42l-.044,0c-1.31-.583-.341-2.1.988-1.493,1.757.8.206,3.737-1.8,2.652C-.319,4.05-.123,2.833.418,1.931A3.515,3.515,0,0,1,1.549.781c.659-.373,3.309-1.717,7,.316a12.933,12.933,0,0,1,5.338,5.268Z" transform="translate(34.113 172.008)" fill="url(#radial-gradient-12)"/>
      <path id="Path_2881" data-name="Path 2881" d="M1.877,39.8a44.015,44.015,0,0,1-.39-7.158c.061-3.9.489-10.21.592-11.859a67.387,67.387,0,0,0-.238-9.8C1.6,8.529,1.146,5.338.722,3.115.352,1.159,0,0,0,0,.209.767.379,1.464.541,2.231c.379,1.82.653,3.684.872,5.266.2,1.443.369,3.122.369,3.122A66.152,66.152,0,0,1,2,21.283c-.114,1.626-.48,7.16-.59,10.671a54.852,54.852,0,0,0,.3,7.459Z" transform="translate(66.189 158.712)" opacity="0.8" fill="url(#radial-gradient-13)"/>
      <path id="Path_2882" data-name="Path 2882" d="M8.086,42.756A39.009,39.009,0,0,0,6.4,35.662c-1.007-3-2.669-7.937-3.212-9.468A64.187,64.187,0,0,1,.834,16.6,67.773,67.773,0,0,1,0,6.608,15.91,15.91,0,0,1,1.247,0,17.6,17.6,0,0,0,.17,5.9a62.475,62.475,0,0,0,.72,9.744,59.047,59.047,0,0,0,2.465,9.845c.546,1.529,2.4,6.646,3.433,9.9a50.721,50.721,0,0,1,1.685,7.634Z" transform="translate(67.568 185.883)" fill="url(#radial-gradient-14)"/>
      <path id="Path_2883" data-name="Path 2883" d="M1.472,98.951a52.306,52.306,0,0,1,3.672-16.58c2.747-7.1,7.288-18.76,8.811-22.381A87.758,87.758,0,0,0,19.2,37.553a86.622,86.622,0,0,0-1.121-22.909C15.84,4.779,10.031,0,10.031,0c1.761,1.879,4.925,5.546,7.042,13.077,2.5,8.868,1.468,22.311,1.468,22.311-.5,9.058-4.07,19.415-5.595,23.034S6.174,74.178,3.433,81.853A67.2,67.2,0,0,0,0,99.648Z" transform="translate(78.916 178.272)" fill="url(#radial-gradient-15)"/>
      <path id="Path_2884" data-name="Path 2884" d="M1.877,39.8a44.015,44.015,0,0,1-.39-7.158c.061-3.9.489-10.21.592-11.859a67.387,67.387,0,0,0-.238-9.8C1.6,8.529,1.146,5.338.722,3.115.352,1.159,0,0,0,0,.209.767.379,1.464.541,2.231c.379,1.82.653,3.684.872,5.266.2,1.443.369,3.122.369,3.122A66.152,66.152,0,0,1,2,21.283c-.114,1.626-.48,7.16-.59,10.671a54.852,54.852,0,0,0,.3,7.459Z" transform="translate(66.189 158.712)" opacity="0.8" fill="url(#radial-gradient-13)"/>
      <path id="Path_2885" data-name="Path 2885" d="M8.086,42.756A39.009,39.009,0,0,0,6.4,35.662c-1.007-3-2.669-7.937-3.212-9.468A64.187,64.187,0,0,1,.834,16.6,67.773,67.773,0,0,1,0,6.608,15.91,15.91,0,0,1,1.247,0,17.6,17.6,0,0,0,.17,5.9a62.475,62.475,0,0,0,.72,9.744,59.047,59.047,0,0,0,2.465,9.845c.546,1.529,2.4,6.646,3.433,9.9a50.721,50.721,0,0,1,1.685,7.634Z" transform="translate(67.568 185.883)" fill="url(#radial-gradient-14)"/>
      <path id="Path_2886" data-name="Path 2886" d="M61.7,74.538s1.67-22.347-10.351-47.024C39.968,4.167,22.422,1.012,18.049.529A19.339,19.339,0,0,0,7.018,2.855C1.842,5.917-2.219,10.8,1.724,18.758,7.959,31.34,24.751,21.72,18.813,11.453,14.316,3.68,5.3,8.226,9.771,15.809l-.232-.16C4.825,7.662,14.832,3.312,19.57,11.5,25.828,22.316,8.106,31.978,1.537,18.727c-4.185-8.451.9-14.145,6.663-16.858A20.128,20.128,0,0,1,17.819.057c4.609.512,22.587,3.389,34.57,27.988,12.67,25.993,9.5,47.854,9.5,47.854Z" transform="translate(16.493 215.853)" fill="url(#radial-gradient-18)"/>
      <path id="Path_2887" data-name="Path 2887" d="M3.162,20.4a23.081,23.081,0,0,1-3-10.581C-.067,3.9,3.124,1.371,3.952.8A4.425,4.425,0,0,1,6.421.078C7.794.135,9.14.678,9.2,2.7c.105,3.2-4.312,3.084-4.225.377.065-2.047,2.37-2.111,2.29-.1L7.3,2.924C7.381.809,4.9,1.015,4.83,3.174c-.091,2.852,4.518,2.877,4.407-.5C9.169.527,7.531-.07,6.079.006A4.6,4.6,0,0,0,3.948.682C3.076,1.281-.232,3.8.013,10.045A20.524,20.524,0,0,0,3.271,20.7Z" transform="translate(61.141 239.099)" fill="url(#radial-gradient-19)"/>
      <path id="Path_2888" data-name="Path 2888" d="M20.074,32.8a40.591,40.591,0,0,0-.748-19.335C16.491,3.426,9.775.93,8.078.426A7.738,7.738,0,0,0,3.551.566C1.287,1.406-.668,3.047.324,6.476,1.9,11.9,9.221,9.286,7.6,4.8,6.378,1.408,2.487,2.562,3.717,5.884L3.639,5.8c-1.3-3.49,2.97-4.5,4.259-.925C9.6,9.6,1.908,12.159.254,6.449-.8,2.813,1.613.919,4.088.258A8.122,8.122,0,0,1,8.023.224C9.807.755,16.714,3.173,19.7,13.754c3.157,11.181.35,19.6.35,19.6Z" transform="translate(45.887 249.258)" fill="url(#radial-gradient-20)"/>
      <path id="Path_2889" data-name="Path 2889" d="M30.029,131.636a69.38,69.38,0,0,1-2.075-22.88c.666-10.233,1.795-27.057,2.294-32.321a115.829,115.829,0,0,0-2.435-31.07A118.225,118.225,0,0,0,16.761,16.034C9.675,4.055,0,0,0,0,3.113,1.788,8.826,5.38,14.772,14.374,21.778,24.963,26.033,42.8,26.033,42.8c3.117,11.943,2.732,26.711,2.231,31.975s-2.372,22.962-2.791,33.941a89.551,89.551,0,0,0,2.9,24.376Z" transform="translate(50.829 191.509)" fill="url(#radial-gradient-9)"/>
    </g>
    <g id="Group_1399" data-name="Group 1399" transform="translate(41.331 262.742)">
      <path id="Path_2890" data-name="Path 2890" d="M35.057,74.053a20.117,20.117,0,0,0-3.309-.147c-2.473.1-3.928-.986-5.281-1.35a22.39,22.39,0,0,0-5.1-.714c-1.466.057-6.279,1.226-7.84.872-.512-.112-2.688-.335-.506-.619.329-.044.158-.663-.112-.653-.731.03-2.448-1.677-1.2-2.519.388-.263.137-1.2-.594-1.171s-1.14-3.256-.436-4.017-.946-.7-1.8-1.489c0,0-.6-1.167-.067-1.742s-1.43-1.317-1.43-1.317l.573-.619-.586-2.041.571-.619s-1.154-1.39-1.584-1.786.685-.1.114-.632a6.161,6.161,0,0,1-1.394-3.935s1.135-.276-.053-1.375-1.085-1.927-1.085-1.927.638-.025-.43-1.542a4.721,4.721,0,0,1-.9-2.993s.912-.173.508-.546-1.668-3.3-2-3.613c0,0,.832.15-.042-1.1A7.507,7.507,0,0,1,0,32.6s1.392.36,1.026-.725S-.236,26.6.253,25.115c0,0,1.167.459,1.649-.065s-.316-1.043-.388-2.873c0,0,.554.072.268-1.384a17.874,17.874,0,0,1-.348-2.97s2.033.973,1.955-.078a7.53,7.53,0,0,1,.19-2.957c.4-1.437.067-1.348.067-1.348s1.824.51,2.031.287S5.3,12.7,5.283,12.365s.274-1.63.548-1.641,1.243.472,1.224-.048a4.689,4.689,0,0,1,.021-3.3S7.45,6.4,7.244,6.2s1.291.194,1.272-.248-.731-2.248-1-2.239A1.836,1.836,0,0,0,7.87,1.961c-.345-1,.082-1.013.082-1.013A2.442,2.442,0,0,1,8.009,0,14.237,14.237,0,0,1,9.841.75c.19.179.234.129.5-.158s-.149.419,1.121.508A2.351,2.351,0,0,1,13.27,2.45c.192.177.794-.061.765-.763s-.135.432.963.388a7.433,7.433,0,0,1,3.48,1.392c.381.352.535.379.689-.394s.28-.624.27-.9.232.449.872.423A4.993,4.993,0,0,1,23.9,4.324c1,1.336,1.051-.71,1.041-.99A7.873,7.873,0,0,1,27.2,5.171c.3.6.851-.124.832-.645s.248-.653.482-.9a34.732,34.732,0,0,1,4.04,2.435c.76.706,1.493,1.824,2.146,2.424S35.367,8.4,35.35,8s.712-.579.706-.794a8.721,8.721,0,0,0,1.862,1.55,3.648,3.648,0,0,1,1.6,1.86c.011.272.8.244.794,0a6.352,6.352,0,0,1,1.354,1.75c.179.636-.1,1.409.209,1.4s.617-.636,1.243-1.026.352-.381.352-.381,2.387,2.351,2.587,3.535a1.852,1.852,0,0,1,.487-.08c.213-.008-.1.908.263,1.247s-.246-.023,0,.821,0,1.116.482.592a11.639,11.639,0,0,1,1.1-.9c.2-.221.042.335.786,1.346a7.548,7.548,0,0,1,1.483,3.457c.038.975-.331,1.727-.055,1.715s.493-.249.817-.6.533-.211.672-.362,1.258,2.38,1.1,3.886.779-.046,1.057-.348a31.586,31.586,0,0,1,.6,3.554c.04,1.036.615.1.615.1s.371.076-.072,2.052.56.253.56.253a1.01,1.01,0,0,1,.994-.406,4.432,4.432,0,0,0,.209,1.46,4.8,4.8,0,0,1,.171,2.745c-.124.533.356.535.476.411s-.034.733-.021,1.041-.7,1.557-.131,1.289a1.927,1.927,0,0,0,.861-.586s.845,4.2-.305,6.189c-.48.828.356.154.356.154a.959.959,0,0,0,.556-.251,22.437,22.437,0,0,1-.295,3.345l.324-.257s-.48,1.79-.67,2.351.565.375.83.088-.095,3.092-.741,4.461.289.356.392.244a7.164,7.164,0,0,1-1.875,3.269,4.253,4.253,0,0,1,.126.821c.015.425-1.036,1.66-.752,1.925s.6.373.712.246-1.731,2.163-2.3,2.781-.27.9-.855,1.533-.461.693.025.67-2.78,3.168-3.556,3.625.025.613.025.613a31.75,31.75,0,0,1-4.314,2.25c-.581.023-.139.4-.139.4s-3.615,1.336-4.093.9.318.293.135.3-3.834-.276-4.1-.969-1.407-.832-1.407-.832A5.4,5.4,0,0,1,35.057,74.053Z" stroke="#f9a01b" stroke-width="1" fill="url(#linear-gradient)"/>
      <path id="Path_2891" data-name="Path 2891" d="M28.083,72.362a12.5,12.5,0,0,0,.346-2.22,14.206,14.206,0,0,0-.228-4.023,1.881,1.881,0,0,1-.12-.758,18.511,18.511,0,0,0-.533-3.436,25.59,25.59,0,0,0-.562-2.608,15.57,15.57,0,0,1-.554-1.689c-.063-.164-.168-1.022-.4-2.037-.4-1.788-1.161-4.078-1.161-4.078s-1.441-3.964-1.78-4.982-1.123-2.294-1.135-2.66a38.572,38.572,0,0,0-1.542-3.608c-.253-.586-1.072-2.732-1.523-3.745S16.719,31.4,15.882,29.41c-.552-1.31-1.748-4.087-2.8-6.269-.539-1.125-1.1-2.087-1.382-2.625-.819-1.571-2.728-5.188-3.075-5.816s-2.5-4.554-2.842-5.207S1.047.967,0,0C0,0,1.045.944,4.514,6.882c1.889,3.236,4.238,7.469,4.607,8.1s3.787,6.983,4.139,7.794c0,0,3.174,7.166,3.72,8.316s2.856,6.629,3.4,7.617,2.033,5.03,2.382,5.727,2.393,5.982,2.637,6.96,1.011,2.941,1.325,4.512,1.344,3.891,1.388,4.967a6.276,6.276,0,0,0,.735,2.928c.345.32.209,2.4.24,3.181s.221,2.717.263,3.773.385,1.493.32,1.86c-.095.525-1.506.792-1.633.474A1.116,1.116,0,0,1,28.083,72.362Z" transform="translate(8.04 0.059)" fill="#fff"/>
      <path id="Path_2892" data-name="Path 2892" d="M0,23.238s0,.032.47-.154a5.853,5.853,0,0,0,1.475-.794s.3-.2.263-.179a7.637,7.637,0,0,0,1.2-.8c.158-.139.779-.527.883-.67a6.209,6.209,0,0,1,.537-.51c.053-.053.354-.244.7-.508.6-.466,1.329-1.156,1.329-1.156s1.239-1.241,1.563-1.55.664-.826.8-.9A15.968,15.968,0,0,0,10.3,14.8c.175-.2.838-.885,1.14-1.234s1.544-1.723,2.14-2.387c.4-.438,1.23-1.38,1.868-2.161.326-.4.59-.786.741-.984.447-.588,1.47-1.944,1.645-2.184S19.109,4.1,19.293,3.855A39.1,39.1,0,0,0,21.844,0a16.2,16.2,0,0,1-1.793,2.915c-.885,1.285-2.06,2.917-2.233,3.166s-1.959,2.658-2.2,2.936c0,0-2.136,2.458-2.473,2.869s-1.991,2.243-2.264,2.623-1.536,1.656-1.736,1.908-1.83,1.957-2.155,2.22-.927.9-1.462,1.3S4.3,21.129,3.9,21.332a2.622,2.622,0,0,0-.973.792c-.059.19-.866.5-1.152.651S.79,23.337.4,23.541s-.307.28-.352.324c0,0-.032-.339-.038-.482C.006,23.274,0,23.238,0,23.238Z" transform="translate(37.206 44.991)" fill="#fff"/>
      <path id="Path_2893" data-name="Path 2893" d="M0,36.881s.076,0,.55-.371a5.615,5.615,0,0,0,1.378-1.451l.225-.31a7.2,7.2,0,0,0,1.026-1.394,10.226,10.226,0,0,0,.714-1.131,5.994,5.994,0,0,1,.379-.822c.032-.082.3-.419.575-.866a20.728,20.728,0,0,0,.988-1.9s.828-1.986,1.055-2.479.354-1.285.482-1.413a16.768,16.768,0,0,0,.651-1.913c.107-.314.537-1.407.714-1.953s.933-2.711,1.3-3.758c.242-.691.741-2.17,1.087-3.385.177-.619.284-1.2.36-1.506.221-.906.716-2.987.8-3.358s.588-2.667.676-3.046A45.642,45.642,0,0,0,13.919,0a19.151,19.151,0,0,1-.562,4.373c-.366,1.948-.9,4.442-.967,4.819s-.916,4.074-1.062,4.506c0,0-1.249,3.853-1.43,4.487s-1.192,3.528-1.319,4.107S7.617,24.91,7.514,25.3s-1.154,3.1-1.405,3.539-.642,1.447-1.081,2.119-.84,1.919-1.217,2.3a2.6,2.6,0,0,0-.756,1.319c.036.263-.788.9-1.059,1.175s-.9,1.013-1.268,1.384-.346,1.087-.4,1.1c0,0-.164-.767-.213-.933S0,36.881,0,36.881Z" transform="translate(34.459 17.862)" fill="#fff"/>
      <path id="Path_2894" data-name="Path 2894" d="M0,27.074a7.682,7.682,0,0,0,.737-.512,4,4,0,0,0,.969-1.06s.177-.253.156-.225a5.123,5.123,0,0,0,.716-1.015,7.056,7.056,0,0,0,.491-.824,4.869,4.869,0,0,1,.257-.6c.021-.059.209-.306.4-.628a15.137,15.137,0,0,0,.676-1.38s.556-1.447.71-1.807S5.34,18.092,5.43,18A12.308,12.308,0,0,0,5.862,16.6c.069-.225.358-1.022.474-1.42s.615-1.972.857-2.734c.16-.5.489-1.576.712-2.46.114-.451.179-.876.225-1.1.141-.653.457-2.172.505-2.441S9,4.514,9.058,4.24A32.822,32.822,0,0,0,9.628,0a13.867,13.867,0,0,1-.31,3.179C9.1,4.6,8.767,6.41,8.725,6.686s-.573,2.96-.67,3.273c0,0-.819,2.8-.937,3.265s-.786,2.568-.864,2.989-.64,1.9-.708,2.189-.769,2.256-.942,2.574-.432,1.053-.735,1.542S3.3,23.912,3.035,24.19a1.819,1.819,0,0,0-.52.961c.032.192-.552.655-.744.855s-.632.737-.893,1.009-.415.689-.552.809c0,0-.187-.432-.236-.548Z" transform="translate(26.444 7.303)" fill="#fff"/>
      <path id="Path_2895" data-name="Path 2895" d="M0,19.211a5.244,5.244,0,0,0,.531-.5,2.849,2.849,0,0,0,.537-.824s.093-.19.08-.169a3.865,3.865,0,0,0,.377-.765,5.522,5.522,0,0,0,.247-.609,3.982,3.982,0,0,1,.112-.428c.011-.042.112-.23.206-.468.164-.419.316-1,.316-1s.234-1.026.3-1.285.065-.647.116-.72a8.459,8.459,0,0,0,.156-.975c.025-.16.141-.722.179-1s.227-1.382.318-1.915c.057-.356.175-1.108.242-1.721.036-.314.038-.6.048-.754.034-.453.1-1.5.11-1.679s.063-1.329.076-1.519A21.874,21.874,0,0,0,3.943,0a9.368,9.368,0,0,1,.084,2.14c-.017.967-.07,2.205-.072,2.393s-.109,2.033-.143,2.254c0,0-.284,1.959-.318,2.279s-.284,1.8-.3,2.087-.246,1.34-.265,1.54-.3,1.588-.381,1.822-.187.754-.343,1.114-.244,1-.392,1.215a1.271,1.271,0,0,0-.251.7c.036.124-.3.506-.411.664s-.345.571-.491.784-.267.672-.394.79c0,0-.1-.223-.15-.331C.093,19.394,0,19.211,0,19.211Z" transform="translate(21.108 3.229)" fill="#fff"/>
      <path id="Path_2896" data-name="Path 2896" d="M28.809,9.454s-.067.011-.268.057a4.278,4.278,0,0,1-1.6.065l-.305-.021a6.712,6.712,0,0,1-1.373-.091,9.1,9.1,0,0,1-1.049-.139,4.917,4.917,0,0,0-.685-.171c-.067-.023-.409-.036-.819-.091-.718-.1-1.645-.339-1.645-.339s-1.607-.465-2.02-.571-.937-.4-1.085-.385a14.135,14.135,0,0,1-1.47-.524c-.238-.084-1.11-.354-1.523-.51s-2.087-.737-2.9-1.02c-.533-.185-1.666-.594-2.557-.963-.461-.19-.857-.4-1.074-.495-.649-.291-2.13-.975-2.389-1.1s-1.871-.9-2.138-1.024A35.8,35.8,0,0,1,0,0,14.436,14.436,0,0,0,2.848,1.685c1.331.691,3.069,1.54,3.328,1.677s2.865,1.361,3.2,1.483c0,0,2.922,1.087,3.393,1.279s2.7.973,3.107,1.167,2.047.682,2.334.807,2.431.8,2.825.862,1.192.32,1.824.392,1.578.426,2,.4a2.277,2.277,0,0,1,1.182.2c.135.137.954-.006,1.264-.025s1.22-.03,1.639-.046l-.034-.133a.522.522,0,0,0-.057-.162C28.826,9.51,28.809,9.454,28.809,9.454Z" transform="translate(7.366 56.526)" fill="#fff"/>
      <path id="Path_2897" data-name="Path 2897" d="M30.292,9.635a3.809,3.809,0,0,1-.773.2,5.372,5.372,0,0,1-1.654.072s-.356-.027-.314-.023a7.038,7.038,0,0,1-1.422-.095,10.173,10.173,0,0,1-1.085-.141,5.629,5.629,0,0,0-.708-.179c-.067-.021-.423-.032-.847-.093-.742-.1-1.7-.35-1.7-.35s-1.664-.482-2.09-.592-.971-.409-1.123-.4A14.712,14.712,0,0,1,17.058,7.5c-.251-.091-1.15-.369-1.578-.529s-2.157-.763-2.993-1.055c-.554-.194-1.723-.615-2.648-.992-.474-.2-.885-.413-1.112-.516C8.061,4.1,6.528,3.4,6.26,3.269S4.327,2.334,4.049,2.205A36.313,36.313,0,0,1,0,0,15.254,15.254,0,0,0,2.945,1.744c1.378.714,3.176,1.595,3.442,1.734S9.352,4.887,9.694,5.011c0,0,3.025,1.127,3.509,1.327s2.8,1,3.212,1.209,2.119.7,2.416.83,2.515.821,2.922.891,1.234.331,1.885.4,1.632.442,2.073.417a2.32,2.32,0,0,1,1.222.206c.139.143.99-.006,1.31-.027s1.121-.017,1.552-.042a1.709,1.709,0,0,1,.777.244c0-.019-.078-.24-.145-.457C30.381,9.871,30.292,9.635,30.292,9.635Z" transform="translate(2.542 41.722)" fill="#fff"/>
      <path id="Path_2898" data-name="Path 2898" d="M27.253,12.786a1.822,1.822,0,0,1-.537.063,4.917,4.917,0,0,1-1.574-.124l-.295-.055a6.571,6.571,0,0,1-1.333-.253,8.738,8.738,0,0,1-1.007-.261,5.717,5.717,0,0,0-.647-.253c-.063-.027-.394-.08-.79-.185-.691-.185-1.567-.533-1.567-.533s-1.515-.651-1.9-.8-.87-.506-1.011-.514a13.4,13.4,0,0,1-1.373-.7c-.223-.114-1.043-.484-1.428-.689s-1.946-.984-2.7-1.359c-.5-.248-1.555-.79-2.38-1.262-.428-.242-.79-.495-.99-.619-.594-.366-1.959-1.224-2.195-1.382S3.8,2.745,3.558,2.587A33.953,33.953,0,0,1,0,0,14.066,14.066,0,0,0,2.572,2.016c1.215.847,2.808,1.9,3.044,2.064s2.633,1.7,2.941,1.856c0,0,2.722,1.428,3.158,1.679S14.233,8.9,14.606,9.144s1.915.923,2.18,1.076,2.279,1.083,2.654,1.194,1.125.461,1.734.6,1.489.613,1.91.638A2.173,2.173,0,0,1,24.213,13c.114.152.937.105,1.241.122s1.062.112,1.474.137a.984.984,0,0,1,.634.3c-.059-.145-.082-.2-.169-.415C27.348,13.016,27.253,12.786,27.253,12.786Z" transform="translate(0.246 25.146)" fill="#fff"/>
      <path id="Path_2899" data-name="Path 2899" d="M16.708,8.007s0-.019-.185.042a2.18,2.18,0,0,1-.963.166s-.2,0-.181,0c-.6.021-.573.057-.819-.008-.114-.032-.531-.006-.619-.078a1.742,1.742,0,0,0-.4-.135c-.04-.017-.244-.006-.485-.042a5.871,5.871,0,0,1-.967-.249s-.937-.377-1.178-.463-.537-.348-.623-.333a5.021,5.021,0,0,1-.851-.449c-.139-.072-.642-.295-.883-.43s-1.2-.632-1.672-.876c-.308-.158-.963-.51-1.477-.832-.263-.167-.487-.358-.611-.444C4.426,3.608,3.581,3,3.431,2.884s-1.066-.815-1.217-.925A16.8,16.8,0,0,1,0,0,7.6,7.6,0,0,0,1.6,1.563c.756.628,1.746,1.4,1.894,1.521s1.633,1.23,1.824,1.333c0,0,1.687.942,1.955,1.11s1.561.838,1.793,1.013,1.186.575,1.35.687a12.631,12.631,0,0,0,1.641.716,8.441,8.441,0,0,0,1.066.291c.375.036.918.343,1.178.291s.624,0,.7.135.573-.067.76-.107.651-.08.9-.133.305.177.339.177c0,0-.1-.213-.166-.343C16.795,8.181,16.708,8.007,16.708,8.007Z" transform="translate(4.126 14.604)" fill="#fff"/>
    </g>
    <g id="Group_1411" data-name="Group 1411" transform="translate(42.512 122.458)">
      <g id="Group_1400" data-name="Group 1400" transform="translate(0 70.452)">
        <path id="Path_2900" data-name="Path 2900" d="M7.845,14.395C2.067,12.408-.328,7.458,3.784,3.8c5.534-4.923,9.757.512,11.649,4.383,1-5.673,5.7-11.438,11.811-6.005,3.014,2.686.318,7.688-2.823,11.158,3.65-.375,9.649-.025,10.922,4.145,2.3,7.549-7.558,7.606-11.705,5.06,1.78,3.7.126,11.147-5.039,11.09-5.757-.059-6.208-7.282-5.841-10.871-2.479,2.707-8.445,6.115-12.009.514C-1.838,19.216,2.707,15.343,7.845,14.395Z" fill="#ffd800" stroke="#fff" stroke-width="1"/>
        <path id="Path_2901" data-name="Path 2901" d="M.08,2.964A3.729,3.729,0,1,0,4.5.08,3.728,3.728,0,0,0,.08,2.964Z" transform="translate(13.692 12.678)" fill="#fff"/>
      </g>
      <g id="Group_1401" data-name="Group 1401" transform="translate(27.834 123.518)">
        <path id="Path_2902" data-name="Path 2902" d="M9.638,17.681C2.537,15.242-.4,9.161,4.646,4.668c6.8-6.048,11.988.628,14.313,5.384,1.232-6.97,7-14.05,14.507-7.377,3.7,3.3.394,9.441-3.467,13.7,4.485-.455,11.855-.027,13.418,5.093,2.831,9.277-9.287,9.344-14.381,6.216,2.189,4.55.158,13.692-6.191,13.624-7.071-.074-7.625-8.944-7.174-13.355C12.625,31.285,5.295,35.47.92,28.593-2.259,23.6,3.327,18.846,9.638,17.681Z" fill="#ffd800" stroke="#fff" stroke-width="1"/>
        <path id="Path_2903" data-name="Path 2903" d="M.1,3.64A4.581,4.581,0,1,0,5.524.1,4.578,4.578,0,0,0,.1,3.64Z" transform="translate(16.82 15.575)" fill="#fff"/>
      </g>
      <g id="Group_1402" data-name="Group 1402" transform="translate(1.574 118.177)">
        <path id="Path_2904" data-name="Path 2904" d="M3.552,6.519c-2.616-.9-3.7-3.143-1.839-4.8,2.5-2.229,4.419.234,5.277,1.986.453-2.57,2.578-5.182,5.346-2.719,1.365,1.213.145,3.478-1.277,5.051C12.711,5.87,15.426,6.028,16,7.915c1.043,3.419-3.423,3.444-5.3,2.292.8,1.675.055,5.047-2.283,5.02C5.814,15.2,5.612,11.93,5.776,10.3c-1.123,1.228-3.823,2.772-5.437.234C-.834,8.7,1.226,6.946,3.552,6.519Z" fill="#ffd800" stroke="#fff" stroke-width="1"/>
        <path id="Path_2905" data-name="Path 2905" d="M.036,1.342a1.688,1.688,0,1,0,2-1.306A1.687,1.687,0,0,0,.036,1.342Z" transform="translate(6.199 5.741)" fill="#fff"/>
      </g>
      <g id="Group_1403" data-name="Group 1403" transform="translate(12.621 116.556)">
        <path id="Path_2906" data-name="Path 2906" d="M2.177,4C.574,3.443-.089,2.072,1.05,1.054,2.586-.313,3.759,1.2,4.286,2.27,4.566.7,5.868-.9,7.564.6c.838.746.091,2.134-.784,3.1C7.8,3.6,9.461,3.7,9.815,4.852c.638,2.1-2.1,2.113-3.252,1.407.5,1.026.036,3.094-1.4,3.08-1.6-.019-1.725-2.024-1.622-3.021-.687.752-2.347,1.7-3.335.145C-.51,5.335.751,4.258,2.177,4Z" fill="#f99b1c" stroke="#fff" stroke-width="1"/>
        <path id="Path_2907" data-name="Path 2907" d="M.023.822a1.035,1.035,0,1,0,1.226-.8A1.032,1.032,0,0,0,.023.822Z" transform="translate(3.802 3.52)" fill="#fff"/>
      </g>
      <g id="Group_1404" data-name="Group 1404" transform="translate(7.646 99.893)">
        <path id="Path_2908" data-name="Path 2908" d="M2.179,4C.574,3.446-.091,2.071,1.05,1.055,2.586-.31,3.759,1.2,4.286,2.273,4.564.7,5.866-.9,7.565.6c.838.748.089,2.136-.784,3.1,1.013-.1,2.679-.006,3.033,1.15.638,2.1-2.1,2.113-3.25,1.407.493,1.028.034,3.1-1.4,3.079-1.6-.019-1.721-2.022-1.62-3.021-.687.752-2.344,1.7-3.335.145C-.511,5.338.753,4.261,2.179,4Z" fill="#f99b1c" stroke="#fff" stroke-width="1"/>
        <path id="Path_2909" data-name="Path 2909" d="M.022.822A1.037,1.037,0,1,0,1.25.022,1.037,1.037,0,0,0,.022.822Z" transform="translate(3.801 3.521)" fill="#fff"/>
      </g>
      <g id="Group_1405" data-name="Group 1405" transform="translate(36.017 68.998)">
        <path id="Path_2910" data-name="Path 2910" d="M.016.611A.769.769,0,1,0,.928.017.773.773,0,0,0,.016.611Z" fill="#fff"/>
      </g>
      <g id="Group_1406" data-name="Group 1406" transform="translate(43.885 56.061)">
        <path id="Path_2911" data-name="Path 2911" d="M2.278,4.183C.6,3.606-.094,2.167,1.1,1.1c1.611-1.43,2.837.15,3.385,1.274C4.776.728,6.139-.946,7.915.634c.876.779.093,2.233-.817,3.242,1.06-.107,2.8-.006,3.172,1.2.668,2.195-2.2,2.21-3.4,1.47C7.386,7.625,6.9,9.788,5.4,9.773c-1.67-.021-1.8-2.117-1.7-3.16-.72.786-2.452,1.778-3.488.15C-.534,5.584.786,4.459,2.278,4.183Z" fill="#f99b1c" stroke="#fff" stroke-width="1"/>
        <path id="Path_2912" data-name="Path 2912" d="M.023.86A1.084,1.084,0,1,0,1.306.024,1.086,1.086,0,0,0,.023.86Z" transform="translate(3.978 3.685)" fill="#fff"/>
      </g>
      <g id="Group_1407" data-name="Group 1407" transform="translate(43.21 53.705)">
        <path id="Path_2913" data-name="Path 2913" d="M1.378,2.53C.362,2.183-.059,1.311.666.67,1.637-.2,2.38.759,2.713,1.437c.177-1,1-2.01,2.077-1.053.529.472.055,1.35-.5,1.961.64-.067,1.694,0,1.919.729.407,1.327-1.329,1.338-2.058.889.312.651.023,1.957-.887,1.951C2.256,5.9,2.178,4.632,2.243,4,1.805,4.474.756,5.077.133,4.093-.325,3.377.476,2.7,1.378,2.53Z" fill="#f99b1c" stroke="#fff" stroke-width="1"/>
        <path id="Path_2914" data-name="Path 2914" d="M.014.519A.655.655,0,1,0,.791.014.657.657,0,0,0,.014.519Z" transform="translate(2.406 2.23)" fill="#fff"/>
      </g>
      <g id="Group_1408" data-name="Group 1408" transform="translate(41.689 5.451)">
        <path id="Path_2915" data-name="Path 2915" d="M6.5,11.925C1.712,10.282-.272,6.179,3.134,3.148c4.586-4.078,8.084.426,9.652,3.631.832-4.7,4.72-9.477,9.784-4.973,2.5,2.222.268,6.368-2.338,9.243,3.023-.312,7.994-.021,9.047,3.436,1.91,6.256-6.26,6.3-9.7,4.192,1.477,3.063.107,9.235-4.177,9.19-4.765-.055-5.14-6.035-4.836-9.007C8.514,21.1,3.574,23.923.621,19.283-1.523,15.921,2.241,12.713,6.5,11.925Z" fill="#ffd800" stroke="#fff" stroke-width="1"/>
        <path id="Path_2916" data-name="Path 2916" d="M.067,2.454A3.089,3.089,0,1,0,3.724.068,3.089,3.089,0,0,0,.067,2.454Z" transform="translate(11.368 10.398)" fill="#fff"/>
      </g>
      <g id="Group_1409" data-name="Group 1409" transform="translate(42.876)">
        <path id="Path_2917" data-name="Path 2917" d="M2.787,5.113C.736,4.407-.115,2.65,1.344,1.348,3.31-.4,4.811,1.532,5.483,2.907,5.841.891,7.508-1.156,9.679.773c1.07.952.114,2.73-1,3.964,1.3-.135,3.427-.011,3.88,1.472.819,2.684-2.686,2.7-4.158,1.8.632,1.312.044,3.958-1.793,3.941-2.043-.025-2.2-2.589-2.075-3.863-.88.958-3,2.17-4.266.181C-.653,6.827.961,5.45,2.787,5.113Z" fill="#f99b1c" stroke="#fff" stroke-width="1"/>
        <path id="Path_2918" data-name="Path 2918" d="M.029,1.053A1.325,1.325,0,1,0,1.6.029,1.326,1.326,0,0,0,.029,1.053Z" transform="translate(4.884 4.418)" fill="#fff"/>
      </g>
      <g id="Group_1410" data-name="Group 1410" transform="translate(18.672 107.101)">
        <path id="Path_2919" data-name="Path 2919" d="M1.348,2.471c-.992-.339-1.4-1.19-.7-1.818.952-.847,1.679.088,2,.752C2.825.432,3.632-.56,4.681.375,5.2.834,4.737,1.694,4.2,2.29c.626-.063,1.656,0,1.875.714.394,1.3-1.3,1.306-2.012.87.305.636.021,1.913-.866,1.9-.988-.011-1.068-1.251-1-1.868C1.767,4.375.742,4.959.129,4-.316,3.3.466,2.635,1.348,2.471Z" fill="#f99b1c" stroke="#fff" stroke-width="1"/>
        <path id="Path_2920" data-name="Path 2920" d="M.013.507a.641.641,0,0,0,.5.758A.634.634,0,0,0,1.267.772.641.641,0,0,0,.013.507Z" transform="translate(2.352 2.179)" fill="#fff"/>
      </g>
    </g>
    <g id="Group_1414" data-name="Group 1414" transform="translate(45.725 274.65)">
      <path id="Path_2921" data-name="Path 2921" d="M1.955,7.006A173.351,173.351,0,0,1,70.2,2.526C105.291,7.459,113.091,26.5,114.61,31.35a19.716,19.716,0,0,1-1.163,13.468c-3.324,7-9.426,13.363-21.4,11.606-18.924-2.776-8.582-25.393,7.023-22.151,11.813,2.456,7.134,14.389-4.409,11.891l.272.208C107.09,49,111.3,36.007,98.858,33.42,82.418,30,72.2,53.7,92.128,56.629c12.71,1.866,19.762-5.946,22.48-13.511a20.322,20.322,0,0,0,.714-11.67c-1.6-5.112-9.106-24.742-46.065-29.936C30.2-3.981,0,7.259,0,7.259Z" transform="translate(195.412 60.433)" opacity="0.8" fill="url(#linear-gradient-2)"/>
      <path id="Path_2922" data-name="Path 2922" d="M.5,33.3A46.552,46.552,0,0,0,17.384,21.655c7.486-8.074,6.2-15.033,5.763-16.721a7.015,7.015,0,0,0-2.49-3.655c-1.94-1.386-4.428-2.06-6.97.714-4.019,4.39,2.146,8.942,5.3,5.047,2.391-2.949-.678-5.5-3-2.591l.029-.107C18.463,1.28,21.6,4.221,19.08,7.328c-3.326,4.1-9.641-.784-5.409-5.407,2.7-2.947,5.652-2.035,7.539-.371A7.315,7.315,0,0,1,23.3,4.772c.461,1.776,1.913,8.849-5.974,17.355C8.992,31.113,0,33.605,0,33.605Z" transform="translate(184.562 38.668)" fill="url(#linear-gradient-2)"/>
      <path id="Path_2923" data-name="Path 2923" d="M0,45.768s13.011-.444,33.353-7.61c17.953-6.33,46.8-19.221,54.327-22.52a198.062,198.062,0,0,1,45.469-12.8A263.942,263.942,0,0,1,170.338,0a88.227,88.227,0,0,1,14.924,1.135A98.7,98.7,0,0,0,174.546.145a215.009,215.009,0,0,0-24.969.891c-6.823.548-14.7,1.721-14.7,1.721A196.159,196.159,0,0,0,85.447,17C78.024,20.373,52.732,31.6,36.61,37.755A156.711,156.711,0,0,1,1.925,46.532Z" transform="translate(152.279 33.776)" opacity="0.8" fill="url(#linear-gradient-2)"/>
      <path id="Path_2924" data-name="Path 2924" d="M1.493,9.279s14.9-1.786,34.042,2.892c14.629,3.57,38.663,9.5,46.131,11.564A174.4,174.4,0,0,0,127.75,28.2c20.209-.925,39.794-5.847,46.794-8.316C194.614,12.809,204.141,0,204.141,0c-3.766,4-11.135,11.257-26.438,17.468-18.025,7.314-45.551,8.845-45.551,8.845-18.536,1.4-39.86-2.93-47.327-5s-32.494-9.277-48.3-12.683C18.631,4.771,0,6.54,0,6.54Z" transform="translate(5.927 54.581)" fill="url(#linear-gradient-2)"/>
      <path id="Path_2925" data-name="Path 2925" d="M.748,4.616A55.21,55.21,0,0,1,27.1.7c14.073,1.39,18.5,10.13,19.446,12.369a11.147,11.147,0,0,1,.518,6.359c-.792,3.377-2.715,6.528-7.522,6.02-7.6-.8-5.194-11.705,1.14-10.6,4.8.843,3.832,6.574-.862,5.706l.12.088c4.946.916,5.651-5.3.6-6.189-6.675-1.171-8.952,10.233-.95,11.082,5.1.539,7.292-3.318,7.808-6.943a11.63,11.63,0,0,0-.565-5.5c-1-2.359-5.352-11.383-20.179-12.849C10.991-1.294,0,4.787,0,4.787Z" transform="translate(195.52 61.679)" fill="url(#linear-gradient-2)"/>
      <path id="Path_2926" data-name="Path 2926" d="M.468,2.172a36.474,36.474,0,0,1,16.5-1.58c8.706,1.182,11.187,6.4,11.7,7.728a6.119,6.119,0,0,1,.126,3.72c-.6,1.951-1.894,3.737-4.864,3.311-4.7-.67-2.865-6.964,1.038-6.149,2.955.621,2.178,3.935-.714,3.307l.072.055c3.044.666,3.678-2.945.562-3.6-4.11-.859-5.881,5.732-.935,6.439,3.157.451,4.638-1.74,5.072-3.84a6.365,6.365,0,0,0-.181-3.225c-.546-1.4-2.972-6.781-12.141-8.03A32.6,32.6,0,0,0,0,2.25Z" transform="translate(83.661 59.482)" fill="url(#linear-gradient-2)"/>
      <path id="Path_2927" data-name="Path 2927" d="M.794,21.685s11.832,5.458,28.39,3.882C44.85,24.078,51,15.1,52.363,12.8a11.508,11.508,0,0,0,1.5-6.519C53.49,2.826,51.835-.392,46.48.153c-8.47.859-7.419,12.017-.3,10.848,5.395-.885,5.173-6.751-.11-5.839l.145-.095c5.563-.961,5.43,5.409-.253,6.34-7.5,1.23-8.339-10.442.579-11.351,5.687-.575,7.53,3.364,7.566,7.077a12,12,0,0,1-1.43,5.639c-1.439,2.422-7.545,11.688-24.049,13.26C11.187,27.69,0,21.514,0,21.514Z" transform="translate(49.916 36.563)" fill="url(#linear-gradient-2)"/>
      <g id="Group_1412" data-name="Group 1412" transform="translate(0 28.426)">
        <path id="Path_2928" data-name="Path 2928" d="M0,28.061S8.259,26.1,19.99,18.833C30.345,12.415,48.077-.793,47.125.037,43.207,3.454,31.217,12.082,22.006,18.155A95.016,95.016,0,0,1,1.371,28.31Z" transform="translate(97.152)" fill="url(#linear-gradient-2)"/>
        <path id="Path_2929" data-name="Path 2929" d="M1.456,32.047A67.943,67.943,0,0,1,23.8,29.555c10.024.444,26.509,1.207,31.67,1.59a113.59,113.59,0,0,0,30.351-3.012A115.794,115.794,0,0,0,114.3,16.723C125.871,9.546,129.644,0,129.644,0c-1.685,3.08-5.083,8.744-13.763,14.745C105.662,21.812,88.3,26.339,88.3,26.339c-11.625,3.292-26.08,3.217-31.242,2.831S34.541,27.316,23.79,27.126A87.677,87.677,0,0,0,0,30.459Z" transform="translate(0 4.421)" fill="url(#linear-gradient-2)"/>
      </g>
      <path id="Path_2930" data-name="Path 2930" d="M.533,0A124.944,124.944,0,0,0,40.692,5.54c16.917-.516,44.565-1.982,53.271-2.5,4.9-.291,27.925-1.4,50.965,4.318,21.637,5.376,41.423,14.772,48.285,18.869a71.325,71.325,0,0,1,15.234,12.287,64.367,64.367,0,0,1,10.993,14.85c-1.765-3.3-8.592-14.975-23.36-24.78C178.7,17.047,149.3,9.443,149.3,9.443c-19.687-5.512-44.25-4.822-52.955-4.308S58.371,7.678,40.224,7.768C19.684,7.87,0,1.961,0,1.961Z" transform="translate(28.898 60.19)" fill="url(#linear-gradient-2)"/>
      <path id="Path_2931" data-name="Path 2931" d="M.752,10.525A56.658,56.658,0,0,1,27.887.589C43.436-.93,50.868,7.643,52.568,9.88a13.344,13.344,0,0,1,2.5,6.818c.181,3.853-.927,7.7-6.25,8.179-8.413.76-9.159-11.638-2.007-11.79,5.411-.116,6.123,6.338.815,6.4l.158.074c5.593-.067,4.451-7-1.251-6.875-7.53.16-6.5,13.083,2.365,12.283,5.649-.512,6.827-5.186,6.273-9.247a13.817,13.817,0,0,0-2.29-5.875C51.087,7.491,43.653-1.406,27.272.19,9.957,1.878,0,10.872,0,10.872Z" transform="translate(138.432 21.882)" fill="url(#linear-gradient-2)"/>
      <path id="Path_2932" data-name="Path 2932" d="M.152,13.509A14.192,14.192,0,0,0,5.013,8.142a6.645,6.645,0,0,0,.164-6.606A3.322,3.322,0,0,0,3.829.317,1.676,1.676,0,0,0,1.342.995C.373,2.876,3.185,4.218,3.891,2.573c.537-1.247-.9-2.02-1.409-.792l0-.044c.541-1.293,2.043-.375,1.479.937C3.212,4.407.305,2.952,1.327.97,1.978-.3,3.174-.128,4.065.38a3.464,3.464,0,0,1,1.15,1.087c.377.638,1.746,3.2-.169,6.856A12.643,12.643,0,0,1,0,13.652Z" transform="translate(142.438 16.161)" fill="url(#linear-gradient-2)"/>
      <g id="Group_1413" data-name="Group 1413" transform="translate(93.573 47.208)">
        <path id="Path_2933" data-name="Path 2933" d="M0,2.644a42.987,42.987,0,0,1,7-.527c3.813-.019,10,.272,11.613.341a66.288,66.288,0,0,0,9.59-.432c2.4-.282,5.508-.8,7.676-1.255A31.1,31.1,0,0,0,38.906,0c-.746.221-1.426.4-2.174.575-1.769.409-3.587.714-5.131.961-1.409.228-3.046.426-3.046.426a65.269,65.269,0,0,1-10.433.43c-1.592-.082-7.014-.326-10.452-.364a53.581,53.581,0,0,0-7.29.447Z" transform="translate(29.566)" opacity="0.8" fill="url(#linear-gradient-14)"/>
        <path id="Path_2934" data-name="Path 2934" d="M.244,8.641A38.026,38.026,0,0,0,7.153,6.846c2.917-1.045,7.709-2.77,9.194-3.335a62.775,62.775,0,0,1,9.34-2.494A66.188,66.188,0,0,1,35.447,0a15.588,15.588,0,0,1,6.494,1.083A17.26,17.26,0,0,0,36.15.15a61.022,61.022,0,0,0-9.521.9,57.87,57.87,0,0,0-9.582,2.612c-1.485.562-6.454,2.481-9.616,3.56A49.851,49.851,0,0,1,0,9.028Z" transform="translate(0 2.039)" fill="url(#linear-gradient-15)"/>
      </g>
      <path id="Path_2935" data-name="Path 2935" d="M.712,1.428a51.154,51.154,0,0,1,16.3,3.252c7,2.545,18.507,6.751,22.079,8.171A86.056,86.056,0,0,0,61.145,17.53a84.7,84.7,0,0,0,22.393-1.563C93.146,13.574,97.7,7.8,97.7,7.8c-1.8,1.761-5.325,4.929-12.653,7.153-8.624,2.622-21.8,1.889-21.8,1.889-8.872-.31-19.078-3.591-22.65-5.007S25.047,5.523,17.481,3A65.791,65.791,0,0,0,0,0Z" transform="translate(45.665 62.08)" fill="url(#linear-gradient-2)"/>
      <path id="Path_2936" data-name="Path 2936" d="M0,2.644a42.987,42.987,0,0,1,7-.527c3.813-.019,10,.272,11.613.341a66.288,66.288,0,0,0,9.59-.432c2.4-.282,5.508-.8,7.676-1.255A31.1,31.1,0,0,0,38.906,0c-.746.221-1.426.4-2.174.575-1.769.409-3.587.714-5.131.961-1.409.228-3.046.426-3.046.426a65.269,65.269,0,0,1-10.433.43c-1.592-.082-7.014-.326-10.452-.364a53.581,53.581,0,0,0-7.29.447Z" transform="translate(123.139 47.208)" opacity="0.8" fill="url(#linear-gradient-14)"/>
      <path id="Path_2937" data-name="Path 2937" d="M.244,8.641A38.026,38.026,0,0,0,7.153,6.846c2.917-1.045,7.709-2.77,9.194-3.335a62.775,62.775,0,0,1,9.34-2.494A66.188,66.188,0,0,1,35.447,0a15.588,15.588,0,0,1,6.494,1.083A17.26,17.26,0,0,0,36.15.15a61.022,61.022,0,0,0-9.521.9,57.87,57.87,0,0,0-9.582,2.612c-1.485.562-6.454,2.481-9.616,3.56A49.851,49.851,0,0,1,0,9.028Z" transform="translate(93.573 49.247)" fill="url(#linear-gradient-15)"/>
      <path id="Path_2938" data-name="Path 2938" d="M1.329,61.623s21.9,1.182,45.8-11.082c22.615-11.6,25.344-28.839,25.73-33.128a18.917,18.917,0,0,0-2.5-10.745c-3.1-5-7.962-8.879-15.67-4.855C42.505,8.168,52.26,24.4,62.186,18.384c7.512-4.56,2.882-13.292-4.449-8.761l.152-.227c7.72-4.775,12.179,4.929,4.266,9.727-10.456,6.342-20.268-10.8-7.438-17.5,8.183-4.265,13.86.59,16.63,6.18a19.7,19.7,0,0,1,1.967,9.374c-.407,4.52-2.858,22.17-26.682,34.394C21.454,64.5,0,61.84,0,61.84Z" transform="translate(32.121)" fill="url(#linear-gradient-2)"/>
      <path id="Path_2939" data-name="Path 2939" d="M.284,3.322A22.589,22.589,0,0,1,10.574.175c5.793-.348,8.333,2.721,8.908,3.52a4.31,4.31,0,0,1,.756,2.4c-.025,1.344-.531,2.669-2.515,2.776-3.13.166-3.1-4.158-.453-4.129,2.007.023,2.113,2.277.145,2.237l.057.027c2.071.042,1.82-2.384-.293-2.408-2.793-.03-2.728,4.478.571,4.306,2.106-.114,2.656-1.727,2.553-3.149A4.513,4.513,0,0,0,19.6,3.688C19,2.848,16.46-.337,10.357.029A20.063,20.063,0,0,0,0,3.433Z" transform="translate(49.931 50.29)" fill="url(#linear-gradient-2)"/>
      <path id="Path_2940" data-name="Path 2940" d="M.543,20.212a39.714,39.714,0,0,0,18.9-1.123c9.772-2.981,12.076-9.6,12.533-11.271a7.593,7.593,0,0,0-.223-4.428c-.87-2.2-2.515-4.078-5.852-3.035C20.63,2,23.333,9.116,27.687,7.443c3.294-1.27,2.085-5.053-1.137-3.783l.082-.078c3.387-1.338,4.461,2.816.988,4.152C23.036,9.5,20.373,2.019,25.926.283,29.465-.822,31.367,1.5,32.064,3.911a7.93,7.93,0,0,1,.11,3.846c-.48,1.759-2.709,8.567-13,11.705C8.3,22.778,0,20.2,0,20.2Z" transform="translate(27.636 35.479)" fill="url(#linear-gradient-2)"/>
      <path id="Path_2941" data-name="Path 2941" d="M1.456,32.047A67.943,67.943,0,0,1,23.8,29.555c10.024.444,26.509,1.207,31.67,1.59a113.59,113.59,0,0,0,30.351-3.012A115.794,115.794,0,0,0,114.3,16.723C125.871,9.546,129.644,0,129.644,0c-1.685,3.08-5.083,8.744-13.763,14.745C105.662,21.812,88.3,26.339,88.3,26.339c-11.625,3.292-26.08,3.217-31.242,2.831S34.541,27.316,23.79,27.126A87.677,87.677,0,0,0,0,30.459Z" transform="translate(0 32.847)" fill="url(#linear-gradient-2)"/>
    </g>
    <g id="Group_1427" data-name="Group 1427" transform="translate(82.513 287.449)">
      <g id="Group_1415" data-name="Group 1415" transform="translate(58.786 12.36)">
        <path id="Path_2942" data-name="Path 2942" d="M18.606,7.547c1.826-5.7,6.623-8.139,10.284-4.192,4.929,5.317-.305,9.557-4.053,11.488,5.571.868,11.307,5.346,6.115,11.431-2.568,3.006-7.516.472-10.974-2.534.44,3.564.221,9.443-3.834,10.77-7.343,2.41-7.6-7.242-5.19-11.349C7.369,24.977.051,23.511,0,18.456c-.057-5.635,7-6.22,10.519-5.936C7.821,10.148,4.365,4.38,9.772.783,13.692-1.833,17.574,2.537,18.606,7.547Z" fill="#ffd800" stroke="#fff" stroke-width="1"/>
        <path id="Path_2943" data-name="Path 2943" d="M4.326.063A3.651,3.651,0,1,0,7.237,4.327,3.651,3.651,0,0,0,4.326.063Z" transform="translate(13.179 13.305)" fill="#fff"/>
      </g>
      <g id="Group_1416" data-name="Group 1416" transform="translate(0 40.766)">
        <path id="Path_2944" data-name="Path 2944" d="M22.853,9.269c2.243-7,8.135-9.995,12.634-5.148,6.054,6.532-.375,11.745-4.98,14.115C37.354,19.3,44.4,24.8,38.019,32.279c-3.151,3.69-9.23.577-13.479-3.113.537,4.377.267,11.6-4.712,13.23-9.02,2.96-9.329-8.893-6.374-13.942C9.048,30.685.062,28.884,0,22.672c-.074-6.92,8.594-7.642,12.919-7.29C9.606,12.468,5.359,5.382,12,.961,16.818-2.251,21.585,3.118,22.853,9.269Z" fill="#ffd800" stroke="#fff" stroke-width="1"/>
        <path id="Path_2945" data-name="Path 2945" d="M5.317.079A4.482,4.482,0,1,0,8.889,5.315,4.486,4.486,0,0,0,5.317.079Z" transform="translate(16.186 16.346)" fill="#fff"/>
      </g>
      <g id="Group_1417" data-name="Group 1417" transform="translate(44.557)">
        <path id="Path_2946" data-name="Path 2946" d="M8.426,3.416c.828-2.578,3-3.682,4.655-1.9,2.233,2.408-.137,4.329-1.835,5.2,2.521.394,5.123,2.42,2.77,5.178-1.161,1.359-3.4.213-4.969-1.15.2,1.618.1,4.278-1.738,4.879-3.324,1.089-3.438-3.278-2.349-5.14C3.337,11.31.025,10.647,0,8.357-.025,5.806,3.17,5.539,4.765,5.67,3.543,4.6,1.976,1.985,4.426.355,6.2-.831,7.958,1.149,8.426,3.416Z" fill="#f99b1c" stroke="#fff" stroke-width="1"/>
        <path id="Path_2947" data-name="Path 2947" d="M1.958.029A1.653,1.653,0,1,0,3.277,1.96,1.653,1.653,0,0,0,1.958.029Z" transform="translate(5.968 6.024)" fill="#fff"/>
      </g>
      <g id="Group_1418" data-name="Group 1418" transform="translate(74.715 35.709)">
        <path id="Path_2948" data-name="Path 2948" d="M7.644,3.1C8.394.763,10.364-.242,11.87,1.38c2.024,2.184-.126,3.926-1.664,4.718,2.285.356,4.643,2.2,2.511,4.7-1.053,1.232-3.086.19-4.51-1.043.181,1.464.091,3.88-1.573,4.423C3.617,15.17,3.512,11.2,4.5,9.517,3.027,10.265.021,9.66,0,7.583-.023,5.27,2.878,5.026,4.32,5.144,3.215,4.171,1.795,1.8,4.015.322,5.626-.754,7.221,1.043,7.644,3.1Z" fill="#f99b1c" stroke="#fff" stroke-width="1"/>
        <path id="Path_2949" data-name="Path 2949" d="M1.773.026a1.5,1.5,0,1,0,1.2,1.753A1.494,1.494,0,0,0,1.773.026Z" transform="translate(5.416 5.467)" fill="#fff"/>
      </g>
      <g id="Group_1419" data-name="Group 1419" transform="translate(96.835 54.708)">
        <path id="Path_2950" data-name="Path 2950" d="M5.405,2.192C5.936.536,7.328-.171,8.394.975,9.827,2.519,8.3,3.753,7.217,4.313c1.618.253,3.286,1.552,1.776,3.322-.746.872-2.182.137-3.187-.737.126,1.036.061,2.743-1.116,3.13-2.132.7-2.205-2.1-1.506-3.3C2.14,7.256.015,6.832,0,5.362-.015,3.728,2.033,3.555,3.056,3.637,2.273,2.948,1.268,1.274,2.84.227,3.977-.532,5.106.737,5.405,2.192Z" fill="#f99b1c" stroke="#fff" stroke-width="1"/>
        <path id="Path_2951" data-name="Path 2951" d="M1.255.018A1.062,1.062,0,1,0,2.1,1.259,1.058,1.058,0,0,0,1.255.018Z" transform="translate(3.83 3.865)" fill="#fff"/>
      </g>
      <g id="Group_1420" data-name="Group 1420" transform="translate(128.81 51.759)">
        <path id="Path_2952" data-name="Path 2952" d="M15.413,6.253C16.925,1.534,20.9-.49,23.933,2.781c4.084,4.4-.251,7.918-3.356,9.519,4.615.718,9.367,4.426,5.064,9.47-2.123,2.49-6.224.39-9.089-2.1.362,2.949.179,7.817-3.179,8.919-6.085,2-6.294-5.995-4.3-9.4C6.1,20.7.042,19.481,0,15.289c-.044-4.664,5.8-5.152,8.712-4.916C6.482,8.408,3.615,3.632,8.1.648,11.343-1.518,14.558,2.1,15.413,6.253Z" fill="#ffd800" stroke="#fff" stroke-width="1"/>
        <path id="Path_2953" data-name="Path 2953" d="M3.585.052A3.025,3.025,0,1,0,6,3.585,3.029,3.029,0,0,0,3.585.052Z" transform="translate(11.023 11.045)" fill="#fff"/>
      </g>
      <g id="Group_1421" data-name="Group 1421" transform="translate(149.56 52.611)">
        <path id="Path_2954" data-name="Path 2954" d="M6.612,2.681C7.259.657,8.965-.211,10.265,1.192c1.753,1.889-.107,3.4-1.439,4.082,1.98.31,4.017,1.9,2.172,4.061-.91,1.066-2.669.169-3.9-.9.156,1.266.078,3.355-1.363,3.827-2.61.857-2.7-2.572-1.843-4.032C2.618,8.874.019,8.354,0,6.557c-.017-2,2.488-2.212,3.739-2.108-.958-.843-2.186-2.89-.263-4.171C4.866-.651,6.246.9,6.612,2.681Z" fill="#f99b1c" stroke="#fff" stroke-width="1"/>
        <path id="Path_2955" data-name="Path 2955" d="M1.535.023A1.3,1.3,0,1,0,2.569,1.535,1.295,1.295,0,0,0,1.535.023Z" transform="translate(4.77 4.746)" fill="#fff"/>
      </g>
      <g id="Group_1422" data-name="Group 1422" transform="translate(167.421 31.683)">
        <path id="Path_2956" data-name="Path 2956" d="M4.927,2C5.409.489,6.677-.157,7.649.89c1.3,1.409-.08,2.53-1.072,3.042,1.472.23,2.993,1.416,1.62,3.027-.68.794-1.993.124-2.907-.672.116.944.057,2.5-1.017,2.852-1.942.64-2.01-1.917-1.371-3-.95.478-2.89.093-2.9-1.247C-.017,3.4,1.854,3.241,2.783,3.316,2.071,2.689,1.154,1.161,2.589.207,3.623-.486,4.651.673,4.927,2Z" fill="#f99b1c" stroke="#fff" stroke-width="1"/>
        <path id="Path_2957" data-name="Path 2957" d="M1.146.016a.967.967,0,1,0,.771,1.131A.971.971,0,0,0,1.146.016Z" transform="translate(3.488 3.523)" fill="#fff"/>
      </g>
      <g id="Group_1423" data-name="Group 1423" transform="translate(212.104 26.3)">
        <path id="Path_2958" data-name="Path 2958" d="M4.944,2C5.428.492,6.7-.157,7.674.892,8.984,2.3,7.594,3.431,6.6,3.943c1.481.234,3.006,1.422,1.626,3.04-.682.8-2,.126-2.915-.674.116.948.057,2.509-1.02,2.861-1.953.64-2.018-1.923-1.378-3.014C1.959,6.637.013,6.249,0,4.9c-.013-1.5,1.86-1.654,2.8-1.576C2.079,2.7,1.159,1.166,2.6.208,3.636-.487,4.668.675,4.944,2Z" fill="#f99b1c" stroke="#fff" stroke-width="1"/>
        <path id="Path_2959" data-name="Path 2959" d="M1.146.017A.97.97,0,1,0,1.921,1.15.967.967,0,0,0,1.146.017Z" transform="translate(3.503 3.536)" fill="#fff"/>
      </g>
      <g id="Group_1424" data-name="Group 1424" transform="translate(195.421 34.374)">
        <path id="Path_2960" data-name="Path 2960" d="M10.406,4.221c1.022-3.187,3.705-4.552,5.755-2.344,2.755,2.974-.171,5.346-2.269,6.425,3.117.489,6.326,2.993,3.419,6.4-1.432,1.681-4.2.261-6.138-1.42.246,1.995.124,5.281-2.144,6.024-4.107,1.348-4.247-4.048-2.9-6.347-2.007,1.015-6.1.2-6.128-2.635C-.031,7.174,3.914,6.842,5.883,7,4.375,5.677,2.442,2.452,5.466.438,7.657-1.026,9.831,1.42,10.406,4.221Z" fill="#ffd800" stroke="#fff" stroke-width="1"/>
        <path id="Path_2961" data-name="Path 2961" d="M2.419.036A2.041,2.041,0,1,0,4.047,2.419,2.037,2.037,0,0,0,2.419.036Z" transform="translate(7.372 7.444)" fill="#fff"/>
      </g>
      <g id="Group_1425" data-name="Group 1425" transform="translate(179.092 37.287)">
        <path id="Path_2962" data-name="Path 2962" d="M6.2,2.511C6.8.618,8.4-.2,9.618,1.117c1.639,1.77-.1,3.183-1.35,3.825,1.854.286,3.764,1.778,2.035,3.8-.853,1-2.5.158-3.653-.84.147,1.184.074,3.141-1.276,3.583-2.441.8-2.528-2.412-1.725-3.781C2.454,8.314.019,7.826,0,6.143-.015,4.268,2.332,4.072,3.5,4.169c-.9-.79-2.05-2.711-.249-3.909C4.56-.608,5.85.843,6.2,2.511Z" fill="#f99b1c" stroke="#fff" stroke-width="1"/>
        <path id="Path_2963" data-name="Path 2963" d="M1.441.021a1.214,1.214,0,1,0,.971,1.42A1.216,1.216,0,0,0,1.441.021Z" transform="translate(4.388 4.43)" fill="#fff"/>
      </g>
      <g id="Group_1426" data-name="Group 1426" transform="translate(52.512 33.309)">
        <path id="Path_2964" data-name="Path 2964" d="M.741.011a.622.622,0,0,0-.729.5.626.626,0,1,0,.729-.5Z" fill="#fff"/>
      </g>
    </g>
  </g>
</svg>
