<?xml version="1.0" encoding="UTF-8"?>
<svg xmlns="http://www.w3.org/2000/svg" xmlns:xlink="http://www.w3.org/1999/xlink" width="1000pt" height="610pt" viewBox="0 0 1000 610" version="1.1">
<defs>
<linearGradient id="linear0" gradientUnits="userSpaceOnUse" x1="0" y1="0.5" x2="1" y2="0.5" gradientTransform="matrix(0.000000000000044693,609.985928,-999.220997,0.000000000000051134,999.225678,0.457331)">
<stop offset="0" style="stop-color:rgb(98.039216%,59.215686%,13.333333%);stop-opacity:1;"/>
<stop offset="0.069" style="stop-color:rgb(98.039216%,59.607843%,14.901961%);stop-opacity:1;"/>
<stop offset="0.14" style="stop-color:rgb(98.039216%,61.960784%,19.607843%);stop-opacity:1;"/>
<stop offset="0.211" style="stop-color:rgb(98.431373%,65.490196%,27.45098%);stop-opacity:1;"/>
<stop offset="0.282" style="stop-color:rgb(98.823529%,70.588235%,38.823529%);stop-opacity:1;"/>
<stop offset="0.354" style="stop-color:rgb(99.215686%,77.254902%,52.941176%);stop-opacity:1;"/>
<stop offset="0.409" style="stop-color:rgb(100%,83.529412%,66.666667%);stop-opacity:1;"/>
<stop offset="1" style="stop-color:rgb(94.117647%,59.607843%,0%);stop-opacity:1;"/>
</linearGradient>
</defs>
<g id="surface1">
<path style=" stroke:none;fill-rule:nonzero;fill:url(#linear0);" d="M 521.597656 596.40625 C 568.394531 595.378906 745.160156 592.785156 872.417969 607.179688 C 999.679688 621.570312 1009.460938 590.296875 993.550781 519.527344 C 986.359375 455.753906 986.640625 406.171875 989.339844 296.722656 C 992.039062 187.269531 1003.28125 156.53125 995.671875 81.730469 C 991.429688 40.003906 989.425781 4.363281 916.082031 1.828125 C 842.730469 -0.703125 774.910156 1.109375 688.742188 5.90625 C 602.574219 10.707031 552.765625 2.796875 438.996094 1.828125 C 325.21875 0.855469 326.667969 29.175781 165.636719 5.90625 C 4.601562 -17.359375 -3.789062 32.726562 0.875 75.464844 C 8.160156 142.289062 9.25 189.417969 7.445312 308.027344 C 5.640625 426.640625 -8.628906 535.492188 13.335938 579.492188 C 35.296875 623.496094 106.492188 599.195312 215.792969 596.40625 C 325.101562 593.621094 328.875 600.660156 521.597656 596.40625 Z M 521.597656 596.40625 "/>
</g>
</svg>
