<svg xmlns="http://www.w3.org/2000/svg" width="22.636" height="22.636" viewBox="0 0 22.636 22.636">
  <path id="Icon_metro-instagram" data-name="Icon metro-instagram" d="M21.449,1.928H6.329A3.769,3.769,0,0,0,2.571,5.686v15.12a3.769,3.769,0,0,0,3.758,3.758h15.12a3.769,3.769,0,0,0,3.758-3.758V5.686a3.769,3.769,0,0,0-3.758-3.758Zm-11.632,9.9H17.96a4.311,4.311,0,1,1-8.144,0Zm12.56,0V20.32a1.419,1.419,0,0,1-1.415,1.415H6.815A1.419,1.419,0,0,1,5.4,20.32V11.831H7.613a6.433,6.433,0,1,0,12.551,0h2.213Zm0-4.953a.709.709,0,0,1-.707.707H20.255a.709.709,0,0,1-.707-.707V5.465a.709.709,0,0,1,.707-.707H21.67a.709.709,0,0,1,.707.707Z" transform="translate(-2.571 -1.928)" fill="#f7b757"/>
</svg>
