<svg xmlns="http://www.w3.org/2000/svg" width="22.636" height="22.636" viewBox="0 0 22.636 22.636">
  <path id="Icon_awesome-linkedin" data-name="Icon awesome-linkedin" d="M21.019,2.25H1.612A1.624,1.624,0,0,0,0,3.882V23.254a1.624,1.624,0,0,0,1.612,1.632H21.019a1.628,1.628,0,0,0,1.617-1.632V3.882A1.628,1.628,0,0,0,21.019,2.25ZM6.841,21.652H3.486V10.85h3.36v10.8ZM5.164,9.374A1.945,1.945,0,1,1,7.109,7.429,1.946,1.946,0,0,1,5.164,9.374ZM19.418,21.652H16.063V16.4c0-1.253-.025-2.865-1.743-2.865-1.748,0-2.016,1.364-2.016,2.774v5.346H8.948V10.85h3.219v1.475h.045a3.534,3.534,0,0,1,3.178-1.743c3.4,0,4.027,2.238,4.027,5.149Z" transform="translate(0 -2.25)" fill="#f7b757"/>
</svg>
