<svg xmlns="http://www.w3.org/2000/svg" width="23.761" height="23.761" viewBox="0 0 23.761 23.761">
  <path id="Icon_awesome-medal" data-name="Icon awesome-medal" d="M10.384,6.068,7.176.721A1.485,1.485,0,0,0,5.9,0H.744A.743.743,0,0,0,.136,1.169L5.3,8.546A9.6,9.6,0,0,1,10.384,6.068ZM23.017,0H17.859a1.485,1.485,0,0,0-1.273.721L13.377,6.068a9.607,9.607,0,0,1,5.084,2.477l5.164-7.377A.743.743,0,0,0,23.017,0ZM11.88,7.425a8.168,8.168,0,1,0,8.168,8.168A8.168,8.168,0,0,0,11.88,7.425Zm4.294,7.3-1.76,1.715.416,2.423a.533.533,0,0,1-.773.561L11.88,18.279,9.7,19.423a.533.533,0,0,1-.773-.561l.416-2.423-1.76-1.715a.533.533,0,0,1,.295-.909l2.433-.355L11.4,11.254a.534.534,0,0,1,.956,0l1.087,2.205,2.433.355A.533.533,0,0,1,16.174,14.723Z" fill="#fff"/>
</svg>
