<svg xmlns="http://www.w3.org/2000/svg" width="29.942" height="20.959" viewBox="0 0 29.942 20.959">
  <path id="Icon_awesome-user-friends" data-name="Icon awesome-user-friends" d="M8.982,12.73a5.24,5.24,0,1,0-5.24-5.24A5.237,5.237,0,0,0,8.982,12.73Zm3.593,1.5h-.388a7.234,7.234,0,0,1-6.409,0H5.389A5.391,5.391,0,0,0,0,19.616v1.347a2.246,2.246,0,0,0,2.246,2.246H15.719a2.246,2.246,0,0,0,2.246-2.246V19.616A5.391,5.391,0,0,0,12.575,14.227Zm9.881-1.5a4.491,4.491,0,1,0-4.491-4.491A4.492,4.492,0,0,0,22.456,12.73Zm2.246,1.5h-.178a5.9,5.9,0,0,1-4.136,0h-.178a5.2,5.2,0,0,0-2.606.72,6.847,6.847,0,0,1,1.857,4.669v1.8c0,.1-.023.2-.028.3H27.7a2.246,2.246,0,0,0,2.246-2.246,5.237,5.237,0,0,0-5.24-5.24Z" transform="translate(0 -2.25)" fill="#fff"/>
</svg>
