<svg xmlns="http://www.w3.org/2000/svg" width="30.825" height="20.191" viewBox="0 0 30.825 20.191">
  <path id="Icon_payment-credit-card" data-name="Icon payment-credit-card" d="M34.928,16.35a2.189,2.189,0,0,1,2.118,2.118V34.423a2.189,2.189,0,0,1-2.118,2.118H8.338a1.928,1.928,0,0,1-1.478-.64,1.927,1.927,0,0,1-.64-1.478V18.467a1.927,1.927,0,0,1,.64-1.478,1.93,1.93,0,0,1,1.478-.64h26.59ZM8.338,18.024q-.246,0-.3.148a.426.426,0,0,0-.148.3v2.955H35.371V18.467a.426.426,0,0,0-.148-.3q-.05-.148-.3-.148H8.338Zm26.59,16.842q.246,0,.3-.148a.426.426,0,0,0,.148-.3V26.445H7.895v7.978a.426.426,0,0,0,.148.3q.049.148.3.148h26.59ZM9.569,33.191V31.468h3.4v1.723Zm5.072,0V31.468h5.023v1.723Z" transform="translate(-6.221 -16.35)" fill="#fff"/>
</svg>
