<svg xmlns="http://www.w3.org/2000/svg" xmlns:xlink="http://www.w3.org/1999/xlink" width="466.045" height="79.797" viewBox="0 0 466.045 79.797">
  <defs>
    <linearGradient id="linear-gradient" y1="0.5" x2="1" y2="0.5" gradientUnits="objectBoundingBox">
      <stop offset="0" stop-color="#6b1e75"/>
      <stop offset="1" stop-color="#b6287d"/>
    </linearGradient>
    <linearGradient id="linear-gradient-2" x1="-5.343" y1="-28.134" x2="-5.341" y2="-28.134" gradientUnits="objectBoundingBox">
      <stop offset="0" stop-color="#fa9722"/>
      <stop offset="0.069" stop-color="#fa9826"/>
      <stop offset="0.14" stop-color="#fa9e32"/>
      <stop offset="0.211" stop-color="#fba746"/>
      <stop offset="0.282" stop-color="#fcb463"/>
      <stop offset="0.354" stop-color="#fdc587"/>
      <stop offset="0.409" stop-color="#ffd5aa"/>
      <stop offset="1" stop-color="#f09800"/>
    </linearGradient>
  </defs>
  <g id="Group_498" data-name="Group 498" transform="translate(-0.062 -0.061)">
    <path id="Path_498" data-name="Path 498" d="M2964.693,1864.112h409.86s8.131.609,12.278,5.091,5.881,8.194,6.266,13.4c5.736,25.642,20.115,55.911.042,60.534-28.153,6.482-65.2-30.382-91.726-15.091-25.289,14.577-33.516,11.535-46.268,10.253-18.625-1.872-38.532-7.466-80.763-9.9s-82.37,18.379-108.286,13.128c-24.912-8.281-31.54-16.211-61.706-21.922-28.681-5.43-55.621,25.154-64.608,3.555-8.023-18.29,6.876-38.35,7.648-42.3s2.074-8.1,6.508-11.905S2964.693,1864.112,2964.693,1864.112Z" transform="translate(-2937.354 -1864.051)" fill="url(#linear-gradient)"/>
    <g id="Group_497" data-name="Group 497" transform="translate(9.014 54.495)">
      <path id="Path_499" data-name="Path 499" d="M2964.993,1992.335a29.772,29.772,0,0,0,8.257-.543,46.47,46.47,0,0,0,7.649-2.434c2.464-.981,4.874-2.065,7.356-3.076s5.008-1.991,7.64-2.812a71.932,71.932,0,0,1,8.113-2.043,73.765,73.765,0,0,1,8.444-1.084c1.423-.1,2.834-.18,4.307-.192,1.476.019,2.882.118,4.313.236s2.839.294,4.24.514,2.785.483,4.158.773a100.136,100.136,0,0,1,15.648,4.971c4.967,2.016,9.788,4.2,14.593,6.389s9.621,4.369,14.619,6.255a78.412,78.412,0,0,0,7.652,2.5,42.245,42.245,0,0,0,7.982,1.372,37.915,37.915,0,0,0,4.081,0c1.388-.052,2.774-.131,4.157-.23q4.146-.314,8.249-.879c5.465-.763,10.835-1.9,16.152-3.189,10.608-2.623,21.2-5.661,32.277-7.518a171.225,171.225,0,0,1,33.734-2.354c5.648.154,11.272.549,16.856,1.121,2.792.29,5.57.638,8.338,1.025s5.522.816,8.266,1.279l-.045.171c-5.547-.672-11.1-1.277-16.686-1.666-5.576-.421-11.172-.663-16.761-.666a181.336,181.336,0,0,0-33.164,2.825c-5.423.968-10.76,2.2-16.083,3.5-2.661.655-5.315,1.335-7.979,2.012s-5.343,1.331-8.041,1.958c-5.392,1.258-10.884,2.363-16.484,3.092-2.8.362-5.621.642-8.454.8-1.417.078-2.836.137-4.255.167-.718.006-1.4.038-2.149.02s-1.465-.05-2.19-.111a40.365,40.365,0,0,1-8.325-1.691c-2.646-.806-5.176-1.772-7.65-2.795-4.935-2.068-9.657-4.363-14.461-6.547s-9.656-4.314-14.728-6.1a102.9,102.9,0,0,0-15.651-4.327,80.974,80.974,0,0,0-8.134-1.132c-1.361-.112-2.758-.187-4.09-.226-1.336,0-2.731.07-4.106.155a73.16,73.16,0,0,0-16.081,2.838c-2.579.76-5.1,1.641-7.594,2.594s-4.972,1.951-7.524,2.872a45.142,45.142,0,0,1-8.005,2.188,29.936,29.936,0,0,1-4.236.4,28.843,28.843,0,0,1-4.235-.24Z" transform="translate(-2964.962 -1980.149)" fill="url(#linear-gradient-2)"/>
    </g>
  </g>
</svg>
