<svg xmlns="http://www.w3.org/2000/svg" width="33.506" height="38.293" viewBox="0 0 33.506 38.293">
  <path id="Icon_awesome-trash-alt" data-name="Icon awesome-trash-alt" d="M2.393,34.7a3.59,3.59,0,0,0,3.59,3.59h21.54a3.59,3.59,0,0,0,3.59-3.59V9.573H2.393ZM22.736,15.557a1.2,1.2,0,1,1,2.393,0V32.31a1.2,1.2,0,1,1-2.393,0Zm-7.18,0a1.2,1.2,0,1,1,2.393,0V32.31a1.2,1.2,0,1,1-2.393,0Zm-7.18,0a1.2,1.2,0,1,1,2.393,0V32.31a1.2,1.2,0,1,1-2.393,0ZM32.31,2.393H23.335l-.7-1.4A1.8,1.8,0,0,0,21.024,0H12.475a1.774,1.774,0,0,0-1.6.995l-.7,1.4H1.2A1.2,1.2,0,0,0,0,3.59V5.983a1.2,1.2,0,0,0,1.2,1.2H32.31a1.2,1.2,0,0,0,1.2-1.2V3.59A1.2,1.2,0,0,0,32.31,2.393Z" fill="#fff"/>
</svg>
