<svg xmlns="http://www.w3.org/2000/svg" width="27.552" height="27.552" viewBox="0 0 27.552 27.552">
  <path id="iconfinder_search_1608826" d="M83.074,139.657A7.434,7.434,0,1,0,80.9,144.9,7.144,7.144,0,0,0,83.074,139.657Zm8.477,13.776a2.149,2.149,0,0,1-2.119,2.119,1.968,1.968,0,0,1-1.49-.629l-5.679-5.663a11.338,11.338,0,0,1-6.606,2.053,11.454,11.454,0,0,1-4.528-.919,11.415,11.415,0,0,1-6.209-6.209,11.618,11.618,0,0,1,0-9.057,11.415,11.415,0,0,1,6.209-6.209,11.618,11.618,0,0,1,9.057,0,11.415,11.415,0,0,1,6.209,6.209,11.454,11.454,0,0,1,.919,4.528,11.338,11.338,0,0,1-2.053,6.606l5.679,5.679A2.028,2.028,0,0,1,91.552,153.432Z" transform="translate(-64 -128)" fill="#fff"/>
</svg>
