<svg xmlns="http://www.w3.org/2000/svg" width="113.522" height="21.922" viewBox="0 0 113.522 21.922">
  <g id="Group_1613" data-name="Group 1613" transform="translate(0 0.469)">
    <path id="Polygon_8" data-name="Polygon 8" d="M9.508,3.837a2,2,0,0,1,3.618,0l1.117,2.37A2,2,0,0,0,15.8,7.339l2.595.325a2,2,0,0,1,1.117,3.446l-1.9,1.775a2,2,0,0,0-.6,1.838l.491,2.555a2,2,0,0,1-2.926,2.131l-2.3-1.264a2,2,0,0,0-1.924,0l-2.3,1.264a2,2,0,0,1-2.926-2.131l.491-2.555a2,2,0,0,0-.6-1.838l-1.9-1.775A2,2,0,0,1,4.236,7.664l2.595-.325a2,2,0,0,0,1.56-1.132Z" transform="translate(0)" fill="#fbb05b"/>
    <path id="Polygon_9" data-name="Polygon 9" d="M9.508,3.837a2,2,0,0,1,3.618,0l1.117,2.37A2,2,0,0,0,15.8,7.339l2.595.325a2,2,0,0,1,1.117,3.446l-1.9,1.775a2,2,0,0,0-.6,1.838l.491,2.555a2,2,0,0,1-2.926,2.131l-2.3-1.264a2,2,0,0,0-1.924,0l-2.3,1.264a2,2,0,0,1-2.926-2.131l.491-2.555a2,2,0,0,0-.6-1.838l-1.9-1.775A2,2,0,0,1,4.236,7.664l2.595-.325a2,2,0,0,0,1.56-1.132Z" transform="translate(22.546)" fill="#fbb05b"/>
    <path id="Polygon_10" data-name="Polygon 10" d="M9.508,3.837a2,2,0,0,1,3.618,0l1.117,2.37A2,2,0,0,0,15.8,7.339l2.595.325a2,2,0,0,1,1.117,3.446l-1.9,1.775a2,2,0,0,0-.6,1.838l.491,2.555a2,2,0,0,1-2.926,2.131l-2.3-1.264a2,2,0,0,0-1.924,0l-2.3,1.264a2,2,0,0,1-2.926-2.131l.491-2.555a2,2,0,0,0-.6-1.838l-1.9-1.775A2,2,0,0,1,4.236,7.664l2.595-.325a2,2,0,0,0,1.56-1.132Z" transform="translate(45.092)" fill="#fbb05b"/>
    <path id="Polygon_11" data-name="Polygon 11" d="M9.508,3.837a2,2,0,0,1,3.618,0l1.117,2.37A2,2,0,0,0,15.8,7.339l2.595.325a2,2,0,0,1,1.117,3.446l-1.9,1.775a2,2,0,0,0-.6,1.838l.491,2.555a2,2,0,0,1-2.926,2.131l-2.3-1.264a2,2,0,0,0-1.924,0l-2.3,1.264a2,2,0,0,1-2.926-2.131l.491-2.555a2,2,0,0,0-.6-1.838l-1.9-1.775A2,2,0,0,1,4.236,7.664l2.595-.325a2,2,0,0,0,1.56-1.132Z" transform="translate(67.638)" fill="#fbb05b"/>
    <path id="Polygon_12" data-name="Polygon 12" d="M9.7,3.671a2,2,0,0,1,3.593,0l1.176,2.4A2,2,0,0,0,16.029,7.18l2.6.314a2,2,0,0,1,1.1,3.472l-1.8,1.622a2,2,0,0,0-.623,1.877l.48,2.41a2,2,0,0,1-2.9,2.159l-2.455-1.3a2,2,0,0,0-1.869,0l-2.455,1.3a2,2,0,0,1-2.9-2.159l.48-2.41a2,2,0,0,0-.623-1.877l-1.8-1.622a2,2,0,0,1,1.1-3.472l2.6-.314A2,2,0,0,0,8.528,6.074Z" transform="translate(90.522 -0.469)" fill="#fbb05b"/>
  </g>
</svg>
