<svg xmlns="http://www.w3.org/2000/svg" width="22.261" height="22.261" viewBox="0 0 22.261 22.261">
  <path id="Icon_awesome-twitter-square" data-name="Icon awesome-twitter-square" d="M19.876,2.25H2.385A2.386,2.386,0,0,0,0,4.635V22.126a2.386,2.386,0,0,0,2.385,2.385H19.876a2.386,2.386,0,0,0,2.385-2.385V4.635A2.386,2.386,0,0,0,19.876,2.25Zm-2.43,7.891c.01.139.01.283.01.422a9.209,9.209,0,0,1-9.272,9.272,9.229,9.229,0,0,1-5-1.461,6.866,6.866,0,0,0,.785.04A6.534,6.534,0,0,0,8.01,17.023a3.263,3.263,0,0,1-3.046-2.261,3.512,3.512,0,0,0,1.471-.06,3.259,3.259,0,0,1-2.609-3.2v-.04a3.257,3.257,0,0,0,1.471.412A3.252,3.252,0,0,1,3.846,9.162a3.218,3.218,0,0,1,.442-1.645,9.253,9.253,0,0,0,6.718,3.409,3.266,3.266,0,0,1,5.56-2.976,6.386,6.386,0,0,0,2.067-.785A3.25,3.25,0,0,1,17.2,8.958a6.485,6.485,0,0,0,1.878-.507A6.86,6.86,0,0,1,17.446,10.141Z" transform="translate(0 -2.25)" fill="#f7b757"/>
</svg>
